<svg width="104" height="104" viewBox="0 0 104 104" fill="none" xmlns="http://www.w3.org/2000/svg">
<path d="M33.1406 20.1859H33.3906V19.9359V12.2429V11.9929H33.1406H25.4477H25.1977V12.2429V19.9359V20.1859H25.4477H33.1406ZM23.3801 8.35791H35.208C36.2119 8.35791 37.0254 9.1716 37.0254 10.1753V22.0033C37.0254 23.007 36.2119 23.8207 35.208 23.8207H23.3801C22.3763 23.8207 21.5627 23.0071 21.5627 22.0033V10.1753C21.5627 9.1716 22.3762 8.35791 23.3801 8.35791Z" fill="#1E3859" stroke="white" stroke-width="0.5"/>
<path d="M54.3163 20.1859H54.5663V19.9359V12.2429V11.9929H54.3163H46.6234H46.3734V12.2429V19.9359V20.1859H46.6234H54.3163ZM44.556 8.35791H56.3839C57.3876 8.35791 58.2013 9.17162 58.2013 10.1753V22.0033C58.2013 23.007 57.3878 23.8207 56.3839 23.8207H44.556C43.5523 23.8207 42.7386 23.0071 42.7386 22.0033V10.1753C42.7386 9.1716 43.5521 8.35791 44.556 8.35791Z" fill="#1E3859" stroke="white" stroke-width="0.5"/>
<path d="M33.1406 41.1707H33.3906V40.9207V33.2277V32.9777H33.1406H25.4477H25.1977V33.2277V40.9207V41.1707H25.4477H33.1406ZM23.3801 29.3427H35.208C36.2119 29.3427 37.0254 30.1564 37.0254 31.1601V42.9881C37.0254 43.9918 36.2119 44.8055 35.208 44.8055H23.3801C22.3763 44.8055 21.5627 43.9919 21.5627 42.9881V31.1601C21.5627 30.1564 22.3762 29.3427 23.3801 29.3427Z" fill="#1E3859" stroke="white" stroke-width="0.5"/>
<path d="M54.3163 41.1707H54.5663V40.9207V33.2277V32.9777H54.3163H46.6234H46.3734V33.2277V40.9207V41.1707H46.6234H54.3163ZM44.556 29.3427H56.3839C57.3876 29.3427 58.2013 30.1564 58.2013 31.1601V42.9881C58.2013 43.9918 57.3878 44.8055 56.3839 44.8055H44.556C43.5523 44.8055 42.7386 43.9919 42.7386 42.9881V31.1601C42.7386 30.1564 43.5521 29.3427 44.556 29.3427Z" fill="#1E3859" stroke="white" stroke-width="0.5"/>
<path d="M33.1406 62.1559H33.3906V61.9059V54.2132V53.9632H33.1406H25.4477H25.1977V54.2132V61.9059V62.1559H25.4477H33.1406ZM23.3801 50.3279H35.208C36.2119 50.3279 37.0254 51.1415 37.0254 52.1453V63.9731C37.0254 64.9768 36.2119 65.7905 35.208 65.7905H23.3801C22.3763 65.7905 21.5627 64.977 21.5627 63.9731V52.1453C21.5627 51.1416 22.3762 50.3279 23.3801 50.3279Z" fill="#1E3859" stroke="white" stroke-width="0.5"/>
<path d="M54.3163 62.1559H54.5663V61.9059V54.2131V53.9631H54.3163H46.6234H46.3734V54.2131V61.9059V62.1559H46.6234H54.3163ZM44.556 50.3281H56.3839C57.3876 50.3281 58.2013 51.1418 58.2013 52.1455V63.9733C58.2013 64.977 57.3878 65.7907 56.3839 65.7907H44.556C43.5523 65.7907 42.7386 64.9772 42.7386 63.9733V52.1455C42.7386 51.1418 43.5521 50.3281 44.556 50.3281Z" fill="#1E3859" stroke="white" stroke-width="0.5"/>
<path d="M66.5955 68.3892V68.7395L66.9268 68.6256C68.7631 67.9942 70.7328 67.6504 72.7814 67.6504C82.7339 67.6504 90.8313 75.7474 90.8313 85.6999C90.8313 95.6524 82.7339 103.75 72.7814 103.75C66.5499 103.75 61.0456 100.575 57.8003 95.7571L57.726 95.6468H57.5929H14.9861C13.9824 95.6468 13.1687 94.8332 13.1687 93.8294V2.0674C13.1687 1.06373 13.9824 0.25 14.9863 0.25H64.7779C65.7818 0.25 66.5955 1.06373 66.5955 2.0674V68.3892ZM41.6995 91.762V92.012H41.9495H47.544H47.5442H47.7942V91.762V76.152V75.902H47.5442H32.2202H31.9702V76.152V91.762V92.012H32.2202H37.8147H38.0647V91.762V86.1031C38.0647 85.0994 38.8782 84.2857 39.8821 84.2857C40.8858 84.2857 41.6995 85.0992 41.6995 86.1031V91.762ZM55.515 92.012H55.868L55.7508 91.6789C55.0917 89.8069 54.7319 87.7952 54.7319 85.7001C54.7319 79.4154 57.9609 73.8711 62.8484 70.6373L62.9605 70.5631V70.4288V4.13501V3.88501H62.7105H17.0537H16.8037V4.13501V91.762V92.012H17.0537H28.0852H28.3352V91.762V74.0844C28.3352 73.0807 29.1488 72.267 30.1526 72.267H49.6116C50.6153 72.267 51.429 73.0805 51.429 74.0844V91.762V92.012H51.679H55.515ZM58.3665 85.6999C58.3665 93.6487 64.833 100.115 72.7814 100.115C80.7298 100.115 87.1963 93.6489 87.1963 85.7001C87.1963 77.7513 80.7298 71.2852 72.7814 71.2852C64.833 71.2852 58.3665 77.7513 58.3665 85.6999Z" fill="#1E3859" stroke="white" stroke-width="0.5"/>
<path d="M38.0647 80.1887C38.0647 79.185 38.8782 78.3713 39.8821 78.3713C40.8858 78.3713 41.6995 79.1852 41.6995 80.1887V80.3795C41.6995 81.3832 40.886 82.1969 39.8821 82.1969C38.8784 82.1969 38.0647 81.3834 38.0647 80.3795V80.1887Z" fill="#1E3859" stroke="white" stroke-width="0.5"/>
<path d="M76.2854 80.5948L76.3415 80.7676H76.5231H82.2689C83.0566 80.7676 83.7542 81.2745 83.9976 82.0234C84.241 82.7725 83.9746 83.5926 83.3369 84.0556L83.3369 84.0556L78.6886 87.4328L78.5416 87.5396L78.5978 87.7123L80.3732 93.1769C80.6165 93.9261 80.35 94.7466 79.713 95.2092L79.7129 95.2092C79.3943 95.4407 79.0197 95.5563 78.6446 95.5563C78.2694 95.5563 77.8946 95.4406 77.5763 95.2092L77.5762 95.2092L72.9279 91.8319L72.781 91.7251L72.634 91.8319L67.9858 95.2092C67.9858 95.2092 67.9857 95.2092 67.9857 95.2092C67.3486 95.6719 66.4861 95.6718 65.849 95.2092C65.2119 94.7461 64.9455 93.926 65.1887 93.1769L66.9642 87.7123L67.0203 87.5396L66.8734 87.4328L62.2251 84.0557C62.2251 84.0557 62.2251 84.0556 62.2251 84.0556C61.588 83.5926 61.3216 82.7725 61.5647 82.0234C61.8081 81.2747 62.506 80.7676 63.2934 80.7676H69.0392H69.2209L69.277 80.5948L71.0525 75.1302C71.0525 75.1302 71.0525 75.1302 71.0525 75.1302C71.2959 74.3814 71.9937 73.8743 72.7812 73.8743C73.5688 73.8743 74.2665 74.3814 74.5099 75.1302C74.5099 75.1302 74.5099 75.1302 74.5099 75.1302L76.2854 80.5948ZM75.3369 85.3749L75.337 85.3748L76.0528 84.8548L76.6754 84.4026H75.9059H75.0212C74.2338 84.4026 73.5359 83.8956 73.2926 83.1467L73.0192 82.3052L72.7814 81.5733L72.5436 82.3052L72.2702 83.1467C72.2702 83.1467 72.2702 83.1467 72.2702 83.1467C72.0268 83.8954 71.3288 84.4026 70.5415 84.4026H69.6569H68.8874L69.51 84.8548L70.2258 85.3748C70.8629 85.8376 71.1293 86.6577 70.8861 87.4068C70.8861 87.4069 70.8861 87.4069 70.8861 87.4069L70.6125 88.2484L70.3745 88.9805L70.9973 88.5279L71.713 88.0077C72.0316 87.7763 72.4063 87.6606 72.7814 87.6606C73.1565 87.6606 73.5314 87.7763 73.8497 88.0077L73.8497 88.0077L74.5655 88.5279L75.1883 88.9805L74.9502 88.2484L74.6767 87.4069C74.4334 86.6579 74.6999 85.8375 75.3369 85.3749Z" fill="#1E3859" stroke="white" stroke-width="0.5"/>
</svg>
