<svg width="97" height="97" viewBox="0 0 97 97" fill="none" xmlns="http://www.w3.org/2000/svg">
<path d="M35.7729 20.4841H36.0229V20.2341V12.0937V11.8437H35.7729H27.6325H27.3825V12.0937V20.2341V20.4841H27.6325H35.7729ZM25.7001 8.47906H37.7051C38.6342 8.47906 39.3874 9.23234 39.3874 10.1615V22.1664C39.3874 23.0955 38.6342 23.8486 37.7051 23.8486H25.7001C24.7709 23.8486 24.0178 23.0955 24.0178 22.1664V10.1613C24.0178 9.23218 24.7709 8.47906 25.7001 8.47906Z" fill="#1E3859" stroke="white" stroke-width="0.5"/>
<path d="M48.8752 20.2341V20.4841H49.1252H57.0156H57.2656H57.2658V20.2341H57.5156V12.0937V11.8437H57.2656H49.1252H48.8752V12.0937V20.2341ZM47.193 8.47906H59.1981C60.1271 8.47906 60.8803 9.23234 60.8803 10.1615V22.1664C60.8803 23.0955 60.1272 23.8486 59.1981 23.8486H47.193C46.2639 23.8486 45.5107 23.0955 45.5107 22.1664V10.1613C45.5107 9.23218 46.2639 8.47906 47.193 8.47906Z" fill="#1E3859" stroke="white" stroke-width="0.5"/>
<path d="M35.7729 41.7835H36.0229V41.5335V33.393V33.143H35.7729H27.6325H27.3825V33.393V41.5335V41.7835H27.6325H35.7729ZM25.7001 29.7784H37.7051C38.6342 29.7784 39.3874 30.5315 39.3874 31.4606V43.4657C39.3874 44.3948 38.6342 45.1479 37.7051 45.1479H25.7001C24.7709 45.1479 24.0178 44.3948 24.0178 43.4657V31.4606C24.0178 30.5315 24.7709 29.7784 25.7001 29.7784Z" fill="#1E3859" stroke="white" stroke-width="0.5"/>
<path d="M48.8752 41.5335V41.7835H49.1252H57.0156H57.2656H57.2658V41.5335H57.5156V33.393V33.143H57.2656H49.1252H48.8752V33.393V41.5335ZM47.193 29.7784H59.1981C60.1272 29.7784 60.8803 30.5315 60.8803 31.4606V43.4657C60.8803 44.3948 60.1272 45.1479 59.1981 45.1479H47.193C46.2639 45.1479 45.5107 44.3948 45.5107 43.4657V31.4606C45.5107 30.5315 46.2639 29.7784 47.193 29.7784Z" fill="#1E3859" stroke="white" stroke-width="0.5"/>
<path d="M35.7729 63.0827H36.0229V62.8327V54.6923V54.4423H35.7729H27.6325H27.3825V54.6923V62.8327V63.0827H27.6325H35.7729ZM25.7001 51.0776H37.7051C38.6343 51.0776 39.3874 51.8307 39.3874 52.7599V64.7649C39.3874 65.6941 38.6342 66.4472 37.7051 66.4472H25.7001C24.7709 66.4472 24.0178 65.6941 24.0178 64.7649V52.7599C24.0178 51.8307 24.7709 51.0776 25.7001 51.0776Z" fill="#1E3859" stroke="white" stroke-width="0.5"/>
<path d="M69.3998 59.7435V59.9668L69.6217 59.9919C76.2968 60.7481 81.5017 66.427 81.5017 73.3006C81.5017 74.9797 80.8398 77.1241 79.8036 79.442C78.7705 81.7533 77.3779 84.21 75.9432 86.5053C73.0741 91.0954 70.0493 95.0204 69.431 95.8125L69.4214 95.8246C69.043 96.3025 68.508 96.6367 67.918 96.7318C67.8431 96.7438 67.7759 96.75 67.7178 96.75H17.1806C16.2515 96.75 15.4984 95.9969 15.4984 95.0678V1.93223C15.4984 1.00311 16.2515 0.25 17.1806 0.25H67.7176C68.6467 0.25 69.3998 1.00311 69.3998 1.93223V59.7435ZM50.3919 93.3855H50.6419V93.1355V76.9595V76.7095H50.3919H34.5063H34.2563V76.9595V93.1355V93.3855H34.5063H40.5169H40.7669V93.1355V87.2259C40.7669 86.2968 41.52 85.5437 42.4491 85.5437C43.3782 85.5437 44.1313 86.2968 44.1313 87.2259V93.1355V93.3855H44.3813H50.3919ZM30.6418 93.3855H30.8918V93.1355V75.0272C30.8918 74.0981 31.6449 73.345 32.574 73.345H52.3241C53.2533 73.345 54.0064 74.0981 54.0064 75.0272V93.1355V93.3855H54.2564H64.458H64.9488L64.6603 92.9885C62.897 90.5626 60.4036 86.9496 58.352 83.279C57.3262 81.4436 56.4133 79.5983 55.7575 77.8829C55.1003 76.1639 54.7081 74.5928 54.7081 73.3007C54.7081 70.9503 55.3184 68.7408 56.3859 66.8185L56.5922 66.4472H56.1674H47.193C46.2639 66.4472 45.5108 65.694 45.5108 64.7649V52.7598C45.5108 51.8307 46.2639 51.0776 47.193 51.0776H59.1981C60.1272 51.0776 60.8803 51.8307 60.8803 52.7598V61.5768V62.0173L61.2585 61.7914C62.6409 60.9658 64.1836 60.3841 65.8279 60.1013L66.0355 60.0655V59.8549V3.86446V3.61446H65.7855H19.1128H18.8628V3.86446V93.1355V93.3855H19.1128H30.6418ZM57.5158 54.6921V54.4421H57.2658H49.1252H48.8752V54.6921V62.8325V63.0825H49.1252H57.2658H57.5158V62.8325V54.6921ZM67.9034 91.7266L68.1047 91.9994L68.3058 91.7266C70.4549 88.8122 72.9065 85.1743 74.8221 81.7911C75.7798 80.0997 76.6061 78.4676 77.1936 77.0187C77.7784 75.5762 78.1371 74.2907 78.137 73.3007C78.137 67.7686 73.6368 63.2683 68.1048 63.2683C62.5728 63.2683 58.0728 67.7688 58.0728 73.3007C58.0728 74.2915 58.4314 75.5777 59.0163 77.0205C59.6037 78.4697 60.4299 80.1018 61.3876 81.7931C63.3031 85.1761 65.7545 88.8131 67.9034 91.7266Z" fill="#1E3859" stroke="white" stroke-width="0.5"/>
<path d="M62.1273 73.3008C62.1273 70.0048 64.809 67.3232 68.1048 67.3232C71.4005 67.3232 74.0823 70.005 74.0823 73.3008C74.0823 76.5965 71.4005 79.2783 68.1048 79.2783C64.809 79.2783 62.1273 76.5965 62.1273 73.3008ZM65.4919 73.3006C65.4919 74.7417 66.664 75.9136 68.105 75.9136C69.5459 75.9136 70.718 74.7417 70.718 73.3006C70.718 71.8592 69.5459 70.6875 68.105 70.6875C66.6638 70.6875 65.4919 71.8594 65.4919 73.3006Z" fill="#1E3859" stroke="white" stroke-width="0.5"/>
<path d="M40.7668 81.2233C40.7668 80.2942 41.52 79.5411 42.4491 79.5411C43.3782 79.5411 44.1313 80.2944 44.1313 81.2233V81.4169C44.1313 82.3461 43.3782 83.0992 42.4491 83.0992C41.52 83.0992 40.7668 82.346 40.7668 81.4169V81.2233Z" fill="#1E3859" stroke="white" stroke-width="0.5"/>
</svg>
