<svg width="112" height="103" viewBox="0 0 112 103" fill="none" xmlns="http://www.w3.org/2000/svg">
<path d="M112 60.481V29.5102L64.8133 0.213013L17.6266 29.5102V42.918H0V46.2317H28.1369V78.265H0V81.5788H28.1369V92.4038H0V95.7176H35.302C36.0717 99.7394 39.5852 102.787 43.7928 102.787C48.0004 102.787 51.5139 99.7394 52.2835 95.7176H112V64.0157H108.716V92.4038H101.49V46.4527H31.4213V42.918H20.911V39.1623H43.7928V35.8485H20.911V32.0929H108.716V35.8485H47.2962V39.1623H108.716V60.481H112ZM43.7928 99.4732C40.8346 99.4732 38.4282 97.0453 38.4282 94.0607C38.4282 91.0761 40.8346 88.6482 43.7928 88.6482C46.751 88.6482 49.1574 91.0761 49.1574 94.0607C49.1574 97.0453 46.751 99.4732 43.7928 99.4732ZM43.7928 85.3344C39.5852 85.3344 36.0717 88.382 35.302 92.4038H31.4213V78.0441H56.1642V92.4038H52.2835C51.5139 88.3822 48.0004 85.3344 43.7928 85.3344ZM31.4213 74.7303V63.9053H43.1127L53.8419 74.7303H31.4213ZM80.4692 72.8525V67.4399H84.1916V78.265H73.4624V67.4399H77.1848V72.8525H80.4692ZM91.1984 92.4038H80.4692V81.5788H84.1916V86.9913H87.4761V81.5788H91.1984V92.4038ZM73.4624 86.9913V81.5788H77.1848V92.4038H66.4555V81.5788H70.1779V86.9913H73.4624ZM94.4829 92.4038V78.265H87.4761V64.1262H70.1779V78.265H63.1711V92.4038H59.4487V75.701L44.4729 60.5915H31.4213V56.8358H98.2053V92.4038H94.4829ZM98.2053 49.7664V53.5221H31.4213V49.7664H98.2053ZM104.555 28.7791H25.0709L64.8133 4.10406L104.555 28.7791Z" fill="#1E3859"/>
</svg>
