<svg width="105" height="105" viewBox="0 0 105 105" fill="none" xmlns="http://www.w3.org/2000/svg">
<path d="M99.6706 27.2138C98.7314 27.2138 97.9697 27.9753 97.9697 28.9148C97.9697 29.854 98.7312 30.6157 99.6706 30.6157C100.734 30.6157 101.598 31.4805 101.598 32.5434V94.2281C101.598 95.291 100.734 96.1558 99.6706 96.1558H12.5865C7.52206 96.1558 3.40184 92.0356 3.40184 86.9712C3.40184 81.9068 7.52186 77.7861 12.5865 77.7861C13.5257 77.7861 14.2874 77.0247 14.2874 76.0852V30.6155H23.472C24.4113 30.6155 25.1729 29.854 25.1729 28.9146C25.1729 27.9753 24.4115 27.2136 23.472 27.2136H14.2872V7.14367C14.2872 6.20441 13.5257 5.44275 12.5863 5.44275C5.64621 5.44275 0 11.089 0 18.0292V86.971C0 93.9112 5.64621 99.5574 12.5865 99.5574H99.6706C102.609 99.5574 105 97.1666 105 94.2281V32.5432C105 29.6044 102.609 27.2138 99.6706 27.2138ZM3.40163 18.0292C3.40163 13.546 6.631 9.80251 10.8853 9.0025V74.4991C7.95047 74.8974 5.33347 76.3112 3.40163 78.3737V18.0292V18.0292Z" fill="#1E3859"/>
<path d="M77.9002 27.2139H48.8714C47.9321 27.2139 47.1704 27.9753 47.1704 28.9148C47.1704 29.854 47.9319 30.6157 48.8714 30.6157H77.9002C78.8394 30.6157 79.6011 29.8542 79.6011 28.9148C79.6011 27.9753 78.8396 27.2139 77.9002 27.2139Z" fill="#1E3859"/>
<path d="M79.2508 78.6809L32.0802 16.9963C31.6372 16.4169 30.8737 16.1844 30.1838 16.4184C29.4927 16.652 29.0282 17.3 29.0282 18.0293V79.7139C29.0282 80.6532 29.7897 81.4148 30.7291 81.4148H77.8998C78.547 81.4148 79.1378 81.0477 79.4247 80.4676C79.7114 79.8874 79.6437 79.1948 79.2508 78.6809ZM32.4298 78.013V23.0533L74.4577 78.013H32.4298Z" fill="#1E3859"/>
<path d="M60.8941 69.6093L41.1512 43.7918C40.7082 43.2127 39.9451 42.9801 39.2548 43.2139C38.5641 43.4477 38.0994 44.096 38.0994 44.825V70.6425C38.0994 71.5818 38.8609 72.3434 39.8003 72.3434H59.5432C60.1904 72.3434 60.7813 71.9763 61.0682 71.3962C61.3551 70.816 61.2874 70.1234 60.8941 69.6093ZM41.5011 68.9418V49.8492L56.1012 68.9418H41.5011Z" fill="#1E3859"/>
<path d="M93.9927 19.2115L90.3642 10.1402C90.1062 9.49465 89.4807 9.07117 88.7851 9.07117C88.0895 9.07117 87.4642 9.49465 87.206 10.1402L83.5776 19.2115C83.497 19.4126 83.4557 19.6269 83.4557 19.8433V85.1566C83.4557 87.095 85.0326 88.6716 86.9708 88.6716H90.5992C92.5376 88.6716 94.1143 87.0948 94.1143 85.1566V19.8433C94.1145 19.6269 94.0733 19.4126 93.9927 19.2115ZM88.7851 15.3517L90.6271 19.9567H86.9429L88.7851 15.3517ZM90.7128 85.1566C90.7128 85.2191 90.662 85.27 90.5994 85.27H86.971C86.9084 85.27 86.8576 85.2191 86.8576 85.1566V81.4147H90.7128V85.1566ZM90.7128 78.0129H86.8576V23.3586H90.7128V78.0129Z" fill="#1E3859"/>
</svg>
