<svg width="102" height="102" viewBox="0 0 102 102" fill="none" xmlns="http://www.w3.org/2000/svg">
<path d="M87.2347 24.6791V24.6774C86.2788 21.8625 85.5484 18.5179 85.5484 14.8065V13.1613V0H65.8064V3.29032H16.4516V13.1613H65.8064V14.8065C65.8064 18.0869 65.2438 21.4019 64.1317 24.6774H41.129C29.3365 24.6774 19.7419 34.272 19.7419 46.0645C19.7419 51.1415 21.5286 55.8055 24.4948 59.4775C23.4781 59.3295 22.4449 59.2258 21.3871 59.2258C9.59458 59.2258 0 68.8204 0 80.6129C0 92.4054 9.59458 102 21.3871 102H102V98.7097H72.216C77.798 95.1973 81.6428 89.1924 82.1742 82.2581H90.4839V78.9677H82.1742C81.6428 72.0334 77.798 66.0285 72.216 62.5161H102V59.2258H60.871C59.8131 59.2258 58.78 59.3295 57.7633 59.4775C60.4054 56.2069 62.0933 52.145 62.4339 47.7097H83.9032V44.4194H62.4322C61.9008 37.485 58.0561 31.4802 52.4741 27.9677H64.1613C69.6051 27.9677 74.0323 32.3949 74.0323 37.8387V39.4839H75.6774C84.1944 39.4839 90.9363 36.1606 91.2193 36.0208L93.0388 35.111L91.7687 33.5218C91.7375 33.4823 90.1154 31.4144 88.536 27.9694H102V24.6791H87.2347ZM3.29032 80.6129C3.29032 70.635 11.4092 62.5161 21.3871 62.5161C31.365 62.5161 39.4839 70.635 39.4839 80.6129C39.4839 90.5908 31.365 98.7097 21.3871 98.7097C11.4092 98.7097 3.29032 90.5908 3.29032 80.6129ZM38.0213 67.1999C39.038 67.348 40.0712 67.4516 41.129 67.4516C42.1869 67.4516 43.22 67.348 44.2367 67.1999C42.97 68.7677 41.9171 70.5149 41.129 72.4003C40.341 70.5149 39.2881 68.7677 38.0213 67.1999ZM32.7321 98.7097C36.4551 96.367 39.4164 92.9253 41.129 88.8255C42.8416 92.9253 45.8029 96.367 49.5259 98.7097H32.7321ZM60.871 62.5161C70.8489 62.5161 78.9677 70.635 78.9677 80.6129C78.9677 90.5908 70.8489 98.7097 60.871 98.7097C50.8931 98.7097 42.7742 90.5908 42.7742 80.6129C42.7742 70.635 50.8931 62.5161 60.871 62.5161ZM59.2258 46.0645C59.2258 56.0424 51.1069 64.1613 41.129 64.1613C31.1511 64.1613 23.0323 56.0424 23.0323 46.0645C23.0323 36.0866 31.1511 27.9677 41.129 27.9677C51.1069 27.9677 59.2258 36.0866 59.2258 46.0645ZM65.8064 9.87097H19.7419V6.58065H65.8064V9.87097ZM69.0968 9.87097H75.6774V6.58065H69.0968V3.29032H82.2581V6.58065H78.9677V9.87097H82.2581V13.1613H69.0968V9.87097ZM77.2156 36.1541C76.528 30.7908 72.596 26.4262 67.4582 25.0969C68.3729 22.2311 68.9076 19.3372 69.0556 16.4533H82.3008C82.7154 24.5952 86.1012 30.9159 87.9734 33.8295C85.8001 34.6586 81.8369 35.9139 77.2156 36.1541Z" fill="#1E3859"/>
</svg>
