<svg width="99" height="99" viewBox="0 0 99 99" fill="none" xmlns="http://www.w3.org/2000/svg">
<g clip-path="url(#clip0_102_89)">
<path d="M26.1237 36.9421L3.30098 14.1193C2.54572 13.3646 1.32156 13.3644 0.5663 14.1193C-0.188767 14.8744 -0.188767 16.0987 0.5663 16.854L22.8217 39.109L22.8179 41.7737C22.8163 42.8416 23.6808 43.7086 24.7485 43.7102C24.7495 43.7102 24.7505 43.7102 24.7515 43.7102C25.818 43.7102 26.6835 42.8463 26.685 41.7795L26.6901 38.3122C26.6908 37.7984 26.487 37.3054 26.1237 36.9421Z" fill="#1E3859"/>
<path d="M43.6743 22.8153C43.6733 22.8153 43.6723 22.8153 43.6714 22.8153L39.109 22.8216L16.8542 0.566399C16.0991 -0.188474 14.8748 -0.188474 14.1195 0.566399C13.3645 1.32147 13.3645 2.54582 14.1195 3.30108L36.9423 26.1236C37.305 26.4862 37.7967 26.69 38.3095 26.69C38.3103 26.69 38.3114 26.69 38.3122 26.69L43.677 26.6824C44.7449 26.6809 45.6094 25.8141 45.6078 24.7461C45.6063 23.679 44.741 22.8153 43.6743 22.8153Z" fill="#1E3859"/>
<path d="M84.881 0.566542C84.5213 0.206894 84.0224 0 83.5139 0C83.0054 0 82.5065 0.206701 82.1469 0.566542C81.7872 0.926383 81.5803 1.42506 81.5803 1.93359C81.5803 2.44212 81.7872 2.94099 82.1469 3.30044C82.5065 3.66029 83.0054 3.86718 83.5139 3.86718C84.0224 3.86718 84.5213 3.66029 84.881 3.30044C85.2406 2.94099 85.4475 2.44212 85.4475 1.93359C85.4475 1.42506 85.2406 0.92619 84.881 0.566542Z" fill="#1E3859"/>
<path d="M79.2176 6.22924C78.4626 5.47437 77.2382 5.47437 76.4831 6.22924L59.8908 22.8216L57.2259 22.8177C57.2165 22.8177 57.2076 22.8177 57.1983 22.8177C52.0828 22.8177 47.2741 24.8093 43.6562 28.427L41.9185 30.1652C41.1634 30.9204 41.1634 32.1446 41.9185 32.8998C42.2961 33.2773 42.7909 33.4662 43.2857 33.4662C43.7805 33.4662 44.2755 33.2773 44.653 32.8998L46.3909 31.1617C49.2785 28.2741 53.1157 26.6851 57.1985 26.6851C57.2058 26.6851 57.2134 26.6851 57.2205 26.6851L60.6878 26.6899C60.6888 26.6899 60.6896 26.6899 60.6905 26.6899C61.2033 26.6899 61.6952 26.4861 62.0578 26.1236L79.2176 8.96392C79.9727 8.20885 79.9727 6.9845 79.2176 6.22924Z" fill="#1E3859"/>
<path d="M98.4336 14.1191C97.6788 13.3643 96.4542 13.3643 95.6992 14.1191L72.8764 36.9421C72.5133 37.3054 72.3093 37.7983 72.3101 38.3122L72.3178 43.677C72.3193 44.7439 73.1846 45.6076 74.2514 45.6076C74.2524 45.6076 74.2533 45.6076 74.2543 45.6076C75.3222 45.6061 76.1867 44.7393 76.1852 43.6712L76.1786 39.1089L98.4336 16.8538C99.1887 16.0987 99.1887 14.8744 98.4336 14.1191Z" fill="#1E3859"/>
<path d="M98.4337 82.146L76.1784 59.8908L76.1823 57.2259C76.186 54.6854 75.6943 52.2077 74.7209 49.8612C74.3118 48.8747 73.1804 48.407 72.1941 48.8159C71.2076 49.2251 70.7396 50.3564 71.1488 51.3428C71.9255 53.2154 72.3178 55.1929 72.3149 57.2203L72.3099 60.6876C72.3091 61.2014 72.5129 61.6944 72.8763 62.0578L95.6992 84.8807C96.0768 85.2581 96.5716 85.447 97.0664 85.447C97.5612 85.447 98.0562 85.2581 98.4337 84.8807C99.1887 84.1254 99.1889 82.9011 98.4337 82.146Z" fill="#1E3859"/>
<path d="M84.881 95.699L62.058 72.8764C61.6953 72.5139 61.2036 72.3101 60.6908 72.3101C60.69 72.3101 60.6889 72.3101 60.6881 72.3101L55.3233 72.3176C54.2554 72.3191 53.3909 73.186 53.3925 74.2539C53.394 75.321 54.2593 76.1848 55.326 76.1848C55.327 76.1848 55.328 76.1848 55.3289 76.1848L59.8913 76.1784L82.1465 98.4336C82.5241 98.8111 83.0189 99 83.5137 99C84.0085 99 84.5035 98.8111 84.881 98.4336C85.636 97.6786 85.636 96.4542 84.881 95.699Z" fill="#1E3859"/>
<path d="M16.8534 95.6992C16.4937 95.3394 15.9949 95.1327 15.4863 95.1327C14.9778 95.1327 14.4789 95.3394 14.1193 95.6992C13.7596 96.0589 13.5527 96.5577 13.5527 97.0663C13.5527 97.5748 13.7596 98.0737 14.1193 98.4331C14.4789 98.7928 14.9778 98.9999 15.4863 98.9999C15.9949 98.9999 16.4937 98.793 16.8534 98.4331C17.215 98.0737 17.4199 97.5748 17.4199 97.0663C17.4199 96.5577 17.215 96.0589 16.8534 95.6992Z" fill="#1E3859"/>
<path d="M69.1516 49.0608C68.713 48.6223 68.2173 48.2758 67.6888 48.0184C68.1409 47.2141 68.3828 46.3039 68.3828 45.3561C68.3828 43.9011 67.8162 42.533 66.7874 41.504C66.322 41.0388 65.7927 40.6754 65.2275 40.414C66.2026 38.3865 65.8523 35.8757 64.1735 34.1968C62.495 32.5186 59.9854 32.1676 57.958 33.1418C57.6921 32.5696 57.3257 32.0422 56.8663 31.5827C54.7421 29.4589 51.2864 29.4593 49.1623 31.5827L41.4424 39.3028C41.2951 37.7379 40.4874 36.2487 39.1146 35.2875C37.8885 34.429 36.4029 34.1072 34.9315 34.3822C33.46 34.6571 32.1908 35.493 31.357 36.7361L26.0603 44.6349C23.932 47.8088 22.8098 51.5066 22.8152 55.3286L22.8218 59.8907L0.566544 82.1461C-0.188523 82.9012 -0.188523 84.1255 0.566544 84.8808C0.943981 85.2582 1.43898 85.4471 1.93379 85.4471C2.42859 85.4471 2.92359 85.2582 3.30103 84.8808L26.1238 62.058C26.4869 61.6947 26.6909 61.2017 26.6901 60.6879L26.6824 55.3234C26.6781 52.2733 27.5736 49.3221 29.2724 46.7889L34.5689 38.8902C34.8191 38.5172 35.2 38.2664 35.6415 38.184C36.0827 38.1016 36.5288 38.1979 36.8966 38.4555C37.6095 38.9547 37.8145 39.9287 37.3633 40.6729L35.2936 44.0869C34.6409 45.1635 34.8862 46.5091 35.8768 47.2864C36.8674 48.0637 38.2329 47.9813 39.1233 47.0911L51.8968 34.3174C52.513 33.701 53.5156 33.7012 54.1318 34.3174C54.4302 34.616 54.5947 35.0127 54.5947 35.4348C54.5947 35.7931 54.4752 36.1323 54.2569 36.4096L46.6978 43.9863C45.9427 44.7414 45.9427 45.9657 46.6978 46.721C47.4528 47.4759 48.6772 47.4759 49.4324 46.721L59.2044 36.9314C59.8206 36.3152 60.8232 36.3152 61.4393 36.9312C62.0555 37.5477 62.0555 38.55 61.4393 39.1663L51.6586 48.9471C50.9035 49.7022 50.9035 50.9266 51.6586 51.6818C52.0362 52.0593 52.531 52.2482 53.0258 52.2482C53.5206 52.2482 54.0156 52.0593 54.3931 51.6818L61.9611 44.1136C62.5808 43.6271 63.4825 43.6679 64.0531 44.2387C64.3516 44.5372 64.516 44.934 64.516 45.3561C64.516 45.7782 64.3516 46.1748 64.0531 46.4733L56.619 53.9074C55.8639 54.6625 55.8639 55.8868 56.619 56.6421C56.9966 57.0195 57.4914 57.2084 57.9862 57.2084C58.4811 57.2084 58.976 57.0195 59.3535 56.6421L64.3248 51.6708C64.9445 51.1833 65.8465 51.2243 66.4175 51.7955C66.716 52.0939 66.8804 52.4908 66.8804 52.9129C66.8804 53.335 66.716 53.7318 66.4175 54.0302L52.6097 67.8381C49.7221 70.7257 45.8849 72.3148 41.8021 72.3148C41.7947 72.3148 41.7872 72.3148 41.7801 72.3148L38.3127 72.3099C38.3118 72.3099 38.311 72.3099 38.31 72.3099C37.7972 72.3099 37.3053 72.5137 36.9428 72.8763L18.9774 90.8417C18.2223 91.5967 18.2223 92.8211 18.9774 93.5763C19.355 93.9538 19.8499 94.1427 20.3447 94.1427C20.8395 94.1427 21.3345 93.9538 21.7119 93.5763L39.1098 76.1783L41.7746 76.1822C41.7841 76.1822 41.793 76.1822 41.8023 76.1822C46.9178 76.1822 51.7264 74.1906 55.3444 70.5728L69.1516 56.7648C71.2754 54.641 71.2754 51.1849 69.1516 49.0608Z" fill="#1E3859"/>
</g>
<defs>
<clipPath id="clip0_102_89">
<rect width="99" height="99" fill="white"/>
</clipPath>
</defs>
</svg>
