<svg width="142" height="86" viewBox="0 0 142 86" fill="none" xmlns="http://www.w3.org/2000/svg">
<path d="M1.98 81V67H12.88V69.14H4.54V72.58H8.68C10.36 72.58 11.6333 72.9333 12.5 73.64C13.38 74.3333 13.82 75.3467 13.82 76.68C13.82 78.0533 13.3333 79.12 12.36 79.88C11.4 80.6267 10.04 81 8.28 81H1.98ZM4.54 79H8.14C9.14 79 9.9 78.8067 10.42 78.42C10.94 78.0333 11.2 77.4733 11.2 76.74C11.2 75.3 10.18 74.58 8.14 74.58H4.54V79ZM21.147 81.14C20.0537 81.14 19.0804 80.9067 18.227 80.44C17.3737 79.96 16.7004 79.3067 16.207 78.48C15.7137 77.6533 15.467 76.7133 15.467 75.66C15.467 74.5933 15.7137 73.6533 16.207 72.84C16.7004 72.0133 17.3737 71.3667 18.227 70.9C19.0804 70.4333 20.0537 70.2 21.147 70.2C22.2537 70.2 23.2337 70.4333 24.087 70.9C24.9537 71.3667 25.627 72.0067 26.107 72.82C26.6004 73.6333 26.847 74.58 26.847 75.66C26.847 76.7133 26.6004 77.6533 26.107 78.48C25.627 79.3067 24.9537 79.96 24.087 80.44C23.2337 80.9067 22.2537 81.14 21.147 81.14ZM21.147 79C21.7604 79 22.307 78.8667 22.787 78.6C23.267 78.3333 23.6404 77.9467 23.907 77.44C24.187 76.9333 24.327 76.34 24.327 75.66C24.327 74.9667 24.187 74.3733 23.907 73.88C23.6404 73.3733 23.267 72.9867 22.787 72.72C22.307 72.4533 21.767 72.32 21.167 72.32C20.5537 72.32 20.007 72.4533 19.527 72.72C19.0604 72.9867 18.687 73.3733 18.407 73.88C18.127 74.3733 17.987 74.9667 17.987 75.66C17.987 76.34 18.127 76.9333 18.407 77.44C18.687 77.9467 19.0604 78.3333 19.527 78.6C20.007 78.8667 20.547 79 21.147 79ZM27.6395 80.98L27.7595 78.88C27.8529 78.8933 27.9395 78.9067 28.0195 78.92C28.0995 78.9333 28.1729 78.94 28.2395 78.94C28.6529 78.94 28.9729 78.8133 29.1995 78.56C29.4262 78.3067 29.5929 77.9667 29.6995 77.54C29.8195 77.1 29.8995 76.6133 29.9395 76.08C29.9929 75.5333 30.0329 74.9867 30.0595 74.44L30.2395 70.32H38.8795V81H36.3795V71.76L36.9595 72.44H31.8795L32.4195 71.74L32.2795 74.56C32.2395 75.5067 32.1595 76.3867 32.0395 77.2C31.9329 78 31.7595 78.7 31.5195 79.3C31.2929 79.9 30.9729 80.3667 30.5595 80.7C30.1595 81.0333 29.6462 81.2 29.0195 81.2C28.8195 81.2 28.5995 81.18 28.3595 81.14C28.1329 81.1 27.8929 81.0467 27.6395 80.98ZM47.6064 73.84C48.9797 73.84 50.0264 74.1467 50.7464 74.76C51.4664 75.3733 51.8264 76.24 51.8264 77.36C51.8264 78.52 51.4264 79.4267 50.6264 80.08C49.8264 80.72 48.6997 81.0333 47.2464 81.02L42.2464 81V70.32H44.7464V73.82L47.6064 73.84ZM47.0264 79.18C47.7597 79.1933 48.3197 79.04 48.7064 78.72C49.0931 78.4 49.2864 77.9333 49.2864 77.32C49.2864 76.7067 49.0931 76.2667 48.7064 76C48.3331 75.72 47.7731 75.5733 47.0264 75.56L44.7464 75.54V79.16L47.0264 79.18ZM61.2038 78.88L60.6638 79.48V70.32H63.1638V79.48L62.5638 78.88H67.8438L67.2638 79.48V70.32H69.7638V81H54.0238V70.32H56.5238V79.48L55.9438 78.88H61.2038ZM78.1053 81.14C76.9186 81.14 75.8786 80.9067 74.9853 80.44C74.1053 79.96 73.4186 79.3067 72.9253 78.48C72.4453 77.6533 72.2053 76.7133 72.2053 75.66C72.2053 74.5933 72.4386 73.6533 72.9053 72.84C73.3853 72.0133 74.0386 71.3667 74.8653 70.9C75.7053 70.4333 76.6586 70.2 77.7253 70.2C78.7653 70.2 79.692 70.4267 80.5053 70.88C81.3186 71.3333 81.9586 71.9733 82.4253 72.8C82.892 73.6267 83.1253 74.6 83.1253 75.72C83.1253 75.8267 83.1186 75.9467 83.1053 76.08C83.1053 76.2133 83.0986 76.34 83.0853 76.46H74.1853V74.8H81.7653L80.7853 75.32C80.7986 74.7067 80.672 74.1667 80.4053 73.7C80.1386 73.2333 79.772 72.8667 79.3053 72.6C78.852 72.3333 78.3253 72.2 77.7253 72.2C77.112 72.2 76.572 72.3333 76.1053 72.6C75.652 72.8667 75.292 73.24 75.0253 73.72C74.772 74.1867 74.6453 74.74 74.6453 75.38V75.78C74.6453 76.42 74.792 76.9867 75.0853 77.48C75.3786 77.9733 75.792 78.3533 76.3253 78.62C76.8586 78.8867 77.472 79.02 78.1653 79.02C78.7653 79.02 79.3053 78.9267 79.7853 78.74C80.2653 78.5533 80.692 78.26 81.0653 77.86L82.4053 79.4C81.9253 79.96 81.3186 80.3933 80.5853 80.7C79.8653 80.9933 79.0386 81.14 78.1053 81.14ZM98.167 81.2C98.1537 81.2 98.0937 81.2 97.987 81.2C97.8937 81.2 97.8004 81.2 97.707 81.2C97.627 81.2 97.5737 81.2 97.547 81.2C95.2937 81.1733 93.547 80.6867 92.307 79.74C91.067 78.78 90.447 77.4133 90.447 75.64C90.447 73.88 91.067 72.5333 92.307 71.6C93.547 70.6667 95.3137 70.1867 97.607 70.16C97.6337 70.16 97.687 70.16 97.767 70.16C97.8604 70.16 97.947 70.16 98.027 70.16C98.1204 70.16 98.1737 70.16 98.187 70.16C100.494 70.16 102.287 70.6333 103.567 71.58C104.86 72.5133 105.507 73.8667 105.507 75.64C105.507 77.4267 104.86 78.8 103.567 79.76C102.287 80.72 100.487 81.2 98.167 81.2ZM98.087 79.12C99.2204 79.12 100.154 78.9933 100.887 78.74C101.62 78.4733 102.167 78.0867 102.527 77.58C102.887 77.06 103.067 76.4133 103.067 75.64C103.067 74.88 102.887 74.2533 102.527 73.76C102.167 73.2533 101.62 72.88 100.887 72.64C100.154 72.3867 99.2204 72.26 98.087 72.26C98.0604 72.26 97.9937 72.26 97.887 72.26C97.7937 72.26 97.7337 72.26 97.707 72.26C96.6004 72.26 95.6937 72.3933 94.987 72.66C94.2804 72.9133 93.7537 73.2867 93.407 73.78C93.0737 74.2733 92.907 74.8933 92.907 75.64C92.907 76.4 93.0737 77.0333 93.407 77.54C93.7537 78.0467 94.2804 78.4333 94.987 78.7C95.707 78.9667 96.6137 79.1067 97.707 79.12C97.7337 79.12 97.7937 79.12 97.887 79.12C97.9937 79.12 98.0604 79.12 98.087 79.12ZM96.787 84.88V66.16H99.147V84.88H96.787ZM112.69 81.14C111.597 81.14 110.623 80.9067 109.77 80.44C108.917 79.96 108.243 79.3067 107.75 78.48C107.257 77.6533 107.01 76.7133 107.01 75.66C107.01 74.5933 107.257 73.6533 107.75 72.84C108.243 72.0133 108.917 71.3667 109.77 70.9C110.623 70.4333 111.597 70.2 112.69 70.2C113.797 70.2 114.777 70.4333 115.63 70.9C116.497 71.3667 117.17 72.0067 117.65 72.82C118.143 73.6333 118.39 74.58 118.39 75.66C118.39 76.7133 118.143 77.6533 117.65 78.48C117.17 79.3067 116.497 79.96 115.63 80.44C114.777 80.9067 113.797 81.14 112.69 81.14ZM112.69 79C113.303 79 113.85 78.8667 114.33 78.6C114.81 78.3333 115.183 77.9467 115.45 77.44C115.73 76.9333 115.87 76.34 115.87 75.66C115.87 74.9667 115.73 74.3733 115.45 73.88C115.183 73.3733 114.81 72.9867 114.33 72.72C113.85 72.4533 113.31 72.32 112.71 72.32C112.097 72.32 111.55 72.4533 111.07 72.72C110.603 72.9867 110.23 73.3733 109.95 73.88C109.67 74.3733 109.53 74.9667 109.53 75.66C109.53 76.34 109.67 76.9333 109.95 77.44C110.23 77.9467 110.603 78.3333 111.07 78.6C111.55 78.8667 112.09 79 112.69 79ZM122.689 81V71.84L123.269 72.44H118.929V70.32H128.929V72.44H124.609L125.189 71.84V81H122.689ZM135.034 81.14C133.94 81.14 132.967 80.9067 132.114 80.44C131.26 79.96 130.587 79.3067 130.094 78.48C129.6 77.6533 129.354 76.7133 129.354 75.66C129.354 74.5933 129.6 73.6533 130.094 72.84C130.587 72.0133 131.26 71.3667 132.114 70.9C132.967 70.4333 133.94 70.2 135.034 70.2C136.14 70.2 137.12 70.4333 137.974 70.9C138.84 71.3667 139.514 72.0067 139.994 72.82C140.487 73.6333 140.734 74.58 140.734 75.66C140.734 76.7133 140.487 77.6533 139.994 78.48C139.514 79.3067 138.84 79.96 137.974 80.44C137.12 80.9067 136.14 81.14 135.034 81.14ZM135.034 79C135.647 79 136.194 78.8667 136.674 78.6C137.154 78.3333 137.527 77.9467 137.794 77.44C138.074 76.9333 138.214 76.34 138.214 75.66C138.214 74.9667 138.074 74.3733 137.794 73.88C137.527 73.3733 137.154 72.9867 136.674 72.72C136.194 72.4533 135.654 72.32 135.054 72.32C134.44 72.32 133.894 72.4533 133.414 72.72C132.947 72.9867 132.574 73.3733 132.294 73.88C132.014 74.3733 131.874 74.9667 131.874 75.66C131.874 76.34 132.014 76.9333 132.294 77.44C132.574 77.9467 132.947 78.3333 133.414 78.6C133.894 78.8667 134.434 79 135.034 79Z" fill="white"/>
<rect x="43" width="24" height="24" fill="#D9D9D9"/>
<rect x="74" width="24" height="24" fill="#D9D9D9"/>
<rect x="43" y="31" width="24" height="24" fill="#D9D9D9"/>
<rect x="74" y="31" width="24" height="24" fill="#D9D9D9"/>
</svg>
