<svg width="19" height="19" viewBox="0 0 19 19" fill="none" xmlns="http://www.w3.org/2000/svg">
<path fill-rule="evenodd" clip-rule="evenodd" d="M2.38442 9.49998C2.38442 5.56989 5.57039 2.38393 9.50047 2.38393C13.4306 2.38393 16.6165 5.56989 16.6165 9.49998C16.6165 13.4301 13.4306 16.616 9.50047 16.616C5.57039 16.616 2.38442 13.4301 2.38442 9.49998ZM9.50047 0.983887C4.79717 0.983887 0.984375 4.79667 0.984375 9.49998C0.984375 14.2033 4.79717 18.0161 9.50047 18.0161C14.2038 18.0161 18.0166 14.2033 18.0166 9.49998C18.0166 4.79667 14.2038 0.983887 9.50047 0.983887ZM5.40686 9.84203L6.208 9.04105L8.67006 11.4445L12.4511 5.55282L13.5942 6.23692L8.90455 13.4471L5.40686 9.84203Z" fill="#43638A"/>
</svg>
