<svg width="30" height="28" viewBox="0 0 30 28" fill="none" xmlns="http://www.w3.org/2000/svg">
<path d="M27.6138 2.09815C25.7929 0.261146 22.9297 -1.23021 19.6305 2.09815L6.25576 15.5902C6.15278 15.6834 4.92185 16.8495 4.87854 18.5409C4.85159 19.5856 5.27602 20.5595 6.1422 21.4333C6.88134 22.179 7.7658 22.5664 8.69742 22.5547C10.3855 22.5343 11.6444 21.2508 11.781 21.1051L21.8431 10.955C22.2194 10.5754 22.2204 9.96174 21.8431 9.5821C21.4668 9.20247 20.8586 9.20247 20.4823 9.5821L10.4048 19.7487C10.1651 19.9973 9.41443 20.607 8.66566 20.6129C8.25567 20.6158 7.87552 20.4342 7.50306 20.0594C7.02185 19.574 6.79279 19.0982 6.80242 18.6021C6.81878 17.7214 7.57717 17.0029 7.58487 16.9942L20.9914 3.47105C22.2926 2.15932 23.9354 1.13207 26.2529 3.47105C27.1018 4.32741 27.5224 5.21485 27.506 6.11005C27.4781 7.58101 26.2963 8.69952 26.2837 8.71118L11.2517 23.7063C11.219 23.7393 9.36053 25.6345 7.09788 25.6501C5.90737 25.6578 4.77652 25.1297 3.73711 24.082C-0.191495 20.1187 3.48495 16.1631 3.64279 15.9971L15.2044 4.33227C15.5807 3.95263 15.5807 3.339 15.2044 2.9584C14.8271 2.57876 14.2188 2.57973 13.8435 2.9584L2.26749 14.6368C0.460064 16.5359 -1.82184 21.2197 2.37528 25.4549C3.79774 26.889 5.39632 27.6075 7.12675 27.591C10.2046 27.5638 12.524 25.1724 12.6212 25.0704L27.61 10.1181C27.6523 10.0802 29.3731 8.48107 29.4299 6.17219C29.4655 4.71967 28.8544 3.34871 27.6138 2.09815Z" fill="#88B36F"/>
</svg>
