<svg width="22" height="22" viewBox="0 0 22 22" fill="none" xmlns="http://www.w3.org/2000/svg">
<path fill-rule="evenodd" clip-rule="evenodd" d="M2.82881 18.3299H3.68152H4.54428H5.40703C5.87854 18.3299 5.8986 18.3599 6.28985 18.2195L6.38014 18.0491C6.48046 17.4074 6.4002 16.2944 6.41023 15.5925L7.12251 15.5824H7.98527H8.84802L9.69071 15.5724L9.99167 15.4419C10.0418 15.121 10.0719 15.051 10.0719 14.5998V13.7574L10.082 12.9052L10.1421 12.8651C10.4331 12.7447 9.95154 12.9052 10.2224 12.835H12.3291C13.4327 12.8149 13.7436 13.0154 13.7436 12.0327V11.1605V10.3181V10.0875H14.0045H14.8572H15.73H16.5827C17.0141 10.0775 17.305 10.1074 17.3953 9.68626L17.4154 7.39022C17.4956 7.29998 17.315 7.35004 17.5658 7.31996C17.5859 7.31996 17.7163 7.31996 17.7364 7.31996L21.067 7.33C21.1473 7.59071 21.0971 10.278 21.0971 10.7894C21.0971 11.6216 21.1372 20.7064 21.0871 21.0874C20.5353 21.1676 19.3816 21.0974 18.7697 21.0974C16.3419 21.0974 2.90906 21.1475 2.73852 21.0673V18.3299H2.82881ZM15.6999 6.52777L15.5895 6.78849C15.5895 7.00909 15.7199 7.30987 15.75 7.2497C15.7601 7.23967 15.7701 7.25975 15.7801 7.26978C16.061 7.32994 16.1614 7.33 16.4924 7.33V7.74103V8.59345V9.16507H15.7199H14.8572H14.0045H13.1417C12.8809 9.16507 12.5699 9.20516 12.3291 9.14499L12.2689 9.17486C12.2589 9.18489 12.0783 9.21501 11.9479 9.46569C11.8677 9.82667 12.0282 9.98721 12.289 10.0674L12.8307 10.1076V11.9125L12.289 11.9226H11.4262H10.5635H9.70073L8.84802 11.9125C8.57716 11.9226 8.55709 11.9725 8.37652 12.0127C8.28623 12.2533 8.14577 12.4638 8.38654 12.7045C8.56712 12.885 8.86808 12.835 9.15901 12.835V13.7474V14.66L8.83798 14.67C7.84481 14.7001 6.79145 14.67 5.78825 14.67C5.33681 14.67 4.70479 14.5696 4.60447 15.0108C4.54427 15.2515 4.67469 15.452 4.82517 15.5322C5.00575 15.6125 5.27661 15.5824 5.49732 15.5824V17.4175H4.54428L3.73169 17.4075C3.62133 17.2972 3.68152 17.4474 3.65143 17.2268V11.6117C3.92229 11.4111 5.21643 10.4786 5.4271 10.3984C5.46723 10.3082 5.43713 10.3482 5.53745 10.3281L6.28985 9.79667C6.34001 9.70642 6.63094 9.50579 6.76136 9.45565C6.77139 9.44563 6.78142 9.43557 6.79145 9.42554L6.81152 9.40571C6.82156 9.39569 6.83159 9.38564 6.84162 9.38564L6.94193 9.31538C7.05228 9.23516 7.02219 9.24507 7.15261 9.19493C7.20277 9.09466 7.7746 8.70378 7.92508 8.63359L8.06553 8.5533C8.10565 8.46305 8.32635 8.3427 8.40661 8.28254C8.52699 8.1923 8.66745 8.09202 8.78783 8.03186C8.83799 7.99175 8.83799 7.98162 8.90821 7.93149C8.94834 7.90141 8.9985 7.87148 9.03863 7.8414C9.13895 7.77121 9.17907 7.74098 9.27939 7.69084C9.39978 7.56049 9.50011 7.51033 9.65059 7.42009C9.88132 7.21954 10.2324 6.99907 10.5234 6.79852C10.7441 6.63809 11.2256 6.26697 11.4463 6.18675C11.4965 6.08648 11.5567 6.06652 11.677 6.03644C11.7071 5.9863 11.7071 5.99625 11.7473 5.95614L12.3091 5.58526C12.3693 5.46493 12.9311 5.12392 13.1116 4.99356C13.3424 4.8231 13.6935 4.5523 13.9443 4.42194C14.0546 4.32167 14.0546 4.31173 14.2051 4.26159C14.2553 4.17135 14.6867 3.88062 14.807 3.82045C14.9375 3.6901 15.2284 3.48962 15.409 3.38935C15.4992 3.32918 15.5594 3.26885 15.6698 3.21872L16.6028 2.59715C16.663 2.45677 17.2849 2.06562 17.4154 2.00546V2.57708V3.43929V4.30174V5.16395V6.01637V6.41736H16.5827C16.1012 6.41736 16.0911 6.39741 15.6999 6.52777ZM18.3082 0.230608C18.0474 0.431153 17.7364 0.661879 17.4455 0.832342L17.315 0.902357C17.2649 1.01266 17.0843 1.08287 16.9739 1.17311C16.8134 1.28341 16.7432 1.33356 16.5827 1.43383C16.4423 1.55416 16.2717 1.68459 16.0811 1.76481C16.0109 1.88514 15.8604 1.94532 15.73 2.03557C15.4692 2.23611 15.1682 2.43676 14.8773 2.6373C14.5863 2.83785 14.3155 3.04827 14.0045 3.23879C13.9744 3.25885 13.9242 3.30909 13.864 3.3492C13.7336 3.43944 13.8139 3.39916 13.7035 3.41921C13.6634 3.45932 13.6734 3.4594 13.6333 3.49951L13.4326 3.65007C13.3223 3.73028 13.2721 3.76031 13.1417 3.84053C12.8909 4.0511 12.5799 4.23144 12.299 4.44202C12.0181 4.64256 11.7272 4.85322 11.4262 5.03371L11.1654 5.2041L10.5635 5.63545C10.4531 5.74575 10.112 5.99636 9.95154 6.06655C9.87128 6.16682 9.83116 6.16676 9.71078 6.24697C9.52017 6.39738 9.06872 6.72837 8.82795 6.83867L8.78783 6.85875C8.71761 6.97907 8.14578 7.34992 7.98527 7.44016C7.87492 7.54043 7.71441 7.68085 7.56392 7.72095C7.44354 7.87136 7.30309 7.94162 7.12251 8.0419C6.92187 8.23241 6.54066 8.47318 6.27983 8.65367C5.9889 8.84419 5.69797 9.04457 5.41707 9.24512C5.27662 9.34539 5.19636 9.43564 5.03585 9.4958C4.96563 9.6061 4.68473 9.76664 4.55432 9.84686C4.29349 10.0574 3.98249 10.2578 3.70159 10.4584C3.41066 10.6589 3.12977 10.8696 2.82881 11.0501C2.71846 11.1504 2.77864 11.1304 2.64823 11.1504C2.56797 11.2908 2.43756 11.3408 2.30714 11.431C2.17672 11.5212 2.11653 11.5716 1.95602 11.6518C1.86573 11.7521 1.56477 11.9826 1.42433 12.0227C1.3842 12.0628 1.39423 12.0629 1.3541 12.103C1.34407 12.103 1.28388 12.1532 1.27384 12.1532C1.22368 12.1933 1.17353 12.2132 1.1033 12.2533C0.922725 12.4238 0.491342 12.7147 0.250574 12.855L0.130194 12.9253C0.0800343 13.0557 -0.0804799 13.2761 0.0499364 13.5168C0.160289 13.7273 0.3208 13.7073 0.581632 13.7674L0.842467 13.577C0.982915 13.4867 0.982916 13.4567 1.1334 13.4066C1.18356 13.2963 2.51781 12.4037 2.73852 12.2633V12.8952V13.7574V14.6198V15.472V16.3345V17.1869V17.4175H1.96606C1.65506 17.4175 1.34407 17.4173 1.09327 17.4875C0.992947 17.6078 0.882593 17.7683 0.942786 18.0391C1.03307 18.1895 1.05314 18.1995 1.17353 18.2998L1.23372 18.3098L1.8256 18.3299L1.83563 21.6088L1.93595 21.8896C2.3272 22.01 2.3272 21.9998 2.81877 21.9998H3.69156H4.54428H5.40703H6.25976H7.13254H7.97523H8.84802H9.70073H10.5735H11.4162H12.289H13.1317H14.0045H14.8572H15.73H16.5727H17.4455H18.2982H19.1609H20.0136H20.8864L21.7693 21.9596C21.8997 21.7491 21.9599 21.8794 22 21.4683V20.6262V19.7537V18.9015V18.0391V17.1869V16.3144V15.472V14.5998V13.7474V12.8851V12.0327V11.1605V10.3081V9.44562V8.59345V7.73099L21.99 6.87882C21.9498 6.63817 21.8796 6.56781 21.7392 6.45751L20.8864 6.41736H20.0237H19.1609H18.3283V6.35738V6.01637V5.16395V4.2917V3.44932V2.57708V1.72466V1.31363C18.4286 1.27352 19.0205 0.872422 19.1007 0.802231C19.2011 0.701958 19.2713 0.531524 19.2211 0.330978C19.171 0.130433 19.0506 0.1103 18.9101 0H18.6794L18.3082 0.230608Z" fill="#1F2221"/>
</svg>
