<svg width="20" height="20" viewBox="0 0 20 20" fill="none" xmlns="http://www.w3.org/2000/svg">
<path d="M19.3084 0.786316H0.691563V0H19.3084V0.786316ZM20 0.756045H19.2716V0.766136L19.2808 0.776226V0.786316H19.29H19.2992H19.3084V0.796407L19.2992 0.786316H19.3084V0H19.3822L19.4099 0.0100904H19.4467L19.4929 0.0201809L19.5482 0.0403618L19.5851 0.0605427L19.5943 0.0706331L19.6404 0.090814L19.668 0.110995L19.6957 0.121085L19.7234 0.151357L19.751 0.171538L19.7695 0.191718L19.7971 0.221744L19.8248 0.241925L19.8801 0.332739L19.8986 0.352919L19.917 0.383191L19.9354 0.433643L19.9447 0.453578L19.9539 0.49394L19.9723 0.554482L19.9816 0.594844L19.9908 0.645296L20 0.675568V0.756045ZM19.2716 19.244V0.756045H20V19.244H19.2716ZM19.3084 20V19.2036H19.2992L19.29 19.2137H19.2808V19.2238L19.2716 19.2339V19.244H20V19.3146L19.9908 19.3547L19.9631 19.4758L19.9539 19.5061L19.9447 19.5464L19.9354 19.5565L19.917 19.6067L19.8432 19.7278L19.7971 19.7783L19.7695 19.7984L19.751 19.8287L19.7234 19.8489L19.6957 19.8688L19.6404 19.9092L19.5943 19.9294L19.5851 19.9395L19.5482 19.9495L19.4929 19.9697L19.4467 19.9798L19.4099 19.9899H19.3822L19.3453 20H19.3084ZM0.691563 19.2036H19.3084V20H0.691563V19.2036ZM0 19.244H0.719224V19.2339L0.728447 19.244H0.719224V19.2339V19.2238L0.710008 19.2137L0.700786 19.2036H0.691563V20H0.645463L0.617801 19.9899H0.590133L0.544033 19.9798L0.507149 19.9697L0.451826 19.9495L0.414942 19.9395L0.396496 19.9294L0.350396 19.9092L0.322735 19.889L0.304289 19.8688L0.276628 19.8489L0.248967 19.8287L0.15676 19.7278L0.138314 19.6975L0.110653 19.6673L0.10143 19.637L0.0829912 19.6067L0.0645456 19.5565L0.0553298 19.5464L0.0368842 19.5061L0.0276614 19.4758L0 19.3547V19.244ZM0.719224 0.756045V19.244H0V0.756045H0.719224ZM0.691563 0V0.786316H0.710008V0.776226H0.719224V0.756045H0V0.645296L0.00922281 0.594844L0.0184456 0.554482L0.0368842 0.49394L0.0553298 0.453578L0.0645456 0.433643L0.0829912 0.383191L0.10143 0.352919L0.110653 0.332739L0.138314 0.302467L0.175198 0.241925L0.20286 0.221744L0.221305 0.191718L0.276628 0.151357L0.304289 0.121085L0.322735 0.110995L0.350396 0.090814L0.396496 0.0706331L0.451826 0.0403618L0.507149 0.0201809L0.544033 0.0100904H0.590133L0.617801 0H0.691563Z" fill="#1F2221"/>
<path fill-rule="evenodd" clip-rule="evenodd" d="M13.4997 1.90569C13.4628 1.97626 13.4443 1.9862 13.389 2.01644L13.3614 2.08708C13.3152 2.16772 13.306 2.18784 13.306 2.29873C13.3152 2.39954 13.3245 2.4701 13.3614 2.55074C13.4167 2.65155 13.472 2.69203 13.4904 2.71219L13.4812 2.7021C13.5181 2.72226 13.5458 2.72206 13.5826 2.74222C13.6472 2.77246 13.6195 2.75234 13.6564 2.78258C13.8408 2.73218 15.7219 2.75234 16.0077 2.78258L15.7864 2.99423C15.7495 3.0648 15.7495 3.0649 15.6942 3.10523L15.4637 3.35724C15.4268 3.41773 15.4268 3.41782 15.3623 3.45815C15.3438 3.50855 15.353 3.48822 15.3162 3.53862L15.1318 3.71016C15.0949 3.78073 15.0949 3.78059 15.0395 3.82091L14.809 4.07293C14.7721 4.13341 14.7721 4.13351 14.7076 4.17383L14.4771 4.42584C14.4402 4.49641 14.4402 4.49627 14.3849 4.53659C14.3664 4.587 14.3756 4.55682 14.3295 4.60723L14.2097 4.73816C14.1728 4.77848 14.1912 4.76845 14.1543 4.78861C14.1175 4.84909 14.1175 4.84919 14.0621 4.88951L13.8316 5.14153C13.7947 5.21209 13.7947 5.21195 13.7302 5.25228C13.7117 5.2926 13.721 5.27251 13.6749 5.32291C13.6564 5.35315 13.6472 5.36329 13.6195 5.38345L13.4997 5.50429C13.4628 5.56478 13.4628 5.56487 13.4075 5.6052L13.1769 5.85721C13.1401 5.9177 13.1401 5.91779 13.0755 5.95812C13.0571 6.00852 13.0663 5.98819 13.0294 6.03859L12.845 6.21013C12.8081 6.28069 12.8081 6.28056 12.7528 6.32088L12.5223 6.57289C12.4854 6.63338 12.4854 6.63348 12.4208 6.6738L12.2641 6.87536C12.218 6.91568 12.2364 6.90565 12.1903 6.92581C12.1534 6.99638 12.1534 6.99624 12.0981 7.03656C12.0796 7.07689 12.0889 7.05678 12.052 7.09711L11.8676 7.28858C11.8307 7.34906 11.8307 7.34916 11.7661 7.38948C11.7293 7.49029 11.6647 7.5206 11.6555 7.71213C11.6555 7.86334 11.6924 7.93374 11.7385 8.04462C11.7754 8.0547 11.8307 8.1052 11.8491 8.13544C11.9598 8.16568 12.0243 8.19596 12.1534 8.1758C12.2456 8.14556 12.2917 8.10515 12.3563 8.08498C12.3839 8.03458 12.3839 8.03474 12.4208 7.99442C12.4485 7.95409 12.4577 7.95403 12.4946 7.92378C12.5315 7.8633 12.6237 7.76254 12.6882 7.72222C12.7159 7.66174 12.6975 7.69189 12.7436 7.63141C12.7804 7.60117 12.7804 7.60111 12.8265 7.57086C12.845 7.52046 12.8634 7.51052 12.9095 7.46012C12.9556 7.40971 12.9649 7.38946 13.011 7.3693C13.0386 7.29874 13.0202 7.33897 13.0755 7.27849C13.1216 7.22808 13.094 7.24843 13.1493 7.21819C13.1769 7.15771 13.1954 7.14751 13.2323 7.09711C13.2784 7.0467 13.2876 7.03653 13.3429 7.00629C13.3706 6.94581 13.3521 6.97622 13.3982 6.92581C13.4443 6.86533 13.4259 6.88542 13.4812 6.85518C13.4997 6.80478 13.5181 6.79484 13.5642 6.74443C13.6103 6.69403 13.6195 6.67378 13.6656 6.65362C13.6933 6.6133 13.6933 6.60313 13.721 6.5628C13.7302 6.55272 13.7486 6.53253 13.7578 6.53253C13.7855 6.50229 13.7671 6.52242 13.8039 6.50226C13.8316 6.4317 13.9238 6.33093 13.9884 6.29061C14.0068 6.26037 13.9976 6.28072 14.016 6.2404C14.0252 6.2404 14.0529 6.21013 14.0529 6.21013C14.0898 6.16981 14.0898 6.16975 14.1267 6.14959C14.1543 6.0891 14.1728 6.07891 14.2189 6.0285C14.2558 5.9781 14.265 5.9581 14.3203 5.93793C14.348 5.87745 14.3295 5.9076 14.3756 5.84712C14.431 5.79672 14.3941 5.81682 14.4586 5.78658C14.4771 5.72609 14.4955 5.72623 14.5416 5.67583C14.5877 5.62543 14.5969 5.60518 14.643 5.58502C14.6799 5.51445 14.7168 5.46415 14.7814 5.4339C14.809 5.37342 14.8182 5.36322 14.8643 5.31282C14.9104 5.26242 14.9197 5.25249 14.975 5.22225C14.9934 5.17185 14.9934 5.18184 15.0303 5.13144L15.0672 5.10117C15.0949 5.08101 15.0764 5.09106 15.1133 5.07089C15.141 5.00033 15.2332 4.89957 15.2977 4.86933L15.3899 4.74825C15.4176 4.718 15.3992 4.73837 15.436 4.70813C15.4729 4.63757 15.5651 4.54664 15.6205 4.50632C15.6481 4.47608 15.6297 4.48636 15.6573 4.45612L15.685 4.42584C15.7219 4.37544 15.7219 4.38545 15.768 4.35521C15.7864 4.30481 15.8049 4.29462 15.851 4.24422C15.8971 4.19381 15.8971 4.17381 15.9524 4.15365C15.9893 4.08308 16.0262 4.03253 16.0907 4.00229C16.1184 3.93173 16.2106 3.83096 16.2844 3.79064C16.312 3.72007 16.3581 3.67985 16.4227 3.63953L16.5979 3.42788C16.6255 3.73029 16.6347 5.78654 16.5886 5.99823L16.7454 6.29061L16.7638 6.3007C16.8745 6.34102 16.9483 6.38142 17.105 6.38142C17.1419 6.36126 17.1603 6.35114 17.1972 6.34106C17.2157 6.33098 17.2433 6.31079 17.2433 6.31079C17.2802 6.29063 17.2618 6.30069 17.2987 6.29061C17.3263 6.22004 17.3263 6.21008 17.3909 6.15968L17.4277 5.98839C17.4277 5.24242 17.4277 4.48614 17.4277 3.7301C17.4277 3.47808 17.4646 2.28871 17.3816 2.10726C17.2986 1.92581 17.1511 1.90565 17.105 1.86533H14.3572C13.8869 1.86533 13.9515 1.85529 13.4997 1.90569Z" fill="#1F2221"/>
<path fill-rule="evenodd" clip-rule="evenodd" d="M7.61641 11.936C7.57953 11.9965 7.57952 11.9966 7.52419 12.0369L7.29367 12.2889C7.25679 12.3494 7.25679 12.3493 7.19224 12.3896L7.02626 12.6012C6.98016 12.6416 6.99861 12.6214 6.96172 12.6416C6.92484 12.7122 6.92483 12.7123 6.86951 12.7526L6.63899 13.0046C6.6021 13.0651 6.6021 13.065 6.53756 13.1053L6.37159 13.3169C6.33471 13.3572 6.35314 13.3371 6.30704 13.3573C6.27015 13.4279 6.27016 13.428 6.21484 13.4683L6.03964 13.6698C6.00276 13.7102 6.0212 13.7001 5.98432 13.7203C5.94743 13.7808 5.94743 13.7806 5.88289 13.821L5.65237 14.073C5.6247 14.1435 5.6247 14.1436 5.56015 14.184L5.32963 14.436C5.29275 14.4965 5.29276 14.4966 5.23743 14.5369C5.20977 14.5873 5.2282 14.567 5.18209 14.6174L5.00691 14.7889C4.97003 14.8595 4.97003 14.8593 4.90548 14.8896L4.67496 15.1517C4.63808 15.2121 4.63807 15.2122 4.58275 15.2526C4.55508 15.303 4.57353 15.2826 4.52742 15.323L4.35222 15.5046C4.31534 15.5651 4.31534 15.5649 4.25079 15.6052L4.02027 15.8573C3.98339 15.9278 3.9834 15.9279 3.92807 15.9683C3.90041 16.0187 3.91884 15.9986 3.87274 16.0389L3.75288 16.1698C3.71599 16.2101 3.73444 16.2001 3.69755 16.2203C3.66067 16.2808 3.66067 16.2808 3.59612 16.3212C3.55924 16.4119 3.45781 16.5026 3.39326 16.5631C3.37482 16.2506 3.35637 14.2042 3.40248 13.9925L3.32871 13.801L3.33793 13.8109C3.2365 13.7101 3.19962 13.6194 2.95988 13.6093C2.89534 13.6093 2.85845 13.6194 2.81235 13.6396C2.7939 13.6497 2.75702 13.6799 2.75702 13.6799C2.71092 13.7001 2.73858 13.69 2.70169 13.7001C2.66481 13.7707 2.66481 13.7806 2.60026 13.831L2.56338 13.9925V17.0972C2.56338 17.3996 2.50806 17.8029 2.68325 17.9844C2.86767 18.1759 3.21806 18.1153 3.50391 18.1153H6.3347L6.49147 18.0853C6.53757 18.0046 6.54678 18.0045 6.61133 17.9743C6.62055 17.934 6.61133 17.9541 6.62977 17.9137C6.62977 17.9137 6.64822 17.8834 6.64822 17.8633C6.66666 17.823 6.67588 17.803 6.69432 17.7626C6.69432 17.6114 6.65744 17.5105 6.62056 17.3996L6.61133 17.3693C6.556 17.3391 6.54679 17.309 6.47302 17.2788C6.44536 17.2586 6.42691 17.2485 6.39925 17.2384C6.34393 17.2082 6.3808 17.2384 6.3347 17.1981C6.15028 17.2485 4.26924 17.2384 3.9834 17.2081L4.18626 17.0167C4.22314 16.9461 4.26002 16.8956 4.32456 16.8653C4.35222 16.8048 4.36144 16.7949 4.40755 16.7445C4.45365 16.6941 4.46288 16.6839 4.51821 16.6537C4.53665 16.6033 4.53665 16.6135 4.57353 16.5732C4.57353 16.5732 4.60119 16.5328 4.61041 16.5328C4.63807 16.5127 4.61963 16.5227 4.65651 16.5026C4.67496 16.4522 4.69339 16.442 4.7395 16.3916C4.7856 16.3412 4.79482 16.3212 4.84093 16.301C4.86859 16.2506 4.85937 16.2505 4.89625 16.2102L4.93314 16.1799C4.9608 16.1497 4.94237 16.1698 4.97925 16.1496C5.00691 16.0791 5.09912 15.9783 5.16366 15.938C5.19133 15.9077 5.17288 15.9279 5.20054 15.8875L5.2282 15.8573C5.26508 15.8169 5.26509 15.8171 5.30197 15.7869C5.32963 15.7365 5.34808 15.7263 5.39418 15.6759C5.44029 15.6255 5.44029 15.6052 5.49561 15.5851C5.52328 15.5145 5.56937 15.4642 5.63392 15.434C5.66158 15.3634 5.75379 15.2626 5.81833 15.2324C5.846 15.182 5.83678 15.1819 5.88289 15.1416C5.88289 15.1416 5.91054 15.1113 5.91976 15.1012C5.94743 15.0811 5.92899 15.1012 5.95666 15.0709C5.98432 15.0205 6.00275 15.0106 6.04886 14.9602C6.09496 14.9098 6.09496 14.8895 6.15028 14.8694C6.17795 14.819 6.16872 14.8292 6.20561 14.7788L6.2425 14.7485C6.27016 14.7284 6.25172 14.7384 6.28861 14.7183C6.31627 14.6477 6.40847 14.5469 6.47302 14.5167C6.49146 14.4764 6.48224 14.4965 6.50068 14.4663C6.5099 14.4562 6.53756 14.4259 6.53756 14.4259C6.57444 14.3856 6.56522 14.3855 6.61133 14.3653C6.63899 14.3049 6.64822 14.2949 6.69432 14.2445C6.74043 14.2042 6.74965 14.1839 6.80497 14.1537C6.83263 14.0932 6.81419 14.1234 6.86029 14.0629C6.89718 14.0226 6.89717 14.0328 6.94328 14.0026C6.96172 13.9522 6.98016 13.942 7.02626 13.8916C7.07237 13.8412 7.08159 13.8212 7.12769 13.801C7.15535 13.7405 7.13692 13.7606 7.18303 13.7102C7.23835 13.6598 7.21069 13.6799 7.26601 13.6396C7.29367 13.5892 7.31211 13.5792 7.349 13.5288C7.3951 13.4784 7.40432 13.4683 7.45964 13.438C7.4873 13.3775 7.46887 13.4077 7.51498 13.3573C7.51498 13.3573 7.54264 13.3169 7.55186 13.3169C7.57952 13.2968 7.56108 13.3071 7.59796 13.2869C7.62563 13.2163 7.71783 13.1153 7.78238 13.0851C7.80082 13.0347 7.80082 13.0348 7.8377 12.9945C7.84692 12.9844 7.86537 12.9743 7.87459 12.9643C7.90225 12.934 7.8838 12.9541 7.92068 12.934C7.94835 12.8634 8.04057 12.7627 8.10511 12.7223C8.142 12.6618 8.12355 12.692 8.16965 12.6416C8.21575 12.5912 8.18809 12.6113 8.24342 12.571C8.26186 12.5105 8.30797 12.45 8.33563 12.3492C8.35407 12.2081 8.3264 12.1478 8.29874 12.0167C8.27108 11.9966 8.21576 11.936 8.20654 11.8957C8.10511 11.8452 8.04979 11.8048 7.90225 11.8048C7.72706 11.825 7.71784 11.8856 7.61641 11.936Z" fill="#1F2221"/>
<path fill-rule="evenodd" clip-rule="evenodd" d="M11.8491 11.8554C11.8214 11.8957 11.7384 11.9866 11.6923 12.0168C11.6646 12.1378 11.6462 12.2082 11.6554 12.3493C11.7384 12.6316 12.4853 13.3574 12.7066 13.6094L16.0077 17.2083C15.7218 17.2385 13.8407 17.2486 13.6563 17.1982C13.6194 17.2385 13.6471 17.2184 13.5826 17.2486C13.5457 17.2587 13.518 17.2688 13.4811 17.2789C13.4627 17.3091 13.3982 17.3695 13.3797 17.3896C13.3428 17.5106 13.306 17.5914 13.306 17.7627C13.3705 17.9643 13.4535 18.065 13.6563 18.1154C14.2649 18.1255 14.8643 18.1154 15.4636 18.1154C15.8601 18.1154 16.9297 18.1761 17.234 18.0652C17.2432 18.0551 17.3631 17.9239 17.3816 17.9038C17.4 17.8533 17.3908 17.8535 17.4092 17.8132C17.4277 17.7628 17.4184 17.7829 17.4369 17.7627C17.4092 17.5813 17.4277 14.7888 17.4277 14.3554C17.4277 13.932 17.4277 13.7304 17.1049 13.6094C16.9666 13.6094 16.8652 13.6397 16.773 13.6901C16.69 13.7607 16.7084 13.7606 16.6439 13.8513C16.6347 13.8816 16.6347 13.9018 16.6254 13.9321C16.5978 14.0026 16.6255 13.9523 16.5886 13.9926C16.6255 14.1438 16.6162 16.2709 16.607 16.5733C16.4042 16.3818 16.2382 16.17 16.0445 15.9583L12.4761 12.057C12.347 11.9158 12.3562 11.9057 12.1626 11.8049C12.015 11.7949 11.9781 11.8151 11.8491 11.8554Z" fill="#1F2221"/>
<path fill-rule="evenodd" clip-rule="evenodd" d="M2.72011 1.94573C2.674 2.09694 2.56335 2.01625 2.56335 2.39931V5.56451C2.56335 5.81653 2.48959 6.35086 2.95985 6.3811C3.15349 6.36094 3.13504 6.3306 3.25491 6.28019C3.27335 6.26003 3.30102 6.1997 3.32868 6.17954C3.34712 6.13921 3.34713 6.11895 3.36557 6.07863C3.39323 5.99799 3.37479 6.03823 3.40245 5.99791C3.37479 5.8467 3.37479 3.62916 3.39323 3.42755C3.57765 3.609 3.77128 3.83063 3.94647 4.03224C4.4905 4.63708 5.08986 5.24197 5.61544 5.85689C6.16869 6.48189 6.73118 7.05653 7.28443 7.67145C7.49651 7.91338 7.66248 8.14524 7.90222 8.18557C8.17885 8.17549 8.3356 8.01423 8.34482 7.71181C8.32638 7.50011 8.22495 7.40924 8.13274 7.30844L6.19636 5.19166C5.54168 4.47593 4.58272 3.46773 3.98337 2.77217C4.27843 2.752 6.15025 2.73185 6.33467 2.78226L6.50987 2.70178C6.52831 2.68162 6.57442 2.64122 6.60208 2.62105C6.63896 2.49001 6.67585 2.5101 6.69429 2.29841C6.66663 1.90526 6.40845 1.86501 6.05805 1.86501C5.71688 1.86501 5.3757 1.86501 5.02531 1.86501C4.35219 1.86501 3.66063 1.87509 2.97828 1.86501C2.86763 1.88517 2.82154 1.90541 2.72011 1.94573Z" fill="#1F2221"/>
</svg>
