<svg width="23" height="23" viewBox="0 0 23 23" fill="none" xmlns="http://www.w3.org/2000/svg">
<g clip-path="url(#clip0_160_3638)">
<path d="M22.9933 0H0.00673828C0.00301683 0 0 0.00301683 0 0.00673828V22.9933C0 22.997 0.00301683 23 0.00673828 23H22.9933C22.997 23 23 22.997 23 22.9933V0.00673828C23 0.00301683 22.997 0 22.9933 0Z" fill="#37AEE2"/>
<path d="M8.93945 18.1484C8.44531 18.1484 8.49023 17.9688 8.35547 17.5195L6.91797 12.8027L17.9238 6.33398" fill="#C8DAEA"/>
<path d="M8.93945 18.1484C9.25391 18.1484 9.43359 17.9688 9.6582 17.7891L11.6797 15.8574L9.16406 14.3301" fill="#A9C9DD"/>
<path d="M9.16389 14.3296L15.2283 18.7769C15.8572 19.1812 16.3963 18.9566 16.576 18.148L19.0467 6.55815C19.2713 5.56987 18.6424 5.12065 17.9686 5.4351L3.54865 11.0054C2.60529 11.3648 2.60529 11.9488 3.36896 12.1734L7.09748 13.3414L15.6326 7.90581C16.0369 7.6812 16.3963 7.77104 16.1268 8.08549" fill="#F6FBFE"/>
</g>
<defs>
<clipPath id="clip0_160_3638">
<rect width="23" height="23" fill="white"/>
</clipPath>
</defs>
</svg>
