<svg width="23" height="23" viewBox="0 0 23 23" fill="none" xmlns="http://www.w3.org/2000/svg">
<g clip-path="url(#clip0_160_3627)">
<path d="M22.9933 0H0.00673828C0.00301683 0 0 0.00301683 0 0.00673828V22.9933C0 22.997 0.00301683 23 0.00673828 23H22.9933C22.997 23 23 22.997 23 22.9933V0.00673828C23 0.00301683 22.997 0 22.9933 0Z" fill="#5281B8"/>
<path d="M12.3087 16.3064C12.5333 16.2615 12.9376 16.1716 12.9376 15.6326C12.9376 15.6326 12.8927 14.2849 13.5216 14.1052C14.1505 13.9255 14.9591 15.4079 15.8126 15.9919C16.4415 16.3962 16.9357 16.3513 16.9357 16.3513L19.2267 16.3064C19.2267 16.3064 20.3946 16.2165 19.8556 15.2732C19.8107 15.1833 19.4513 14.5994 18.1036 13.3865C16.7111 12.0388 16.9357 12.2634 18.5978 9.9724C19.631 8.57982 20.0802 7.72631 19.9454 7.41185C19.7657 7.0974 19.047 7.14232 19.047 7.14232H16.4864C16.2169 7.14232 16.0821 7.18724 15.9474 7.41185C15.9474 7.41185 15.5431 8.5349 15.004 9.43334C13.881 11.365 13.4318 11.4548 13.2071 11.3201C12.8028 11.0954 12.8927 10.2419 12.8927 9.65795C12.8927 7.63646 13.2071 6.91771 12.3087 6.73803C11.7247 6.64818 9.65832 6.55834 9.02941 6.87279C8.71496 7.05248 8.53527 7.36693 8.67003 7.41185C8.8048 7.41185 9.2091 7.45678 9.43371 7.72631C9.79308 8.31029 9.838 11.0954 9.34386 11.365C8.67003 11.8591 6.963 8.57982 6.55871 7.5017C6.46886 7.23217 6.3341 7.18724 6.01964 7.0974H3.54894C3.27941 7.0974 2.87511 7.14232 3.0548 7.68139C4.26769 10.197 6.78332 16.3513 11.3204 16.3064H12.3087Z" fill="white"/>
</g>
<defs>
<clipPath id="clip0_160_3627">
<rect width="23" height="23" fill="white"/>
</clipPath>
</defs>
</svg>
