<svg width="23" height="23" viewBox="0 0 23 23" fill="none" xmlns="http://www.w3.org/2000/svg">
<g clip-path="url(#clip0_160_3623)">
<path d="M22.9933 0H0.00673828C0.00301683 0 0 0.00301683 0 0.00673828V22.9933C0 22.997 0.00301683 23 0.00673828 23H22.9933C22.997 23 23 22.997 23 22.9933V0.00673828C23 0.00301683 22.997 0 22.9933 0Z" fill="#25D366"/>
<path d="M5.52562 17.6544L6.15453 14.7345C5.3462 13.4595 5.03087 11.9334 5.2677 10.4425C5.50452 8.95159 6.27724 7.59833 7.44086 6.63661C8.60448 5.6749 10.079 5.17083 11.5879 5.21898C13.0967 5.26712 14.5361 5.86418 15.6361 6.89812C16.736 7.93206 17.4209 9.33183 17.5622 10.8348C17.7035 12.3378 17.2915 13.8407 16.4035 15.0615C15.5155 16.2823 14.2126 17.1372 12.7392 17.4657C11.2658 17.7942 9.72309 17.5738 8.40062 16.8458L5.52562 17.6544Z" fill="#25D366" stroke="white"/>
<path d="M13.8358 12.2635C13.701 12.1737 13.5662 12.1287 13.4315 12.3084L12.8924 13.0272C12.7577 13.117 12.6678 13.162 12.4881 13.0721C11.8143 12.7127 10.8709 12.3084 10.0623 10.9608C10.0174 10.7811 10.1073 10.6913 10.1971 10.6014L10.6014 9.9725C10.6912 9.88266 10.6463 9.79281 10.6014 9.70297L10.0623 8.40023C9.92757 8.04086 9.79281 8.08578 9.65804 8.08578H9.29867C9.20882 8.08578 9.02914 8.1307 8.84945 8.31039C7.86117 9.29867 8.26546 10.6913 8.98421 11.5897C9.11898 11.7694 10.0174 13.3866 11.9491 14.2401C13.3866 14.869 13.701 14.7791 14.1053 14.6893C14.5994 14.6444 15.0936 14.2401 15.3182 13.8358C15.3631 13.701 15.5877 13.117 15.408 13.0272" fill="white"/>
</g>
<defs>
<clipPath id="clip0_160_3623">
<rect width="23" height="23" fill="white"/>
</clipPath>
</defs>
</svg>
