<svg width="23" height="23" viewBox="0 0 23 23" fill="none" xmlns="http://www.w3.org/2000/svg">
<g clip-path="url(#clip0_160_3630)">
<path d="M23 0H0V23H23V0Z" fill="#DC472E"/>
<path d="M13.2865 14.723C13.286 14.6372 13.2608 14.5478 13.229 14.4676C13.1866 14.3621 13.0957 14.3096 12.9817 14.2985C12.8479 14.2854 12.7409 14.3394 12.644 14.4252C12.6052 14.459 12.5875 14.5095 12.5875 14.5095L12.5895 17.2333V17.3004C12.5895 17.3004 12.6128 17.3317 12.6163 17.3357C12.695 17.421 12.7869 17.4886 12.9045 17.5128C13.0983 17.5527 13.235 17.472 13.2729 17.2923C13.2825 17.2474 13.288 17.201 13.288 17.155C13.289 16.344 13.2905 15.5335 13.2865 14.723ZM13.2865 14.723C13.286 14.6372 13.2608 14.5478 13.229 14.4676C13.1866 14.3621 13.0957 14.3096 12.9817 14.2985C12.8479 14.2854 12.7409 14.3394 12.644 14.4252C12.6052 14.459 12.5875 14.5095 12.5875 14.5095L12.5895 17.2333V17.3004C12.5895 17.3004 12.6128 17.3317 12.6163 17.3357C12.695 17.421 12.7869 17.4886 12.9045 17.5128C13.0983 17.5527 13.235 17.472 13.2729 17.2923C13.2825 17.2474 13.288 17.201 13.288 17.155C13.289 16.344 13.2905 15.5335 13.2865 14.723ZM16.3363 10.6153C13.1129 10.5462 9.88797 10.5462 6.66405 10.6153C5.54567 10.6391 4.65137 11.5535 4.65137 12.6724V17.7071C4.65137 18.8265 5.54567 19.741 6.66405 19.7647C9.88797 19.8339 13.1129 19.8339 16.3363 19.7647C17.4552 19.741 18.3495 18.8265 18.3495 17.7071V12.6724C18.3495 11.5536 17.4552 10.6391 16.3363 10.6153ZM7.61083 18.166H6.68121V12.9107H5.71877V12.0315H8.57528V12.9087H7.61083V18.166ZM10.9377 15.9847V18.1664H10.1146V17.6678C10.0848 17.6996 10.0681 17.7167 10.0525 17.7344C9.87535 17.9343 9.67448 18.1008 9.4181 18.1891C9.29294 18.232 9.16425 18.2467 9.03253 18.2239C8.85286 18.1942 8.73224 18.0907 8.65956 17.9272C8.59194 17.7763 8.57478 17.6148 8.57427 17.4523C8.57226 16.8517 8.57326 13.6732 8.57326 13.6424H9.39439C9.3959 13.6702 9.39893 15.9519 9.39943 17.0647C9.39943 17.1252 9.39994 17.1873 9.41205 17.2464C9.44233 17.3958 9.55689 17.4599 9.70073 17.4074C9.86626 17.3468 9.99244 17.2327 10.0984 17.096C10.1141 17.0763 10.1141 17.041 10.1141 17.0127V13.6374L10.9377 13.6354C10.9377 13.6354 10.9377 15.2286 10.9377 15.9847ZM14.0693 17.7304C13.9592 18.0614 13.717 18.23 13.3688 18.2265C13.0856 18.2239 12.856 18.1114 12.6668 17.906C12.6456 17.8833 12.587 17.8212 12.587 17.8212V18.1654H11.7624V12.031H12.587C12.587 12.684 12.587 14.0502 12.587 14.0502C12.587 14.0502 12.6334 13.9573 12.6758 13.9094C12.8035 13.7666 12.959 13.6561 13.1507 13.6076C13.4672 13.5284 13.8321 13.6263 14.0057 13.9962C14.1081 14.2147 14.1369 14.4479 14.1369 14.6851C14.1384 15.5426 14.1384 16.4 14.1374 17.2575C14.1369 17.418 14.1202 17.5765 14.0693 17.7304ZM17.115 17.5578C16.9722 17.9762 16.677 18.2083 16.244 18.2719C15.9755 18.3113 15.7095 18.3058 15.4577 18.1917C15.113 18.0363 14.9176 17.7551 14.8339 17.3973C14.795 17.2308 14.7758 17.0562 14.7738 16.8851C14.7672 16.2133 14.7703 15.5411 14.7718 14.8694C14.7723 14.5181 14.8561 14.1941 15.0968 13.9251C15.3714 13.6177 15.7226 13.5032 16.1238 13.5289C16.2445 13.5365 16.3676 13.5562 16.4822 13.594C16.8723 13.7222 17.0807 14.0144 17.1625 14.402C17.1938 14.5514 17.2054 14.7063 17.2079 14.8593C17.2145 15.2176 17.2054 16.0074 17.2054 16.0074H15.6262V17.1394C15.6262 17.3428 15.7907 17.5073 15.9941 17.5073C16.197 17.5073 16.3615 17.3428 16.3615 17.1394V16.5575H17.2099C17.2099 16.5575 17.2225 17.2444 17.115 17.5578ZM16.3615 14.67C16.3615 14.4671 16.197 14.3021 15.9941 14.3021C15.7907 14.3021 15.6262 14.4671 15.6262 14.67V15.3054H16.3615V14.67ZM13.229 14.4676C13.1866 14.3622 13.0957 14.3097 12.9817 14.2986C12.8479 14.2854 12.7409 14.3394 12.644 14.4252C12.6052 14.4591 12.5875 14.5095 12.5875 14.5095L12.5895 17.2333V17.3004C12.5895 17.3004 12.6128 17.3317 12.6163 17.3358C12.695 17.421 12.7869 17.4887 12.9045 17.5129C13.0983 17.5528 13.235 17.472 13.2729 17.2923C13.2825 17.2474 13.288 17.201 13.288 17.1551C13.289 16.344 13.2905 15.5335 13.2865 14.723C13.286 14.6372 13.2608 14.5478 13.229 14.4676Z" fill="white"/>
<path d="M15.3367 4.79395L15.3365 9.34841H14.4925L14.4935 8.85912C14.4002 8.95103 14.3206 9.03687 14.2331 9.11399C14.0779 9.25066 13.9022 9.35255 13.6966 9.39278C13.3811 9.4545 13.1123 9.35472 13.0116 9.02789C12.9781 8.91903 12.9579 8.80169 12.957 8.68803V4.79395H13.7946V8.26723C13.7946 8.31326 13.7983 8.35979 13.8064 8.40491C13.8318 8.54804 13.9376 8.61541 14.0754 8.56762C14.2434 8.50948 14.3716 8.39315 14.4804 8.25608C14.4958 8.23649 14.493 8.19995 14.493 8.17124V4.79395H15.3367Z" fill="white"/>
<path d="M8.35648 5.58501C8.17328 4.8128 7.78946 3.18262 7.78946 3.18262H6.8291C6.8291 3.18262 7.56695 5.62968 7.89691 6.72101C7.90877 6.76047 7.91422 6.80332 7.91422 6.84465L7.91387 9.34708H8.79944L8.79908 6.84465C8.79908 6.80332 8.80453 6.76047 8.81639 6.72101C9.14636 5.62968 9.8842 3.18262 9.8842 3.18262H8.92384C8.92384 3.18262 8.53998 4.8128 8.35683 5.58501H8.35648Z" fill="white"/>
<path d="M11.0404 4.67969C10.3731 4.67969 9.83203 5.22071 9.83203 5.8881V8.253C9.83203 8.92039 10.3731 9.46141 11.0404 9.46141C11.7078 9.46141 12.2489 8.92039 12.2489 8.253V5.8881C12.2489 5.22071 11.7078 4.67969 11.0404 4.67969ZM11.3892 8.30074C11.3892 8.49303 11.2327 8.64943 11.0405 8.64943C10.8483 8.64943 10.6918 8.49303 10.6918 8.30074V5.84031C10.6918 5.64802 10.8483 5.49162 11.0405 5.49162C11.2327 5.49162 11.3892 5.64807 11.3892 5.84031V8.30074Z" fill="white"/>
</g>
<defs>
<clipPath id="clip0_160_3630">
<rect width="23" height="23" fill="white"/>
</clipPath>
</defs>
</svg>
