<svg width="69" height="70" viewBox="0 0 69 70" fill="none" xmlns="http://www.w3.org/2000/svg">
<path d="M65.4978 18.1425C64.8806 18.1425 64.3801 18.6501 64.3801 19.2764C64.3801 19.9026 64.8805 20.4104 65.4978 20.4104C66.1963 20.4104 66.7646 20.9869 66.7646 21.6955V62.8186C66.7646 63.5272 66.1963 64.1038 65.4978 64.1038H8.27111C4.94307 64.1038 2.23549 61.357 2.23549 57.9807C2.23549 54.6044 4.94293 51.8573 8.27111 51.8573C8.88833 51.8573 9.38885 51.3497 9.38885 50.7234V20.4102H15.4245C16.0417 20.4102 16.5422 19.9026 16.5422 19.2763C16.5422 18.6501 16.0418 18.1423 15.4245 18.1423H9.38872V4.76236C9.38872 4.13619 8.88833 3.62842 8.27097 3.62842C3.71037 3.62842 0 7.39256 0 12.0194V57.9805C0 62.6074 3.71037 66.3715 8.27111 66.3715H65.4978C67.4289 66.3715 69 64.7777 69 62.8186V21.6954C69 19.7362 67.4289 18.1425 65.4978 18.1425ZM2.23536 12.0194C2.23536 9.03059 4.35751 6.53492 7.15322 6.00158V49.666C5.22459 49.9315 3.50485 50.874 2.23536 52.249V12.0194Z" fill="white"/>
<path d="M51.1914 18.1426H32.1153C31.4981 18.1426 30.9976 18.6502 30.9976 19.2765C30.9976 19.9027 31.4979 20.4105 32.1153 20.4105H51.1914C51.8086 20.4105 52.3091 19.9028 52.3091 19.2765C52.3091 18.6502 51.8087 18.1426 51.1914 18.1426Z" fill="white"/>
<path d="M52.0791 52.4539L21.0813 11.3308C20.7902 10.9445 20.2884 10.7895 19.8351 10.9455C19.3809 11.1012 19.0757 11.5333 19.0757 12.0194V53.1425C19.0757 53.7687 19.5761 54.2765 20.1934 54.2765H51.1913C51.6166 54.2765 52.0049 54.0317 52.1934 53.645C52.3818 53.2582 52.3373 52.7965 52.0791 52.4539ZM21.311 52.0086V15.3688L48.9294 52.0086H21.311Z" fill="white"/>
<path d="M40.016 46.4061L27.0421 29.1945C26.751 28.8084 26.2495 28.6533 25.7959 28.8092C25.342 28.9651 25.0366 29.3972 25.0366 29.8833V47.0949C25.0366 47.7211 25.537 48.2289 26.1544 48.2289H39.1283C39.5536 48.2289 39.9418 47.9841 40.1304 47.5974C40.3189 47.2106 40.2744 46.7489 40.016 46.4061ZM27.272 45.9611V33.2327L36.8663 45.9611H27.272Z" fill="white"/>
<path d="M61.7665 12.8076L59.3821 6.76008C59.2126 6.32969 58.8016 6.04736 58.3444 6.04736C57.8873 6.04736 57.4764 6.32969 57.3067 6.76008L54.9223 12.8076C54.8694 12.9417 54.8423 13.0846 54.8423 13.2288V56.771C54.8423 58.0632 55.8785 59.1143 57.1522 59.1143H59.5366C60.8104 59.1143 61.8465 58.0631 61.8465 56.771V13.2288C61.8466 13.0846 61.8195 12.9417 61.7665 12.8076ZM58.3444 10.2344L59.5549 13.3044H57.1338L58.3444 10.2344ZM59.6112 56.771C59.6112 56.8127 59.5778 56.8466 59.5367 56.8466H57.1523C57.1112 56.8466 57.0778 56.8127 57.0778 56.771V54.2764H59.6112V56.771ZM59.6112 52.0085H57.0778V15.5723H59.6112V52.0085Z" fill="white"/>
</svg>
