<svg width="70" height="70" viewBox="0 0 70 70" fill="none" xmlns="http://www.w3.org/2000/svg">
<path d="M66.9939 45.3067H2.57669C1.86516 45.3067 1.28835 45.8836 1.28835 46.5951V67.638C1.28835 68.3496 1.86516 68.9264 2.57669 68.9264H66.9939C67.7054 68.9264 68.2822 68.3496 68.2822 67.638V46.5951C68.2822 45.8836 67.7054 45.3067 66.9939 45.3067Z" stroke="white" stroke-width="1.71779" stroke-miterlimit="22.9256"/>
<path d="M12.0245 55.6135V17.3926H7.30062" stroke="white" stroke-width="1.71779" stroke-miterlimit="22.9256"/>
<path d="M16.319 45.3067V56.0429" stroke="white" stroke-width="1.71779" stroke-miterlimit="22.9256"/>
<path d="M32.638 45.3067V56.0429" stroke="white" stroke-width="1.71779" stroke-miterlimit="22.9256"/>
<path d="M36.9325 45.3067V56.0429" stroke="white" stroke-width="1.71779" stroke-miterlimit="22.9256"/>
<path d="M54.1104 45.3067V56.0429" stroke="white" stroke-width="1.71779" stroke-miterlimit="22.9256"/>
<path d="M58.4049 55.6135V16.9632H63.1288" stroke="white" stroke-width="1.71779" stroke-miterlimit="22.9256"/>
<path d="M1.28835 49.6012H12.0245" stroke="white" stroke-width="1.71779" stroke-miterlimit="22.9256"/>
<path d="M57.9755 49.6012H68.2822" stroke="white" stroke-width="1.71779" stroke-miterlimit="22.9256"/>
<path d="M21.4724 59.908V55.6135H6.87117V60.3374H10.7362" stroke="white" stroke-width="1.71779" stroke-miterlimit="22.9256"/>
<path d="M27.4847 59.4785V55.6135H42.0859V60.3374" stroke="white" stroke-width="1.71779" stroke-miterlimit="22.9256"/>
<path d="M48.5276 59.908V55.6135H62.6994V60.3374" stroke="white" stroke-width="1.71779" stroke-miterlimit="22.9256"/>
<path d="M13.7423 60.3374H63.5583" stroke="white" stroke-width="1.71779" stroke-miterlimit="22.9256"/>
<path d="M6.01227 65.0613C6.48663 65.0613 6.87117 64.6768 6.87117 64.2025C6.87117 63.7281 6.48663 63.3436 6.01227 63.3436C5.53792 63.3436 5.15338 63.7281 5.15338 64.2025C5.15338 64.6768 5.53792 65.0613 6.01227 65.0613Z" fill="white" stroke="white" stroke-width="1.71779" stroke-miterlimit="22.9256"/>
<path d="M33.0675 65.0613C33.5418 65.0613 33.9264 64.6768 33.9264 64.2025C33.9264 63.7281 33.5418 63.3436 33.0675 63.3436C32.5931 63.3436 32.2086 63.7281 32.2086 64.2025C32.2086 64.6768 32.5931 65.0613 33.0675 65.0613Z" fill="white" stroke="white" stroke-width="1.71779" stroke-miterlimit="22.9256"/>
<path d="M65.2761 65.0613C65.7504 65.0613 66.135 64.6768 66.135 64.2025C66.135 63.7281 65.7504 63.3436 65.2761 63.3436C64.8017 63.3436 64.4172 63.7281 64.4172 64.2025C64.4172 64.6768 64.8017 65.0613 65.2761 65.0613Z" fill="white" stroke="white" stroke-width="1.71779" stroke-miterlimit="22.9256"/>
<path d="M30.9202 22.1166H20.1841V35H30.9202V22.1166Z" stroke="white" stroke-width="1.71779" stroke-miterlimit="22.9256"/>
<path fill-rule="evenodd" clip-rule="evenodd" d="M18.0368 35.4294H33.0675V37.5767C33.0675 38.4356 32.638 38.865 31.7791 38.865H19.3252C18.4663 38.865 18.0368 38.4356 18.0368 37.5767V35.4294V35.4294Z" stroke="white" stroke-width="1.71779" stroke-miterlimit="22.9256"/>
<path d="M25.7669 22.1166V35" stroke="white" stroke-width="1.71779" stroke-miterlimit="22.9256"/>
<path d="M39.5092 44.8773V22.546H51.9632V39.2945" stroke="white" stroke-width="1.71779" stroke-miterlimit="22.9256"/>
<path d="M51.9632 42.3006V45.3067" stroke="white" stroke-width="1.71779" stroke-miterlimit="22.9256"/>
<path d="M47.6687 33.7117C48.1431 33.7117 48.5276 33.3271 48.5276 32.8528C48.5276 32.3784 48.1431 31.9939 47.6687 31.9939C47.1944 31.9939 46.8098 32.3784 46.8098 32.8528C46.8098 33.3271 47.1944 33.7117 47.6687 33.7117Z" fill="white" stroke="white" stroke-width="1.71779" stroke-miterlimit="22.9256"/>
<path d="M40.3681 5.3681H29.6319V16.5337H40.3681V5.3681Z" stroke="white" stroke-width="1.71779" stroke-miterlimit="22.9256"/>
<path d="M35.2147 5.3681V16.5337" stroke="white" stroke-width="1.71779" stroke-miterlimit="22.9256"/>
<path d="M29.6319 10.9509H40.3681" stroke="white" stroke-width="1.71779" stroke-miterlimit="22.9256"/>
<path d="M12.0245 13.0982L5.58282 19.5399L1.71779 16.1043L15.8896 1.07362H53.2515L68.7117 16.1043L65.2761 19.1104L47.2393 1.50307" stroke="white" stroke-width="1.71779" stroke-miterlimit="22.9256"/>
<path d="M15.0307 10.092L23.6196 1.50307" stroke="white" stroke-width="1.71779" stroke-miterlimit="22.9256"/>
</svg>
