<svg width="70" height="65" viewBox="0 0 70 65" fill="none" xmlns="http://www.w3.org/2000/svg">
<path d="M68.2173 50.1471H57.35V39.9947H68.2171C69.2001 39.9947 69.9999 39.1949 69.9999 38.2119V27.0437C69.9999 26.0606 69.2001 25.2608 68.2171 25.2608H57.3499V14.6005C57.3499 13.6175 56.5501 12.8177 55.5671 12.8177H44.7053V2.15758C44.7053 1.17454 43.9056 0.374756 42.9225 0.374756H36.9557C36.323 0.374756 35.8103 0.887581 35.8103 1.52014C35.8103 2.15269 36.323 2.66552 36.9557 2.66552H42.4146V12.8179H30.9043H19.4059V2.66552H32.336C32.9687 2.66552 33.4814 2.15269 33.4814 1.52014C33.4814 0.887581 32.9687 0.374756 32.336 0.374756H18.2605H18.2597H-6.40232C-7.38536 0.374756 -8.18514 1.17454 -8.18514 2.15758V13.8432C-8.18912 13.8828 -8.19141 13.9228 -8.19141 13.9633V26.4064C-8.19141 26.4468 -8.18912 26.4868 -8.18499 26.5262V38.7294C-8.18912 38.7688 -8.19141 38.8088 -8.19141 38.8493V42.9047C-8.19141 43.5373 -7.67858 44.0501 -7.04603 44.0501C-6.41347 44.0501 -5.90064 43.5373 -5.90064 42.9047V39.9947H4.45864V50.1471H-5.90064V47.5021C-5.90064 46.8696 -6.41347 46.3568 -7.04603 46.3568C-7.67858 46.3568 -8.19141 46.8696 -8.19141 47.5021V51.2924C-8.19141 51.3329 -8.18912 51.3729 -8.18499 51.4123V63.0979C-8.18499 64.081 -7.38521 64.8806 -6.40217 64.8806H18.2599H18.2606H43.5545H43.5601H68.2173C69.2003 64.8806 70.0001 64.0808 70.0001 63.0979V51.9297C70.0001 50.9467 69.2003 50.1471 68.2173 50.1471ZM56.2045 27.5516H67.7092V37.7039H56.2045H44.7053V27.5516H56.2045ZM32.0496 15.1086H43.56H55.0591V25.261H43.56H43.5543H32.0496V15.1086ZM42.4089 27.5516V37.7039H30.905H30.9043H19.4059V27.5516H30.9043H42.4089ZM29.7589 15.1086V25.261H18.2605H18.2597H6.7494V15.1086H29.7589ZM-5.89423 2.66552H17.1145V12.8179H5.60417H-5.89423V2.66552ZM-5.90064 15.1085H4.45864V25.2608H-5.90064V15.1085ZM-5.89423 37.7039V27.5516H5.60417H17.1145V37.7039H5.60478H5.60402H-5.89423ZM17.1145 62.59H-5.89423V52.4378H5.60417H5.60493H17.1145V62.59ZM18.2605 50.1471H18.2597H6.75016V39.9947H18.2597H18.2605H29.7589V50.1471H18.2605ZM42.4089 62.59H19.4059V52.4378H30.9043H30.905H42.4089V62.59ZM43.56 50.1471H43.5543H32.0506V39.9947H43.5543H43.56H55.0591V50.1471H43.56ZM67.7092 62.59H44.7053V52.4378H56.2045H67.7092V62.59Z" fill="white"/>
</svg>
