<svg width="70" height="70" viewBox="0 0 70 70" fill="none" xmlns="http://www.w3.org/2000/svg">
<g clip-path="url(#clip0_75_1501)">
<path d="M1.12926 36.0924C0.505197 36.0924 0 35.5869 0 34.9624V16.8871C0 16.2633 0.505197 15.7578 1.12926 15.7578H19.1936C19.817 15.7578 20.3222 16.2633 20.3222 16.8871C20.3222 17.5116 19.817 18.0171 19.1936 18.0171H2.25788V34.9624C2.25788 35.5869 1.75269 36.0924 1.12926 36.0924Z" fill="white"/>
<path d="M1.12926 47.3895C0.505197 47.3895 0 46.884 0 46.2602V33.7848C0 33.3459 0.254537 32.9451 0.652492 32.7603L9.68467 28.5578C9.98701 28.4189 10.3352 28.4189 10.6376 28.5578L18.461 32.1972C19.0269 32.461 19.2718 33.1326 19.0095 33.6989C18.7459 34.2645 18.0766 34.5114 17.5088 34.247L10.1614 30.8281L2.25788 34.5056V46.2608C2.25788 46.884 1.75269 47.3895 1.12926 47.3895Z" fill="white"/>
<path d="M1.12926 61.0852C0.505197 61.0852 0 60.5797 0 59.9552V45.6983C0 45.3208 0.187349 44.9692 0.501967 44.7597L8.96951 39.09C9.34873 38.8366 9.84488 38.8366 10.2248 39.09L18.6923 44.7597C19.0063 44.9692 19.1936 45.3208 19.1936 45.6983V58.7354C19.1936 59.3592 18.6884 59.8647 18.0644 59.8647C17.4403 59.8647 16.9351 59.3592 16.9351 58.7354V46.3015L9.59681 41.388L2.25788 46.3015V59.9552C2.25788 60.5797 1.75269 61.0852 1.12926 61.0852Z" fill="white"/>
<path d="M18.0643 36.0924C17.4403 36.0924 16.9351 35.5869 16.9351 34.9624V16.8871C16.9351 16.2633 17.4403 15.7578 18.0643 15.7578H36.1287C36.7527 15.7578 37.2579 16.2633 37.2579 16.8871C37.2579 17.5116 36.7527 18.0171 36.1287 18.0171H19.1936V34.9624C19.1936 35.5869 18.6884 36.0924 18.0643 36.0924Z" fill="white"/>
<path d="M18.0643 47.3895C17.4403 47.3895 16.9351 46.884 16.9351 46.2602V33.7848C16.9351 33.3459 17.1896 32.9451 17.5882 32.7603L26.6204 28.5578C26.9221 28.4189 27.2703 28.4189 27.5733 28.5578L35.3967 32.1972C35.962 32.461 36.2075 33.1326 35.9446 33.6989C35.681 34.2645 35.013 34.5114 34.4445 34.247L27.0965 30.8281L19.1936 34.5056V46.2608C19.1936 46.884 18.6884 47.3895 18.0643 47.3895Z" fill="white"/>
<path d="M18.0643 59.9552C17.4403 59.9552 16.9351 59.4497 16.9351 58.8259V45.6983C16.9351 45.3208 17.1231 44.9692 17.437 44.7597L25.9046 39.09C26.2844 38.8366 26.7806 38.8366 27.1598 39.09L35.6274 44.7597C35.9413 44.9692 36.1287 45.3208 36.1287 45.6983V58.7354C36.1287 59.3592 35.6235 59.8647 34.9994 59.8647C34.376 59.8647 33.8708 59.3592 33.8708 58.7354V46.3015L26.5319 41.388L19.1936 46.3015V58.8259C19.1936 59.4497 18.6884 59.9552 18.0643 59.9552Z" fill="white"/>
<path d="M34.9995 36.0924C34.376 36.0924 33.8708 35.5869 33.8708 34.9624V16.8871C33.8708 16.2633 34.376 15.7578 34.9995 15.7578H44.0316C44.6557 15.7578 45.1609 16.2633 45.1609 16.8871C45.1609 17.5116 44.6557 18.0171 44.0316 18.0171H36.1287V34.9624C36.1287 35.5869 35.6235 36.0924 34.9995 36.0924Z" fill="white"/>
<path d="M34.9995 47.3893C34.376 47.3893 33.8708 46.8838 33.8708 46.26V33.7846C33.8708 33.3457 34.1254 32.9449 34.5233 32.7601L42.9909 28.8201C43.5587 28.5609 44.228 28.8033 44.4916 29.3683C44.7539 29.9345 44.5091 30.6062 43.9431 30.8699L36.1287 34.5048V46.26C36.1287 46.8838 35.6235 47.3893 34.9995 47.3893Z" fill="white"/>
<path d="M34.9995 59.9552C34.376 59.9552 33.8708 59.4497 33.8708 58.8259V45.6983C33.8708 45.3208 34.0582 44.9692 34.3728 44.7597L42.8404 39.09C43.2196 38.8366 43.7157 38.8366 44.095 39.09L52.5631 44.7597C52.8771 44.9692 53.0645 45.3208 53.0645 45.6983V58.7354C53.0645 59.3592 52.5593 59.8647 51.9358 59.8647C51.3118 59.8647 50.8066 59.3592 50.8066 58.7354V46.3015L43.4683 41.388L36.1287 46.3015V58.8259C36.1287 59.4497 35.6235 59.9552 34.9995 59.9552Z" fill="white"/>
<path d="M68.8702 47.3893C68.2468 47.3893 67.7416 46.8838 67.7416 46.26V18.0171H60.3619C59.7385 18.0171 59.2327 17.5116 59.2327 16.8871C59.2327 16.2633 59.7385 15.7578 60.3619 15.7578H68.8702C69.4942 15.7578 69.9994 16.2633 69.9994 16.8871V46.26C69.9994 46.8838 69.4942 47.3893 68.8702 47.3893Z" fill="white"/>
<path d="M68.7896 34.3517C68.6313 34.3517 68.4692 34.3174 68.3148 34.2463L60.9674 30.828L60.8376 30.8888C60.2742 31.1544 59.6024 30.9062 59.3381 30.3387C59.0759 29.773 59.322 29.1027 59.8873 28.839L60.4926 28.5571C60.7924 28.4181 61.1419 28.4181 61.4442 28.5571L69.2677 32.1965C69.8336 32.4602 70.0784 33.1319 69.8161 33.6981C69.6236 34.1099 69.2153 34.3517 68.7896 34.3517Z" fill="white"/>
<path d="M51.9352 47.3894C51.3111 47.3894 50.8059 46.8839 50.8059 46.2601V33.7847C50.8059 33.1603 51.3111 32.6548 51.9352 32.6548C52.5586 32.6548 53.0638 33.1603 53.0638 33.7847V46.2601C53.0638 46.8839 52.5586 47.3894 51.9352 47.3894Z" fill="white"/>
<path d="M68.8703 60.9947C68.2468 60.9947 67.7416 60.4892 67.7416 59.8647V46.3015L60.4027 41.388L53.0638 46.3015V58.8259C53.0638 59.4497 52.5586 59.9552 51.9352 59.9552C51.3111 59.9552 50.8059 59.4497 50.8059 58.8259V45.6983C50.8059 45.3208 50.9933 44.9692 51.3079 44.7597L59.7754 39.09C60.1546 38.8366 60.6514 38.8366 61.0307 39.09L69.4982 44.7597C69.8128 44.9692 70.0002 45.3208 70.0002 45.6983V59.8647C69.9995 60.4892 69.4943 60.9947 68.8703 60.9947Z" fill="white"/>
<path d="M68.8703 66.8699C68.6551 66.8699 68.44 66.8085 68.254 66.6869L60.1702 61.416L52.224 66.5124C51.8434 66.7542 51.3576 66.749 50.9862 66.5008L43.4244 61.4302L35.8167 66.5021C35.4381 66.7542 34.9465 66.7542 34.566 66.504L26.8691 61.3992L17.9978 66.5396C17.6076 66.7658 17.1186 66.7374 16.7561 66.4665L10.04 61.4419L1.73201 66.6966C1.38251 66.9151 0.942561 66.9294 0.584013 66.7309C0.223527 66.5325 0 66.1536 0 65.7412V59.9564C0 59.5685 0.198978 59.2085 0.52587 59.001L9.49926 53.3318C9.88882 53.0842 10.3888 53.0991 10.7648 53.3726L17.7426 58.4308L26.4822 53.3118C26.8536 53.0946 27.3188 53.1069 27.6773 53.3467L35.3037 58.4211L42.9411 53.3467C43.3203 53.0952 43.8126 53.0959 44.1893 53.3454L51.8531 58.4244L59.5609 53.3441C59.9369 53.0952 60.4221 53.0959 60.7981 53.3409L69.4866 59.01C69.8057 59.2188 69.9989 59.575 69.9989 59.957V65.7419C69.9989 66.1569 69.7721 66.5376 69.4078 66.7354C69.2398 66.8246 69.0557 66.8699 68.8703 66.8699ZM43.4269 58.9415C43.6466 58.9415 43.8656 59.0048 44.0549 59.1322L51.6283 64.2111L59.5661 59.1199C59.9421 58.8801 60.4208 58.8801 60.7923 59.1244L67.7417 63.6559V60.5673L60.1857 55.6363L52.4733 60.7198C52.0947 60.97 51.6057 60.9674 51.2297 60.7192L43.5678 55.6421L35.9297 60.7179C35.5492 60.97 35.0576 60.968 34.679 60.7179L27.0138 55.6176L18.2478 60.7521C17.8615 60.9784 17.3789 60.9564 17.0152 60.692L10.0587 55.6499L2.25788 60.5776V63.6901L9.49086 59.116C9.88429 58.8678 10.394 58.884 10.77 59.1665L17.512 64.2105L26.3433 59.0941C26.7128 58.8788 27.1753 58.8924 27.5326 59.129L35.1881 64.206L42.8003 59.1309C42.9896 59.0042 43.2086 58.9415 43.4269 58.9415Z" fill="white"/>
<path d="M59.8382 11.2388H44.0317C43.4083 11.2388 42.9031 10.7333 42.9031 10.1095V4.46036C42.9031 3.83656 43.4083 3.33105 44.0317 3.33105H59.8382C60.4622 3.33105 60.9674 3.83656 60.9674 4.46036V10.1095C60.9674 10.7333 60.4622 11.2388 59.8382 11.2388ZM45.161 8.97951H58.7095V5.59031H45.161V8.97951Z" fill="white"/>
<path d="M51.89 34.3516C51.7628 34.3516 51.6355 34.331 51.514 34.2877L43.6557 31.51C43.2048 31.3497 42.9031 30.923 42.9031 30.444V10.1094C42.9031 9.485 43.4083 8.97949 44.0317 8.97949H59.8382C60.4622 8.97949 60.9674 9.485 60.9674 10.1094V30.444C60.9674 30.9243 60.6644 31.3516 60.2109 31.5113L52.2628 34.2889C52.1413 34.331 52.016 34.3516 51.89 34.3516ZM45.161 29.645L51.892 32.0252L58.7095 29.6418V11.2387H45.161V29.645Z" fill="white"/>
<path d="M59.838 16.8872H53.0637C52.4403 16.8872 51.9351 16.3817 51.9351 15.7579C51.9351 15.1334 52.4403 14.6279 53.0637 14.6279H59.838C60.462 14.6279 60.9672 15.1334 60.9672 15.7579C60.9672 16.3817 60.462 16.8872 59.838 16.8872Z" fill="white"/>
<path d="M50.806 22.5363H44.0317C43.4083 22.5363 42.9031 22.0301 42.9031 21.4063C42.9031 20.7819 43.4083 20.2764 44.0317 20.2764H50.806C51.4301 20.2764 51.9353 20.7819 51.9353 21.4063C51.9353 22.0301 51.4301 22.5363 50.806 22.5363Z" fill="white"/>
</g>
<defs>
<clipPath id="clip0_75_1501">
<rect width="70" height="70" fill="white"/>
</clipPath>
</defs>
</svg>
