<svg width="75" height="60" viewBox="0 0 75 60" fill="none" xmlns="http://www.w3.org/2000/svg">
<path fill-rule="evenodd" clip-rule="evenodd" d="M3.64276 2.641C8.28728 2.641 10.9283 3.27849 14.8443 5.64628C16.3014 6.55697 17.2121 7.10339 18.8513 7.74087C21.9476 8.8337 23.4958 8.74263 26.5922 8.74263C34.242 8.74263 37.3383 2.641 45.3524 2.641C51.8183 2.641 53.4575 2.82314 58.9217 6.1927C60.1967 6.92125 64.7501 9.38011 65.934 8.01408C66.4804 7.28553 66.2983 4.73559 66.2983 3.64276C67.3911 4.46238 68.3018 5.73735 69.3036 6.73911L72.3999 9.92653C72.0356 10.564 71.3981 11.0194 70.9428 11.4747C69.7589 12.6586 67.3911 15.6639 66.2983 16.3924C66.2983 8.37835 66.7536 12.8407 58.8306 8.8337C55.4611 7.19446 53.1843 5.0088 47.7202 5.0088C44.9881 5.0088 42.9846 5.09987 40.5257 6.01056C35.5169 8.01408 33.5134 11.2926 25.4083 11.2926C20.0352 11.2926 17.0299 9.83546 13.0229 7.37659C8.46942 4.55345 3.8249 5.19094 3.18742 4.82666C2.18566 4.37132 2.3678 2.641 3.64276 2.641ZM74.8588 9.65332V10.3819C74.8588 10.8372 74.5856 11.2015 74.3124 11.6568L71.1249 15.1175C69.941 16.2103 67.7554 19.1245 66.5715 19.1245C65.7519 19.1245 65.0233 19.1245 64.3858 18.487C63.2019 17.3942 63.6573 15.2085 63.6573 13.2961C62.6555 13.205 60.3788 12.3854 59.4681 12.0211C56.736 10.8372 55.2789 9.47118 52.5469 8.46942C50.1791 7.46766 48.1755 7.6498 45.6256 7.6498C40.4347 7.6498 38.1579 10.9283 32.3295 12.8407C29.051 13.8425 26.9564 13.7514 23.678 13.7514C20.1263 13.7514 15.4817 12.1122 12.6586 10.1087C7.10339 6.37484 3.8249 8.56049 1.45711 6.73911C0.546414 6.10163 0 5.0088 0 3.64276C0 2.641 0.364276 1.73031 1.09283 1.09283C1.54817 0.546414 2.54993 0 3.55169 0C13.205 0 15.3907 3.73383 19.762 5.28201C20.5816 5.64628 21.3102 5.82842 22.403 6.01056C24.5886 6.37484 26.319 6.37484 28.5046 6.01056C35.7901 4.64452 35.1527 0 48.0845 0C56.2807 0 61.1073 5.19094 63.6573 5.37308C63.6573 3.91597 63.293 0.910691 65.934 0.910691C67.6643 0.910691 67.7554 1.45711 69.0304 2.73207L73.3106 7.28553C74.0392 8.01408 74.7677 8.74263 74.8588 9.65332Z" fill="white"/>
<path fill-rule="evenodd" clip-rule="evenodd" d="M21.2191 20.0352C31.5099 20.0352 39.8883 28.5046 39.8883 38.7954C39.8883 42.8025 38.249 47.5381 35.7901 50.4523C35.4259 50.9076 35.1527 51.2719 34.6973 51.6362C31.601 54.7325 27.0475 57.3735 22.2209 57.3735C18.396 57.3735 16.2103 57.1003 12.8407 55.4611C11.2926 54.6414 8.74263 52.9111 7.55873 51.5451C7.37659 51.2719 7.37659 51.1808 7.10339 50.9076L5.55521 48.9952C4.28025 46.9916 3.36956 44.806 2.91421 42.4382C0.637483 30.9635 9.28905 20.0352 21.2191 20.0352ZM0 37.6115C0 42.0739 0.273207 43.8953 2.00352 47.8113C3.36956 50.6344 4.09811 51.2719 5.64628 53.0933C5.91949 53.4575 5.91949 53.6397 6.28377 53.8218C8.10515 55.5521 10.0176 56.8271 12.2943 58.011C18.8513 61.2895 27.0475 60.3788 33.1491 56.2807C33.7866 55.9164 34.0598 55.6432 34.6062 55.1879C34.8795 55.0057 34.9705 54.8236 35.3348 54.6414C39.0686 51.6362 42.4382 45.0792 42.4382 39.8883C42.4382 35.5169 42.2561 33.3313 40.2525 29.3242C39.4329 27.5939 39.3418 27.685 38.3401 26.1368C35.7901 22.3119 30.5992 18.9424 25.8636 17.9406C25.2261 17.8495 24.3154 17.6674 23.678 17.5763C22.0387 17.3942 20.4905 17.3942 18.8513 17.5763C11.6568 18.3049 5.37308 22.9494 2.18566 29.3242C1.1839 31.3278 0 34.6973 0 37.6115Z" fill="white"/>
<path fill-rule="evenodd" clip-rule="evenodd" d="M20.7461 38.0154C21.6568 41.8403 25.7549 43.3885 25.7549 46.8491C25.7549 48.3062 25.5728 49.0348 24.48 50.2187C23.0229 51.6758 22.2943 51.4937 20.2908 51.4937C17.1944 51.4937 15.282 48.1241 16.2837 44.9367C16.8302 43.0242 19.289 39.0172 20.7461 38.0154ZM28.3959 47.942C28.3959 45.1188 27.8495 43.8439 26.3924 41.9314C26.1192 41.5671 26.1192 41.5671 25.7549 41.2029C21.5657 36.7405 23.8425 35.8298 23.0228 34.5548C21.5657 32.096 16.9212 38.2887 15.9195 39.8368C14.6445 41.7493 12.8231 44.9367 13.6427 48.3062C12.4588 47.4866 11.5481 45.301 11.1839 43.9349C10.4553 40.4743 11.5481 37.8333 13.6427 35.2834L17.8319 30.4567C19.4712 28.3621 20.3818 27.2693 21.0193 24.4462C22.9318 25.7211 27.7584 31.6406 29.1245 34.1905C30.7637 37.5601 31.4923 41.385 30.1262 45.2099C29.853 46.1206 29.0334 47.5777 28.3959 47.942ZM8.4518 40.8386C8.4518 43.4796 8.4518 44.9367 9.72676 47.3956C9.99997 48.033 10.4553 48.5795 10.8196 49.1259L12.2767 50.7651C12.641 51.0383 12.732 51.1294 13.0963 51.4026C13.3695 51.6758 13.6427 51.8579 13.9159 52.0401C14.7356 52.4954 15.0998 52.6776 16.0105 53.0418C19.4712 54.59 22.7496 54.4079 26.1192 52.9508C30.2173 51.2205 33.4958 46.3027 33.4958 41.6582C33.4958 36.5583 31.5833 32.8245 28.7602 28.9996L21.3836 21.1677C20.9283 20.8034 20.7461 20.348 20.0176 20.348C18.5605 20.348 18.8337 21.623 18.6515 22.898C18.5605 24.1729 18.2873 24.9926 17.8319 25.9943C17.1034 27.7246 16.0105 28.5443 15.282 29.455L13.4606 31.5495C11.1839 33.8263 8.4518 37.378 8.4518 40.8386Z" fill="white"/>
<path fill-rule="evenodd" clip-rule="evenodd" d="M38.7954 22.2209C38.7954 24.4976 41.2543 23.2226 43.0757 22.8583C47.447 22.1298 53.1843 22.6762 56.736 24.8619L58.6485 25.9547C60.3788 26.9564 63.1109 28.4135 65.2055 28.4135C65.934 28.4135 66.2983 27.3207 66.2983 26.5011C66.2983 25.4993 66.2983 24.4976 66.2983 23.5869L72.2178 29.8707C72.1267 30.326 71.9446 30.326 71.6714 30.6903C71.3071 31.0546 71.3071 31.2367 70.9428 31.601L66.2983 36.4276C66.2983 28.3225 66.6626 32.7849 59.1949 29.051C58.2842 28.5957 57.7378 28.2314 56.9182 27.685L54.5504 26.41C50.5433 24.8619 49.8148 25.044 45.6256 25.044C44.4417 25.044 42.3471 25.044 41.8918 26.1368C41.7096 26.5011 41.7096 26.8654 41.8918 27.2297C42.9846 29.3242 47.6291 25.044 55.8253 30.0528C56.0985 30.2349 56.3718 30.4171 56.645 30.5992L59.4681 31.9652C60.1967 32.2385 60.7431 32.4206 61.4716 32.6938C62.1091 32.8759 63.2019 33.1491 63.6573 33.3313C63.6573 34.5152 63.4751 36.3366 63.7483 37.3383C64.0216 38.6133 66.3894 40.7079 68.8482 37.5205L73.0374 32.967C74.1302 31.601 74.8588 31.601 74.8588 29.7796V29.6885C74.8588 28.3225 72.0356 26.1368 71.0339 24.7708C70.3053 23.8601 69.4857 23.4048 68.8482 22.5851C68.3018 21.8566 67.4822 20.7637 66.2983 20.7637C65.2055 20.7637 64.2948 21.4012 63.9305 22.1298C63.4751 22.8583 63.6573 24.2244 63.6573 25.4083C62.6555 25.2261 60.7431 24.2244 59.9235 23.769C56.645 21.7655 53.8218 20.4905 49.7237 20.0352C46.4452 19.762 43.3489 19.9441 40.1615 20.8548C39.4329 21.128 38.7954 21.3102 38.7954 22.2209Z" fill="white"/>
<path fill-rule="evenodd" clip-rule="evenodd" d="M44.7149 41.2543C44.7149 43.9864 49.8148 40.9811 56.5539 44.7149L59.8324 46.6274C60.652 46.9916 61.2895 47.3559 62.2002 47.6291C66.5715 49.0862 66.2983 48.6309 66.2983 43.6221C67.3 44.3506 71.5803 49.3594 72.3999 49.9059L69.3946 53.0933C68.4839 54.004 67.209 55.6432 66.2983 56.2807C66.2983 48.4487 66.9358 52.8201 58.7395 48.722C55.2789 47.0827 53.5486 44.897 47.3559 44.897C45.6256 44.897 43.7132 44.6238 43.7132 46.3542C43.7132 48.9952 47.7202 45.8988 54.2772 49.1773L57.3735 50.9987C58.8306 51.8183 62.018 53.0933 63.6573 53.2754C63.6573 55.5521 63.2019 57.7378 64.7501 58.7396C65.4787 59.1949 66.3894 59.286 67.1179 58.9217C67.7554 58.6485 71.7624 54.4593 72.1267 54.004C73.1285 52.6379 74.6766 51.7272 74.8588 50.3612V49.6326C74.7677 48.9952 74.3124 48.1755 73.3106 47.1738C72.9463 46.8095 72.582 46.5363 72.2178 46.081L69.0304 42.7114C67.5732 41.1632 67.6643 40.7989 65.8429 40.7989C64.9322 40.7989 64.2037 41.5275 63.8394 42.256C63.4751 42.9846 63.6573 44.3506 63.6573 45.4435C61.7448 44.4417 62.018 44.9881 59.286 43.2578C55.37 40.7989 51.363 39.8883 46.3542 39.8883C45.4435 39.8883 44.7149 40.3436 44.7149 41.2543Z" fill="white"/>
</svg>
