<svg width="72" height="72" viewBox="0 0 72 72" fill="none" xmlns="http://www.w3.org/2000/svg">
<path d="M61.875 59.625H10.125V52.875H61.875V59.625ZM12.375 57.375H59.625V55.125H12.375V57.375Z" fill="white"/>
<path d="M24.75 66.375H18V57.375H24.75V66.375ZM20.25 64.125H22.5V59.625H20.25V64.125Z" fill="white"/>
<path d="M54 66.375H47.25V57.375H54V66.375ZM49.5 64.125H51.75V59.625H49.5V64.125Z" fill="white"/>
<path d="M58.5 55.125H13.5V3.375H58.5V55.125ZM15.75 52.875H56.25V5.625H15.75V52.875Z" fill="white"/>
<path d="M54 55.125H18V7.875H54V55.125ZM20.25 52.875H51.75V10.125H20.25V52.875Z" fill="white"/>
<path d="M18 30.375H54V32.625H18V30.375Z" fill="white"/>
<path d="M34.875 7.875H37.125V55.125H34.875V7.875Z" fill="white"/>
</svg>
