<svg width="70" height="70" viewBox="0 0 70 70" fill="none" xmlns="http://www.w3.org/2000/svg">
<path d="M58.3333 63.5833V1.74992C58.3333 1.73125 58.3263 1.71375 58.3252 1.69509C58.3228 1.63792 58.3112 1.58192 58.2995 1.52475C58.2878 1.46759 58.2773 1.41042 58.2575 1.35559C58.2517 1.33809 58.2517 1.31942 58.2447 1.30309C58.2307 1.26809 58.205 1.24125 58.1875 1.20859C58.1595 1.15609 58.1315 1.10475 58.0965 1.05692C58.0627 1.01142 58.0242 0.971752 57.9845 0.932085C57.9448 0.892419 57.9052 0.853919 57.8597 0.820085C57.8118 0.783919 57.7605 0.757085 57.708 0.729085C57.6753 0.711585 57.6485 0.687085 57.6135 0.671919C57.596 0.664919 57.5773 0.664919 57.5598 0.659085C57.5062 0.639252 57.4513 0.628752 57.3942 0.617085C57.3347 0.605419 57.2763 0.593752 57.2168 0.590252C57.2005 0.590252 57.1842 0.583252 57.1667 0.583252H12.8333C12.8158 0.583252 12.7995 0.590252 12.782 0.591419C12.7213 0.593752 12.663 0.605419 12.6035 0.618252C12.5475 0.629919 12.4927 0.640419 12.4402 0.659085C12.4227 0.664919 12.404 0.664919 12.3865 0.671919C12.3515 0.685919 12.3247 0.711585 12.292 0.729085C12.2395 0.757085 12.1882 0.785085 12.1403 0.820085C12.0948 0.853919 12.0552 0.892419 12.0155 0.932085C11.9758 0.971752 11.9373 1.01142 11.9035 1.05692C11.8685 1.10475 11.8405 1.15609 11.8125 1.20859C11.795 1.24125 11.7705 1.26809 11.7553 1.30309C11.7483 1.32059 11.7483 1.33925 11.7425 1.35559C11.7227 1.41042 11.7122 1.46642 11.7005 1.52475C11.6888 1.58192 11.6772 1.63792 11.6748 1.69509C11.6737 1.71375 11.6667 1.73125 11.6667 1.74992V63.5833H0V69.4166H12.8333H14H15.1667H16.3333H53.6667H54.8333H56H57.1667H70V63.5833H58.3333ZM54.3503 2.91659L53.1837 4.08325H16.8163L15.6497 2.91659H54.3503ZM2.33333 65.9166H11.6667V67.0833H2.33333V65.9166ZM15.1667 67.0833H14V63.5833V4.56625L15.1667 5.73292V67.0833ZM17.5 6.41659H52.5V67.0833H17.5V6.41659ZM56 67.0833H54.8333V5.73292L56 4.56625V63.5833V67.0833ZM67.6667 67.0833H58.3333V65.9166H67.6667V67.0833Z" fill="white"/>
<path d="M47.3164 32.0833H44.8513C43.2786 32.0833 41.9999 33.3619 41.9999 34.9334V35.5833H40.2499C38.6423 35.5833 37.3333 36.8911 37.3333 38.4999C37.3333 40.1088 38.6423 41.4166 40.2499 41.4166H41.9999V42.0664C41.9999 43.6391 43.2786 44.9166 44.8501 44.9166H47.3153C48.8868 44.9166 50.1654 43.6379 50.1654 42.0664V34.9346C50.1666 33.3619 48.8879 32.0833 47.3164 32.0833ZM40.2499 39.0833C39.9279 39.0833 39.6666 38.8208 39.6666 38.4999C39.6666 38.1791 39.9279 37.9166 40.2499 37.9166H41.9999H44.3333V39.0833H41.9999H40.2499ZM47.8333 42.0664C47.8333 42.3511 47.6011 42.5833 47.3164 42.5833H44.8513C44.5654 42.5833 44.3333 42.3511 44.3333 42.0664V41.4166H46.6666V35.5833H44.3333V34.9334C44.3333 34.6488 44.5654 34.4166 44.8501 34.4166H47.3153C47.6011 34.4166 47.8321 34.6488 47.8321 34.9334V42.0664H47.8333Z" fill="white"/>
</svg>
