<svg width="54" height="54" viewBox="0 0 54 54" fill="none" xmlns="http://www.w3.org/2000/svg">
<g clip-path="url(#clip0_162_3785)">
<path fill-rule="evenodd" clip-rule="evenodd" d="M27.04 53.9999C32.3914 53.9999 37.6224 52.412 42.0708 49.4373C46.5192 46.4626 49.9849 42.2348 52.0291 37.2893C54.0734 32.3437 54.6042 26.9028 53.5543 21.6554C52.5045 16.408 49.9213 11.5902 46.1317 7.81176C42.3421 4.03336 37.5166 1.46437 32.2662 0.430053C27.0157 -0.604261 21.5764 -0.0573885 16.6369 2.00143C11.6974 4.06025 7.4799 7.53843 4.51833 11.9956C1.55677 16.4528 -0.0156681 21.6885 0.000117699 27.0398C0.0212316 34.1974 2.87939 41.0546 7.94806 46.1084C13.0167 51.1621 19.8824 54 27.04 53.9999Z" fill="#6F88A1"/>
<path fill-rule="evenodd" clip-rule="evenodd" d="M15.953 29.8316C20.4496 27.403 24.816 24.7406 29.0342 21.8552C30.3805 20.9513 31.7938 20.1514 33.2617 19.4623C31.8947 21.3667 30.2553 23.0598 28.3961 24.4874L21.6959 30.709C21.0578 31.3471 20.34 31.4269 20.659 32.2245C22.2573 33.1259 23.7547 34.1955 25.1258 35.4151C26.3061 36.0287 27.4276 36.7496 28.4759 37.5687L31.5866 39.9616C33.501 40.9985 33.8998 39.9616 34.2986 38.127C36.5707 30.6663 38.0937 22.9976 38.8451 15.2349C30.8953 17.4009 23.0897 20.065 15.4744 23.2112L11.7255 24.7267C4.70629 27.5185 10.529 27.8375 15.953 29.8316Z" fill="#FCFDFD"/>
<path fill-rule="evenodd" clip-rule="evenodd" d="M15.9526 29.8316C17.3086 32.065 18.4253 37.808 19.6218 39.2438C19.6218 38.5259 19.6218 40.0414 19.6218 39.2438V36.6116C19.6266 35.3939 19.8148 34.1838 20.1801 33.0222C20.1801 32.2246 20.5789 32.1448 21.217 31.5067L27.9172 25.2851C29.7764 23.8574 31.4158 22.1643 32.7828 20.26C31.3148 20.9491 29.9016 21.749 28.5553 22.6529C24.4756 25.2526 20.2696 27.6485 15.9526 29.8316Z" fill="#C5D8E7"/>
<path fill-rule="evenodd" clip-rule="evenodd" d="M19.4624 39.2436C20.1005 39.802 20.26 39.8817 20.8981 39.2436L24.9661 35.4947C23.595 34.2752 22.0976 33.2056 20.4993 32.3042C20.134 33.4658 19.9458 34.6759 19.941 35.8936V38.5258C19.941 39.7222 19.941 38.5258 19.941 38.5258C19.941 38.5258 19.5422 39.2436 19.4624 39.2436Z" fill="#A8C5D7"/>
</g>
<defs>
<clipPath id="clip0_162_3785">
<rect width="54" height="54" fill="white"/>
</clipPath>
</defs>
</svg>
