<svg width="54" height="54" viewBox="0 0 54 54" fill="none" xmlns="http://www.w3.org/2000/svg">
<path d="M27 54C41.9117 54 54 41.9117 54 27C54 12.0883 41.9117 0 27 0C12.0883 0 0 12.0883 0 27C0 41.9117 12.0883 54 27 54Z" fill="#8CBE70"/>
<path fill-rule="evenodd" clip-rule="evenodd" d="M15.0531 38.9469C15.0531 37.354 16.8053 34.4867 16.3274 33.1327C15.5351 31.4225 14.8437 29.6673 14.2566 27.8761C13.8718 25.0147 14.3748 22.104 15.6977 19.5377C17.0207 16.9714 19.0997 14.8732 21.6537 13.5267C24.2077 12.1802 27.1135 11.6503 29.9784 12.0088C32.8433 12.3672 35.5291 13.5967 37.6726 15.531C38.3025 16.0384 38.8887 16.5978 39.4248 17.2035C40.7075 18.9167 41.5631 20.9109 41.9209 23.0209C42.2786 25.1309 42.1281 27.2958 41.4818 29.3359C40.8355 31.3761 39.712 33.2327 38.2046 34.7518C36.6972 36.271 34.8493 37.4087 32.8142 38.0708C25.9646 40.4602 22.3805 37.115 20.6283 37.4336C18.8761 37.7522 16.646 38.5487 14.8938 38.9469H15.0531ZM10.9912 43.0089C13.4376 42.4936 15.8566 41.8556 18.2389 41.0973C21.823 40.2212 19.4336 41.0974 25.1681 42.4513C28.7246 43.1194 32.4014 42.6382 35.6661 41.0774C38.9309 39.5166 41.6141 36.9573 43.3274 33.7699C44.5229 31.5033 45.2067 29.002 45.3305 26.4424C45.4544 23.8828 45.0153 21.3272 44.0443 18.9558C43.4171 17.4015 42.5578 15.9513 41.4956 14.6549L37.8319 11.3894C34.7717 9.33366 31.1298 8.32042 27.4476 8.50029C23.7655 8.68016 20.2397 10.0435 17.3944 12.3877C14.5492 14.7319 12.5364 17.9318 11.6554 21.5115C10.7744 25.0912 11.0722 28.8597 12.5044 32.2566C13.2212 33.9292 13.5398 33.6903 12.9823 35.6018C12.4248 37.5133 11.3894 40.8584 10.9912 43.0089Z" fill="#FCFDFD"/>
<path fill-rule="evenodd" clip-rule="evenodd" d="M36.8761 29.6283C35.4936 28.8261 34.0239 28.1848 32.4956 27.7168C31.7788 28.2743 31.3805 29.3097 30.5044 29.9469C27.7307 29.0148 25.4028 27.0843 23.9735 24.531C23.9735 23.7345 24.9292 23.3363 25.2478 22.5398C25.5664 21.7434 24.292 16.0885 21.1858 18.0796C20.5091 18.6704 20.0094 19.4372 19.7423 20.2949C19.4751 21.1526 19.451 22.0675 19.6726 22.9381C20.4611 25.1473 21.6951 27.1709 23.2981 28.8835C24.9011 30.5961 26.8388 31.9611 28.9912 32.8938C30.6451 33.7038 32.5091 33.982 34.3274 33.6903C35.179 33.4476 35.9106 32.8983 36.3812 32.1483C36.8518 31.3983 37.0281 30.5006 36.8761 29.6283Z" fill="#FCFDFD"/>
</svg>
