<svg width="45" height="40" viewBox="0 0 45 40" fill="none" xmlns="http://www.w3.org/2000/svg">
<path fill-rule="evenodd" clip-rule="evenodd" d="M21.4914 5.89427C21.4392 5.9959 20.5175 6.62259 20.3262 6.75809L19.2828 7.48641C19.1263 7.58804 19.248 7.53722 19.1262 7.55416C19.0914 7.60497 19.0914 7.63885 19.0045 7.68966C18.9349 7.74047 18.9349 7.74047 18.8306 7.77435L18.2392 8.19779C18.0827 8.35022 17.8914 8.46879 17.7001 8.60429C17.4914 8.73979 17.2828 8.90916 17.0741 9.01079C17.0567 9.0616 17.0741 9.02773 17.0045 9.07854C17.0045 9.09548 16.9176 9.14629 16.9002 9.16323C16.8132 9.21404 16.7784 9.24792 16.6914 9.26485C16.6392 9.3326 16.674 9.31566 16.6219 9.36648C16.6045 9.36648 16.5697 9.40035 16.5697 9.41729C16.4828 9.46811 16.4827 9.45116 16.3958 9.48504C16.361 9.56973 16.3958 9.51892 16.274 9.60361C16.1871 9.67136 16.1697 9.67136 16.1001 9.72217C15.9262 9.84073 15.9088 9.90848 15.7349 9.92542C15.6479 10.1117 15.6827 10.044 15.5262 10.0948C15.4566 10.2134 14.0653 11.1449 13.7697 11.3482C13.6479 11.4329 13.561 11.5006 13.4566 11.5853C13.2479 11.7208 13.3175 11.7208 13.161 11.7377C13.0045 11.9579 12.4305 12.2967 12.1523 12.4999C11.9958 12.6185 11.9958 12.6354 11.7871 12.7201C11.7524 12.7879 11.7175 12.8048 11.6132 12.8726C11.5958 12.8895 11.5262 12.9403 11.4914 12.9572C11.3871 13.0081 11.5436 12.9572 11.4045 12.9911C11.3697 13.025 11.3871 13.0081 11.3349 13.0758C11.3176 13.0758 11.2827 13.1097 11.2827 13.1266C11.1784 13.1774 11.2306 13.1605 11.1088 13.1944C11.0741 13.296 10.6566 13.567 10.5175 13.6178L10.4306 13.6686C10.3958 13.7702 10.3088 13.7872 10.1697 13.8888L8.3784 15.1422C8.23927 15.2438 8.20452 15.2946 8.08278 15.3116L7.648 15.6164C7.59582 15.735 7.4567 15.8197 7.33496 15.8536C7.24801 15.9721 6.91756 16.1923 6.77843 16.2431C6.72626 16.3109 6.76104 16.2939 6.67409 16.3448C6.51756 16.4464 6.62187 16.3956 6.51752 16.4125L6.4654 16.4803C6.34366 16.6158 6.04798 16.819 5.89146 16.8529C5.83928 16.9545 5.82192 16.9545 5.70018 17.0223C5.66539 17.0561 5.64801 17.0731 5.59583 17.1069C5.43931 17.1916 5.561 17.1578 5.43926 17.1747C5.38709 17.2424 5.42184 17.2255 5.3001 17.2933C5.07402 17.4965 4.76104 17.6828 4.50017 17.8691C4.25669 18.0385 3.9088 18.3265 3.66532 18.4281L3.57838 18.4789C3.50882 18.733 2.90012 18.8685 2.37838 18.2587C2.25664 18.1232 1.61314 17.2594 1.59575 17.1069C1.54357 17.0731 1.54359 17.09 1.50881 17.0223C1.47403 16.9376 1.49147 16.9545 1.45669 16.8359C1.36974 16.5311 1.47404 16.1754 1.63056 15.9213C1.82187 15.6842 3.35229 14.6002 3.68273 14.4308C3.78707 14.2953 3.94358 14.2106 4.1001 14.1598C4.13488 14.0921 4.1001 14.109 4.20444 14.0412C4.34357 13.9227 4.23927 14.0074 4.36101 13.9735C4.44797 13.8211 4.55234 13.7872 4.70886 13.6856C4.8306 13.6009 4.95229 13.4992 5.09142 13.4146C5.3349 13.2452 5.61318 13.0081 5.87405 12.9064C5.90883 12.8387 5.85664 12.8895 5.96098 12.8048C6.10011 12.7201 6.03059 12.7709 6.11755 12.7371C6.13494 12.7201 6.13496 12.7201 6.13496 12.7032L6.2219 12.6185C6.25668 12.5846 6.27405 12.5846 6.30883 12.5677C6.44796 12.4491 6.39581 12.483 6.55233 12.4322C6.58712 12.3306 6.53494 12.4152 6.65668 12.3306L8.76096 10.8909C8.84792 10.7384 9.03922 10.6368 9.19574 10.586C9.24792 10.4674 9.45667 10.3489 9.57841 10.315C9.71754 10.1117 10.761 9.41729 10.9002 9.38342C10.9523 9.28179 11.0915 9.1971 11.2132 9.16323C11.3001 9.01079 11.4567 8.9261 11.6306 8.85835L13.3871 7.60497C13.5262 7.50335 13.8218 7.24928 13.9958 7.2154C14.1175 7.06296 14.0828 7.07991 14.2915 6.99522C14.3089 6.94441 14.274 6.97828 14.3436 6.92747C14.361 6.91053 14.4306 6.85972 14.4654 6.84278C14.5523 6.79197 14.5697 6.75809 14.674 6.74115C14.8132 6.5379 15.6827 5.96203 15.8392 5.91122C15.8914 5.82653 15.9436 5.79265 16.0479 5.7249C16.0653 5.70796 16.1697 5.64021 16.1697 5.64021C16.2566 5.60634 16.2045 5.62328 16.2914 5.60634C16.3958 5.40309 16.3784 5.50471 16.5697 5.36921C16.7089 5.25065 16.6741 5.25065 16.8654 5.19983C16.9175 5.08127 16.9523 5.09821 17.0741 5.01352C17.1088 4.97964 17.161 4.94577 17.1958 4.92883C17.3002 4.87802 17.2132 4.89496 17.3176 4.87802C17.3697 4.81027 17.3001 4.86109 17.3871 4.79334C17.3871 4.7764 17.4219 4.74252 17.4393 4.74252C17.5263 4.67477 17.4914 4.70864 17.5958 4.67477C17.6827 4.5562 18.1697 4.25133 18.3262 4.13277L18.9871 3.67546C19.1088 3.62464 18.9176 3.67546 19.0741 3.64158C19.1089 3.59077 19.1088 3.57383 19.2132 3.50608C19.2827 3.45526 19.2654 3.4722 19.3697 3.42139C19.4045 3.37058 19.4219 3.37058 19.4915 3.31976C19.7002 3.16732 19.7871 3.04876 19.961 3.03183C20.1175 2.82858 20.361 2.67614 20.5871 2.5237C20.7958 2.3882 21.0566 2.16801 21.2653 2.10026C21.3523 1.93089 21.2653 2.04945 21.3697 2.03251L21.6654 1.76151C21.7871 1.69376 21.8567 1.62601 21.9958 1.57519C22.0654 1.52438 22.9871 2.23576 23.161 2.35432C23.3523 2.47288 24.274 3.09957 24.3262 3.2012C24.4653 3.23508 24.3957 3.18426 24.5175 3.28589C24.5697 3.3367 24.5697 3.35364 24.6045 3.40445C24.7089 3.42139 24.6393 3.38752 24.7263 3.45527C24.7785 3.4722 24.7957 3.48914 24.8479 3.52302C24.9523 3.60771 24.9697 3.59076 24.9871 3.65852C25.3697 3.82789 25.5958 4.08195 25.5958 4.08195C25.6132 4.08195 25.6132 4.11583 25.6306 4.11583C25.7523 4.14971 25.6132 4.08196 25.7871 4.18358C25.9263 4.28521 25.8393 4.20052 25.8741 4.2852C25.9958 4.33602 25.9784 4.31908 26.0653 4.38683C26.1697 4.47152 26.1349 4.45458 26.1697 4.50539C26.2914 4.52233 26.7262 4.81027 26.761 4.9119C26.9349 4.97965 26.9175 4.97964 27.0567 5.09821C27.3349 5.23371 28.0305 5.79265 28.4305 6.04671C29.3697 6.60565 29.9088 6.19915 30.2045 6.16528C30.2219 6.14834 30.2393 6.1314 30.2393 6.1314C30.4306 5.92815 30.5349 5.87734 30.6567 5.65715C30.6915 5.5894 30.761 5.4539 30.7958 5.36921L30.9349 5.06434L30.9523 2.3882C30.9697 2.30351 30.9697 2.26963 31.0045 2.20188C31.0741 2.04944 31.0393 2.11719 31.1263 2.04944C31.1958 1.72763 31.4914 1.62601 31.8219 1.47357L32.0305 1.43969C32.4305 1.42275 34.1523 1.33807 34.5349 1.60907C34.6566 1.69376 34.5523 1.59213 34.5697 1.65988C34.7784 1.76151 34.7958 1.74457 34.8653 1.93088C35.2653 2.15107 35.1263 3.52301 35.1263 4.04808C35.1263 4.96271 35.0741 8.14697 35.1437 8.7906C35.1784 9.14629 35.248 9.45117 35.3523 9.77298C35.4219 9.97623 35.6654 10.4166 35.6828 10.586C35.7697 10.6368 35.7697 10.6368 35.8392 10.7723C35.8914 10.84 35.9088 10.9078 35.9436 11.0094C36.0479 11.0433 36.0132 11.0433 36.135 11.1957C36.2045 11.3143 36.2392 11.3143 36.274 11.4329L36.6219 11.7716C36.7088 11.8732 36.6567 11.7886 36.7262 11.8902C36.848 11.9241 36.8827 11.9071 36.9349 12.0595C37.1088 12.0934 37.0393 12.0595 37.1784 12.1781C37.2306 12.212 37.248 12.212 37.2828 12.2628C37.3349 12.3136 37.3175 12.2967 37.3697 12.3644C37.5262 12.3814 38.8132 13.3299 38.9175 13.3976L40.0653 14.2276C40.2045 14.3123 40.361 14.3969 40.3958 14.4816C40.5175 14.5324 40.5697 14.5663 40.6741 14.6341C40.7436 14.6849 40.7263 14.651 40.7958 14.7187C40.8654 14.7865 40.848 14.7865 40.9002 14.8373C40.9871 14.8542 40.9176 14.8204 41.0045 14.8712C41.0741 14.922 41.0567 14.9051 41.074 14.9559C41.3001 15.0575 41.4567 15.193 41.648 15.3116C42.048 15.5656 42.0828 15.6673 42.0828 15.6673C42.0828 15.6503 42.1002 15.6842 42.1002 15.7011C42.2741 15.7181 42.3088 15.8028 42.3958 15.9552C42.4654 16.0568 42.5349 16.1923 42.5697 16.3617C42.6218 16.6158 42.6045 17.09 42.3958 17.1916C42.3262 17.3949 41.8219 18.0724 41.6654 18.2418C41.5263 18.4111 41.3871 18.5466 41.1784 18.6313C40.9001 18.733 40.6915 18.8007 40.5523 18.5466C40.4306 18.5297 40.5523 18.5636 40.448 18.5128C40.4306 18.5128 40.3611 18.462 40.3611 18.462C40.2567 18.3942 40.2741 18.4281 40.2219 18.3434C39.9958 18.2587 39.7523 18.0385 39.561 17.903L38.9175 17.4118C38.8132 17.3949 38.9175 17.4457 38.7784 17.3441C38.7088 17.3102 38.6741 17.2763 38.6045 17.2255C38.4828 17.1408 38.3784 17.1069 38.3262 17.0053C38.1349 16.9376 38.2045 17.0053 38.1175 16.8359C37.9784 16.8021 38.0305 16.819 37.8914 16.7343C37.6305 16.5649 36.6219 15.8705 36.5698 15.7519L36.4827 15.7181C36.361 15.6673 36.274 15.5995 36.1523 15.5148C36.1001 15.464 36.0654 15.464 35.9784 15.3963C35.8741 15.3116 35.9263 15.3793 35.8915 15.2946L35.3871 14.9559C35.3523 14.9389 35.3175 14.922 35.2827 14.8881C35.1958 14.8373 35.2306 14.8712 35.2132 14.8204C34.9349 14.7018 34.6914 14.4816 34.4306 14.2953C34.2393 14.1767 33.7871 13.9057 33.7001 13.7364C33.5436 13.7025 33.4914 13.6347 33.3175 13.5162C32.8653 13.1774 30.8828 11.8394 30.7958 11.7208C30.6393 11.6531 30.674 11.6531 30.5349 11.5684C30.448 11.5006 30.4827 11.5514 30.4132 11.4837C30.274 11.3651 30.3958 11.4667 30.3088 11.3651C30.2045 11.3312 30.1697 11.3143 30.0653 11.2465C29.961 11.1619 29.961 11.1788 29.9263 11.111C29.6828 11.0094 28.9523 10.4674 28.761 10.298C28.6392 10.2303 28.3437 10.0609 28.3089 9.95929C28.1698 9.90848 28.1697 9.90848 28.048 9.82379C27.9262 9.7391 27.9437 9.75604 27.8741 9.65442C27.735 9.62054 27.8914 9.67135 27.7871 9.62054C27.7697 9.62054 27.7001 9.56973 27.7001 9.56973L25.5262 7.99454L25.3697 7.96066L25.3001 7.8421C25.161 7.80822 25.161 7.79128 25.0219 7.68966C24.9176 7.60497 24.8828 7.60497 24.8306 7.52028C24.6915 7.46947 24.5871 7.38478 24.4828 7.31703L24.2219 7.07991C24.1001 7.06297 24.1523 7.11378 24.1001 6.99522C23.8914 6.94441 23.9088 6.91053 23.7523 6.79196L23.5263 6.62259C23.5089 6.60565 23.4915 6.60565 23.4915 6.58871C23.4915 6.57178 23.474 6.57178 23.474 6.55484C23.3523 6.52096 23.3349 6.50403 23.2305 6.43628C23.1958 6.4024 23.1436 6.36853 23.1262 6.35159C23.0392 6.28384 23.1089 6.36853 23.0915 6.28384C22.8654 6.21609 22.9349 6.23302 22.7958 6.09752C22.6566 6.04671 22.6219 5.9959 22.5001 5.91122C22.3958 5.82653 22.3263 5.80959 22.2045 5.75878C21.8915 5.7249 21.7001 5.84346 21.4914 5.89427ZM21.3001 0.287942C21.2306 0.406505 19.9089 1.3042 19.6132 1.52438C19.4567 1.62601 19.1958 1.86313 19.0393 1.89701C19.0045 1.93088 19.0045 1.94782 18.9523 1.9817C18.9176 2.01557 18.9349 1.99863 18.9001 2.01557C18.7958 2.10026 18.848 2.04945 18.7437 2.10026C18.6741 2.20189 18.4306 2.37126 18.2915 2.43901C18.2045 2.54063 17.4219 3.08264 17.2653 3.15039C17.1784 3.23508 17.1089 3.28589 17.0045 3.35364C16.9524 3.38751 16.8827 3.43833 16.848 3.45527C16.7436 3.50608 16.8306 3.48914 16.7262 3.50608C16.6393 3.65851 16.3436 3.84483 16.1697 3.91258C16.1001 4.03114 16.0827 3.99727 15.9436 4.0989C15.8914 4.13277 15.9088 4.13277 15.8392 4.18358C15.7349 4.2344 15.8044 4.20052 15.7175 4.21746C15.6653 4.26827 15.6654 4.31908 15.5958 4.3699C15.4915 4.43765 15.5436 4.38683 15.4219 4.42071L14.1349 5.36921C14.1349 5.38615 14.048 5.42002 14.048 5.42002C13.9262 5.48777 14.1002 5.43696 13.9436 5.4539C13.8045 5.62328 13.874 5.5894 13.6479 5.67408C13.6305 5.74183 13.6654 5.69103 13.5958 5.75878C13.5784 5.75878 13.5088 5.80958 13.474 5.82652C13.4045 5.87734 13.3697 5.89428 13.2828 5.96203C13.1089 6.11446 12.761 6.35159 12.535 6.50403C12.4132 6.58872 12.2914 6.65647 12.1697 6.75809C11.9958 6.85972 11.961 6.94441 11.7523 6.99522C11.7001 7.11378 11.7523 7.06297 11.648 7.07991C11.5958 7.13072 11.6131 7.11378 11.5783 7.16459L11.0219 7.52028L8.08278 9.62054C7.96104 9.67135 8.11757 9.62054 7.97844 9.65442C7.92626 9.73911 7.99576 9.63748 7.9088 9.7391L7.4219 10.0779C7.2132 10.2303 7.03923 10.3827 6.81314 10.4844C6.77836 10.569 6.76099 10.5521 6.62186 10.6368C6.5349 10.7045 6.53491 10.7215 6.41317 10.7554C6.34361 10.84 6.23921 10.9925 5.92617 11.111C5.90878 11.1449 5.9262 11.128 5.85664 11.1788C5.85664 11.1788 5.76969 11.2466 5.7523 11.2635C5.66534 11.3143 5.63057 11.3482 5.54361 11.3651C5.49143 11.4159 5.50886 11.4159 5.47408 11.4667C5.45669 11.4667 5.42186 11.5006 5.42186 11.5006C5.3349 11.5684 5.35233 11.5345 5.24799 11.5684C5.17842 11.7039 4.69148 12.0087 4.50017 12.1442C4.36104 12.2459 4.23923 12.3136 4.1001 12.4152C3.94358 12.5169 3.87405 12.6185 3.70013 12.6354C3.63057 12.7879 3.7001 12.7032 3.56097 12.7709C3.47402 12.8556 3.36968 12.9403 3.24794 13.0081C3.16099 13.0758 3.16103 13.0758 3.07407 13.1436C2.93494 13.2452 3.02183 13.1944 2.90009 13.2282C2.84792 13.2791 2.86532 13.2621 2.79575 13.3299C2.74358 13.3807 2.77838 13.3637 2.70882 13.3976C2.62186 13.4654 2.56966 13.4823 2.46531 13.5162C2.41314 13.6347 2.27402 13.7194 2.15228 13.7533C2.06532 13.8888 1.68274 14.1259 1.52622 14.1937C1.561 14.2784 1.54356 14.2276 1.47399 14.2276C1.36965 14.38 1.28277 14.3969 1.12625 14.5155C0.95234 14.6341 0.93491 14.6849 0.760997 14.7526C0.726215 14.8204 0.778338 14.7526 0.708772 14.8373C0.708772 14.8542 0.691453 14.8881 0.674062 14.8881L0.395742 15.2099C0.343568 15.3963 0.256603 15.5148 0.169646 15.735L0.0131836 16.3109V16.9714C0.0131836 16.9884 0.0305919 16.9884 0.0305919 17.0053L0.239279 17.7167C0.326236 17.7844 0.326176 17.7845 0.395742 17.903C0.465307 18.0046 0.500119 18.0893 0.534902 18.191C0.621858 18.2248 0.621905 18.2587 0.69147 18.3434C0.69147 18.3603 0.760997 18.462 0.760997 18.462C0.813171 18.5466 0.795831 18.4789 0.813222 18.5805C0.969744 18.6821 1.17842 18.9531 1.2306 19.1225L1.63056 19.529C1.7523 19.5968 1.76965 19.5968 1.90878 19.6815L2.06535 19.7661L2.08275 19.7831C2.15232 19.8508 2.11752 19.817 2.16969 19.8847L2.39579 19.9525L3.03926 20.1049H3.64791C3.6653 20.1049 3.68273 20.071 3.68273 20.088C3.71751 20.1388 4.86533 19.2919 5.09142 19.1903C5.05663 19.1056 5.07408 19.1564 5.14364 19.1733C5.26538 19.004 5.61318 18.7668 5.7697 18.733C5.82188 18.6144 6.03052 18.4789 6.15226 18.445C6.16965 18.4281 6.16965 18.3942 6.25661 18.3265C6.37835 18.2248 6.29147 18.2926 6.44799 18.2418C6.51756 18.1401 7.0566 17.7675 7.23052 17.6659C7.4566 17.5135 7.83927 17.1916 8.04796 17.1069C8.11753 17.0223 8.04801 17.0561 8.20453 17.0053L9.35231 16.1584C9.3697 16.1584 9.43926 16.1076 9.45665 16.1076C9.561 16.0568 9.42185 16.1076 9.54359 16.0738C9.68272 15.8874 9.82188 15.8366 10.0132 15.7011C10.1871 15.5826 10.3262 15.464 10.5175 15.3793C10.5523 15.2777 10.5001 15.3624 10.6044 15.2777L11.4393 14.7357C11.4741 14.7018 11.474 14.6679 11.5783 14.6002C11.6479 14.5494 11.648 14.5494 11.7349 14.5155C11.7697 14.4139 12.1523 14.1937 12.2566 14.1259C12.4305 14.0074 12.6045 13.8719 12.7958 13.7533C12.9871 13.6178 13.7349 13.0589 13.8914 13.025C13.9262 12.9742 13.9088 12.9572 14.0132 12.8895C14.1175 12.8217 14.048 12.8556 14.1697 12.8217C14.2219 12.7371 14.2741 12.7032 14.3958 12.6185L14.5002 12.5507C14.6045 12.483 14.5175 12.5169 14.6392 12.4999C14.7262 12.3306 15.0915 12.1273 15.2654 12.0087C15.4741 11.8563 15.7175 11.653 15.9262 11.5853C15.9783 11.4837 16.0305 11.4667 16.1523 11.3821C16.1697 11.3821 16.2566 11.3143 16.274 11.3143C16.361 11.2635 16.3088 11.2804 16.3958 11.2635C16.4827 11.128 16.6566 11.0094 16.8131 10.9586C16.8653 10.8739 18.9697 9.38341 19.1784 9.28179L19.2654 9.24791C19.3176 9.12935 19.7001 8.89223 19.8566 8.80754C19.9784 8.67204 20.2392 8.5196 20.4132 8.40103C20.6219 8.2486 20.7957 8.07922 21.0392 7.99454C21.0566 7.94372 21.0219 7.9776 21.0914 7.92678C21.1088 7.90985 21.1784 7.85904 21.1958 7.8421C21.2827 7.79129 21.3175 7.75741 21.4045 7.74047L21.4567 7.67272C21.4741 7.65578 21.5958 7.48641 21.8915 7.38478L22.0131 7.28315C22.187 7.36784 24.1871 8.7906 24.2219 8.85835C24.4132 8.90916 24.3088 8.87529 24.4654 8.99385C24.6045 9.07854 24.5523 9.01079 24.6392 9.16323L25.3523 9.62054C25.4741 9.70523 25.9436 10.027 25.9784 10.0948C26.1349 10.1456 26.0828 10.1117 26.2393 10.2303C26.3437 10.315 26.3436 10.315 26.4132 10.3997C26.5349 10.4335 26.4132 10.3658 26.5698 10.4674C26.7089 10.569 26.6219 10.4844 26.6567 10.569C26.7784 10.6199 26.8479 10.6537 26.9349 10.7215C27.074 10.8062 26.9697 10.7215 27.0567 10.8062C27.161 10.9078 27.0914 10.857 27.161 10.9247C27.3175 10.9755 28.1349 11.5684 28.361 11.7208C28.5523 11.8563 29.4567 12.483 29.5089 12.5846C29.6654 12.6354 29.5262 12.5338 29.6654 12.6524C29.7349 12.6862 29.6827 12.6693 29.7349 12.7371C29.874 12.7709 29.7349 12.7201 29.8914 12.8048C29.9436 12.8387 29.961 12.8556 30.0132 12.8895C30.1175 12.9572 30.1349 12.9742 30.1871 13.0589C30.361 13.1097 30.674 13.3129 30.7436 13.4654C30.8827 13.4823 30.8479 13.4315 30.9349 13.567C31.161 13.6517 31.4045 13.8719 31.5958 14.0074C31.7349 14.0921 32.0827 14.3122 32.1697 14.4308C32.3088 14.4816 32.7784 14.8204 32.8306 14.922C33.0219 14.9728 32.9523 14.8881 33.0567 15.0744C33.1958 15.1083 33.3523 15.2438 33.4741 15.3285C33.6132 15.4301 33.7002 15.4809 33.8393 15.5826C34.0132 15.7011 34.4827 15.9891 34.5349 16.1076C34.7262 16.1754 34.7089 16.1415 34.8132 16.3109C34.935 16.3278 34.9002 16.3278 35.0393 16.4125C35.1089 16.4633 35.1784 16.5141 35.2132 16.5819C35.3001 16.6158 35.3349 16.6158 35.4045 16.6666C35.4219 16.6835 35.474 16.7343 35.4914 16.7343C35.5436 16.8021 35.5262 16.7851 35.561 16.8359C35.648 16.8529 35.7002 16.8868 35.7697 16.9376C35.7871 16.9545 35.8741 17.0223 35.8741 17.0223C35.9436 17.0731 35.9262 17.0392 35.9436 17.09C36.0653 17.1408 37.2827 17.9369 37.4566 18.174C37.5784 18.191 37.4914 18.1571 37.5784 18.2079C37.5958 18.2079 37.6827 18.2756 37.7001 18.2926C37.8219 18.3773 37.874 18.3773 37.9088 18.4789C38.1001 18.5466 38.0132 18.4958 38.1349 18.6313C38.3958 18.7499 38.9697 19.1903 39.2654 19.3935C39.3523 19.4613 39.3871 19.4782 39.4741 19.529C39.561 19.5968 39.5785 19.5968 39.6132 19.6645C39.8045 19.7492 39.8045 19.7153 39.9089 19.8847C40.0654 19.9186 40.1523 20.0371 40.4132 20.088H40.9002C41.7871 19.9694 42.2218 19.6984 42.674 19.2241C42.8132 19.0548 43.7523 17.7336 43.7697 17.7167L43.9437 17.1239C43.9437 17.1069 43.9611 17.0561 43.9611 17.0561C44.0132 16.8868 43.9958 16.9714 44.0132 16.9376V16.2262L43.9437 16.0229C43.6654 15.0914 43.4393 15.1252 43.4045 14.9051C43.2306 14.8034 43.3175 14.9051 43.248 14.7357C43.0914 14.6849 43.0045 14.5833 42.848 14.4647C42.6915 14.3631 41.8045 13.7872 41.7697 13.6686L41.6654 13.6178C41.5611 13.567 41.4567 13.4992 41.335 13.4146C41.2828 13.3807 41.248 13.3468 41.1784 13.296C41.074 13.2113 41.1088 13.2791 41.074 13.1944C40.9001 13.1266 40.7089 12.9911 40.5871 12.8726C40.448 12.7879 40.3958 12.7709 40.3262 12.6693C40.1697 12.6185 39.7176 12.2967 39.5784 12.1781C39.4219 12.0595 38.9871 11.7885 38.8827 11.67C38.7436 11.6192 38.4827 11.399 38.3262 11.2974C38.1349 11.1619 37.9784 11.0602 37.7871 10.9247C37.5784 10.7554 37.0219 10.2134 36.9871 9.90848C36.8828 9.82379 36.9524 9.90848 36.8828 9.75604C36.848 9.7391 36.8131 9.63748 36.7957 9.60361C36.7262 9.43423 36.7089 9.38342 36.6741 9.1971C36.4654 8.90916 36.5523 6.36853 36.5523 5.75878C36.5523 5.16596 36.5523 4.55621 36.5523 3.96339C36.5523 3.6077 36.5002 2.43901 36.5523 2.20188L36.2914 1.47357C36.1523 1.37194 35.9784 0.897691 35.4393 0.542002C34.5001 -0.0846884 33.4393 0.0508143 32.2219 0.0677518C31.2306 0.0846894 31.0567 0.372629 30.761 0.406505C30.6741 0.542005 30.761 0.474254 30.6044 0.525067C30.5001 0.677505 30.3436 0.728316 30.2045 0.880755C30.1175 0.98238 29.9784 1.15176 29.8914 1.30419C29.7349 1.57519 29.5436 1.99863 29.5262 2.3882C29.4392 3.08264 29.6132 4.31908 29.4741 4.9119C29.4045 4.92884 29.3697 4.96271 29.2132 4.89496L28.6566 4.47152C28.5175 4.42071 28.3785 4.33602 28.3089 4.23439C28.1524 4.16664 27.9262 4.04808 27.8393 3.87871C27.6828 3.86177 27.6131 3.77708 27.4566 3.65852C27.161 3.45526 24.9871 1.99863 24.9523 1.86313C24.7436 1.77844 24.7436 1.76151 24.5697 1.64295L24.3088 1.40582C24.1871 1.38888 24.274 1.52438 24.187 1.33807C23.9436 1.25338 23.6306 0.99932 23.4045 0.829944C23.2828 0.728318 23.1784 0.660568 23.0567 0.558943C22.8828 0.44038 22.8132 0.423439 22.6914 0.271001C22.5697 0.237126 22.7089 0.304874 22.5524 0.203249C22.5002 0.169374 22.448 0.1355 22.4306 0.118562C22.3089 0.0508122 22.274 0.0338751 22.1523 0H21.961C21.5958 0.0508127 21.5784 0.203254 21.3001 0.287942Z" fill="#F7F7F8"/>
<path fill-rule="evenodd" clip-rule="evenodd" d="M18.8829 28.7098H25.1438L25.1959 28.9469C25.2133 30.3189 25.2308 38.3642 25.1612 38.6013H18.8655C18.7785 38.2965 18.8308 30.4713 18.8308 28.9977L18.8482 28.7776C18.8482 28.7606 18.8655 28.7437 18.8655 28.7437C18.8655 28.7267 18.8829 28.7267 18.8829 28.7098ZM7.42208 36.3825L7.63076 37.06C7.71772 37.1447 7.85682 37.5173 7.92639 37.6698C8.15247 38.0763 8.4655 38.432 8.77854 38.7538L9.17862 39.0756C9.28296 39.1603 9.26548 39.1095 9.30026 39.1942C9.49157 39.2619 9.42203 39.2111 9.54377 39.3635L10.3786 39.7023C11.5438 40.1257 14.222 39.9733 15.6481 39.9733C17.4916 39.9733 19.3351 39.9733 21.1786 39.9733C24.8829 39.9733 28.6395 40.0241 32.3265 39.9563C33.2308 39.9055 33.509 39.7023 34.2395 39.4821C34.2742 39.3974 34.6568 39.1942 34.7612 39.1603C34.8133 39.1095 34.796 39.1264 34.8308 39.0756C34.883 39.0248 34.9004 39.0078 34.9351 38.974C35.0395 38.9062 35.0916 38.8723 35.196 38.8215L35.3003 38.703C35.4568 38.5336 35.596 38.3303 35.7004 38.2795C35.7351 38.1779 35.7003 38.2118 35.7699 38.1271C35.7873 38.1101 35.8046 38.0763 35.822 38.0763C35.8742 38.0255 35.8743 38.0255 35.9091 37.9916C35.9438 37.8561 36.0482 37.7206 36.1352 37.5851C36.1873 37.4665 36.2046 37.4157 36.2568 37.2971C36.2742 37.2633 36.2916 37.1955 36.309 37.1616C36.3786 37.0431 36.3264 37.1108 36.4134 37.0431C36.396 36.7721 36.5525 36.4333 36.6046 36.1115C36.6742 35.5526 36.6395 29.0824 36.6395 28.4727V21.867C36.6395 21.325 36.7612 20.2071 36.4308 19.8684C35.9612 19.3603 35.2134 19.6821 35.2134 20.4273C35.1438 25.4409 35.2655 30.6915 35.2134 35.7389C35.2134 35.8236 35.196 35.8913 35.196 35.976C35.1786 36.0099 35.1612 36.0607 35.1612 36.0946C35.1091 36.2301 35.1438 36.1454 35.109 36.2131C35.1264 36.3825 35.0568 36.518 34.9873 36.6874C34.9525 36.7721 34.9351 36.806 34.9003 36.8906C34.8482 36.9923 34.8308 37.0261 34.7786 37.06C34.709 37.2463 34.6743 37.348 34.5004 37.4157C34.4308 37.7883 33.4916 38.3473 32.9177 38.4828C32.5003 38.6183 32.0133 38.6013 31.5785 38.6013H26.6046V28.5235C26.6046 28.3372 26.6221 28.0154 26.5699 27.846C26.5004 27.5919 26.3786 27.6089 26.309 27.4225C26.1525 27.3887 26.1525 27.4225 26.0481 27.3209C25.4742 27.3717 19.6308 27.3209 18.4829 27.3209C17.3525 27.3379 17.4221 27.7613 17.4221 28.7606C17.4221 32.0465 17.4221 35.3154 17.4221 38.6013C16.2047 38.5167 11.3524 38.8385 10.709 38.3303C10.6046 38.2965 10.6394 38.3303 10.5351 38.2795C10.4133 38.2118 10.4829 38.2456 10.4133 38.1779C10.1872 38.144 9.92638 37.89 9.76986 37.7375C9.59595 37.5682 9.30035 37.331 9.28296 37.077C9.09165 36.9753 9.00469 36.6705 8.95252 36.4333C8.70904 36.0099 8.81336 32.9442 8.81336 32.1989V21.1895C8.81336 20.512 8.93511 19.716 8.16989 19.6313C7.23076 19.5466 7.36987 20.6645 7.38726 21.1048L7.42208 36.3825Z" fill="#F7F7F8"/>
</svg>
