<svg width="34" height="40" viewBox="0 0 34 40" fill="none" xmlns="http://www.w3.org/2000/svg">
<path fill-rule="evenodd" clip-rule="evenodd" d="M3.05249 6.996C3.71692 6.91547 4.53948 6.9457 5.225 6.89537C8.6948 6.62358 13.2509 5.97934 16.1723 4.1775C16.9422 3.7044 17.1321 3.41248 17.4168 3.23129C17.6488 3.37221 17.7859 3.55341 18.0285 3.74467C20.4436 5.6069 24.5568 6.3216 27.5626 6.70411C28.2481 6.78464 28.9547 6.84504 29.6613 6.89537C30.3468 6.9457 31.1167 6.92554 31.7812 6.996C31.739 10.7104 31.7812 14.445 31.7812 18.1694C31.7812 22.2059 31.7284 24.4205 30.1675 27.8027C29.5875 29.0509 28.7015 30.3394 27.9211 31.2453C26.0649 33.3995 24.1033 34.8792 21.4878 36.2884C20.971 36.5703 17.9652 37.9695 17.4168 37.9695C16.8579 37.9695 13.9471 36.5501 13.3776 36.2582C12.0803 35.614 11.0045 34.8188 9.8866 34.0034C7.87222 32.5539 5.72081 29.9669 4.68725 27.7826C3.10527 24.4104 3.05249 22.1959 3.05249 18.1694C3.05249 14.445 3.05249 10.7205 3.05249 6.996ZM0.922076 6.18065C1.05918 6.99601 0.964303 13.6397 0.964303 15.059C0.964303 17.7265 0.763919 21.2295 1.22797 23.7561C1.78693 26.8162 2.91543 29.363 4.67669 31.648C4.85598 31.8795 5.00363 32.0707 5.20402 32.3123C5.38331 32.5338 5.54151 32.6948 5.73134 32.8962C6.25867 33.5203 7.11285 34.3356 7.75619 34.8892C10.1397 36.9025 13.9365 39.1069 17.0583 39.9625C17.6067 40.1135 18.4188 39.7713 18.8934 39.5901C21.5722 38.5734 24.2721 37.1138 26.2865 35.5133C30.0621 32.5237 32.319 29.2925 33.458 24.4809C34.0486 21.9644 33.8588 18.6023 33.8588 15.9247C33.8588 12.9451 33.8588 9.96556 33.8588 6.98599C33.8588 6.19077 34.1014 5.62703 33.4897 5.19419C33.0678 4.90227 31.9815 5.00291 31.3698 4.98278C27.7418 4.90225 22.8061 4.19764 19.8952 2.5468C18.25 1.62072 18.6296 0.98657 18.4081 0.553727C18.0074 -0.261628 16.5203 -0.18108 16.3411 0.825532C16.2567 1.25837 16.3199 1.31872 16.0563 1.6509C14.7802 3.21115 10.9412 4.1272 8.55773 4.51978C5.56253 5.00295 4.69775 4.89221 2.0084 5.00293C1.34397 5.03313 0.806064 5.46596 0.922076 6.18065Z" fill="#F7F7F8"/>
<path fill-rule="evenodd" clip-rule="evenodd" d="M17.9542 20.0416C17.8382 20.2529 14.2946 23.625 14.0942 23.7156C13.4087 23.1418 12.7337 22.4372 12.0904 21.8131L10.1183 19.9308C9.5488 19.9208 9.31681 19.6792 8.83169 20.1825C8.50476 20.5247 8.47317 21.0582 8.74737 21.4206L10.5296 23.1318C11.7319 24.2793 12.8814 25.3966 14.0942 26.5239C14.3684 26.3931 16.3195 24.4504 16.657 24.1283L24.3662 16.7802C24.672 16.4883 26.0747 15.2503 26.2118 14.908C26.3383 14.5859 26.2856 14.2537 26.0852 13.992C25.1572 12.7942 23.9655 14.3644 23.1007 15.1798L17.9542 20.0416Z" fill="#F7F7F8"/>
</svg>
