<svg width="102" height="53" viewBox="0 0 102 53" fill="none" xmlns="http://www.w3.org/2000/svg">
<path fill-rule="evenodd" clip-rule="evenodd" d="M23.1413 7.38058C23.6236 6.55742 24.6614 6.34916 25.7098 6.0318C27.1775 5.59543 26.6952 6.03179 27.9742 4.47473C28.3936 4.72267 28.2573 4.75241 28.7081 5.07969C30.3121 6.23013 29.8508 6.8252 29.6306 7.50951C29.3895 8.26325 29.8403 9.26495 29.2952 9.71124C29.0541 9.91951 28.6871 9.93932 28.3831 10.1178C27.9218 10.3856 28.2678 10.455 27.5759 10.5244C26.9259 9.38391 27.471 7.9161 26.8106 6.92435C25.7937 6.91443 25.9404 7.59877 25.6574 8.38226L25.0808 8.49134L24.5461 9.30459C24.2526 9.69137 24.0849 9.79056 23.7599 10.1178C23.1099 10.8021 22.9946 11.3972 23.9486 11.8931C24.5252 11.7443 24.6824 11.4468 25.1437 11.1691C25.584 11.7146 25.0913 12.3294 26.0348 12.3889C26.559 12.4286 27.1146 12.1212 27.9428 12.1708C28.2992 12.7361 28.6557 13.2121 29.7145 12.9542C30.7105 12.7063 30.4274 12.032 31.1613 11.5063C31.2032 12.5377 30.6685 12.9741 31.308 13.6286C31.8637 14.2138 32.4612 14.184 33.1846 13.8666C33.8346 14.541 34.17 15.3543 35.7321 14.9278C36.1829 15.4931 36.2982 16.1576 36.9796 16.346C37.9127 16.6039 38.1852 15.8304 38.8562 15.6519C41.2045 17.7941 38.9925 17.0601 40.4497 18.8949C41.1835 18.8056 41.3722 18.5379 41.6448 17.8734C42.169 16.5742 42.0956 17.3577 42.5988 16.6535C42.9553 16.1676 43.2488 15.027 44.9367 14.5708C44.2972 15.6717 44.2867 14.8287 44.0665 16.4849C43.9302 17.5362 43.794 16.3163 43.4794 18.6172L44.3705 19.4701C44.9576 19.3908 45.0625 18.2007 45.1778 17.6849C47.264 16.961 45.9536 16.6535 46.6874 15.5924L46.7608 17.0006C47.4842 17.0403 47.4632 16.7329 47.9559 16.4948C49.0462 17.2486 48.5325 17.4469 48.5849 18.3197C49.0777 18.6271 49.0986 18.6172 49.7906 18.5081C50.0212 17.5858 49.4131 17.1395 49.4865 16.2568C49.6543 14.2733 51.5308 16.3957 52.0655 16.1477C52.2752 16.0386 52.5792 14.7593 53.0929 14.1742C53.2921 13.9361 53.1558 14.1047 53.355 13.8469C53.3759 13.8072 53.4598 13.6882 53.4808 13.6584L53.6275 13.47C54.3194 13.6783 54.0469 13.7873 54.8541 13.8171C55.0533 13.5493 55.0952 13.3312 55.3154 13.0535C55.9129 14.4221 57.2863 13.0534 57.5274 12.9741C59.2572 12.4386 58.2718 13.1129 59.0266 10.8914C60.3056 10.9211 60.0749 11.546 60.1588 11.9823C60.3056 12.7857 60.9346 12.5278 61.8886 12.746C61.6999 13.2518 61.1338 14.8386 60.9031 15.2056C60.5257 15.8006 59.5403 16.8022 59.7814 17.5857C60.9555 17.7543 60.7459 16.5047 61.8886 16.7229C62.9789 16.9213 63.5659 17.4568 63.8804 16.1675C65.5683 16.6535 65.3796 16.6535 67.3191 16.4849C67.5392 15.8204 67.4029 15.3642 68.2311 15.2353C68.5247 15.5725 68.4618 15.6915 68.7029 16.0585C69.1118 16.6535 70.4956 18.1808 71.2819 17.5362C71.6488 17.0502 71.502 16.8023 71.4391 16.0684C72.131 16.2667 72.131 16.4849 73.0012 16.4651C74.1229 15.2155 73.6826 16.0584 74.5213 16.0386C75.1503 16.0188 74.8043 14.8684 74.9721 14.0948C75.2761 13.5989 76.901 13.3708 77.5301 13.1328C77.855 13.0237 77.9913 12.7856 78.2324 12.5774C79.1236 12.6071 79.5324 13.0534 80.0566 12.4484C81.0106 11.3377 80.2558 10.455 83.0863 11.4666C83.4428 11.5955 83.4742 11.7047 83.9565 11.7543C85.3508 7.63847 87.5733 9.7112 88.4644 8.1839C88.1814 7.33099 87.5838 7.87644 87.133 7.05328C87.437 6.36897 88.1289 6.10122 88.8942 5.71443C89.7748 5.27806 89.5442 4.80203 90.5506 4.17722C90.8756 3.97887 92.4167 3.2152 92.5949 3.17553C93.9159 2.92759 94.9013 3.59207 94.178 2.11435L95.6876 0.835001C95.5723 3.06646 95.9706 1.83667 96.8303 2.38214C96.9351 3.38382 96.7255 2.55071 95.9077 3.46312C95.4569 3.97884 95.6142 4.25655 95.2892 4.85161L94.2513 4.95076C93.9997 6.01194 95.111 5.91281 94.2618 6.98391C93.5909 7.8269 93.6433 8.20375 94.2828 9.00707C95.5094 8.91781 95.069 8.32273 96.1174 7.92603L97.4593 8.59055C97.3125 9.28478 96.9142 9.8798 96.9666 10.7228C97.0295 11.5261 97.5012 11.8832 97.4069 12.7956C97.1972 14.8882 95.6666 15.4634 95.457 16.0783C95.457 16.7428 95.7715 17.0403 95.9811 17.4866C94.8699 18.5874 95.7715 18.7858 96.1279 19.9164C96.2852 20.4222 96.1803 20.4222 96.39 20.8685C97.5432 20.8883 96.8722 20.5511 97.9311 20.4321C98.3399 22.2371 99.1262 21.3247 99.1681 22.1479C99.1891 22.5247 99.1576 22.0586 99.1681 22.4553C99.2101 23.5264 99.7971 23.3379 100.122 23.9826C100.29 24.9942 99.6294 26.0851 100.091 26.9876C100.426 27.672 100.615 27.1463 100.751 28.0686C100.856 28.7529 100.804 28.8124 101.024 29.4868C99.2625 29.2587 98.7488 27.4736 97.7319 26.6802C96.1069 25.4008 94.2618 22.5446 94.7231 20.7991C95.0166 19.6685 95.3836 19.9362 94.9747 18.2899C94.5449 16.5841 93.6014 15.1559 91.4208 15.7312C90.9595 17.3874 92.2804 17.2089 92.2175 18.5676L91.4522 18.5478C90.9385 19.7875 91.1377 19.361 90.2047 20.0553C90.0579 21.1363 90.7813 23.0206 91.1377 23.9529C89.7748 23.933 90.0789 23.9033 89.366 24.9248C88.716 25.857 88.5797 25.6884 87.3846 26.0157C86.0951 26.3826 84.9839 28.1876 84.4702 29.3182C84.1347 30.0422 84.1242 30.9348 83.9145 31.758C83.6524 32.8192 82.0904 35.8341 83.3484 36.6275C83.8412 36.9349 84.1871 36.687 84.6798 36.9151C85.1306 37.1234 84.9314 37.3515 85.6863 37.4903C86.7556 37.044 86.3362 36.1912 86.8709 35.4176C88.0136 35.1399 88.5273 35.3283 88.6531 36.3895C88.7894 37.5498 89.0829 37.8275 89.5337 38.6705C90.0684 39.6722 90.4877 39.7714 90.4144 40.902C90.3515 42.1317 90.7498 42.4689 90.6135 43.8772C90.4353 45.712 90.3619 48.8559 89.1039 50.2047C88.6217 50.7105 88.6112 50.4229 87.8983 50.6212C86.9024 50.9088 87.2693 51.7221 86.4306 52.2874C85.7806 51.5336 85.8435 49.798 86.4516 48.965C86.6088 48.7468 86.6298 48.7468 86.8499 48.6476C87.0596 48.5385 87.3427 48.5782 87.5104 48.4096C87.9717 47.5467 88.2757 44.3731 87.4894 43.7186C86.0532 42.5285 84.8895 45.0674 84.229 45.5137C83.6839 44.8095 83.7992 44.3632 82.5622 44.274C81.4824 44.2045 80.6646 44.4128 79.6372 44.0855C79.2179 42.4392 79.5219 41.9929 77.897 41.3483C76.9849 40.9813 75.1817 40.6441 74.081 40.6838C71.4391 40.7929 72.9592 42.7367 71.6802 46.8228C70.9778 46.9914 71.1351 46.7732 70.4536 46.6939C69.7827 46.6046 69.594 46.8625 69.0908 46.7137C67.8957 46.3666 67.9795 46.0195 66.8578 47.0707C65.2643 48.5683 64.3522 48.4691 62.0668 47.5864C59.0999 46.436 59.5612 48.8262 57.3702 45.9699C57.0032 45.474 56.3428 44.8095 55.3154 44.9384C54.2356 45.0674 54.1412 45.8608 54.0574 46.9418C52.8517 47.0707 52.6106 46.9815 51.4469 47.3286C49.8954 47.7947 50.0317 47.0112 49.3922 46.4658C48.2809 45.5236 47.0334 46.2277 45.8592 46.5153C45.3036 46.6542 45.1149 47.1302 44.8213 47.2096C43.8149 47.1501 42.798 46.8823 42.2319 46.3368C42.1271 44.988 41.9384 44.3236 40.869 43.7979C40.4182 43.5798 39.9674 43.4806 39.5796 43.1831C39.0449 42.7566 39.1917 42.3995 38.2377 42.7863C38.2062 40.9615 37.6401 41.5268 37.4828 40.0689C37.3151 38.5813 37.8812 38.1846 36.2458 37.887C34.8829 37.6292 34.9039 37.1036 34.2958 36.33C33.9079 35.8341 33.6983 35.9928 33.1426 35.7151C32.629 35.4572 32.8491 35.0903 32.7652 34.3861C32.4088 34.2572 32.0314 34.039 31.5282 33.8804C31.0354 33.7217 30.5532 33.5927 30.0919 33.4043C29.1903 33.0373 26.0662 31.4208 25.1751 32.472C24.5042 33.2754 25.0913 32.839 23.9591 33.563C23.7703 33.6721 23.7494 33.6324 23.5816 33.7812C23.0784 34.1977 23.2986 34.6837 23.2776 35.3283C22.3026 35.2886 22.6486 34.1283 21.8728 33.563C21.1704 33.0473 19.9858 33.1663 19.1366 32.7795C19.0213 32.2043 19.1261 31.1927 18.7277 30.7563C18.1302 30.0819 17.952 30.7861 17.2915 29.5761C16.8931 28.8521 16.5681 28.753 15.4464 28.7133C13.79 28.6538 14.4714 28.9612 13.811 29.6951C13.4545 28.862 13.769 27.3546 11.7038 28.6141C11.1272 28.9613 10.7288 28.9711 10.299 29.2488C9.59656 30.0422 11.3054 30.7464 9.99494 33.0869C9.97397 33.1067 9.95301 33.1564 9.93204 33.1861C9.07239 32.9283 8.41192 32.363 7.4684 32.9283C6.86035 33.2952 6.46198 33.9795 6.35714 34.8721C4.65881 35.0407 5.04669 35.7845 5.28782 37.0837C3.37981 36.9052 5.05717 33.3349 3.8935 32.3729C2.98143 31.6291 2.72984 32.4919 2.67742 30.4687C2.65645 29.0307 2.38387 29.0803 1.56615 28.3563C1.66051 27.6422 2.07985 27.2951 2.15323 26.6306C2.24758 25.8174 1.65003 25.4108 2.02743 24.895C2.47823 25.2422 2.41532 25.8074 3.27497 25.5992C3.78867 25.4702 4.07173 25.0636 4.71123 24.8454C5.14106 25.1826 4.87896 25.2719 5.45556 25.4801C5.91683 25.1826 5.73861 25.2322 5.99021 24.8157C7.0805 24.7661 7.34259 25.2025 8.40143 24.9248C8.69497 24.538 9.15626 23.447 9.01998 22.7429C8.92562 22.2966 8.70546 22.3065 8.60062 21.7115C8.47482 21.0272 8.64256 21.0371 8.35951 20.3726C7.92968 19.371 8.89417 19.3412 9.03045 18.4486C9.18771 17.437 8.22322 17.3081 8.14984 16.356C8.97804 15.9097 8.77886 16.5543 10.0683 16.4849C11.2635 16.4254 11.0538 15.8998 11.1481 14.9378C11.6828 14.6006 12.4795 14.4915 12.4376 13.5592C12.4062 12.5972 11.8296 12.3791 11.7352 11.5658C12.1231 11.1493 12.2699 11.1492 12.6892 10.7823C13.1505 10.3757 13.119 10.1178 13.5593 9.80047C14.3142 10.8815 14.5763 9.64177 15.352 9.53267C16.2327 9.40374 16.9141 11.1096 17.1971 9.85997C17.302 9.37401 17.0294 8.78886 17.6689 8.79878C18.0673 8.79878 19.0527 10.0187 21.5793 9.45338L21.747 8.46162C22.701 8.17401 22.397 8.17402 22.9526 7.53929C23.1204 7.36077 23.0679 7.42025 23.1413 7.38058V7.38058ZM94.1151 1.16224C94.0626 1.2515 94.1255 1.18207 93.9473 1.35067C93.4546 1.80688 93.4231 1.71762 93.3497 2.46144L92.0498 2.62015C91.9974 2.63007 91.8716 2.67967 91.8401 2.68958L91.6409 2.75901C91.2426 3.27473 90.2466 3.51274 89.7749 3.86978C89.1144 4.37557 89.0934 4.81191 88.2547 5.2582C87.7306 5.53589 86.8395 6.10119 86.5878 6.4979C86.0113 7.42023 86.7346 7.76735 87.2588 8.11447C86.0951 8.59051 85.833 8.25334 84.7742 9.00707C83.6525 9.80048 84.1766 10.0187 83.4428 10.822C80.2872 10.2567 80.4654 9.85996 79.5114 12.0815C76.1672 11.6154 78.8405 12.3096 76.5865 12.2997C76.1253 12.9047 76.6809 12.6964 75.989 12.9542C75.2971 13.222 74.1543 13.0931 74.1439 15.0766C72.8334 15.2849 73.3995 15.146 72.5608 15.7609C71.9947 15.5725 71.3762 15.0469 70.8206 15.5526C70.4746 15.9295 70.7682 16.2667 70.8206 16.9511C70.2649 16.713 69.94 16.4254 69.6045 16.0485C69.1851 15.5923 69.1956 15.2452 68.9021 14.8882C68.5666 14.4915 68.0634 14.4816 67.5497 14.7196C67.1094 14.9279 66.9312 15.2056 66.7949 15.7808C65.3377 15.8998 65.9457 16.1378 64.499 15.6519C63.2829 15.2353 63.4506 15.8105 63.0208 16.356C62.4128 16.2171 61.941 16.0287 61.2386 16.0485C62.4128 12.8253 63.8071 12.3592 60.9451 11.9328C60.8822 11.0898 61.0184 11.1592 60.4523 10.7426C57.9782 8.92773 58.2193 11.9327 57.9677 12.1509C57.6742 12.26 57.2548 12.2997 56.9403 12.4484C56.4581 12.6964 56.6678 12.8055 56.1541 12.9443C55.7662 12.5873 55.9025 12.3592 55.2735 12.3691C54.8436 12.3791 54.8856 12.4088 54.5082 12.8352C54.4872 12.8551 54.4452 12.9344 54.4348 12.9146C54.4243 12.8948 54.3928 12.9741 54.3719 12.994C52.9671 12.4683 52.7259 13.113 51.6881 15.3444C50.9333 14.9775 50.8389 14.4617 49.4131 14.8783C48.8785 15.146 49.0672 15.6121 48.7003 16.108C47.4108 15.5626 47.6309 15.8204 47.2955 15.2948C47.1487 15.0468 47.3269 15.1857 47.0334 14.8584C46.1003 14.789 45.9116 15.1064 45.8278 15.9295C45.7334 16.9014 45.5866 16.842 44.6746 17.1395C44.8109 16.6535 44.7584 16.5147 44.8318 16.0783C44.9681 15.275 45.3875 15.4238 45.66 14.7196C46.31 13.0535 43.4899 14.065 42.5359 15.3246C42.3262 15.5923 42.2948 15.8006 42.1271 16.0684C41.7077 16.7527 41.9803 16.1973 41.519 16.6138C41.1206 16.9808 41.1521 17.6155 40.6489 18.0816C40.5755 17.0799 40.9319 16.8221 40.1981 16.0783C39.8521 15.7411 39.2965 15.1758 38.8562 14.9378C37.7973 15.0964 38.332 15.513 37.2208 15.7114C36.5917 15.3047 36.4764 14.6799 36.0885 14.1047C35.1974 14.1841 35.6272 14.422 34.6418 14.3725C32.3983 11.8633 33.4781 13.9063 31.8322 13.2617C31.5282 12.4385 32.1782 11.9228 31.5177 10.9013C29.7145 10.5443 30.7209 12.3295 29.0226 12.3096C28.4355 11.9427 28.6871 11.5956 27.8275 11.4865C27.2509 11.417 26.7162 11.6352 26.1816 11.7146C25.7622 11.0997 26.213 10.941 25.4477 10.5244C24.7558 10.3757 24.4098 10.9013 23.98 11.1096C24.1897 10.3955 24.6719 10.2666 25.1647 9.6021C25.909 8.60043 25.9614 9.67153 26.4122 8.36241C26.7477 10.0781 26.5066 12.1509 28.6242 10.7724C29.2847 10.3459 30.3121 10.4451 30.3016 8.74921C30.2911 6.79544 31.0145 6.91444 30.2597 5.88301C29.7355 5.14911 30.0395 5.46648 29.746 4.65324C29.0331 4.1772 29.0016 4.83179 28.2888 3.75077C26.8944 4.03838 26.9259 4.79209 26.4961 5.08962C26.3912 5.16896 24.4518 5.72433 24.0534 5.88301C23.1518 6.24005 22.7849 6.57728 22.3341 7.22192C21.768 8.06492 22.1034 7.45003 21.422 7.90624C21.097 8.11451 21.118 8.27319 20.9608 8.59055C20.8454 8.82857 20.9503 8.69961 20.814 8.86821C20.3737 8.87813 19.6713 8.87812 19.2414 8.79878C18.5705 8.67977 18.6439 8.52109 18.3399 8.1839C16.652 7.98555 17.0399 8.39215 16.327 9.1558C15.8762 8.73926 15.4988 8.70954 14.8279 8.99715C14.3456 9.20541 14.6496 9.23515 14.1569 9.22523C12.5949 9.21531 13.79 8.65001 12.3223 10.1575C11.7667 10.7327 10.4982 11.0302 11.1901 12.3294C11.5884 13.0633 11.6828 12.8749 11.7457 13.8766C10.6869 14.3427 10.4353 14.3923 10.3933 15.7808C9.06191 15.9097 9.40787 15.5428 8.44338 15.4535C6.4515 16.3163 7.83532 17.1692 8.34901 18.1908C8.11838 18.885 7.83532 18.9246 7.58372 19.5197C7.24824 20.2932 7.68855 20.3429 7.81436 21.0371C8.16032 22.9314 8.56917 22.7429 7.99258 24.3892C7.44743 24.3397 7.11195 24.1711 6.62971 24.1413C5.81199 24.0818 5.812 24.3595 5.34024 24.3198C4.82654 24.2801 4.96284 23.9727 4.18705 24.3198C3.75723 24.5082 3.51609 24.7562 3.07578 24.9347C2.65644 24.5777 2.48871 24.0123 1.76535 24.2305C1.346 24.4289 1.20972 24.5975 1.16778 25.2521C1.08391 26.3232 1.4089 25.6586 1.41939 26.5116C1.41939 27.4141 0.350065 28.0091 1.02101 28.8819C1.88067 30.0026 1.77583 28.4555 2.01695 31.034C2.16372 32.5911 2.34193 32.4324 3.48464 32.8787C3.74673 34.0589 3.41127 35.3085 3.75722 36.449C4.10318 37.5796 5.07814 38.3036 5.99021 37.3416L5.72812 35.6853C6.33617 35.5068 6.80793 35.6853 7.03857 35.0704C7.30066 34.406 7.12244 34.0886 7.63614 33.6522C8.69498 32.7497 9.6385 34.4357 10.4877 33.682C10.8127 33.4341 11.1481 32.472 11.2425 31.9761C11.3997 31.153 11.0747 30.5877 10.8756 29.9034C10.8756 29.9034 12.6053 28.6835 12.8884 28.9513C13.3706 29.715 12.7311 30.5084 14.1045 30.4687C14.6392 30.0125 14.44 30.0522 14.7754 29.3976C15.7504 29.3381 16.3165 29.229 16.7254 29.9629C17.4383 31.2522 17.2496 30.5381 18.214 31.1927C18.8221 33.9398 17.9834 33.1365 20.8245 33.8506C22.3865 34.2572 21.6422 36.8556 23.9171 35.7945L24.0115 34.5647L24.6405 34.0886C25.0913 33.7117 24.63 33.9597 25.5106 33.7712L25.7203 32.8787C27.0098 32.5712 31.9999 34.8324 31.9999 34.8324C32.2935 35.368 31.958 35.8639 32.608 36.2408C33.3943 36.7069 33.3523 36.1118 33.9499 37.0837C34.7781 38.4226 35.0716 38.1747 36.7175 38.7003C36.8119 39.5929 36.7071 40.5747 37.095 41.3086C37.9336 42.9054 37.357 42.3301 37.7449 43.7781C38.8247 43.8078 38.1538 43.7583 38.8981 43.4111C39.8207 44.7599 41.1626 43.5698 41.5085 46.1285C41.6134 46.9616 42.0013 47.1302 42.819 47.4575C45.377 48.489 45.4504 47.3881 46.0689 47.1798L47.2955 46.7732C49.6857 45.9798 48.7422 49.0047 51.8977 47.8741C52.8308 47.5269 53.8267 47.8245 54.6444 47.3881C54.917 46.6542 54.592 46.1781 55.2315 45.6426C56.175 45.1765 57.2234 46.9715 57.7266 47.4674C59.1314 48.8459 59.5507 47.5666 61.4063 48.0823C62.8006 48.4591 63.2619 49.2129 65.2223 48.7865C66.6271 48.479 67.1618 47.636 67.9481 47.0013C68.4932 47.1104 68.5876 47.3484 69.1432 47.4079C69.8351 47.4773 69.8561 47.1996 70.5061 47.3682C71.3343 47.5963 72.1205 47.884 72.4141 46.6939C72.5713 46.0591 72.9907 44.7599 73.0745 44.155C73.1899 43.183 72.5609 41.7847 73.5568 41.4177C74.7519 40.9912 78.2534 41.8838 78.6728 42.7368C79.155 43.7087 78.3897 44.512 79.7526 44.8293C80.78 45.0674 81.9122 44.8492 83.0234 45.0277C83.4742 45.4839 83.317 45.7715 84.0404 46.1285C85.6024 46.1583 85.8121 43.5897 87.0387 44.2839C87.6152 45.0872 87.1435 46.8724 87.0072 47.8741C86.1895 48.1517 85.9169 48.2708 85.5814 49.1336C85.3089 49.8377 85.2355 50.9683 85.4032 51.7518C85.6758 53.1105 86.7032 53.5072 87.479 52.1981C87.6467 51.9303 87.8039 51.4444 88.0451 51.2956C88.5797 50.9584 89.8692 51.5832 90.645 48.4294C91.8716 43.4806 91.0539 42.7764 91.0958 41.1995C91.1587 38.8292 90.7289 39.9301 89.5861 37.3515C89.4918 37.1234 89.062 35.2688 89.041 35.1299C86.1266 34.0092 86.1895 34.9812 85.6863 36.8159C85.3403 36.5779 85.1621 36.3498 84.9943 35.9333C84.0194 35.9432 82.8976 37.0639 84.1557 33.2655C84.4911 32.2737 84.879 30.0026 85.246 29.348C87.8878 24.6868 88.8523 27.8802 90.4248 24.5578C93.2659 24.9446 91.1377 23.2983 90.8442 20.3924C91.5361 20.2238 91.5675 20.0652 91.8611 19.3709C92.1022 19.3709 93.3707 19.718 92.9094 17.9924C92.6788 17.1692 92.0917 17.0106 92.0079 16.2767C94.2828 16.0089 94.5029 19.2816 94.4191 19.6982C94.2828 20.3527 93.7272 20.2734 94.1151 22.2371C94.4296 23.8338 95.1634 25.0934 96.2327 26.2735C96.7255 26.8091 97.3335 27.1463 97.8996 27.8009C98.6125 28.634 99.7971 30.7861 101.674 30.0819C101.81 29.8439 101.8 30.0025 101.8 29.6158C101.81 29.0505 101.537 29.1199 101.433 28.2273C101.401 27.9199 101.433 27.543 101.307 27.2653C100.982 26.5016 101.087 27.2752 100.678 26.5314C100.541 25.8074 100.845 25.2619 100.887 24.528C100.94 23.4867 100.521 23.4272 99.9963 23.0107C99.9859 22.247 100.5 22.4156 100.07 21.8106C99.7762 21.3842 99.3463 21.3842 98.9585 21.0172C98.2246 20.3428 98.9375 19.3511 96.8617 20.0255C96.7464 18.9643 96.3376 19.2717 96.1279 18.3395C96.5368 17.9329 96.8513 18.0618 96.7359 17.3775C96.6521 16.9511 96.2956 16.8915 96.1698 16.227C97.3021 15.3642 98.1303 13.946 98.1303 12.5477C98.1303 11.5162 97.5851 11.2881 97.6795 10.336C97.7528 9.57234 98.4343 8.86821 98.0883 8.1839L96.2642 7.28142C95.415 7.20208 95.09 7.82686 94.5134 8.1839C94.6392 6.98387 95.6561 7.19214 95.1424 5.645C96.0964 5.10945 95.8658 5.44665 96.2327 4.3458C96.4948 3.56231 97.0505 3.51275 97.6166 3.13589C97.7109 2.09454 97.3125 1.61845 96.348 1.47961C96.39 -1.40641 94.9957 0.745699 94.1151 1.16224V1.16224Z" fill="#F7F7F8"/>
</svg>
