<svg width="39" height="48" viewBox="0 0 39 48" fill="none" xmlns="http://www.w3.org/2000/svg">
<path fill-rule="evenodd" clip-rule="evenodd" d="M30.4746 30.2386C32.9241 31.4287 35.5742 33.3724 36.4822 35.9211C37.1895 37.9144 36.8622 44.3306 36.8728 46.9487L30.443 46.9883L30.4746 30.2386ZM12.3571 27.8288C12.5999 27.9379 12.7794 28.1264 13.0328 28.295C13.719 28.7511 14.3842 29.1082 15.1761 29.4255C17.5833 30.3974 20.3601 30.3874 22.7673 29.4453C23.5803 29.1379 25.1006 28.3445 25.5651 27.7892L29.3766 29.6932V46.9685C27.9724 46.8891 9.51694 46.8991 8.63007 46.9883L8.64064 29.5841L12.3571 27.8288ZM1.13389 38.3606C1.14445 34.9591 2.61198 33.1245 5.18814 31.4585C5.97999 30.9428 6.7824 30.6056 7.5637 30.1494V46.9487H1.13389V38.3606ZM34.2439 31.3097C33.8638 31.1411 33.5259 30.8535 33.1669 30.6155L30.0629 28.8602C29.3555 28.5032 26.093 27.0454 25.7657 26.6785C25.0795 26.7876 25.0478 26.9859 24.6255 27.2834C22.0177 29.1478 18.6919 29.7527 15.5984 28.5131C11.8925 27.0355 13.6029 26.1132 11.259 27.2239C6.7824 29.3461 1.51397 31.2799 0.331473 35.9111C-0.143639 37.7954 0.0569432 44.0232 0.0463852 46.6809C0.0463852 47.266 -0.0803138 47.6627 0.373682 47.9106C0.774887 48.0197 37.1896 48.0395 37.633 47.9106C38.1926 47.6032 37.9603 46.2644 37.9603 45.5801C37.9603 44.7273 37.9603 43.8843 37.9603 43.0315C37.9603 38.9358 38.5832 35.564 35.5531 32.5394L34.2439 31.3097Z" fill="#F7F7F8"/>
<path fill-rule="evenodd" clip-rule="evenodd" d="M9.82281 15.9282H28.2988C28.2671 21.1046 24.6986 26.2712 19.0502 26.2415C13.5286 26.2216 9.84392 21.2038 9.82281 15.9282ZM6.86667 14.2325C6.69774 12.9334 7.67959 13.0424 8.83038 13.0424H28.6366C29.6713 13.0424 31.0649 12.7846 31.2444 13.7366C31.5083 15.0754 30.3892 14.9365 29.2701 14.9365H9.46382C8.43972 14.9365 6.99336 15.1845 6.86667 14.2325ZM18.2268 1.06317H19.916C20.2221 1.65816 22.0064 10.9005 22.1436 12.0508H15.978L17.0443 6.49745C17.2977 5.23804 17.7833 1.96558 18.2268 1.06317ZM21.4785 2.85807C25.8494 3.70098 29.8719 7.16191 30.0408 12.0607H23.2944C23.0622 11.6442 22.1436 6.39833 21.9008 5.17858C21.7741 4.49434 21.5102 3.51257 21.4785 2.85807ZM14.8905 12.0508L8.08076 12.0607C8.20745 9.25431 9.40053 7.45937 10.773 5.95205C11.7127 4.92072 14.4893 3.07625 16.6747 2.868L14.8905 12.0508ZM17.6038 0.220278C17.5088 0.636776 17.3293 0.0516644 16.8859 1.73749C16.3052 2.06474 12.8423 2.31265 10.0762 5.2083C8.42918 6.94371 7.14118 8.9469 7.01449 12.1896C5.43083 12.735 5.35689 15.0357 6.84553 15.7497C7.39453 16.0075 8.05966 15.9282 8.75647 15.9282C8.88316 26.1324 19.9054 31.061 26.504 23.7822C28.1404 21.9674 29.344 19.1709 29.3757 15.9381C30.4842 15.8885 32.4691 16.067 32.3318 13.806C32.2896 13.1218 32.0045 12.9829 31.8673 12.5763L31.1177 12.1599C30.8326 6.74539 26.7257 2.6399 21.2462 1.79699C21.0879 1.04332 20.8873 0.339232 20.2433 0.11115C19.5992 -0.107016 18.1634 0.0318629 17.6038 0.220278Z" fill="#F7F7F8"/>
<path fill-rule="evenodd" clip-rule="evenodd" d="M10.879 7.152C10.7629 7.53867 11.8607 8.86723 12.0929 9.20433C12.3146 9.53151 12.5362 9.87852 12.7684 10.1958C13.0851 10.6419 13.4018 10.632 13.7923 10.3247C13.8662 9.68023 13.5707 9.52157 13.2857 9.11507C13.0323 8.75815 12.8423 8.48055 12.5995 8.13354C12.3568 7.7667 12.1879 7.49901 11.9345 7.152C11.6601 6.77525 11.0373 6.6067 10.879 7.152Z" fill="#F7F7F8"/>
<path fill-rule="evenodd" clip-rule="evenodd" d="M26.4409 6.89428L24.3615 9.79925C24.1292 10.3247 24.6148 10.7312 25.0898 10.4834L27.1798 7.58832C27.4437 7.08267 27.0003 6.55719 26.4409 6.89428Z" fill="#F7F7F8"/>
</svg>
