<svg width="90" height="90" viewBox="0 0 90 90" fill="none" xmlns="http://www.w3.org/2000/svg">
<path d="M39.4904 51.4537H5.56664C4.0155 51.4537 4.0155 49.1088 5.56664 49.1088H36.2034C37.9468 49.1088 37.9488 46.4728 36.2034 46.4728H8.16559V7.61763H79.7408V46.4728H71.256C69.5132 46.4728 69.5098 49.1088 71.256 49.1088H82.817C84.3674 49.1088 84.3674 51.4537 82.817 51.4537H68.2045C66.4618 51.4537 66.459 54.0904 68.2045 54.0904H82.817C84.9168 54.0904 86.6251 52.3813 86.6251 50.2816C86.6251 48.1811 84.9168 46.4728 82.817 46.4728H82.3775V7.61763H82.817C84.9168 7.61763 86.6251 5.90857 86.6251 3.80882C86.6251 1.70837 84.9168 0 82.817 0H5.56664C3.46619 0 1.75781 1.70837 1.75781 3.80882C1.75781 5.89621 3.44627 7.59703 5.52887 7.61763V46.4728C3.44627 46.4934 1.75781 48.1935 1.75781 50.2816C1.75781 52.3813 3.46619 54.0904 5.56664 54.0904H39.4904C41.2331 54.0904 41.2358 51.4537 39.4904 51.4537ZM5.56664 2.63671H82.817C84.3674 2.63671 84.3674 4.98092 82.817 4.98092H5.56664C4.01482 4.98092 4.01688 2.63671 5.56664 2.63671Z" fill="#43638A"/>
<path d="M24.4476 12.3862C24.4476 11.2285 23.5056 10.2871 22.3479 10.2871H14.0717C12.914 10.2871 11.9727 11.2285 11.9727 12.3862V17.4989C11.9727 18.6566 12.914 19.598 14.0717 19.598H22.3479C23.5056 19.598 24.4476 18.6566 24.4476 17.4989V12.3862ZM21.8109 16.9613H14.6087V12.9231H21.8109V16.9613Z" fill="#43638A"/>
<path d="M24.4476 24.604C24.4476 23.4463 23.5056 22.5049 22.3479 22.5049H14.0717C12.914 22.5049 11.9727 23.4463 11.9727 24.604V29.7167C11.9727 30.8744 12.914 31.8158 14.0717 31.8158H22.3479C23.5056 31.8158 24.4476 30.8744 24.4476 29.7167V24.604ZM21.8109 29.1791H14.6087V25.1409H21.8109V29.1791Z" fill="#43638A"/>
<path d="M22.3479 34.7222H14.0717C12.914 34.7222 11.9727 35.6636 11.9727 36.8212V41.934C11.9727 43.0917 12.914 44.0331 14.0717 44.0331H22.3479C23.5056 44.0331 24.4476 43.0917 24.4476 41.934V36.8212C24.4476 35.6636 23.5056 34.7222 22.3479 34.7222ZM21.8109 41.397H14.6087V37.3582H21.8109V41.397Z" fill="#43638A"/>
<path d="M80.2179 59.903C78.7822 59.2857 77.2764 58.8448 75.7424 58.5462L62.3851 55.9493V52.6486C66.1362 50.0901 68.1666 46.466 68.6088 42.3963C70.5555 42.2418 72.0929 40.6083 72.0929 38.6225V35.913C75.2672 34.5328 74.8381 29.9007 71.4797 29.1193V28.0729C71.4797 18.672 63.8586 11.0503 54.4571 11.0503H53.0302C43.6287 11.0503 36.0076 18.672 36.0076 28.0729V29.1186C32.6506 29.9 32.22 34.5328 35.3951 35.913V38.6218C35.3951 40.6083 36.9318 42.2418 38.8791 42.3956C39.3193 46.4468 41.325 50.0716 45.1029 52.6486V55.9486L31.7456 58.5462C30.2116 58.8448 28.7058 59.285 27.27 59.903C21.8503 62.2355 19.2061 65.9592 19.2061 71.2189V73.927C19.2061 75.6697 21.8421 75.6724 21.8421 73.927V71.2195C21.8421 67.2693 23.637 64.5378 27.5742 62.6509C27.7328 63.3527 30.1484 69.9094 30.1484 79.0706V87.3639H24.5777C23.0671 87.3639 21.8421 86.1389 21.8421 84.6283V79.1723C21.8421 77.4296 19.2061 77.4268 19.2061 79.1723V84.6283C19.2061 87.5953 21.6107 89.9999 24.5777 89.9999H82.9103C85.8773 89.9999 88.2819 87.5953 88.2819 84.6283V71.2195C88.2819 65.9592 85.6369 62.2355 80.2179 59.903ZM77.4556 61.6711C77.2722 62.4758 74.7028 69.3931 74.7028 79.0706V87.3639H55.062V80.722C55.062 78.7472 55.6628 76.8493 56.7992 75.2344C58.5014 72.8139 65.5127 62.6976 67.5919 59.6475C77.0553 61.553 75.914 61.1581 77.4556 61.6711ZM52.8448 73.7169C51.8334 72.279 50.5198 70.3921 49.1486 68.4146C49.5558 68.3246 49.9534 68.1681 50.3262 67.9449L53.7436 65.8953L57.1611 67.9449C57.5339 68.1681 57.9315 68.3246 58.3387 68.4146C56.9688 70.3914 55.6553 72.2777 54.6431 73.7169C54.306 74.1961 54.0059 74.6946 53.7436 75.2089C53.482 74.6946 53.182 74.1961 52.8448 73.7169ZM51.0527 64.4348C48.9653 65.5527 49.1136 65.8871 48.1653 65.7745C47.5755 65.7044 47.0461 65.3762 46.7083 64.8873C45.1324 62.6049 43.6733 60.4873 42.7182 59.0982L45.3583 58.5853C46.2111 61.1753 49.0216 63.2352 51.0527 64.4348ZM64.7698 59.0989C63.8119 60.4907 62.3494 62.6145 60.7694 64.9024C60.1246 65.8349 58.969 65.9544 58.5172 65.6831L56.4346 64.4348C58.4664 63.2352 61.2761 61.1753 62.129 58.5853L64.7698 59.0989ZM46.0656 15.4881V17.1415C46.0656 18.8842 48.7016 18.887 48.7016 17.1415V14.3524C49.8847 13.9781 51.1337 13.7536 52.426 13.7001V20.2184C52.426 21.9611 55.062 21.9638 55.062 20.2184V13.7001C56.3543 13.7536 57.6033 13.9788 58.7857 14.3524V17.1415C58.7857 18.8842 61.4224 18.887 61.4224 17.1415V15.4888C69.6635 20.0673 68.7874 28.8179 68.8437 29.0266H38.6443C38.6896 28.857 37.867 20.044 46.0656 15.4881ZM36.8219 31.6627H70.666C71.9301 31.6627 71.9281 33.5722 70.666 33.5722H36.8219C35.5578 33.5722 35.5599 31.6627 36.8219 31.6627ZM41.4321 41.0614C41.4163 40.3446 40.8313 39.7719 40.1137 39.7719C39.894 39.717 38.0318 40.1139 38.0318 38.6225V36.2089H69.4568V38.6225C69.4568 40.1118 67.5438 39.7294 67.3742 39.7719C66.6567 39.7719 66.071 40.3446 66.0559 41.0614C65.9852 44.3573 64.5851 47.4184 62.2134 49.4598C57.1789 53.7946 50.3097 53.7953 45.2746 49.4598C42.9029 47.4184 41.5021 44.3567 41.4321 41.0614ZM59.7484 54.1043V57.0355C59.7484 59.3928 55.748 61.8887 53.7436 62.8974C51.7414 61.8894 47.7499 59.3997 47.7389 57.0451C47.7389 57.0424 47.7389 57.039 47.7389 57.0355V54.1043C51.5759 55.7591 55.9073 55.7611 59.7484 54.1043ZM30.0324 61.6711C31.5719 61.1595 30.4279 61.5537 39.8954 59.6475L40.6486 60.742C41.417 61.8592 42.4806 63.4035 43.6596 65.1118C45.8101 68.2292 48.7764 72.5159 50.6888 75.2337C51.8251 76.8493 52.426 78.7465 52.426 80.722V87.3632H32.7852V79.0699C32.7852 69.1438 30.2782 62.7532 30.0324 61.6711ZM85.6452 84.6283C85.6452 86.1362 84.4188 87.3632 82.9103 87.3632H77.3395V79.0706C77.3395 70.1607 79.8163 63.0821 79.9144 62.6509C83.851 64.5378 85.6459 67.2693 85.6459 71.2195V84.6283H85.6452Z" fill="#43638A"/>
<path d="M60.93 76.251C59.6872 76.251 58.6758 77.2624 58.6758 78.5052V81.1467C58.6758 82.3903 59.6872 83.401 60.93 83.401H68.683C69.9258 83.401 70.9372 82.3903 70.9372 81.1467V78.5052C70.9372 77.2624 69.9258 76.251 68.683 76.251H60.93ZM68.3005 80.7643H61.3125V78.8877H68.3005V80.7643Z" fill="#43638A"/>
</svg>
