<svg width="74" height="90" viewBox="0 0 74 90" fill="none" xmlns="http://www.w3.org/2000/svg">
<path d="M14.4923 73.671H21.0971V75.8595H14.4923V73.671Z" fill="#43638A"/>
<path d="M59.5009 73.671H52.8921V75.8595H59.5009V73.671Z" fill="#43638A"/>
<path fill-rule="evenodd" clip-rule="evenodd" d="M63.7634 59.9249C66.9042 62.1994 68.3882 68.9122 68.6969 71.3121L71.0392 88.9342L73.4863 88.6144L71.1462 70.9713C71.0968 70.5812 69.8577 61.2877 65.2248 57.9537C63.6729 56.9191 62.0099 56.0592 60.2645 55.3917C60.2051 55.3463 60.143 55.3063 60.0775 55.2721C60.0274 55.2462 59.9753 55.2238 59.9208 55.2052L58.902 54.8458C57.3625 54.2526 55.755 53.6984 54.2113 53.2179L53.2584 52.8854C53.1637 52.8502 53.067 52.8297 52.9661 52.8195C50.3851 52.0045 48.1191 51.403 46.9047 51.087V48.3937C50.591 45.7658 52.7809 41.5245 52.7768 37.006V34.9328C53.1884 35.0822 53.6227 35.1603 54.057 35.1666C56.1172 35.1666 57.7864 33.5016 57.7864 31.4469V28.129C57.7864 27.2282 57.453 26.3595 56.8541 25.6901C57.2513 25.0582 57.453 24.3229 57.4366 23.5797V22.1632C57.4942 21.131 57.1669 20.1124 56.5206 19.3014C56.1852 18.9528 55.755 18.7023 55.2816 18.5851C54.9893 15.2247 53.3901 5.35804 44.8589 1.50306H44.7849C42.562 0.55238 40.1766 0.0431031 37.7623 0.0040406H37.0522C34.7429 -0.0428344 32.4439 0.318494 30.2581 1.06947H30.2005C20.7534 4.5348 19.0513 15.0646 18.7837 18.5524C18.3082 18.6696 17.876 18.9176 17.5426 19.2687C16.8654 20.0695 16.5115 21.0895 16.5547 22.1325V23.59C16.5361 24.3331 16.7378 25.0661 17.133 25.6945C16.5382 26.3698 16.2027 27.2384 16.2027 28.1393V31.463C16.2027 33.5182 17.874 35.1808 19.9322 35.1808C20.3706 35.1808 20.8007 35.1007 21.2103 34.9469V37.0285C21.2185 41.4957 23.3611 45.6896 26.9794 48.3214V51.087C22.616 52.2223 18.3165 53.5997 14.1075 55.2194H14.0519C12.1872 55.9152 10.4089 56.8248 8.74795 57.921C4.16293 61.2531 2.90397 70.379 2.82851 70.9259L2.8265 70.9406L0.486328 88.5939L2.93355 88.9098L5.27372 71.257C5.58656 68.8629 7.0664 62.1583 10.1681 59.8654C11.154 59.2101 12.1995 58.652 13.2925 58.1959V68.7706C11.4894 69.4318 9.21514 71.2814 9.21514 75.1862V88.7804C9.21514 89.4518 9.76054 90.0001 10.4377 90.0001H63.5926C64.2697 90.0001 64.8131 89.4518 64.8131 88.7804V75.2086C64.8131 71.3038 62.5244 69.4562 60.7358 68.7975V58.2228C61.7999 58.6911 62.8105 59.2619 63.7634 59.9249ZM55.3619 28.129V31.4572C55.3084 32.1588 54.6888 32.6847 53.9849 32.629C53.3593 32.5778 52.8612 32.0812 52.8097 31.4572V28.129C52.7562 27.4249 53.279 26.8112 53.9849 26.7516C54.6888 26.6964 55.3084 27.2218 55.3619 27.924C55.3701 27.9918 55.3701 28.0617 55.3619 28.129ZM38.7235 2.50258C40.2115 2.61537 41.679 2.93763 43.0806 3.45131V9.62806C42.0721 11.0758 40.4812 12.0055 38.7235 12.174V2.50258ZM31.9211 3.11244C33.3372 2.70814 34.8006 2.48402 36.2783 2.44496V12.2067C34.5207 12.0382 32.9255 11.1066 31.9211 9.65931V3.11244ZM21.1794 31.4469C21.1238 32.1486 20.5043 32.6764 19.8025 32.6188C19.1768 32.5719 18.6787 32.0748 18.6273 31.4469V28.129C18.5696 27.4249 19.0965 26.8112 19.8025 26.7516C20.5043 26.6964 21.1238 27.2218 21.1794 27.924C21.1856 27.9918 21.1856 28.0617 21.1794 28.129V31.4469ZM19.8992 24.403C19.6667 24.403 19.4402 24.4259 19.2159 24.4669C19.0266 24.2145 18.936 23.8961 18.9689 23.5797V22.1017C18.9545 21.714 19.0513 21.3322 19.255 21.0016C19.2652 20.9933 19.2759 20.986 19.2873 20.9801C19.2991 20.9738 19.3116 20.9684 19.3245 20.9645C19.3568 20.9542 19.392 20.9513 19.4279 20.9562H19.8992C20.5743 20.9562 21.1238 20.4083 21.1238 19.7326C21.1238 19.1642 21.2844 8.34095 29.4678 4.09388V9.95472C29.4678 10.0294 29.4748 10.1037 29.4886 10.1759C29.5081 10.2789 29.5412 10.379 29.5871 10.4743C29.6716 10.6447 31.6659 14.7052 37.4906 14.7052C43.3132 14.7052 45.3158 10.6383 45.3961 10.4743C45.414 10.4352 45.4302 10.3952 45.4442 10.3546L45.4612 10.3014C45.4943 10.1896 45.5113 10.0729 45.5073 9.95472V4.6808C52.68 9.24623 52.8509 19.1867 52.8509 19.7326C52.8509 20.4083 53.4004 20.9562 54.0735 20.9562H54.5468C54.6683 20.9562 54.695 20.9562 54.7177 21.0016C54.7938 21.1256 54.8549 21.256 54.901 21.3917C54.9809 21.6266 55.0155 21.8761 55.0038 22.1286V23.5797C55.0367 23.9 54.942 24.2203 54.7424 24.4669C53.5424 24.2306 52.3013 24.6085 51.441 25.4786H22.5481C21.8463 24.7828 20.8933 24.401 19.9075 24.4113L19.8992 24.403ZM23.6266 37.0285V27.9196H50.379V37.0285C50.3687 43.4254 45.1677 48.6027 38.7564 48.5968H35.2327C28.8277 48.5949 23.6349 43.4191 23.6266 37.0285ZM44.4884 49.8102V51.6144L36.9863 61.1832L29.3998 51.6144V49.7589C31.2295 50.6066 33.2198 51.0436 35.2327 51.046H38.7564C40.7343 51.046 42.6896 50.6232 44.4884 49.8102ZM22.33 54.9445C24.6619 54.234 26.6707 53.692 27.7121 53.421L37.0028 65.1369L46.1885 53.421L46.2066 53.4254C46.9256 53.6144 48.0906 53.9205 49.5045 54.3278C50.1769 54.5211 50.9056 54.7379 51.6695 54.9752V68.9513H22.3032L22.33 54.9445ZM62.3701 75.2086V87.5817H11.6603V75.2086C11.6603 71.5255 14.3936 70.9962 14.6858 70.945C15.293 70.8605 15.7396 70.3434 15.7396 69.7355V57.2047C17.0836 56.6832 18.512 56.1886 19.8992 55.7409V70.173C19.8992 70.8483 20.4467 71.3966 21.1238 71.3966H52.9312C53.6062 71.3966 54.1558 70.8483 54.1558 70.173V55.7653L58.2742 57.2047V69.7355C58.2742 70.3454 58.7291 70.8668 59.3342 70.945C59.4597 70.9611 62.3701 71.3966 62.3701 75.2086Z" fill="#43638A"/>
</svg>
