<svg width="85" height="79" viewBox="0 0 85 79" fill="none" xmlns="http://www.w3.org/2000/svg">
<path d="M81.9095 61.0681H68.8451V48.7919H81.9093C83.0911 48.7919 84.0526 47.8248 84.0526 46.6362V33.1316C84.0526 31.9429 83.0911 30.9758 81.9093 30.9758H68.845V18.0855C68.845 16.8968 67.8835 15.9297 66.7017 15.9297H53.644V3.03957C53.644 1.85088 52.6825 0.883789 51.5007 0.883789H44.3275C43.5669 0.883789 42.9506 1.50389 42.9506 2.26877C42.9506 3.03366 43.5669 3.65376 44.3275 3.65376H50.8901V15.9299H37.0526H23.2295V3.65376H38.7738C39.5345 3.65376 40.1508 3.03366 40.1508 2.26877C40.1508 1.50389 39.5345 0.883789 38.7738 0.883789H21.8526H21.8517H-7.79647C-8.97826 0.883789 -9.93974 1.85088 -9.93974 3.03957V17.1697C-9.94451 17.2176 -9.94727 17.266 -9.94727 17.3149V32.361C-9.94727 32.4099 -9.94451 32.4583 -9.93955 32.506V47.262C-9.94451 47.3096 -9.94727 47.358 -9.94727 47.4069V52.3107C-9.94727 53.0756 -9.33076 53.6957 -8.57032 53.6957C-7.80987 53.6957 -7.19336 53.0756 -7.19336 52.3107V48.7919H5.26033V61.0681H-7.19336V57.8699C-7.19336 57.105 -7.80987 56.4849 -8.57032 56.4849C-9.33076 56.4849 -9.94727 57.105 -9.94727 57.8699V62.4531C-9.94727 62.502 -9.94451 62.5504 -9.93955 62.598V76.7282C-9.93955 77.9169 -8.97808 78.8838 -7.79629 78.8838H21.8518H21.8528H52.2604H52.2672H81.9095C83.0913 78.8838 84.0527 77.9167 84.0527 76.7282V63.2237C84.0527 62.035 83.0913 61.0681 81.9095 61.0681ZM67.468 33.7458H81.2987V46.0219H67.468H53.644V33.7458H67.468ZM38.4296 18.6999H52.267H66.0911V30.976H52.267H52.2602H38.4296V18.6999ZM50.8833 33.7458V46.0219H37.0536H37.0526H23.2295V33.7458H37.0526H50.8833ZM35.6757 18.6999V30.976H21.8526H21.8517H8.01423V18.6999H35.6757ZM-7.18565 3.65376H20.4749V15.9299H6.63746H-7.18565V3.65376ZM-7.19336 18.6997H5.26033V30.9758H-7.19336V18.6997ZM-7.18565 46.0219V33.7458H6.63746H20.4749V46.0219H6.6382H6.63728H-7.18565ZM20.4749 76.114H-7.18565V63.838H6.63746H6.63838H20.4749V76.114ZM21.8526 61.0681H21.8517H8.01515V48.7919H21.8517H21.8526H35.6757V61.0681H21.8526ZM50.8833 76.114H23.2295V63.838H37.0526H37.0536H50.8833V76.114ZM52.267 61.0681H52.2602H38.4307V48.7919H52.2602H52.267H66.0911V61.0681H52.267ZM81.2987 76.114H53.644V63.838H67.468H81.2987V76.114Z" fill="#43638A"/>
</svg>
