<svg width="67" height="88" viewBox="0 0 67 88" fill="none" xmlns="http://www.w3.org/2000/svg">
<path d="M65.8125 6.75H54V1.6875C54 1.23995 53.8222 0.810725 53.5057 0.494258C53.1893 0.17779 52.7601 0 52.3125 0H15.1875C14.7399 0 14.3107 0.17779 13.9943 0.494258C13.6778 0.810725 13.5 1.23995 13.5 1.6875V6.75H1.6875C1.23995 6.75 0.810725 6.92779 0.494258 7.24426C0.17779 7.56073 0 7.98995 0 8.4375V86.0625C0 86.5101 0.17779 86.9393 0.494258 87.2557C0.810725 87.5722 1.23995 87.75 1.6875 87.75H65.8125C66.2601 87.75 66.6893 87.5722 67.0057 87.2557C67.3222 86.9393 67.5 86.5101 67.5 86.0625V8.4375C67.5 7.98995 67.3222 7.56073 67.0057 7.24426C66.6893 6.92779 66.2601 6.75 65.8125 6.75ZM16.875 3.375H50.625V13.5H16.875V3.375ZM64.125 84.375H3.375V10.125H13.5V15.1875C13.5 15.6351 13.6778 16.0643 13.9943 16.3807C14.3107 16.6972 14.7399 16.875 15.1875 16.875H52.3125C52.7601 16.875 53.1893 16.6972 53.5057 16.3807C53.8222 16.0643 54 15.6351 54 15.1875V10.125H64.125V84.375Z" fill="#43638A"/>
<path d="M20.25 25.3125H10.125C9.67745 25.3125 9.24822 25.4903 8.93176 25.8068C8.61529 26.1232 8.4375 26.5524 8.4375 27C8.4375 27.4476 8.61529 27.8768 8.93176 28.1932C9.24822 28.5097 9.67745 28.6875 10.125 28.6875H20.25C20.6976 28.6875 21.1268 28.5097 21.4432 28.1932C21.7597 27.8768 21.9375 27.4476 21.9375 27C21.9375 26.5524 21.7597 26.1232 21.4432 25.8068C21.1268 25.4903 20.6976 25.3125 20.25 25.3125Z" fill="#43638A"/>
<path d="M27 27C27 27.4476 27.1778 27.8768 27.4943 28.1932C27.8107 28.5097 28.2399 28.6875 28.6875 28.6875H57.375C57.8226 28.6875 58.2518 28.5097 58.5682 28.1932C58.8847 27.8768 59.0625 27.4476 59.0625 27C59.0625 26.5524 58.8847 26.1232 58.5682 25.8068C58.2518 25.4903 57.8226 25.3125 57.375 25.3125H28.6875C28.2399 25.3125 27.8107 25.4903 27.4943 25.8068C27.1778 26.1232 27 26.5524 27 27Z" fill="#43638A"/>
<path d="M20.25 35.4375H10.125C9.67745 35.4375 9.24822 35.6153 8.93176 35.9318C8.61529 36.2482 8.4375 36.6774 8.4375 37.125C8.4375 37.5726 8.61529 38.0018 8.93176 38.3182C9.24822 38.6347 9.67745 38.8125 10.125 38.8125H20.25C20.6976 38.8125 21.1268 38.6347 21.4432 38.3182C21.7597 38.0018 21.9375 37.5726 21.9375 37.125C21.9375 36.6774 21.7597 36.2482 21.4432 35.9318C21.1268 35.6153 20.6976 35.4375 20.25 35.4375Z" fill="#43638A"/>
<path d="M57.375 35.4375H28.6875C28.2399 35.4375 27.8107 35.6153 27.4943 35.9318C27.1778 36.2482 27 36.6774 27 37.125C27 37.5726 27.1778 38.0018 27.4943 38.3182C27.8107 38.6347 28.2399 38.8125 28.6875 38.8125H57.375C57.8226 38.8125 58.2518 38.6347 58.5682 38.3182C58.8847 38.0018 59.0625 37.5726 59.0625 37.125C59.0625 36.6774 58.8847 36.2482 58.5682 35.9318C58.2518 35.6153 57.8226 35.4375 57.375 35.4375Z" fill="#43638A"/>
<path d="M20.25 45.5625H10.125C9.67745 45.5625 9.24822 45.7403 8.93176 46.0568C8.61529 46.3732 8.4375 46.8024 8.4375 47.25C8.4375 47.6976 8.61529 48.1268 8.93176 48.4432C9.24822 48.7597 9.67745 48.9375 10.125 48.9375H20.25C20.6976 48.9375 21.1268 48.7597 21.4432 48.4432C21.7597 48.1268 21.9375 47.6976 21.9375 47.25C21.9375 46.8024 21.7597 46.3732 21.4432 46.0568C21.1268 45.7403 20.6976 45.5625 20.25 45.5625Z" fill="#43638A"/>
<path d="M57.375 45.5625H28.6875C28.2399 45.5625 27.8107 45.7403 27.4943 46.0568C27.1778 46.3732 27 46.8024 27 47.25C27 47.6976 27.1778 48.1268 27.4943 48.4432C27.8107 48.7597 28.2399 48.9375 28.6875 48.9375H57.375C57.8226 48.9375 58.2518 48.7597 58.5682 48.4432C58.8847 48.1268 59.0625 47.6976 59.0625 47.25C59.0625 46.8024 58.8847 46.3732 58.5682 46.0568C58.2518 45.7403 57.8226 45.5625 57.375 45.5625Z" fill="#43638A"/>
<path d="M20.25 55.6875H10.125C9.67745 55.6875 9.24822 55.8653 8.93176 56.1818C8.61529 56.4982 8.4375 56.9274 8.4375 57.375C8.4375 57.8226 8.61529 58.2518 8.93176 58.5682C9.24822 58.8847 9.67745 59.0625 10.125 59.0625H20.25C20.6976 59.0625 21.1268 58.8847 21.4432 58.5682C21.7597 58.2518 21.9375 57.8226 21.9375 57.375C21.9375 56.9274 21.7597 56.4982 21.4432 56.1818C21.1268 55.8653 20.6976 55.6875 20.25 55.6875Z" fill="#43638A"/>
<path d="M57.375 55.6875H28.6875C28.2399 55.6875 27.8107 55.8653 27.4943 56.1818C27.1778 56.4982 27 56.9274 27 57.375C27 57.8226 27.1778 58.2518 27.4943 58.5682C27.8107 58.8847 28.2399 59.0625 28.6875 59.0625H57.375C57.8226 59.0625 58.2518 58.8847 58.5682 58.5682C58.8847 58.2518 59.0625 57.8226 59.0625 57.375C59.0625 56.9274 58.8847 56.4982 58.5682 56.1818C58.2518 55.8653 57.8226 55.6875 57.375 55.6875Z" fill="#43638A"/>
<path d="M20.25 65.8125H10.125C9.67745 65.8125 9.24822 65.9903 8.93176 66.3068C8.61529 66.6232 8.4375 67.0524 8.4375 67.5C8.4375 67.9476 8.61529 68.3768 8.93176 68.6932C9.24822 69.0097 9.67745 69.1875 10.125 69.1875H20.25C20.6976 69.1875 21.1268 69.0097 21.4432 68.6932C21.7597 68.3768 21.9375 67.9476 21.9375 67.5C21.9375 67.0524 21.7597 66.6232 21.4432 66.3068C21.1268 65.9903 20.6976 65.8125 20.25 65.8125Z" fill="#43638A"/>
<path d="M57.375 65.8125H28.6875C28.2399 65.8125 27.8107 65.9903 27.4943 66.3068C27.1778 66.6232 27 67.0524 27 67.5C27 67.9476 27.1778 68.3768 27.4943 68.6932C27.8107 69.0097 28.2399 69.1875 28.6875 69.1875H57.375C57.8226 69.1875 58.2518 69.0097 58.5682 68.6932C58.8847 68.3768 59.0625 67.9476 59.0625 67.5C59.0625 67.0524 58.8847 66.6232 58.5682 66.3068C58.2518 65.9903 57.8226 65.8125 57.375 65.8125Z" fill="#43638A"/>
</svg>
