<svg width="90" height="84" viewBox="0 0 90 84" fill="none" xmlns="http://www.w3.org/2000/svg">
<path d="M81.2903 5.80645H76.9355V1.45161C76.9355 1.06662 76.7826 0.697398 76.5103 0.425167C76.2381 0.152937 75.8689 0 75.4839 0H66.7742C66.3892 0 66.02 0.152937 65.7477 0.425167C65.4755 0.697398 65.3226 1.06662 65.3226 1.45161V5.80645H24.6774V1.45161C24.6774 1.06662 24.5245 0.697398 24.2523 0.425167C23.98 0.152937 23.6108 0 23.2258 0H14.5161C14.1311 0 13.7619 0.152937 13.4897 0.425167C13.2175 0.697398 13.0645 1.06662 13.0645 1.45161V5.80645H8.70968C6.40048 5.8089 4.18656 6.72731 2.55371 8.36016C0.920861 9.99301 0.00244962 12.2069 0 14.5161V75.4839C0.00244962 77.7931 0.920861 80.007 2.55371 81.6398C4.18656 83.2727 6.40048 84.1911 8.70968 84.1935H81.2903C83.5995 84.1911 85.8134 83.2727 87.4463 81.6398C89.0791 80.007 89.9976 77.7931 90 75.4839V14.5161C89.9976 12.2069 89.0791 9.99301 87.4463 8.36016C85.8134 6.72731 83.5995 5.8089 81.2903 5.80645ZM68.2258 2.90323H74.0323V11.6129H68.2258V2.90323ZM15.9677 2.90323H21.7742V11.6129H15.9677V2.90323ZM87.0968 75.4839C87.095 77.0233 86.4827 78.4992 85.3942 79.5877C84.3056 80.6763 82.8298 81.2886 81.2903 81.2903H8.70968C7.17015 81.2889 5.6941 80.6767 4.60549 79.5881C3.51688 78.4995 2.90467 77.0234 2.90323 75.4839V18.871H87.0968V75.4839ZM87.0968 15.9677H2.90323V14.5161C2.90467 12.9766 3.51688 11.5005 4.60549 10.4119C5.6941 9.32333 7.17015 8.71112 8.70968 8.70968H13.0645V13.0645C13.0645 13.4495 13.2175 13.8187 13.4897 14.091C13.7619 14.3632 14.1311 14.5161 14.5161 14.5161H23.2258C23.6108 14.5161 23.98 14.3632 24.2523 14.091C24.5245 13.8187 24.6774 13.4495 24.6774 13.0645V8.70968H65.3226V13.0645C65.3226 13.4495 65.4755 13.8187 65.7477 14.091C66.02 14.3632 66.3892 14.5161 66.7742 14.5161H75.4839C75.8689 14.5161 76.2381 14.3632 76.5103 14.091C76.7826 13.8187 76.9355 13.4495 76.9355 13.0645V8.70968H81.2903C82.8298 8.71141 84.3056 9.32371 85.3942 10.4123C86.4827 11.5008 87.095 12.9767 87.0968 14.5161V15.9677Z" fill="#43638A"/>
<path d="M8.70965 39.1937H17.4193C18.189 39.1928 18.9269 38.8866 19.4712 38.3423C20.0155 37.7981 20.3216 37.0601 20.3226 36.2904V27.5808C20.3216 26.8111 20.0155 26.0731 19.4712 25.5289C18.9269 24.9846 18.189 24.6784 17.4193 24.6775H8.70965C7.93995 24.6784 7.20203 24.9846 6.65777 25.5289C6.11351 26.0731 5.80734 26.8111 5.80643 27.5808V36.2904C5.80734 37.0601 6.11351 37.7981 6.65777 38.3423C7.20203 38.8866 7.93995 39.1928 8.70965 39.1937ZM8.70965 27.5808H17.4193L17.4211 36.2904H8.70965V27.5808Z" fill="#43638A"/>
<path d="M24.6775 39.1937H33.3871C34.1568 39.1928 34.8948 38.8866 35.439 38.3423C35.9833 37.7981 36.2894 37.0601 36.2904 36.2904V27.5808C36.2894 26.8111 35.9833 26.0731 35.439 25.5289C34.8948 24.9846 34.1568 24.6784 33.3871 24.6775H24.6775C23.9078 24.6784 23.1698 24.9846 22.6256 25.5289C22.0813 26.0731 21.7751 26.8111 21.7742 27.5808V36.2904C21.7751 37.0601 22.0813 37.7981 22.6256 38.3423C23.1698 38.8866 23.9078 39.1928 24.6775 39.1937ZM24.6775 27.5808H33.3871L33.389 36.2904H24.6775V27.5808Z" fill="#43638A"/>
<path d="M40.6451 39.1937H49.3548C50.1245 39.1928 50.8624 38.8866 51.4067 38.3423C51.951 37.7981 52.2571 37.0601 52.258 36.2904V27.5808C52.2571 26.8111 51.951 26.0731 51.4067 25.5289C50.8624 24.9846 50.1245 24.6784 49.3548 24.6775H40.6451C39.8754 24.6784 39.1375 24.9846 38.5933 25.5289C38.049 26.0731 37.7428 26.8111 37.7419 27.5808V36.2904C37.7428 37.0601 38.049 37.7981 38.5933 38.3423C39.1375 38.8866 39.8754 39.1928 40.6451 39.1937ZM40.6451 27.5808H49.3548L49.3566 36.2904H40.6451V27.5808Z" fill="#43638A"/>
<path d="M56.6129 39.1937H65.3226C66.0923 39.1928 66.8302 38.8866 67.3745 38.3423C67.9187 37.7981 68.2249 37.0601 68.2258 36.2904V27.5808C68.2249 26.8111 67.9187 26.0731 67.3745 25.5289C66.8302 24.9846 66.0923 24.6784 65.3226 24.6775H56.6129C55.8432 24.6784 55.1053 24.9846 54.561 25.5289C54.0167 26.0731 53.7106 26.8111 53.7097 27.5808V36.2904C53.7106 37.0601 54.0167 37.7981 54.561 38.3423C55.1053 38.8866 55.8432 39.1928 56.6129 39.1937ZM56.6129 27.5808H65.3226L65.3244 36.2904H56.6129V27.5808Z" fill="#43638A"/>
<path d="M72.5806 39.1937H81.2903C82.06 39.1928 82.7979 38.8866 83.3422 38.3423C83.8865 37.7981 84.1926 37.0601 84.1935 36.2904V27.5808C84.1926 26.8111 83.8865 26.0731 83.3422 25.5289C82.7979 24.9846 82.06 24.6784 81.2903 24.6775H72.5806C71.8109 24.6784 71.073 24.9846 70.5288 25.5289C69.9845 26.0731 69.6783 26.8111 69.6774 27.5808V36.2904C69.6783 37.0601 69.9845 37.7981 70.5288 38.3423C71.073 38.8866 71.8109 39.1928 72.5806 39.1937ZM72.5806 27.5808H81.2903L81.2921 36.2904H72.5806V27.5808Z" fill="#43638A"/>
<path d="M8.70965 56.6128H17.4193C18.189 56.6118 18.9269 56.3057 19.4712 55.7614C20.0155 55.2172 20.3216 54.4792 20.3226 53.7095V44.9999C20.3216 44.2302 20.0155 43.4922 19.4712 42.948C18.9269 42.4037 18.189 42.0975 17.4193 42.0966H8.70965C7.93995 42.0975 7.20203 42.4037 6.65777 42.948C6.11351 43.4922 5.80734 44.2302 5.80643 44.9999V53.7095C5.80734 54.4792 6.11351 55.2172 6.65777 55.7614C7.20203 56.3057 7.93995 56.6118 8.70965 56.6128ZM8.70965 44.9999H17.4193L17.4211 53.7095H8.70965V44.9999Z" fill="#43638A"/>
<path d="M24.6775 56.6128H33.3871C34.1568 56.6118 34.8948 56.3057 35.439 55.7614C35.9833 55.2172 36.2894 54.4792 36.2904 53.7095V44.9999C36.2894 44.2302 35.9833 43.4922 35.439 42.948C34.8948 42.4037 34.1568 42.0975 33.3871 42.0966H24.6775C23.9078 42.0975 23.1698 42.4037 22.6256 42.948C22.0813 43.4922 21.7751 44.2302 21.7742 44.9999V53.7095C21.7751 54.4792 22.0813 55.2172 22.6256 55.7614C23.1698 56.3057 23.9078 56.6118 24.6775 56.6128ZM24.6775 44.9999H33.3871L33.389 53.7095H24.6775V44.9999Z" fill="#43638A"/>
<path d="M40.6451 56.6128H49.3548C50.1245 56.6118 50.8624 56.3057 51.4067 55.7614C51.951 55.2172 52.2571 54.4792 52.258 53.7095V44.9999C52.2571 44.2302 51.951 43.4922 51.4067 42.948C50.8624 42.4037 50.1245 42.0975 49.3548 42.0966H40.6451C39.8754 42.0975 39.1375 42.4037 38.5933 42.948C38.049 43.4922 37.7428 44.2302 37.7419 44.9999V53.7095C37.7428 54.4792 38.049 55.2172 38.5933 55.7614C39.1375 56.3057 39.8754 56.6118 40.6451 56.6128ZM40.6451 44.9999H49.3548L49.3566 53.7095H40.6451V44.9999Z" fill="#43638A"/>
<path d="M8.70965 74.0323H17.4193C18.189 74.0314 18.9269 73.7253 19.4712 73.181C20.0155 72.6367 20.3216 71.8988 20.3226 71.1291V62.4194C20.3216 61.6497 20.0155 60.9118 19.4712 60.3676C18.9269 59.8233 18.189 59.5171 17.4193 59.5162H8.70965C7.93995 59.5171 7.20203 59.8233 6.65777 60.3676C6.11351 60.9118 5.80734 61.6497 5.80643 62.4194V71.1291C5.80734 71.8988 6.11351 72.6367 6.65777 73.181C7.20203 73.7253 7.93995 74.0314 8.70965 74.0323ZM8.70965 62.4194H17.4193L17.4211 71.1291H8.70965V62.4194Z" fill="#43638A"/>
<path d="M24.6775 74.0323H33.3871C34.1568 74.0314 34.8948 73.7253 35.439 73.181C35.9833 72.6367 36.2894 71.8988 36.2904 71.1291V62.4194C36.2894 61.6497 35.9833 60.9118 35.439 60.3676C34.8948 59.8233 34.1568 59.5171 33.3871 59.5162H24.6775C23.9078 59.5171 23.1698 59.8233 22.6256 60.3676C22.0813 60.9118 21.7751 61.6497 21.7742 62.4194V71.1291C21.7751 71.8988 22.0813 72.6367 22.6256 73.181C23.1698 73.7253 23.9078 74.0314 24.6775 74.0323ZM24.6775 62.4194H33.3871L33.389 71.1291H24.6775V62.4194Z" fill="#43638A"/>
<path d="M40.6451 74.0323H49.3548C50.1245 74.0314 50.8624 73.7253 51.4067 73.181C51.951 72.6367 52.2571 71.8988 52.258 71.1291V62.4194C52.2571 61.6497 51.951 60.9118 51.4067 60.3676C50.8624 59.8233 50.1245 59.5171 49.3548 59.5162H40.6451C39.8754 59.5171 39.1375 59.8233 38.5933 60.3676C38.049 60.9118 37.7428 61.6497 37.7419 62.4194V71.1291C37.7428 71.8988 38.049 72.6367 38.5933 73.181C39.1375 73.7253 39.8754 74.0314 40.6451 74.0323ZM40.6451 62.4194H49.3548L49.3566 71.1291H40.6451V62.4194Z" fill="#43638A"/>
<path d="M56.6129 56.6128H65.3226C66.0923 56.6118 66.8302 56.3057 67.3745 55.7614C67.9187 55.2172 68.2249 54.4792 68.2258 53.7095V44.9999C68.2249 44.2302 67.9187 43.4922 67.3745 42.948C66.8302 42.4037 66.0923 42.0975 65.3226 42.0966H56.6129C55.8432 42.0975 55.1053 42.4037 54.561 42.948C54.0167 43.4922 53.7106 44.2302 53.7097 44.9999V53.7095C53.7106 54.4792 54.0167 55.2172 54.561 55.7614C55.1053 56.3057 55.8432 56.6118 56.6129 56.6128ZM56.6129 44.9999H65.3226L65.3244 53.7095H56.6129V44.9999Z" fill="#43638A"/>
<path d="M72.9032 56.5161H81.6129C82.3826 56.5152 83.1205 56.209 83.6648 55.6648C84.2091 55.1205 84.5152 54.3826 84.5161 53.6129V44.9032C84.5152 44.1335 84.2091 43.3956 83.6648 42.8513C83.1205 42.3071 82.3826 42.0009 81.6129 42H72.9032C72.1335 42.0009 71.3956 42.3071 70.8513 42.8513C70.3071 43.3956 70.0009 44.1335 70 44.9032V53.6129C70.0009 54.3826 70.3071 55.1205 70.8513 55.6648C71.3956 56.209 72.1335 56.5152 72.9032 56.5161ZM72.9032 44.9032H81.6129L81.6147 53.6129H72.9032V44.9032Z" fill="#43638A"/>
</svg>
