<svg width="90" height="86" viewBox="0 0 90 86" fill="none" xmlns="http://www.w3.org/2000/svg">
<path fill-rule="evenodd" clip-rule="evenodd" d="M43.9327 12.6727C43.826 12.8912 41.9407 14.2386 41.5494 14.5299L39.4151 16.0958C39.0949 16.3143 39.3439 16.205 39.0948 16.2414C39.0237 16.3507 39.0237 16.4235 38.8458 16.5328C38.7035 16.642 38.7036 16.642 38.4902 16.7148L37.2806 17.6252C36.9604 17.953 36.5691 18.2079 36.1778 18.4992C35.7509 18.7905 35.3241 19.1547 34.8972 19.3732C34.8617 19.4824 34.8973 19.4096 34.755 19.5189C34.755 19.5553 34.5772 19.6645 34.5416 19.7009C34.3637 19.8102 34.2924 19.883 34.1145 19.9194C34.0078 20.0651 34.079 20.0287 33.9723 20.1379C33.9367 20.1379 33.8657 20.2108 33.8657 20.2472C33.6878 20.3564 33.6877 20.32 33.5098 20.3928C33.4387 20.5749 33.5098 20.4657 33.2608 20.6478C33.0829 20.7934 33.0474 20.7934 32.9052 20.9027C32.5494 21.1576 32.5138 21.3032 32.158 21.3396C31.9802 21.7402 32.0513 21.5946 31.7312 21.7038C31.5889 21.9587 28.743 23.9616 28.1383 24.3986C27.8892 24.5807 27.7114 24.7263 27.498 24.9084C27.0711 25.1997 27.2134 25.1997 26.8933 25.2361C26.5731 25.7095 25.3992 26.4379 24.83 26.8748C24.5098 27.1298 24.51 27.1662 24.0831 27.3482C24.0119 27.4939 23.9407 27.5303 23.7272 27.676C23.6917 27.7124 23.5493 27.8217 23.4782 27.8581C23.2647 27.9673 23.5849 27.8581 23.3004 27.9309C23.2292 28.0037 23.2649 27.9673 23.1581 28.113C23.1226 28.113 23.0513 28.1858 23.0513 28.2222C22.8379 28.3315 22.9447 28.2951 22.6957 28.3679C22.6245 28.5864 21.7707 29.169 21.4861 29.2783L21.3083 29.3875C21.2371 29.606 21.0592 29.6424 20.7746 29.8609L17.1107 32.5557C16.8261 32.7742 16.755 32.8835 16.506 32.9199L15.6167 33.5754C15.5099 33.8303 15.2254 34.0123 14.9764 34.0852C14.7985 34.3401 14.1226 34.8135 13.838 34.9227C13.7313 35.0684 13.8024 35.032 13.6246 35.1412C13.3044 35.3597 13.5178 35.2505 13.3043 35.2869L13.1977 35.4326C12.9487 35.7239 12.3439 36.1609 12.0237 36.2337C11.917 36.4522 11.8815 36.4522 11.6325 36.5979C11.5613 36.6707 11.5258 36.7071 11.4191 36.7799C11.0989 36.962 11.3478 36.8892 11.0988 36.9256C10.9921 37.0713 11.0632 37.0348 10.8142 37.1805C10.3517 37.6175 9.71153 38.0181 9.17793 38.4186C8.67991 38.7828 7.9683 39.4019 7.47027 39.6204L7.29245 39.7296C7.15016 40.2759 5.90509 40.5672 4.83789 39.2562C4.58888 38.9649 3.27263 37.1077 3.23706 36.7799C3.13034 36.7071 3.13038 36.7435 3.05924 36.5979C2.98809 36.4158 3.02378 36.4522 2.95263 36.1973C2.77477 35.5418 2.98812 34.7771 3.30828 34.2308C3.69958 33.721 6.82999 31.3904 7.50588 31.0262C7.71932 30.7349 8.03944 30.5528 8.3596 30.4436C8.43075 30.2979 8.35959 30.3343 8.57303 30.1887C8.85762 29.9338 8.64427 30.1159 8.89328 30.043C9.07115 29.7153 9.28463 29.6425 9.60479 29.424C9.8538 29.2419 10.1027 29.0234 10.3873 28.8413C10.8853 28.4771 11.4545 27.9673 11.9881 27.7488C12.0593 27.6032 11.9525 27.7124 12.166 27.5303C12.4505 27.3483 12.3083 27.4575 12.4862 27.3847C12.5218 27.3483 12.5218 27.3483 12.5218 27.3118L12.6996 27.1298C12.7708 27.0569 12.8063 27.0569 12.8775 27.0205C13.162 26.7656 13.0554 26.8384 13.3755 26.7292C13.4467 26.5107 13.34 26.6928 13.589 26.5107L17.8932 23.4153C18.071 23.0876 18.4623 22.8691 18.7825 22.7599C18.8892 22.505 19.3162 22.25 19.5652 22.1772C19.8498 21.7402 21.9842 20.2472 22.2688 20.1743C22.3755 19.9559 22.6601 19.7738 22.9091 19.7009C23.087 19.3732 23.4071 19.1911 23.7628 19.0455L27.3558 16.3507C27.6403 16.1322 28.245 15.5859 28.6007 15.5131C28.8497 15.1854 28.7787 15.2218 29.2056 15.0397C29.2412 14.9305 29.1699 15.0033 29.3122 14.8941C29.3478 14.8576 29.4901 14.7484 29.5613 14.712C29.7391 14.6027 29.7747 14.5299 29.9881 14.4935C30.2727 14.0565 32.0513 12.8184 32.3715 12.7091C32.4782 12.527 32.5849 12.4542 32.7983 12.3085C32.8339 12.2721 33.0474 12.1265 33.0474 12.1265C33.2252 12.0536 33.1185 12.09 33.2964 12.0536C33.5098 11.6166 33.4744 11.8351 33.8657 11.5438C34.1503 11.2889 34.0791 11.2889 34.4704 11.1796C34.5771 10.9247 34.6482 10.9611 34.8972 10.7791C34.9684 10.7062 35.0751 10.6334 35.1463 10.597C35.3597 10.4877 35.1819 10.5242 35.3953 10.4877C35.502 10.3421 35.3597 10.4513 35.5375 10.3057C35.5375 10.2693 35.6088 10.1964 35.6444 10.1964C35.8222 10.0508 35.751 10.1236 35.9644 10.0507C36.1423 9.79584 37.1382 9.14036 37.4584 8.88545L38.8102 7.90223C39.0592 7.79298 38.6681 7.90223 38.9882 7.8294C39.0594 7.72015 39.0592 7.68373 39.2727 7.53807C39.415 7.42882 39.3795 7.46524 39.5929 7.35599C39.6641 7.24674 39.6997 7.24674 39.842 7.13749C40.2688 6.80975 40.4466 6.55484 40.8023 6.51843C41.1224 6.08144 41.6206 5.7537 42.0831 5.42596C42.51 5.13463 43.0434 4.66123 43.4703 4.51556C43.6481 4.1514 43.4703 4.40631 43.6837 4.3699L44.2886 3.78724C44.5376 3.64158 44.6799 3.49592 44.9645 3.38667C45.1068 3.27742 46.9921 4.80688 47.3478 5.06179C47.7391 5.3167 49.6245 6.66409 49.7312 6.88258C50.0158 6.95541 49.8734 6.84616 50.1224 7.06466C50.2292 7.1739 50.2293 7.21032 50.3005 7.31957C50.5139 7.35598 50.3716 7.28316 50.5495 7.42882C50.6562 7.46524 50.6916 7.50166 50.7983 7.57449C51.0118 7.75657 51.0474 7.72014 51.083 7.86581C51.8656 8.22997 52.3282 8.7762 52.3282 8.7762C52.3637 8.7762 52.3636 8.84904 52.3992 8.84904C52.6482 8.92187 52.3637 8.77621 52.7194 8.9947C53.004 9.2132 52.8261 9.03111 52.8972 9.21319C53.1463 9.32244 53.1106 9.28602 53.2885 9.43169C53.5019 9.61377 53.4308 9.57735 53.5019 9.6866C53.7509 9.72301 54.6404 10.3421 54.7115 10.5606C55.0672 10.7062 55.0316 10.7062 55.3162 10.9611C55.8854 11.2525 57.3082 12.4542 58.1264 13.0004C60.0473 14.2022 61.1502 13.3282 61.7549 13.2553C61.7905 13.2189 61.8261 13.1825 61.8261 13.1825C62.2174 12.7455 62.4308 12.6363 62.6799 12.1629C62.751 12.0172 62.8934 11.7259 62.9645 11.5438L63.2489 10.8883L63.2845 5.13462C63.3201 4.95255 63.3202 4.87971 63.3914 4.73405C63.5337 4.40631 63.4625 4.55197 63.6404 4.40631C63.7827 3.71441 64.3873 3.49591 65.0632 3.16817L65.4901 3.09534C66.3082 3.05892 69.83 2.87685 70.6126 3.4595C70.8616 3.64158 70.6482 3.42308 70.6838 3.56874C71.1107 3.78724 71.1462 3.75082 71.2885 4.1514C72.1067 4.6248 71.8222 7.57448 71.8222 8.70337C71.8222 10.6698 71.7155 17.516 71.8578 18.8998C71.9289 19.6645 72.0712 20.32 72.2846 21.0119C72.4269 21.4489 72.925 22.3957 72.9605 22.7599C73.1384 22.8691 73.1383 22.8691 73.2806 23.1604C73.3873 23.3061 73.4229 23.4518 73.494 23.6703C73.7075 23.7431 73.6365 23.7431 73.8855 24.0708C74.0278 24.3257 74.0988 24.3257 74.1699 24.5807L74.8814 25.309C75.0593 25.5275 74.9526 25.3454 75.0948 25.5639C75.3439 25.6367 75.415 25.6003 75.5217 25.928C75.8774 26.0009 75.7352 25.928 76.0198 26.1829C76.1265 26.2558 76.1621 26.2558 76.2332 26.365C76.3399 26.4743 76.3043 26.4379 76.411 26.5835C76.7312 26.6199 79.3637 28.6592 79.5771 28.8049L81.9248 30.5893C82.2094 30.7713 82.5296 30.9534 82.6007 31.1355C82.8497 31.2447 82.9566 31.3176 83.17 31.4632C83.3123 31.5725 83.2768 31.4996 83.4191 31.6453C83.5613 31.791 83.5258 31.791 83.6325 31.9002C83.8103 31.9366 83.6681 31.8638 83.8459 31.973C83.9882 32.0823 83.9526 32.0459 83.9881 32.1551C84.4506 32.3736 84.7708 32.665 85.1621 32.9199C85.9803 33.4661 86.0514 33.6846 86.0514 33.6846C86.0514 33.6482 86.087 33.721 86.087 33.7574C86.4428 33.7938 86.5139 33.9759 86.6917 34.3037C86.834 34.5222 86.9762 34.8135 87.0474 35.1776C87.1541 35.7239 87.1186 36.7435 86.6917 36.962C86.5494 37.399 85.5179 38.8556 85.1977 39.2198C84.9131 39.584 84.6284 39.8753 84.2016 40.0574C83.6324 40.2759 83.2056 40.4215 82.921 39.8753C82.672 39.8389 82.921 39.9117 82.7076 39.8024C82.672 39.8024 82.5297 39.6932 82.5297 39.6932C82.3163 39.5475 82.3518 39.6204 82.2451 39.4383C81.7826 39.2562 81.2846 38.7828 80.8933 38.4915L79.5771 37.4354C79.3637 37.399 79.577 37.5083 79.2924 37.2898C79.1502 37.2169 79.0791 37.1441 78.9368 37.0349C78.6878 36.8528 78.4742 36.7799 78.3675 36.5614C77.9762 36.4158 78.1185 36.5614 77.9407 36.1973C77.6561 36.1244 77.7628 36.1609 77.4782 35.9788C76.9446 35.6146 74.8815 34.1216 74.7748 33.8667L74.5968 33.7938C74.3478 33.6846 74.1699 33.5389 73.9209 33.3569C73.8141 33.2476 73.7431 33.2476 73.5652 33.1019C73.3518 32.9199 73.4585 33.0655 73.3874 32.8834L72.3556 32.1551C72.2845 32.1187 72.2134 32.0823 72.1422 32.0095C71.9643 31.9002 72.0356 31.9731 72 31.8638C71.4308 31.6089 70.9328 31.1355 70.3992 30.7349C70.0079 30.48 69.083 29.8974 68.9052 29.5332C68.585 29.4604 68.4782 29.3147 68.1224 29.0598C67.1975 28.3315 63.1424 25.4546 62.9645 25.1997C62.6443 25.0541 62.7154 25.0541 62.4308 24.872C62.2529 24.7263 62.3241 24.8356 62.1818 24.6899C61.8972 24.435 62.1462 24.6535 61.9683 24.435C61.7549 24.3622 61.6837 24.3257 61.4703 24.1801C61.2568 23.998 61.257 24.0344 61.1858 23.8888C60.6878 23.6703 59.1936 22.505 58.8023 22.1408C58.5533 21.9951 57.9487 21.631 57.8776 21.4125C57.593 21.3032 57.5929 21.3032 57.3439 21.1211C57.0949 20.9391 57.1305 20.9755 56.9882 20.757C56.7037 20.6842 57.0236 20.7934 56.8102 20.6842C56.7746 20.6842 56.6324 20.5749 56.6324 20.5749L52.1857 17.1883L51.8657 17.1154L51.7233 16.8605C51.4387 16.7877 51.4388 16.7513 51.1542 16.5328C50.9408 16.3507 50.8697 16.3507 50.7629 16.1686C50.4784 16.0594 50.2649 15.8773 50.0514 15.7316L49.5177 15.2218C49.2687 15.1854 49.3754 15.2946 49.2687 15.0397C48.8418 14.9305 48.8774 14.8576 48.5572 14.6027L48.095 14.2386C48.0594 14.2022 48.0237 14.2022 48.0237 14.1657C48.0237 14.1293 47.9881 14.1293 47.9881 14.0929C47.7391 14.0201 47.7035 13.9837 47.4901 13.838C47.4189 13.7652 47.3122 13.6923 47.2766 13.6559C47.0988 13.5103 47.2412 13.6923 47.2056 13.5103C46.7432 13.3646 46.8853 13.401 46.6007 13.1097C46.3161 13.0004 46.2451 12.8912 45.996 12.7091C45.7826 12.527 45.6404 12.4906 45.3914 12.3814C44.751 12.3085 44.3596 12.5634 43.9327 12.6727ZM43.5415 0.619075C43.3992 0.873986 40.6957 2.80402 40.091 3.27743C39.7708 3.49592 39.2372 4.00573 38.917 4.07856C38.8459 4.15139 38.8459 4.18782 38.7392 4.26065C38.6681 4.33349 38.7035 4.29706 38.6324 4.33347C38.4189 4.51555 38.5258 4.40632 38.3123 4.51556C38.17 4.73406 37.672 5.0982 37.3874 5.24387C37.2095 5.46236 35.6087 6.62767 35.2885 6.77334C35.1106 6.95542 34.9685 7.06466 34.755 7.21032C34.6483 7.28315 34.5059 7.39241 34.4348 7.42882C34.2213 7.53807 34.3992 7.50165 34.1857 7.53807C34.0079 7.86581 33.4031 8.26639 33.0474 8.41205C32.9051 8.66696 32.8695 8.59413 32.5849 8.81263C32.4782 8.88546 32.5138 8.88546 32.3715 8.9947C32.158 9.10395 32.3003 9.03112 32.1224 9.06754C32.0157 9.17678 32.0159 9.28603 31.8736 9.39528C31.6602 9.54094 31.7668 9.43169 31.5177 9.50452L28.8854 11.5438C28.8854 11.5802 28.7076 11.6531 28.7076 11.6531C28.4585 11.7987 28.8143 11.6895 28.4941 11.7259C28.2095 12.09 28.3517 12.0172 27.8892 12.1993C27.8536 12.3449 27.9249 12.2357 27.7826 12.3814C27.747 12.3814 27.6047 12.4906 27.5336 12.527C27.3913 12.6363 27.3202 12.6727 27.1423 12.8184C26.7866 13.1461 26.0752 13.6559 25.6127 13.9837C25.3637 14.1657 25.1146 14.3114 24.8656 14.5299C24.5099 14.7484 24.4387 14.9305 24.0119 15.0397C23.9051 15.2946 24.0119 15.1854 23.7984 15.2218C23.6917 15.331 23.7272 15.2946 23.656 15.4039L22.5179 16.1686L16.506 20.6842C16.257 20.7934 16.5771 20.6842 16.2926 20.757C16.1858 20.9391 16.328 20.7206 16.1501 20.9391L15.1542 21.6674C14.7273 21.9951 14.3715 22.3229 13.909 22.5414C13.8379 22.7234 13.8023 22.687 13.5177 22.8691C13.3399 23.0148 13.3399 23.0512 13.0909 23.124C12.9486 23.3061 12.7351 23.6338 12.0947 23.8888C12.0592 23.9616 12.0948 23.9252 11.9525 24.0344C11.9525 24.0344 11.7747 24.1801 11.7391 24.2165C11.5612 24.3257 11.4901 24.3986 11.3122 24.435C11.2055 24.5442 11.2412 24.5442 11.17 24.6535C11.1344 24.6535 11.0632 24.7263 11.0632 24.7263C10.8853 24.872 10.921 24.7992 10.7076 24.872C10.5653 25.1633 9.56923 25.8188 9.17793 26.1101C8.89335 26.3286 8.64419 26.4743 8.3596 26.6928C8.03944 26.9113 7.89722 27.1298 7.54149 27.1662C7.3992 27.4939 7.54143 27.3118 7.25684 27.4575C7.07898 27.6396 6.86556 27.8217 6.61655 27.9673C6.43869 28.113 6.43877 28.113 6.26091 28.2586C5.97632 28.4771 6.15406 28.3679 5.90505 28.4407C5.79833 28.55 5.83391 28.5136 5.69162 28.6592C5.5849 28.7685 5.65609 28.732 5.51379 28.8049C5.33593 28.9505 5.22916 28.987 5.01572 29.0598C4.909 29.3147 4.62444 29.4968 4.37543 29.5696C4.19756 29.8609 3.415 30.3708 3.09485 30.5164C3.16599 30.6985 3.13031 30.5893 2.98802 30.5893C2.77458 30.917 2.59689 30.9534 2.27673 31.2083C1.921 31.4632 1.88535 31.5725 1.52962 31.7181C1.45847 31.8638 1.56509 31.7181 1.4228 31.9002C1.4228 31.9366 1.38737 32.0095 1.3518 32.0095L0.782505 32.7014C0.675785 33.1019 0.497902 33.3569 0.320037 33.8303L0 35.0684V36.4886C0 36.525 0.0356079 36.525 0.0356079 36.5614L0.462468 38.0909C0.640334 38.2366 0.640212 38.2366 0.782505 38.4915C0.924797 38.71 0.996004 38.8921 1.06715 39.1106C1.24502 39.1834 1.24511 39.2562 1.3874 39.4383C1.3874 39.4747 1.52962 39.6932 1.52962 39.6932C1.63634 39.8753 1.60087 39.7296 1.63644 39.9481C1.9566 40.1666 2.38344 40.7493 2.49016 41.1134L3.30828 41.9874C3.55729 42.1331 3.59277 42.1331 3.87735 42.3151L4.1976 42.4972L4.23321 42.5336C4.3755 42.6793 4.30432 42.6065 4.41103 42.7521L4.8735 42.8978L6.18969 43.2255H7.43466C7.47024 43.2255 7.50588 43.1527 7.50588 43.1891C7.57703 43.2984 9.92484 41.4776 10.3873 41.2591C10.3161 41.077 10.3518 41.1862 10.4941 41.2227C10.7431 40.8585 11.4545 40.3487 11.7747 40.2759C11.8814 40.0209 12.3082 39.7296 12.5572 39.6568C12.5928 39.6204 12.5928 39.5475 12.7706 39.4019C13.0196 39.1834 12.8419 39.329 13.1621 39.2198C13.3044 39.0013 14.407 38.2002 14.7627 37.9817C15.2252 37.6539 16.0079 36.962 16.4348 36.7799C16.5771 36.5979 16.4349 36.6707 16.755 36.5614L19.1028 34.7407C19.1383 34.7407 19.2806 34.6314 19.3162 34.6314C19.5296 34.5222 19.245 34.6314 19.494 34.5586C19.7786 34.158 20.0632 34.0488 20.4546 33.7574C20.8103 33.5025 21.0948 33.2476 21.4861 33.0655C21.5572 32.847 21.4505 33.0291 21.6639 32.847L23.3716 31.6817C23.4427 31.6089 23.4426 31.5361 23.656 31.3904C23.7983 31.2812 23.7984 31.2812 23.9763 31.2083C24.0474 30.9898 24.83 30.5164 25.0434 30.3708C25.3991 30.1159 25.7549 29.8245 26.1462 29.5696C26.5375 29.2783 28.0671 28.0766 28.3873 28.0037C28.4584 27.8945 28.4229 27.8581 28.6363 27.7124C28.8498 27.5667 28.7076 27.6396 28.9566 27.5667C29.0633 27.3847 29.17 27.3118 29.4191 27.1298L29.6325 26.9841C29.8459 26.8384 29.6679 26.9113 29.9169 26.8748C30.0948 26.5107 30.842 26.0737 31.1977 25.8188C31.6246 25.491 32.1224 25.0541 32.5493 24.9084C32.656 24.6899 32.7627 24.6535 33.0118 24.4714C33.0473 24.4714 33.2252 24.3257 33.2608 24.3257C33.4387 24.2165 33.332 24.2529 33.5098 24.2165C33.6877 23.9252 34.0434 23.6703 34.3636 23.561C34.4703 23.3789 38.7748 20.1743 39.2017 19.9558L39.3795 19.883C39.4862 19.6281 40.2687 19.1183 40.5889 18.9362C40.8379 18.6449 41.3715 18.3171 41.7272 18.0622C42.1541 17.7345 42.5098 17.3703 43.0078 17.1883C43.0434 17.079 42.9723 17.1518 43.1146 17.0426C43.1502 17.0062 43.2925 16.8969 43.3281 16.8605C43.5059 16.7513 43.5771 16.6784 43.7549 16.642L43.8617 16.4963C43.8973 16.4599 44.1463 16.0958 44.7511 15.8773L44.9999 15.6588C45.3556 15.8409 49.4466 18.8998 49.5177 19.0455C49.9091 19.1547 49.6957 19.0819 50.0158 19.3368C50.3004 19.5189 50.1936 19.3732 50.3715 19.7009L51.8301 20.6842C52.0791 20.8662 53.0395 21.5581 53.1107 21.7038C53.4308 21.813 53.3242 21.7402 53.6444 21.9951C53.8578 22.1772 53.8577 22.1772 54 22.3593C54.249 22.4321 54.0001 22.2865 54.3203 22.505C54.6048 22.7234 54.4269 22.5414 54.4981 22.7235C54.7471 22.8327 54.8893 22.9055 55.0672 23.0512C55.3517 23.2333 55.1383 23.0512 55.3162 23.2333C55.5296 23.4518 55.3873 23.3425 55.5296 23.4882C55.8498 23.5974 57.5217 24.872 57.9842 25.1997C58.3755 25.4911 60.2254 26.8384 60.3321 27.0569C60.6523 27.1662 60.3676 26.9477 60.6522 27.2026C60.7945 27.2754 60.6877 27.239 60.7944 27.3847C61.079 27.4575 60.7945 27.3483 61.1146 27.5303C61.2213 27.6032 61.2569 27.6396 61.3637 27.7124C61.5771 27.8581 61.6126 27.8945 61.7193 28.0766C62.075 28.1858 62.7154 28.6228 62.8577 28.9505C63.1423 28.987 63.0711 28.8777 63.2489 29.169C63.7114 29.3511 64.2094 29.8245 64.6007 30.1159C64.8853 30.2979 65.5968 30.7713 65.7747 31.0262C66.0593 31.1355 67.0198 31.8638 67.1265 32.0823C67.5178 32.1916 67.3755 32.0095 67.589 32.41C67.8736 32.4829 68.1937 32.7742 68.4427 32.9563C68.7273 33.1748 68.9052 33.284 69.1898 33.5025C69.5455 33.7574 70.5059 34.3765 70.6126 34.6314C71.0039 34.7771 70.9684 34.7042 71.1819 35.0684C71.4309 35.1048 71.3598 35.1048 71.6444 35.2869C71.7866 35.3961 71.9289 35.5054 72 35.6511C72.1779 35.7239 72.249 35.7239 72.3913 35.8331C72.4268 35.8695 72.5335 35.9788 72.5691 35.9788C72.6758 36.1245 72.6404 36.088 72.7115 36.1973C72.8894 36.2337 72.9961 36.3065 73.1384 36.4158C73.1739 36.4522 73.3518 36.5979 73.3518 36.5979C73.4941 36.7071 73.4584 36.6343 73.494 36.7435C73.743 36.8528 76.2331 38.5643 76.5889 39.0741C76.8379 39.1105 76.66 39.0377 76.8379 39.147C76.8735 39.147 77.0514 39.2926 77.0869 39.329C77.3359 39.5111 77.4426 39.5111 77.5138 39.7296C77.9051 39.8753 77.7272 39.766 77.9763 40.0574C78.5099 40.3123 79.6839 41.2591 80.2886 41.6961C80.4665 41.8417 80.5376 41.8781 80.7155 41.9874C80.8933 42.1331 80.929 42.1331 81.0001 42.2787C81.3914 42.4608 81.3913 42.388 81.6048 42.7521C81.9249 42.825 82.1027 43.0799 82.6363 43.1891H83.6325C85.4467 42.9342 86.3359 42.3515 87.2608 41.3319C87.5454 40.9677 89.4663 38.1273 89.5019 38.0909L89.8578 36.8164C89.8578 36.7799 89.8934 36.6707 89.8934 36.6707C90.0001 36.3065 89.9644 36.4886 90 36.4158V34.8863L89.8578 34.4493C89.2886 32.4465 88.8262 32.5193 88.755 32.0459C88.3993 31.8274 88.5771 32.0459 88.4348 31.6817C88.1146 31.5725 87.9368 31.354 87.6167 31.0991C87.2965 30.8806 85.4823 29.6424 85.4111 29.3875L85.1977 29.2783C84.9843 29.169 84.7708 29.0234 84.5218 28.8413C84.4151 28.7685 84.3438 28.6956 84.2016 28.5864C83.9881 28.4043 84.0593 28.55 83.9881 28.3679C83.6324 28.2222 83.2412 27.9309 82.9922 27.676C82.7076 27.4939 82.6008 27.4575 82.4585 27.239C82.1384 27.1298 81.2135 26.4379 80.9289 26.1829C80.6087 25.928 79.7193 25.3454 79.5059 25.0905C79.2213 24.9812 78.6877 24.5078 78.3675 24.2893C77.9762 23.998 77.6561 23.7795 77.2648 23.4882C76.8379 23.124 75.6997 21.9587 75.6285 21.3032C75.4151 21.1211 75.5574 21.3032 75.4151 20.9755C75.344 20.9391 75.2726 20.7206 75.2371 20.6478C75.0948 20.2836 75.0594 20.1743 74.9882 19.7738C74.5614 19.1547 74.7392 13.6923 74.7392 12.3814C74.7392 11.1068 74.7392 9.79585 74.7392 8.52129C74.7392 7.75656 74.6325 5.24387 74.7392 4.73405L74.2055 3.16817C73.9209 2.94967 73.5652 1.93004 72.4625 1.1653C70.5415 -0.18208 68.3716 0.109251 65.8815 0.145666C63.8539 0.182082 63.498 0.801153 62.8933 0.873985C62.7154 1.16531 62.8932 1.01965 62.573 1.12889C62.3596 1.45664 62.0395 1.56588 61.7549 1.89362C61.5771 2.11212 61.2925 2.47627 61.1146 2.80402C60.7945 3.38667 60.4031 4.29706 60.3675 5.13462C60.1896 6.62767 60.5455 9.28603 60.2609 10.5606C60.1186 10.597 60.0474 10.6698 59.7272 10.5242L58.5889 9.61376C58.3043 9.50452 58.0199 9.32244 57.8776 9.10394C57.5574 8.95828 57.0949 8.70337 56.917 8.33922C56.5969 8.3028 56.4545 8.12072 56.1343 7.86581C55.5296 7.42882 51.0829 4.29706 51.0118 4.00573C50.5849 3.82365 50.585 3.78725 50.2293 3.53234L49.6956 3.02252C49.4466 2.9861 49.6244 3.27742 49.4465 2.87685C48.9485 2.69477 48.3084 2.14854 47.8459 1.78438C47.5969 1.56588 47.3834 1.42022 47.1344 1.20173C46.7787 0.946817 46.6363 0.910394 46.3873 0.582652C46.1383 0.50982 46.423 0.65548 46.1029 0.436985C45.9961 0.364154 45.8894 0.291325 45.8538 0.254909C45.6048 0.109246 45.5336 0.0728316 45.2845 0H44.8933C44.1462 0.109247 44.1107 0.436997 43.5415 0.619075Z" fill="#43638A"/>
<path fill-rule="evenodd" clip-rule="evenodd" d="M38.5971 61.7261H51.4036L51.5102 62.2359C51.5458 65.1856 51.5815 82.4831 51.4392 82.9929H38.5615C38.3837 82.3374 38.4905 65.5133 38.4905 62.3451L38.5261 61.8717C38.5261 61.8353 38.5615 61.7989 38.5615 61.7989C38.5615 61.7625 38.5971 61.7625 38.5971 61.7261ZM15.1546 78.2224L15.5814 79.6791C15.7593 79.8611 16.0438 80.6623 16.1861 80.99C16.6485 81.864 17.2888 82.6287 17.9291 83.3206L18.7475 84.0125C18.9609 84.1946 18.9251 84.0854 18.9963 84.2675C19.3876 84.4131 19.2454 84.3039 19.4944 84.6316L21.202 85.3599C23.5854 86.2703 29.0636 85.9426 31.9806 85.9426C35.7513 85.9426 39.5221 85.9426 43.2928 85.9426C50.8699 85.9426 58.5538 86.0518 66.0953 85.9062C67.9451 85.7969 68.5142 85.3599 70.0083 84.8865C70.0794 84.7044 70.862 84.2674 71.0754 84.1946C71.1821 84.0854 71.1467 84.1218 71.2179 84.0125C71.3246 83.9033 71.3601 83.8669 71.4313 83.794C71.6447 83.6484 71.7513 83.5755 71.9648 83.4663L72.1782 83.2114C72.4983 82.8472 72.7831 82.4102 72.9965 82.301C73.0677 82.0825 72.9964 82.1553 73.1387 81.9732C73.1743 81.9368 73.2098 81.864 73.2453 81.864C73.3521 81.7548 73.3522 81.7547 73.4234 81.6819C73.4945 81.3906 73.708 81.0993 73.8858 80.8079C73.9926 80.553 74.0279 80.4438 74.1347 80.1889C74.1702 80.116 74.2059 79.9704 74.2415 79.8975C74.3838 79.6426 74.277 79.7883 74.4549 79.6426C74.4193 79.06 74.7394 78.3317 74.8462 77.6398C74.9885 76.438 74.9174 62.5272 74.9174 61.2163V47.0141C74.9174 45.8488 75.1664 43.4454 74.4905 42.717C73.53 41.6246 72.0004 42.3165 72.0004 43.9188C71.8581 54.6978 72.1071 65.9867 72.0004 76.8386C72.0004 77.0207 71.9648 77.1664 71.9648 77.3484C71.9292 77.4213 71.8938 77.5305 71.8938 77.6034C71.787 77.8947 71.8581 77.7126 71.7869 77.8583C71.8225 78.2224 71.6802 78.5137 71.5379 78.8779C71.4667 79.06 71.4312 79.1328 71.3601 79.3149C71.2533 79.5334 71.2178 79.6062 71.111 79.6791C70.9687 80.0796 70.8977 80.2981 70.542 80.4438C70.3997 81.2449 68.4786 82.4466 67.3047 82.738C66.4509 83.0293 65.4548 82.9929 64.5655 82.9929H54.3916V61.3255C54.3916 60.9249 54.4273 60.233 54.3206 59.8689C54.1783 59.3226 53.9292 59.359 53.7869 58.9585C53.4668 58.8856 53.4667 58.9585 53.2532 58.74C52.0793 58.8492 40.1268 58.74 37.779 58.74C35.4668 58.7764 35.6091 59.6868 35.6091 61.8353C35.6091 68.9 35.6091 75.9282 35.6091 82.9929C33.119 82.8108 23.1939 83.5027 21.8777 82.4102C21.6643 82.3374 21.7355 82.4102 21.5221 82.301C21.2731 82.1553 21.4153 82.2281 21.273 82.0825C20.8106 82.0097 20.277 81.4634 19.9568 81.1357C19.6011 80.7715 18.9965 80.2617 18.9609 79.7155C18.5696 79.497 18.3917 78.8415 18.285 78.3317C17.787 77.4213 18.0004 70.83 18.0004 69.2277V45.5575C18.0004 44.1008 18.2494 42.3893 16.6842 42.2072C14.7632 42.0251 15.0478 44.4286 15.0833 45.3754L15.1546 78.2224Z" fill="#43638A"/>
</svg>
