<svg width="83" height="38" viewBox="0 0 83 38" fill="none" xmlns="http://www.w3.org/2000/svg">
<path fill-rule="evenodd" clip-rule="evenodd" d="M13.0952 27.5288L4.34684 25.8529L24.304 2.88475L40.4338 20.6054H53.365L64.191 9.86311L77.9697 25.743L68.6472 27.5288H82.3712L64.7378 7.69267L47.6785 12.0885L24.4681 0L0 27.5288H13.0952Z" fill="white"/>
<path fill-rule="evenodd" clip-rule="evenodd" d="M21.2421 27.4738C21.6127 27.8496 21.8359 28.3471 21.8709 28.875C21.8963 29.0573 21.8963 29.2422 21.8709 29.4245C21.8248 29.7036 21.7324 29.9729 21.5975 30.2212L21.1327 30.7982C21.0208 30.9474 20.8692 31.0617 20.6953 31.1279C20.0258 31.4572 19.2748 31.5814 18.5356 31.485C17.7568 31.4888 17.0017 31.2164 16.4032 30.7157V28.9849C16.656 29.4834 17.0099 29.9233 17.442 30.2762C17.8256 30.5556 18.2812 30.7177 18.7543 30.7432C19.6565 30.7432 20.2579 30.6058 20.5313 30.0838C20.5202 30.0295 20.5202 29.9734 20.5313 29.919C20.5623 29.7556 20.5623 29.5878 20.5313 29.4245C20.5433 29.2397 20.518 29.0544 20.4569 28.8797C20.3958 28.705 20.3002 28.5446 20.1759 28.4079C19.7102 27.9395 19.1865 27.5332 18.6176 27.1991C17.9066 26.7595 17.2384 26.2536 16.6219 25.688C16.3711 25.2369 16.2933 24.7092 16.4032 24.2044C16.422 23.9015 16.5108 23.6072 16.6627 23.3449C16.8146 23.0826 17.0253 22.8595 17.278 22.6934C17.8287 22.3322 18.4806 22.1588 19.137 22.1989C19.6628 22.2366 20.1794 22.3571 20.668 22.556C21.0781 22.7209 21.2968 22.8857 21.2694 23.0231C21.2421 23.1604 21.2694 23.6275 21.2694 24.5616C21.2694 24.5616 21.2694 24.5616 20.996 24.177C20.7578 23.8278 20.4726 23.5134 20.1486 23.2429C19.8488 23.0214 19.5029 22.8711 19.137 22.8033C18.7464 22.7567 18.3515 22.8438 18.0161 23.0505C17.8686 23.1452 17.7465 23.275 17.6607 23.4283C17.5749 23.5816 17.5279 23.7538 17.524 23.9297C17.5167 24.3005 17.6429 24.6615 17.8794 24.9462C18.284 25.357 18.7442 25.7085 19.2464 25.9902C20.0106 26.4106 20.718 26.9277 21.3514 27.5288L21.2421 27.4738ZM29.4437 22.2263C29.2171 22.2356 28.9983 22.3121 28.8149 22.4461C28.6484 22.5912 28.5013 22.7575 28.3775 22.9407V29.8366C28.3686 30.0757 28.4463 30.31 28.5962 30.496C28.6831 30.634 28.7942 30.7551 28.9242 30.8531C29.0736 30.9501 29.241 31.0155 29.4163 31.0454C29.3106 31.0855 29.194 31.0855 29.0883 31.0454H26.3544C26.3129 31.0695 26.2657 31.0822 26.2177 31.0822C26.1697 31.0822 26.1226 31.0695 26.081 31.0454C26.3746 31.0279 26.6538 30.9118 26.8738 30.7157C27.0821 30.6113 27.2467 30.4361 27.3386 30.2212V23.4352C27.3696 23.2718 27.3696 23.104 27.3386 22.9407C27.2645 22.7695 27.1629 22.6117 27.0379 22.4736C26.9898 22.4109 26.9275 22.3607 26.8561 22.3273C26.7848 22.2938 26.7065 22.278 26.6278 22.2813H29.6624L29.4437 22.2263ZM42.4569 26.9244C42.344 26.9357 42.2354 26.9741 42.1403 27.0362C42.0452 27.0983 41.9662 27.1825 41.9101 27.2815C41.754 27.5471 41.6781 27.8525 41.6914 28.1607V29.9465C41.6914 30.2212 41.3633 30.496 40.6798 30.7982C39.8141 31.1572 38.8819 31.3258 37.946 31.2927C36.7411 31.3586 35.5541 30.9772 34.6107 30.2212C34.1457 29.8236 33.7763 29.3255 33.5301 28.764C33.2839 28.2026 33.1673 27.5924 33.1891 26.9793C33.1872 26.3624 33.3153 25.7522 33.5651 25.1886C33.8148 24.6251 34.1805 24.1212 34.638 23.7099C35.5629 22.8401 36.7889 22.367 38.0553 22.3912C38.8533 22.3788 39.6478 22.4995 40.4065 22.7483C40.6879 22.8371 40.955 22.9667 41.1993 23.133C41.2279 23.5079 41.2279 23.8845 41.1993 24.2594C41.1993 24.6715 41.1993 24.8913 41.1993 24.9188C41.2295 24.7923 41.2295 24.6606 41.1993 24.5341C41.1297 24.3459 41.0173 24.1766 40.8712 24.0396C40.7036 23.8488 40.5103 23.6824 40.2971 23.5451C40.0441 23.3558 39.7686 23.1989 39.4769 23.078C39.0253 22.8973 38.5412 22.813 38.0553 22.8308C37.6076 22.8155 37.1616 22.8957 36.747 23.0662C36.3323 23.2367 35.9583 23.4935 35.6495 23.8198C35.2959 24.2183 35.0245 24.6833 34.8509 25.1879C34.6772 25.6925 34.6049 26.2266 34.638 26.7595C34.6191 27.7808 35.0023 28.7682 35.7042 29.5069C36.0496 29.8833 36.4743 30.1773 36.9473 30.3675C37.4203 30.5576 37.9297 30.639 38.4381 30.6059C38.973 30.6173 39.5041 30.5143 39.9964 30.3036C40.4611 30.1113 40.6798 29.919 40.6798 29.7267V28.1057C40.7014 27.8003 40.635 27.4951 40.4885 27.2266C40.4265 27.1326 40.346 27.0525 40.2519 26.991C40.1579 26.9296 40.0523 26.8882 39.9417 26.8694H42.6756L42.4569 26.9244ZM51.5333 31.0729L47.8699 25.4133V29.919C47.8489 30.2156 47.9155 30.5119 48.0613 30.7707C48.1191 30.8683 48.1985 30.9513 48.2933 31.0132C48.3881 31.0752 48.4958 31.1144 48.608 31.1279H46.4756C46.5879 31.1144 46.6956 31.0752 46.7904 31.0132C46.8852 30.9513 46.9646 30.8683 47.0224 30.7707C47.1682 30.5119 47.2348 30.2156 47.2138 29.919V23.6824C47.2138 23.078 47.2138 22.6384 47.2138 22.3637L51.9433 29.2322C52.5448 28.3805 54.1578 26.1001 56.8096 22.4186V29.8366C56.7952 30.1362 56.8714 30.4331 57.0283 30.6883C57.0826 30.7889 57.1611 30.8742 57.2566 30.9366C57.3521 30.999 57.4616 31.0364 57.5751 31.0454H54.8412C54.9535 31.032 55.0612 30.9927 55.156 30.9308C55.2508 30.8689 55.3302 30.7859 55.388 30.6883C55.5338 30.4295 55.6004 30.1332 55.5794 29.8366V25.1935L51.5606 31.0729H51.5333ZM61.1018 31.0729H59.4341C59.5331 31.0616 59.6284 31.0287 59.7134 30.9765C59.7985 30.9243 59.8711 30.8541 59.9262 30.7707L60.309 30.2487C60.6767 29.6664 60.988 29.05 61.2385 28.4079C61.7306 27.3639 62.1133 26.5122 62.3594 25.9353C63.0155 24.2869 63.5896 22.8308 64.0817 21.5395C65.321 24.4517 66.5239 27.1991 67.6904 29.7816C67.7979 30.101 67.9754 30.3921 68.2098 30.6333C68.3885 30.8298 68.6306 30.9563 68.8933 30.9905H66.7882C66.4055 29.9739 66.0774 29.1772 65.8587 28.6003H61.9766L61.1018 30.9905V31.0729ZM65.6126 28.1332C65.6126 28.1332 65.0112 26.6771 63.945 24.0121L62.1953 28.2431H65.6126V28.1332Z" fill="white"/>
<path d="M24.1126 11.0994H20.6406V14.5886H24.1126V11.0994Z" fill="white"/>
<path d="M28.1041 11.0994H24.6321V14.5886H28.1041V11.0994Z" fill="white"/>
<path d="M24.1126 15.1106H20.6406V18.5998H24.1126V15.1106Z" fill="white"/>
<path d="M28.1041 15.1106H24.6321V18.5998H28.1041V15.1106Z" fill="white"/>
<path d="M63.9723 17.9679H61.3205V20.6329H63.9723V17.9679Z" fill="white"/>
<path d="M66.8976 17.9679H64.2457V20.6329H66.8976V17.9679Z" fill="white"/>
<path d="M63.9723 15.0007H61.3205V17.6657H63.9723V15.0007Z" fill="white"/>
<path d="M66.8976 15.0007H64.2457V17.6657H66.8976V15.0007Z" fill="white"/>
<path fill-rule="evenodd" clip-rule="evenodd" d="M26.6005 36.1006C26.588 36.487 26.4615 36.861 26.2372 37.175C26.0128 37.489 25.7007 37.729 25.3404 37.8644C24.9801 37.9998 24.5878 38.0246 24.2135 37.9356C23.8391 37.8466 23.4995 37.6478 23.2378 37.3644C22.8514 36.9061 22.6555 36.3157 22.691 35.716C22.6712 35.4229 22.7093 35.1288 22.8032 34.8506C22.897 34.5724 23.0447 34.3156 23.2378 34.095C23.4147 33.9086 23.6265 33.7592 23.8611 33.6554C24.0957 33.5517 24.3485 33.4957 24.6047 33.4906C25.0584 33.4803 25.5019 33.6257 25.8623 33.9027C26.1828 34.1653 26.3967 34.5366 26.4638 34.9467H25.7803C25.7311 34.7122 25.5941 34.5056 25.3976 34.3698C25.1706 34.1982 24.8872 34.1196 24.6047 34.15C24.4327 34.1424 24.2613 34.1758 24.1045 34.2474C23.9478 34.319 23.81 34.4269 23.7026 34.5621C23.4661 34.8981 23.3504 35.3051 23.3745 35.716C23.3546 36.135 23.4697 36.5493 23.7026 36.8974C23.8157 37.0331 23.9583 37.1409 24.1195 37.2123C24.2807 37.2838 24.4561 37.317 24.6321 37.3095C24.9218 37.3244 25.206 37.2259 25.4249 37.0347C25.6201 36.8356 25.7366 36.572 25.753 36.2929H24.8235V35.716H26.6005V36.183V36.1006ZM32.4236 35.716H33.3258C33.5335 35.7202 33.7362 35.6523 33.8999 35.5237C33.967 35.4498 34.0185 35.363 34.0514 35.2686C34.0843 35.1741 34.0979 35.074 34.0912 34.9742C34.0999 34.8718 34.0846 34.7688 34.0467 34.6734C34.0087 34.578 33.9491 34.4928 33.8725 34.4247C33.7949 34.3551 33.7039 34.3022 33.6052 34.2691C33.5065 34.2361 33.4021 34.2236 33.2984 34.2324H32.4236V35.716ZM32.4236 37.9414H31.6581V33.573H33.4078C33.8019 33.5649 34.1873 33.6907 34.5013 33.9302C34.6285 34.0604 34.728 34.2152 34.7938 34.3852C34.8596 34.5552 34.8903 34.7369 34.8841 34.9192C34.8871 35.1916 34.8111 35.4589 34.6654 35.6885C34.5308 35.915 34.3159 36.0818 34.0639 36.1556L35.0208 37.9139H34.1186L33.2984 36.2655H32.4236V37.9414ZM41.8281 33.5181C42.1064 33.511 42.3833 33.5609 42.6418 33.6648C42.9003 33.7687 43.135 33.9244 43.3317 34.1225C43.7086 34.5862 43.9032 35.1727 43.8785 35.7709C43.9097 36.3617 43.714 36.942 43.3317 37.3919C43.1391 37.5955 42.9051 37.7549 42.6456 37.8592C42.3861 37.9635 42.1072 38.0103 41.8281 37.9963C41.5526 38.0139 41.2767 37.9686 41.0211 37.864C40.7654 37.7593 40.5366 37.5979 40.3518 37.3919C40.1525 37.1744 39.999 36.9187 39.9003 36.6402C39.8017 36.3617 39.76 36.066 39.7777 35.7709C39.7468 35.1671 39.9529 34.5752 40.3518 34.1225C40.5413 33.9225 40.7708 33.7652 41.0253 33.661C41.2798 33.5568 41.5534 33.5081 41.8281 33.5181ZM41.8281 34.2049C41.656 34.1974 41.4846 34.2308 41.3279 34.3024C41.1711 34.374 41.0334 34.4818 40.9259 34.617C40.6664 34.9426 40.5394 35.355 40.5705 35.7709C40.5447 36.1863 40.6711 36.5967 40.9259 36.9248C41.0334 37.0601 41.1711 37.1679 41.3279 37.2395C41.4846 37.3111 41.656 37.3445 41.8281 37.3369C42.0038 37.3425 42.1785 37.3083 42.3394 37.237C42.5003 37.1657 42.6432 37.059 42.7576 36.9248C42.9902 36.5869 43.1055 36.1814 43.0856 35.7709C43.1098 35.36 42.9941 34.9531 42.7576 34.617C42.6432 34.4829 42.5003 34.3762 42.3394 34.3049C42.1785 34.2335 42.0038 34.1994 41.8281 34.2049ZM49.7016 36.3479C49.6892 36.6089 49.7773 36.8647 49.9476 37.0622C50.1525 37.2404 50.4148 37.338 50.6858 37.3369C50.8208 37.343 50.9557 37.3219 51.0825 37.2747C51.2093 37.2275 51.3254 37.1552 51.4239 37.0622C51.5171 36.9693 51.5896 36.8576 51.6367 36.7345C51.6839 36.6114 51.7045 36.4796 51.6973 36.3479V33.6005H52.4628V36.3479C52.4731 36.5626 52.4369 36.777 52.3567 36.9762C52.2764 37.1754 52.154 37.3548 51.998 37.5018C51.6332 37.8125 51.1632 37.9699 50.6858 37.9414C50.2165 37.9715 49.7544 37.8134 49.4009 37.5018C49.2368 37.3598 49.1072 37.182 49.0219 36.9821C48.9366 36.7821 48.8979 36.5652 48.9088 36.3479V33.6005H49.7016V36.3479ZM59.3794 33.6005C59.5757 33.593 59.7714 33.6257 59.9547 33.6965C60.138 33.7673 60.305 33.8749 60.4457 34.0126C60.5813 34.1481 60.6858 34.3117 60.7519 34.4921C60.8181 34.6724 60.8442 34.8651 60.8284 35.0566C60.837 35.2498 60.805 35.4427 60.7343 35.6226C60.6636 35.8025 60.556 35.9654 60.4183 36.1006C60.2777 36.2383 60.1106 36.3459 59.9273 36.4167C59.744 36.4876 59.5483 36.5202 59.3521 36.5127H58.4226V37.9414H57.6571V33.573L59.3794 33.6005ZM58.4226 35.8808H59.1881C59.4183 35.8937 59.6443 35.8147 59.8169 35.661C59.8995 35.5846 59.9644 35.4908 60.0069 35.3864C60.0494 35.2819 60.0685 35.1693 60.0629 35.0566C60.0703 34.9461 60.0546 34.8353 60.0169 34.7312C59.9793 34.6272 59.9205 34.5321 59.8442 34.4522C59.6592 34.3016 59.426 34.2235 59.1881 34.2324H58.4226V35.8808Z" fill="white"/>
<path d="M19.219 35.4138H0V35.9358H19.219V35.4138Z" fill="white"/>
<path d="M83 35.4138H63.781V35.9358H83V35.4138Z" fill="white"/>
</svg>
