<svg width="95" height="43" viewBox="0 0 95 43" fill="none" xmlns="http://www.w3.org/2000/svg">
<path fill-rule="evenodd" clip-rule="evenodd" d="M14.9885 31.151L4.9753 29.2546L27.8179 3.26432L46.2796 23.3166H61.0804L73.4717 11.1609L89.2424 29.1302L78.5721 31.151H94.2803L74.0975 8.70487L54.5718 13.6791L28.0056 0L0 31.151H14.9885Z" fill="#1E3859"/>
<path fill-rule="evenodd" clip-rule="evenodd" d="M24.3132 31.0888C24.7374 31.514 24.9929 32.077 25.0329 32.6743C25.0621 32.8806 25.0621 33.0899 25.0329 33.2961C24.9802 33.6119 24.8744 33.9167 24.72 34.1977L24.1881 34.8506C24.06 35.0194 23.8864 35.1487 23.6874 35.2236C22.9211 35.5963 22.0615 35.7369 21.2154 35.6278C20.3241 35.6321 19.4598 35.3238 18.7747 34.7573V32.7987C19.0641 33.3628 19.4692 33.8605 19.9638 34.2599C20.4028 34.576 20.9243 34.7595 21.4657 34.7884C22.4984 34.7884 23.1868 34.6329 23.4997 34.0422C23.487 33.9807 23.487 33.9173 23.4997 33.8557C23.5352 33.6709 23.5352 33.481 23.4997 33.2961C23.5134 33.087 23.4844 32.8774 23.4145 32.6797C23.3446 32.482 23.2352 32.3004 23.0929 32.1458C22.5599 31.6158 21.9604 31.156 21.3093 30.7779C20.4955 30.2805 19.7307 29.708 19.025 29.068C18.738 28.5576 18.649 27.9604 18.7747 27.3892C18.7962 27.0465 18.8979 26.7134 19.0718 26.4166C19.2456 26.1198 19.4867 25.8673 19.776 25.6794C20.4064 25.2706 21.1525 25.0744 21.9038 25.1198C22.5056 25.1624 23.0969 25.2988 23.6561 25.5239C24.1255 25.7104 24.3758 25.897 24.3445 26.0524C24.3132 26.2079 24.3445 26.7364 24.3445 27.7934C24.3445 27.7934 24.3445 27.7934 24.0316 27.3582C23.7589 26.963 23.4325 26.6073 23.0616 26.3011C22.7185 26.0505 22.3226 25.8804 21.9038 25.8037C21.4567 25.751 21.0047 25.8496 20.6209 26.0835C20.452 26.1907 20.3123 26.3375 20.2141 26.511C20.1158 26.6845 20.0621 26.8793 20.0576 27.0784C20.0493 27.498 20.1937 27.9065 20.4644 28.2286C20.9275 28.6935 21.4542 29.0912 22.029 29.41C22.9037 29.8857 23.7134 30.4708 24.4384 31.151L24.3132 31.0888ZM33.7006 25.1508C33.4412 25.1613 33.1908 25.2479 32.9809 25.3996C32.7903 25.5637 32.622 25.7519 32.4802 25.9592V33.7624C32.4701 34.0331 32.559 34.2981 32.7306 34.5086C32.83 34.6648 32.9573 34.8018 33.1061 34.9127C33.277 35.0224 33.4687 35.0965 33.6693 35.1304C33.5483 35.1757 33.4148 35.1757 33.2938 35.1304H30.1647C30.1171 35.1576 30.0632 35.172 30.0082 35.172C29.9533 35.172 29.8993 35.1576 29.8518 35.1304C30.1878 35.1105 30.5074 34.9792 30.7592 34.7573C30.9976 34.6391 31.186 34.4408 31.2912 34.1977V26.5188C31.3267 26.3339 31.3267 26.144 31.2912 25.9592C31.2064 25.7654 31.0901 25.5869 30.947 25.4306C30.892 25.3597 30.8206 25.3029 30.739 25.2651C30.6573 25.2272 30.5677 25.2093 30.4776 25.213H33.9509L33.7006 25.1508ZM48.5952 30.467C48.466 30.4799 48.3418 30.5233 48.2329 30.5936C48.124 30.6639 48.0336 30.7591 47.9694 30.8712C47.7908 31.1717 47.7038 31.5173 47.719 31.866V33.8868C47.719 34.1977 47.3435 34.5086 46.5613 34.8506C45.5704 35.2568 44.5034 35.4476 43.4321 35.4102C42.0531 35.4847 40.6945 35.0532 39.6146 34.1977C39.0824 33.7478 38.6596 33.1841 38.3778 32.5488C38.096 31.9135 37.9626 31.223 37.9875 30.5292C37.9853 29.8312 38.132 29.1406 38.4179 28.5029C38.7037 27.8653 39.1222 27.295 39.6459 26.8296C40.7045 25.8454 42.1077 25.3101 43.5573 25.3374C44.4706 25.3234 45.38 25.4599 46.2484 25.7415C46.5705 25.842 46.8762 25.9886 47.1558 26.1768C47.1886 26.601 47.1886 27.0272 47.1558 27.4514C47.1558 27.9178 47.1558 28.1665 47.1558 28.1975C47.1903 28.0545 47.1903 27.9054 47.1558 27.7623C47.0761 27.5493 46.9476 27.3577 46.7803 27.2027C46.5884 26.9868 46.3673 26.7985 46.1232 26.6431C45.8336 26.4289 45.5182 26.2514 45.1845 26.1146C44.6675 25.9101 44.1134 25.8148 43.5573 25.8348C43.0448 25.8175 42.5344 25.9083 42.0598 26.1012C41.5852 26.2941 41.1571 26.5848 40.8037 26.954C40.399 27.4049 40.0883 27.9311 39.8895 28.5021C39.6908 29.0731 39.608 29.6775 39.6459 30.2805C39.6243 31.4361 40.0629 32.5535 40.8663 33.3894C41.2616 33.8153 41.7477 34.148 42.2891 34.3632C42.8305 34.5783 43.4135 34.6705 43.9954 34.6329C44.6076 34.6459 45.2156 34.5293 45.779 34.291C46.3109 34.0733 46.5613 33.8557 46.5613 33.6381V31.8039C46.586 31.4582 46.5099 31.1128 46.3422 30.809C46.2713 30.7027 46.1791 30.612 46.0715 30.5425C45.9638 30.473 45.843 30.4261 45.7164 30.4049H48.8455L48.5952 30.467ZM58.9839 35.1614L54.7908 28.7572V33.8557C54.7668 34.1914 54.843 34.5266 55.0099 34.8195C55.0761 34.93 55.1669 35.0239 55.2754 35.0939C55.3839 35.164 55.5072 35.2084 55.6357 35.2236H53.195C53.3235 35.2084 53.4468 35.164 53.5553 35.0939C53.6638 35.0239 53.7546 34.93 53.8208 34.8195C53.9877 34.5266 54.0639 34.1914 54.0399 33.8557V26.7986C54.0399 26.1146 54.0399 25.6172 54.0399 25.3063L59.4532 33.0785C60.1416 32.1147 61.9878 29.5344 65.0231 25.3685V33.7624C65.0065 34.1015 65.0938 34.4375 65.2734 34.7262C65.3355 34.84 65.4254 34.9366 65.5347 35.0072C65.6439 35.0778 65.7693 35.1201 65.8992 35.1304H62.7701C62.8986 35.1151 63.0219 35.0707 63.1304 35.0007C63.2389 34.9306 63.3297 34.8367 63.3959 34.7262C63.5628 34.4334 63.639 34.0981 63.615 33.7624V28.5084L59.0152 35.1614H58.9839ZM69.9358 35.1614H68.027C68.1403 35.1487 68.2494 35.1114 68.3467 35.0524C68.444 34.9933 68.5271 34.9138 68.5903 34.8195L69.0283 34.2288C69.4493 33.5699 69.8055 32.8724 70.0922 32.1458C70.6555 30.9645 71.0935 30.0007 71.3752 29.3478C72.1262 27.4825 72.7833 25.8348 73.3465 24.3736C74.765 27.669 76.1419 30.7779 77.4769 33.7003C77.6 34.0617 77.8032 34.391 78.0715 34.664C78.276 34.8863 78.5531 35.0295 78.8538 35.0682H76.4443C76.0063 33.9179 75.6308 33.0163 75.3804 32.3635H70.9371L69.9358 35.0682V35.1614ZM75.0988 31.8349C75.0988 31.8349 74.4104 30.1872 73.19 27.1716L71.1874 31.9593H75.0988V31.8349Z" fill="#10274F"/>
<path d="M27.5988 12.5599H23.6248V16.5082H27.5988V12.5599Z" fill="#666666"/>
<path d="M32.1673 12.5599H28.1933V16.5082H32.1673V12.5599Z" fill="#666666"/>
<path d="M27.5988 17.0988H23.6248V21.0471H27.5988V17.0988Z" fill="#666666"/>
<path d="M32.1673 17.0988H28.1933V21.0471H32.1673V17.0988Z" fill="#666666"/>
<path d="M73.2213 20.3321H70.1861V23.3477H73.2213V20.3321Z" fill="#666666"/>
<path d="M76.5695 20.3321H73.5343V23.3477H76.5695V20.3321Z" fill="#666666"/>
<path d="M73.2213 16.9745H70.1861V19.9901H73.2213V16.9745Z" fill="#666666"/>
<path d="M76.5695 16.9745H73.5343V19.9901H76.5695V16.9745Z" fill="#666666"/>
<path fill-rule="evenodd" clip-rule="evenodd" d="M30.4463 40.8507C30.432 41.2879 30.2873 41.7111 30.0305 42.0664C29.7737 42.4218 29.4164 42.6933 29.004 42.8466C28.5916 42.9998 28.1427 43.0278 27.7142 42.9271C27.2857 42.8264 26.897 42.6014 26.5975 42.2808C26.1552 41.7621 25.931 41.0941 25.9717 40.4155C25.949 40.0838 25.9926 39.751 26.1 39.4362C26.2074 39.1213 26.3765 38.8308 26.5975 38.5812C26.7999 38.3702 27.0424 38.2012 27.3109 38.0838C27.5795 37.9664 27.8687 37.903 28.1621 37.8973C28.6813 37.8856 29.189 38.0501 29.6015 38.3636C29.9683 38.6608 30.2131 39.0809 30.2899 39.545H29.5076C29.4513 39.2796 29.2944 39.0458 29.0695 38.8921C28.8097 38.698 28.4853 38.6091 28.1621 38.6434C27.9651 38.6348 27.769 38.6726 27.5895 38.7537C27.4101 38.8347 27.2525 38.9567 27.1294 39.1097C26.8587 39.49 26.7263 39.9505 26.754 40.4155C26.7312 40.8896 26.8629 41.3584 27.1294 41.7523C27.2589 41.9059 27.4222 42.0278 27.6067 42.1087C27.7912 42.1896 27.9919 42.2272 28.1933 42.2186C28.5249 42.2355 28.8502 42.1241 29.1008 41.9077C29.3242 41.6823 29.4576 41.3841 29.4763 41.0683H28.4124V40.4155H30.4463V40.944V40.8507ZM37.1113 40.4155H38.1439C38.3817 40.4202 38.6138 40.3434 38.8011 40.1978C38.8779 40.1142 38.9369 40.016 38.9745 39.9092C39.0122 39.8023 39.0277 39.689 39.0201 39.5761C39.03 39.4602 39.0126 39.3437 38.9691 39.2357C38.9256 39.1277 38.8574 39.0314 38.7698 38.9543C38.6809 38.8755 38.5768 38.8156 38.4638 38.7782C38.3508 38.7408 38.2313 38.7267 38.1127 38.7367H37.1113V40.4155ZM37.1113 42.9337H36.2352V37.9905H38.2378C38.6889 37.9813 39.13 38.1237 39.4895 38.3947C39.635 38.542 39.7489 38.7172 39.8242 38.9096C39.8995 39.102 39.9347 39.3076 39.9275 39.5139C39.931 39.822 39.844 40.1245 39.6772 40.3844C39.5232 40.6406 39.2772 40.8294 38.9888 40.9129L40.084 42.9026H39.0514L38.1127 41.0372H37.1113V42.9337ZM47.8755 37.9283C48.1941 37.9203 48.511 37.9768 48.8068 38.0944C49.1027 38.2119 49.3714 38.3882 49.5965 38.6123C50.0279 39.137 50.2506 39.8007 50.2223 40.4776C50.2581 41.1461 50.034 41.8028 49.5965 42.3119C49.3761 42.5423 49.1083 42.7226 48.8112 42.8407C48.5142 42.9587 48.195 43.0116 47.8755 42.9958C47.5602 43.0157 47.2444 42.9645 46.9518 42.8461C46.6592 42.7276 46.3974 42.545 46.1858 42.3119C45.9577 42.0658 45.782 41.7765 45.6691 41.4613C45.5561 41.1461 45.5084 40.8116 45.5287 40.4776C45.4933 39.7943 45.7292 39.1245 46.1858 38.6123C46.4026 38.386 46.6654 38.2079 46.9567 38.09C47.248 37.9721 47.5612 37.917 47.8755 37.9283ZM47.8755 38.7056C47.6786 38.697 47.4824 38.7348 47.303 38.8158C47.1235 38.8969 46.9659 39.0189 46.8429 39.1719C46.5459 39.5403 46.4005 40.0069 46.4361 40.4776C46.4066 40.9476 46.5513 41.4121 46.8429 41.7834C46.9659 41.9364 47.1235 42.0584 47.303 42.1394C47.4824 42.2204 47.6786 42.2582 47.8755 42.2497C48.0766 42.256 48.2766 42.2173 48.4608 42.1366C48.6449 42.0559 48.8085 41.9352 48.9394 41.7834C49.2057 41.401 49.3377 40.9421 49.3149 40.4776C49.3425 40.0127 49.2101 39.5522 48.9394 39.1719C48.8085 39.0201 48.6449 38.8994 48.4608 38.8186C48.2766 38.7379 48.0766 38.6993 47.8755 38.7056ZM56.8874 41.1305C56.8732 41.4259 56.974 41.7154 57.169 41.9388C57.4035 42.1405 57.7037 42.2509 58.0138 42.2497C58.1684 42.2566 58.3228 42.2326 58.468 42.1792C58.6131 42.1259 58.7459 42.0441 58.8587 41.9388C58.9653 41.8337 59.0484 41.7073 59.1023 41.568C59.1562 41.4286 59.1799 41.2795 59.1716 41.1305V38.0216H60.0478V41.1305C60.0596 41.3734 60.0181 41.616 59.9263 41.8415C59.8344 42.0669 59.6944 42.2699 59.5158 42.4362C59.0982 42.7878 58.5603 42.966 58.0138 42.9337C57.4767 42.9677 56.9478 42.7888 56.5432 42.4362C56.3554 42.2756 56.2071 42.0744 56.1094 41.8481C56.0118 41.6218 55.9675 41.3764 55.9799 41.1305V38.0216H56.8874V41.1305ZM67.9644 38.0216C68.189 38.0131 68.413 38.0501 68.6228 38.1303C68.8326 38.2104 69.0238 38.3321 69.1848 38.4879C69.34 38.6413 69.4597 38.8264 69.5354 39.0305C69.611 39.2346 69.6409 39.4526 69.6229 39.6693C69.6327 39.888 69.596 40.1062 69.5152 40.3098C69.4343 40.5134 69.311 40.6977 69.1535 40.8507C68.9925 41.0065 68.8013 41.1282 68.5915 41.2084C68.3817 41.2886 68.1577 41.3255 67.9331 41.317H66.8692V42.9337H65.9931V37.9905L67.9644 38.0216ZM66.8692 40.602H67.7454C68.0089 40.6166 68.2676 40.5272 68.4651 40.3533C68.5597 40.2668 68.6339 40.1607 68.6826 40.0425C68.7312 39.9243 68.7531 39.7969 68.7467 39.6693C68.7551 39.5443 68.7372 39.4189 68.6941 39.3011C68.651 39.1834 68.5837 39.0758 68.4964 38.9854C68.2846 38.8149 68.0178 38.7266 67.7454 38.7367H66.8692V40.602Z" fill="#666666"/>
<path d="M21.9977 40.0735H0V40.6642H21.9977V40.0735Z" fill="#666666"/>
<path d="M95 40.0735H73.0023V40.6642H95V40.0735Z" fill="#666666"/>
</svg>
