<svg width="294" height="57" viewBox="0 0 294 57" fill="none" xmlns="http://www.w3.org/2000/svg">
<path d="M137.62 27.11C137.033 27.11 136.487 27.0147 135.981 26.824C135.482 26.626 135.046 26.351 134.672 25.999C134.305 25.6397 134.019 25.218 133.814 24.734C133.609 24.25 133.506 23.722 133.506 23.15C133.506 22.578 133.609 22.05 133.814 21.566C134.019 21.082 134.309 20.664 134.683 20.312C135.057 19.9527 135.493 19.6777 135.992 19.487C136.491 19.289 137.037 19.19 137.631 19.19C138.262 19.19 138.837 19.3 139.358 19.52C139.879 19.7327 140.319 20.0517 140.678 20.477L139.754 21.346C139.475 21.0453 139.164 20.8217 138.819 20.675C138.474 20.521 138.1 20.444 137.697 20.444C137.294 20.444 136.923 20.51 136.586 20.642C136.256 20.774 135.966 20.961 135.717 21.203C135.475 21.445 135.284 21.731 135.145 22.061C135.013 22.391 134.947 22.754 134.947 23.15C134.947 23.546 135.013 23.909 135.145 24.239C135.284 24.569 135.475 24.855 135.717 25.097C135.966 25.339 136.256 25.526 136.586 25.658C136.923 25.79 137.294 25.856 137.697 25.856C138.1 25.856 138.474 25.7827 138.819 25.636C139.164 25.482 139.475 25.251 139.754 24.943L140.678 25.823C140.319 26.241 139.879 26.56 139.358 26.78C138.837 27 138.258 27.11 137.62 27.11ZM142.912 27V21.962L143.231 22.292H140.844V21.126H146.344V22.292H143.968L144.287 21.962V27H142.912ZM150.597 27.077C150.12 27.077 149.684 26.967 149.288 26.747C148.899 26.527 148.588 26.197 148.353 25.757C148.126 25.3097 148.012 24.745 148.012 24.063C148.012 23.3737 148.122 22.809 148.342 22.369C148.569 21.929 148.877 21.6027 149.266 21.39C149.655 21.17 150.098 21.06 150.597 21.06C151.176 21.06 151.686 21.1847 152.126 21.434C152.573 21.6833 152.925 22.0317 153.182 22.479C153.446 22.9263 153.578 23.4543 153.578 24.063C153.578 24.6717 153.446 25.2033 153.182 25.658C152.925 26.1053 152.573 26.4537 152.126 26.703C151.686 26.9523 151.176 27.077 150.597 27.077ZM147.341 29.134V21.126H148.65V22.512L148.606 24.074L148.716 25.636V29.134H147.341ZM150.443 25.9C150.773 25.9 151.066 25.8267 151.323 25.68C151.587 25.5333 151.796 25.3207 151.95 25.042C152.104 24.7633 152.181 24.437 152.181 24.063C152.181 23.6817 152.104 23.3553 151.95 23.084C151.796 22.8053 151.587 22.5927 151.323 22.446C151.066 22.2993 150.773 22.226 150.443 22.226C150.113 22.226 149.816 22.2993 149.552 22.446C149.288 22.5927 149.079 22.8053 148.925 23.084C148.771 23.3553 148.694 23.6817 148.694 24.063C148.694 24.437 148.771 24.7633 148.925 25.042C149.079 25.3207 149.288 25.5333 149.552 25.68C149.816 25.8267 150.113 25.9 150.443 25.9ZM157.564 27.077C156.963 27.077 156.428 26.9487 155.958 26.692C155.489 26.428 155.119 26.0687 154.847 25.614C154.576 25.1593 154.44 24.6423 154.44 24.063C154.44 23.4763 154.576 22.9593 154.847 22.512C155.119 22.0573 155.489 21.7017 155.958 21.445C156.428 21.1883 156.963 21.06 157.564 21.06C158.173 21.06 158.712 21.1883 159.181 21.445C159.658 21.7017 160.028 22.0537 160.292 22.501C160.564 22.9483 160.699 23.469 160.699 24.063C160.699 24.6423 160.564 25.1593 160.292 25.614C160.028 26.0687 159.658 26.428 159.181 26.692C158.712 26.9487 158.173 27.077 157.564 27.077ZM157.564 25.9C157.902 25.9 158.202 25.8267 158.466 25.68C158.73 25.5333 158.936 25.3207 159.082 25.042C159.236 24.7633 159.313 24.437 159.313 24.063C159.313 23.6817 159.236 23.3553 159.082 23.084C158.936 22.8053 158.73 22.5927 158.466 22.446C158.202 22.2993 157.905 22.226 157.575 22.226C157.238 22.226 156.937 22.2993 156.673 22.446C156.417 22.5927 156.211 22.8053 156.057 23.084C155.903 23.3553 155.826 23.6817 155.826 24.063C155.826 24.437 155.903 24.7633 156.057 25.042C156.211 25.3207 156.417 25.5333 156.673 25.68C156.937 25.8267 157.234 25.9 157.564 25.9ZM162.058 27V21.126H163.433V24.998L166.678 21.126H167.932V27H166.557V23.128L163.323 27H162.058ZM171.002 27V21.962L171.321 22.292H168.934V21.126H174.434V22.292H172.058L172.377 21.962V27H171.002ZM177.913 27.077C177.26 27.077 176.688 26.9487 176.197 26.692C175.713 26.428 175.335 26.0687 175.064 25.614C174.8 25.1593 174.668 24.6423 174.668 24.063C174.668 23.4763 174.796 22.9593 175.053 22.512C175.317 22.0573 175.676 21.7017 176.131 21.445C176.593 21.1883 177.117 21.06 177.704 21.06C178.276 21.06 178.786 21.1847 179.233 21.434C179.68 21.6833 180.032 22.0353 180.289 22.49C180.546 22.9447 180.674 23.48 180.674 24.096C180.674 24.1547 180.67 24.2207 180.663 24.294C180.663 24.3673 180.659 24.437 180.652 24.503H175.757V23.59H179.926L179.387 23.876C179.394 23.5387 179.325 23.2417 179.178 22.985C179.031 22.7283 178.83 22.5267 178.573 22.38C178.324 22.2333 178.034 22.16 177.704 22.16C177.367 22.16 177.07 22.2333 176.813 22.38C176.564 22.5267 176.366 22.732 176.219 22.996C176.08 23.2527 176.01 23.557 176.01 23.909V24.129C176.01 24.481 176.091 24.7927 176.252 25.064C176.413 25.3353 176.641 25.5443 176.934 25.691C177.227 25.8377 177.565 25.911 177.946 25.911C178.276 25.911 178.573 25.8597 178.837 25.757C179.101 25.6543 179.336 25.493 179.541 25.273L180.278 26.12C180.014 26.428 179.68 26.6663 179.277 26.835C178.881 26.9963 178.426 27.077 177.913 27.077ZM181.245 26.989L181.311 25.834C181.362 25.8413 181.41 25.8487 181.454 25.856C181.498 25.8633 181.538 25.867 181.575 25.867C181.802 25.867 181.978 25.7973 182.103 25.658C182.227 25.5187 182.319 25.3317 182.378 25.097C182.444 24.855 182.488 24.5873 182.51 24.294C182.539 23.9933 182.561 23.6927 182.576 23.392L182.675 21.126H187.427V27H186.052V21.918L186.371 22.292H183.577L183.874 21.907L183.797 23.458C183.775 23.9787 183.731 24.4627 183.665 24.91C183.606 25.35 183.511 25.735 183.379 26.065C183.254 26.395 183.078 26.6517 182.851 26.835C182.631 27.0183 182.348 27.11 182.004 27.11C181.894 27.11 181.773 27.099 181.641 27.077C181.516 27.055 181.384 27.0257 181.245 26.989ZM192.226 23.062C192.982 23.062 193.557 23.2307 193.953 23.568C194.349 23.9053 194.547 24.382 194.547 24.998C194.547 25.636 194.327 26.1347 193.887 26.494C193.447 26.846 192.828 27.0183 192.028 27.011L189.278 27V21.126H190.653V23.051L192.226 23.062ZM191.907 25.999C192.311 26.0063 192.619 25.922 192.831 25.746C193.044 25.57 193.15 25.3133 193.15 24.976C193.15 24.6387 193.044 24.3967 192.831 24.25C192.626 24.096 192.318 24.0153 191.907 24.008L190.653 23.997V25.988L191.907 25.999ZM198.429 27.077C197.813 27.077 197.263 26.9487 196.779 26.692C196.302 26.428 195.928 26.0687 195.657 25.614C195.386 25.1593 195.25 24.6423 195.25 24.063C195.25 23.4763 195.386 22.9593 195.657 22.512C195.928 22.0573 196.302 21.7017 196.779 21.445C197.263 21.1883 197.813 21.06 198.429 21.06C199.001 21.06 199.503 21.1773 199.936 21.412C200.376 21.6393 200.71 21.9767 200.937 22.424L199.881 23.04C199.705 22.7613 199.489 22.556 199.232 22.424C198.983 22.292 198.711 22.226 198.418 22.226C198.081 22.226 197.776 22.2993 197.505 22.446C197.234 22.5927 197.021 22.8053 196.867 23.084C196.713 23.3553 196.636 23.6817 196.636 24.063C196.636 24.4443 196.713 24.7743 196.867 25.053C197.021 25.3243 197.234 25.5333 197.505 25.68C197.776 25.8267 198.081 25.9 198.418 25.9C198.711 25.9 198.983 25.834 199.232 25.702C199.489 25.57 199.705 25.3647 199.881 25.086L200.937 25.702C200.71 26.142 200.376 26.483 199.936 26.725C199.503 26.9597 199.001 27.077 198.429 27.077ZM203.326 27V21.962L203.645 22.292H201.258V21.126H206.758V22.292H204.382L204.701 21.962V27H203.326ZM207.755 27V21.126H210.626C211.337 21.126 211.895 21.258 212.298 21.522C212.709 21.786 212.914 22.16 212.914 22.644C212.914 23.1207 212.723 23.4947 212.342 23.766C211.961 24.03 211.455 24.162 210.824 24.162L210.989 23.821C211.7 23.821 212.228 23.953 212.573 24.217C212.925 24.4737 213.101 24.8513 213.101 25.35C213.101 25.8707 212.907 26.2777 212.518 26.571C212.129 26.857 211.539 27 210.747 27H207.755ZM209.064 25.999H210.637C211.011 25.999 211.293 25.9403 211.484 25.823C211.675 25.6983 211.77 25.5113 211.77 25.262C211.77 24.998 211.682 24.8037 211.506 24.679C211.33 24.5543 211.055 24.492 210.681 24.492H209.064V25.999ZM209.064 23.579H210.505C210.857 23.579 211.121 23.5167 211.297 23.392C211.48 23.26 211.572 23.0767 211.572 22.842C211.572 22.6 211.48 22.4203 211.297 22.303C211.121 22.1857 210.857 22.127 210.505 22.127H209.064V23.579ZM217.184 27.077C216.582 27.077 216.047 26.9487 215.578 26.692C215.108 26.428 214.738 26.0687 214.467 25.614C214.195 25.1593 214.06 24.6423 214.06 24.063C214.06 23.4763 214.195 22.9593 214.467 22.512C214.738 22.0573 215.108 21.7017 215.578 21.445C216.047 21.1883 216.582 21.06 217.184 21.06C217.792 21.06 218.331 21.1883 218.801 21.445C219.277 21.7017 219.648 22.0537 219.912 22.501C220.183 22.9483 220.319 23.469 220.319 24.063C220.319 24.6423 220.183 25.1593 219.912 25.614C219.648 26.0687 219.277 26.428 218.801 26.692C218.331 26.9487 217.792 27.077 217.184 27.077ZM217.184 25.9C217.521 25.9 217.822 25.8267 218.086 25.68C218.35 25.5333 218.555 25.3207 218.702 25.042C218.856 24.7633 218.933 24.437 218.933 24.063C218.933 23.6817 218.856 23.3553 218.702 23.084C218.555 22.8053 218.35 22.5927 218.086 22.446C217.822 22.2993 217.525 22.226 217.195 22.226C216.857 22.226 216.557 22.2993 216.293 22.446C216.036 22.5927 215.831 22.8053 215.677 23.084C215.523 23.3553 215.446 23.6817 215.446 24.063C215.446 24.437 215.523 24.7633 215.677 25.042C215.831 25.3207 216.036 25.5333 216.293 25.68C216.557 25.8267 216.854 25.9 217.184 25.9ZM228.93 27L226.807 24.184L227.929 23.491L230.547 27H228.93ZM224.717 27V21.126H226.092V27H224.717ZM225.685 24.646V23.502H227.676V24.646H225.685ZM228.061 24.228L226.774 24.074L228.93 21.126H230.404L228.061 24.228ZM233.941 27.077C233.34 27.077 232.805 26.9487 232.335 26.692C231.866 26.428 231.496 26.0687 231.224 25.614C230.953 25.1593 230.817 24.6423 230.817 24.063C230.817 23.4763 230.953 22.9593 231.224 22.512C231.496 22.0573 231.866 21.7017 232.335 21.445C232.805 21.1883 233.34 21.06 233.941 21.06C234.55 21.06 235.089 21.1883 235.558 21.445C236.035 21.7017 236.405 22.0537 236.669 22.501C236.941 22.9483 237.076 23.469 237.076 24.063C237.076 24.6423 236.941 25.1593 236.669 25.614C236.405 26.0687 236.035 26.428 235.558 26.692C235.089 26.9487 234.55 27.077 233.941 27.077ZM233.941 25.9C234.279 25.9 234.579 25.8267 234.843 25.68C235.107 25.5333 235.313 25.3207 235.459 25.042C235.613 24.7633 235.69 24.437 235.69 24.063C235.69 23.6817 235.613 23.3553 235.459 23.084C235.313 22.8053 235.107 22.5927 234.843 22.446C234.579 22.2993 234.282 22.226 233.952 22.226C233.615 22.226 233.314 22.2993 233.05 22.446C232.794 22.5927 232.588 22.8053 232.434 23.084C232.28 23.3553 232.203 23.6817 232.203 24.063C232.203 24.437 232.28 24.7633 232.434 25.042C232.588 25.3207 232.794 25.5333 233.05 25.68C233.314 25.8267 233.611 25.9 233.941 25.9ZM239.441 27V21.962L239.76 22.292H237.373V21.126H242.873V22.292H240.497L240.816 21.962V27H239.441ZM245.177 27V21.962L245.496 22.292H243.109V21.126H248.609V22.292H246.233L246.552 21.962V27H245.177ZM252.088 27.077C251.435 27.077 250.863 26.9487 250.372 26.692C249.888 26.428 249.51 26.0687 249.239 25.614C248.975 25.1593 248.843 24.6423 248.843 24.063C248.843 23.4763 248.971 22.9593 249.228 22.512C249.492 22.0573 249.851 21.7017 250.306 21.445C250.768 21.1883 251.292 21.06 251.879 21.06C252.451 21.06 252.96 21.1847 253.408 21.434C253.855 21.6833 254.207 22.0353 254.464 22.49C254.72 22.9447 254.849 23.48 254.849 24.096C254.849 24.1547 254.845 24.2207 254.838 24.294C254.838 24.3673 254.834 24.437 254.827 24.503H249.932V23.59H254.101L253.562 23.876C253.569 23.5387 253.499 23.2417 253.353 22.985C253.206 22.7283 253.004 22.5267 252.748 22.38C252.498 22.2333 252.209 22.16 251.879 22.16C251.541 22.16 251.244 22.2333 250.988 22.38C250.738 22.5267 250.54 22.732 250.394 22.996C250.254 23.2527 250.185 23.557 250.185 23.909V24.129C250.185 24.481 250.265 24.7927 250.427 25.064C250.588 25.3353 250.815 25.5443 251.109 25.691C251.402 25.8377 251.739 25.911 252.121 25.911C252.451 25.911 252.748 25.8597 253.012 25.757C253.276 25.6543 253.51 25.493 253.716 25.273L254.453 26.12C254.189 26.428 253.855 26.6663 253.452 26.835C253.056 26.9963 252.601 27.077 252.088 27.077ZM260.304 26.362V22.292H258.049L258.016 23.238C258.001 23.5753 257.979 23.9017 257.95 24.217C257.92 24.525 257.873 24.811 257.807 25.075C257.741 25.3317 257.645 25.5443 257.521 25.713C257.396 25.8817 257.231 25.9917 257.026 26.043L255.662 25.834C255.882 25.834 256.058 25.7643 256.19 25.625C256.329 25.4783 256.435 25.2803 256.509 25.031C256.589 24.7743 256.648 24.4847 256.685 24.162C256.721 23.832 256.747 23.491 256.762 23.139L256.839 21.126H261.679V26.362H260.304ZM255.453 28.309V25.834H262.548V28.309H261.261V27H256.729V28.309H255.453ZM270.783 27L269.067 24.184L270.189 23.491L272.422 27H270.783ZM267.956 24.646V23.502H269.925V24.646H267.956ZM270.321 24.228L269.023 24.074L270.805 21.126H272.268L270.321 24.228ZM264.579 27H262.951L265.173 23.491L266.295 24.184L264.579 27ZM268.363 27H266.999V21.126H268.363V27ZM267.406 24.646H265.448V23.502H267.406V24.646ZM265.041 24.228L263.094 21.126H264.557L266.328 24.074L265.041 24.228ZM275.989 27.077C275.337 27.077 274.765 26.9487 274.273 26.692C273.789 26.428 273.412 26.0687 273.14 25.614C272.876 25.1593 272.744 24.6423 272.744 24.063C272.744 23.4763 272.873 22.9593 273.129 22.512C273.393 22.0573 273.753 21.7017 274.207 21.445C274.669 21.1883 275.194 21.06 275.78 21.06C276.352 21.06 276.862 21.1847 277.309 21.434C277.757 21.6833 278.109 22.0353 278.365 22.49C278.622 22.9447 278.75 23.48 278.75 24.096C278.75 24.1547 278.747 24.2207 278.739 24.294C278.739 24.3673 278.736 24.437 278.728 24.503H273.833V23.59H278.002L277.463 23.876C277.471 23.5387 277.401 23.2417 277.254 22.985C277.108 22.7283 276.906 22.5267 276.649 22.38C276.4 22.2333 276.11 22.16 275.78 22.16C275.443 22.16 275.146 22.2333 274.889 22.38C274.64 22.5267 274.442 22.732 274.295 22.996C274.156 23.2527 274.086 23.557 274.086 23.909V24.129C274.086 24.481 274.167 24.7927 274.328 25.064C274.49 25.3353 274.717 25.5443 275.01 25.691C275.304 25.8377 275.641 25.911 276.022 25.911C276.352 25.911 276.649 25.8597 276.913 25.757C277.177 25.6543 277.412 25.493 277.617 25.273L278.354 26.12C278.09 26.428 277.757 26.6663 277.353 26.835C276.957 26.9963 276.503 27.077 275.989 27.077ZM280.254 27V21.126H281.629V24.998L284.874 21.126H286.128V27H284.753V23.128L281.519 27H280.254ZM283.103 20.433C282.516 20.433 282.065 20.2973 281.75 20.026C281.435 19.7473 281.273 19.344 281.266 18.816H282.179C282.186 19.08 282.267 19.289 282.421 19.443C282.582 19.597 282.806 19.674 283.092 19.674C283.371 19.674 283.591 19.597 283.752 19.443C283.921 19.289 284.009 19.08 284.016 18.816H284.951C284.944 19.344 284.779 19.7473 284.456 20.026C284.141 20.2973 283.69 20.433 283.103 20.433ZM133.924 40V34.126H135.299V37.998L138.544 34.126H139.798V40H138.423V36.128L135.189 40H133.924ZM143.431 40.099C143.974 40.099 144.454 40.022 144.872 39.868C145.298 39.714 145.631 39.5013 145.873 39.23C146.115 38.9513 146.236 38.6323 146.236 38.273C146.236 37.8257 146.049 37.4737 145.675 37.217C145.301 36.953 144.788 36.821 144.135 36.821L144.091 37.118C144.473 37.118 144.81 37.0557 145.103 36.931C145.404 36.8063 145.639 36.634 145.807 36.414C145.983 36.1867 146.071 35.9337 146.071 35.655C146.071 35.3177 145.95 35.0243 145.708 34.775C145.466 34.5257 145.136 34.335 144.718 34.203C144.3 34.071 143.824 34.016 143.288 34.038C142.936 34.0453 142.581 34.0967 142.221 34.192C141.869 34.28 141.506 34.4083 141.132 34.577L141.484 35.589C141.807 35.4497 142.122 35.3433 142.43 35.27C142.746 35.1967 143.05 35.16 143.343 35.16C143.622 35.16 143.86 35.1893 144.058 35.248C144.256 35.2993 144.407 35.38 144.509 35.49C144.619 35.5927 144.674 35.7137 144.674 35.853C144.674 35.9923 144.63 36.1133 144.542 36.216C144.454 36.3187 144.326 36.3957 144.157 36.447C143.996 36.4983 143.798 36.524 143.563 36.524H142.54V37.448H143.673C144.047 37.448 144.333 37.5103 144.531 37.635C144.737 37.7523 144.839 37.9283 144.839 38.163C144.839 38.3243 144.777 38.4673 144.652 38.592C144.535 38.7167 144.366 38.812 144.146 38.878C143.926 38.9367 143.662 38.966 143.354 38.966C142.995 38.966 142.636 38.922 142.276 38.834C141.917 38.746 141.594 38.6213 141.308 38.46L140.923 39.483C141.275 39.681 141.668 39.835 142.1 39.945C142.54 40.0477 142.984 40.099 143.431 40.099ZM154.906 40L152.783 37.184L153.905 36.491L156.523 40H154.906ZM150.693 40V34.126H152.068V40H150.693ZM151.661 37.646V36.502H153.652V37.646H151.661ZM154.037 37.228L152.75 37.074L154.906 34.126H156.38L154.037 37.228ZM157.492 40V34.126H158.867V37.998L162.112 34.126H163.366V40H161.991V36.128L158.757 40H157.492ZM168.472 40.077C167.995 40.077 167.559 39.967 167.163 39.747C166.774 39.527 166.463 39.197 166.228 38.757C166.001 38.3097 165.887 37.745 165.887 37.063C165.887 36.3737 165.997 35.809 166.217 35.369C166.444 34.929 166.752 34.6027 167.141 34.39C167.53 34.17 167.973 34.06 168.472 34.06C169.051 34.06 169.561 34.1847 170.001 34.434C170.448 34.6833 170.8 35.0317 171.057 35.479C171.321 35.9263 171.453 36.4543 171.453 37.063C171.453 37.6717 171.321 38.2033 171.057 38.658C170.8 39.1053 170.448 39.4537 170.001 39.703C169.561 39.9523 169.051 40.077 168.472 40.077ZM165.216 42.134V34.126H166.525V35.512L166.481 37.074L166.591 38.636V42.134H165.216ZM168.318 38.9C168.648 38.9 168.941 38.8267 169.198 38.68C169.462 38.5333 169.671 38.3207 169.825 38.042C169.979 37.7633 170.056 37.437 170.056 37.063C170.056 36.6817 169.979 36.3553 169.825 36.084C169.671 35.8053 169.462 35.5927 169.198 35.446C168.941 35.2993 168.648 35.226 168.318 35.226C167.988 35.226 167.691 35.2993 167.427 35.446C167.163 35.5927 166.954 35.8053 166.8 36.084C166.646 36.3553 166.569 36.6817 166.569 37.063C166.569 37.437 166.646 37.7633 166.8 38.042C166.954 38.3207 167.163 38.5333 167.427 38.68C167.691 38.8267 167.988 38.9 168.318 38.9ZM172.821 40V34.126H178.453V40H177.089V34.973L177.408 35.292H173.877L174.196 34.973V40H172.821ZM180.309 40V34.126H181.684V37.998L184.929 34.126H186.183V40H184.808V36.128L181.574 40H180.309ZM191.739 37.679C191.461 37.811 191.164 37.921 190.848 38.009C190.54 38.0897 190.214 38.13 189.869 38.13C189.129 38.13 188.553 37.9577 188.142 37.613C187.732 37.2683 187.526 36.733 187.526 36.007V34.126H188.901V35.919C188.901 36.3077 189.011 36.59 189.231 36.766C189.459 36.942 189.77 37.03 190.166 37.03C190.43 37.03 190.694 36.997 190.958 36.931C191.222 36.865 191.483 36.7733 191.739 36.656V37.679ZM191.64 40V34.126H193.015V40H191.64ZM198.428 40V38.812L198.351 38.559V36.48C198.351 36.0767 198.23 35.765 197.988 35.545C197.746 35.3177 197.38 35.204 196.888 35.204C196.558 35.204 196.232 35.2553 195.909 35.358C195.594 35.4607 195.326 35.6037 195.106 35.787L194.567 34.786C194.883 34.544 195.257 34.3643 195.689 34.247C196.129 34.1223 196.584 34.06 197.053 34.06C197.904 34.06 198.56 34.2653 199.022 34.676C199.492 35.0793 199.726 35.7063 199.726 36.557V40H198.428ZM196.58 40.077C196.14 40.077 195.755 40.0037 195.425 39.857C195.095 39.703 194.839 39.494 194.655 39.23C194.479 38.9587 194.391 38.6543 194.391 38.317C194.391 37.987 194.468 37.69 194.622 37.426C194.784 37.162 195.044 36.953 195.403 36.799C195.763 36.645 196.239 36.568 196.833 36.568H198.538V37.481H196.932C196.463 37.481 196.148 37.558 195.986 37.712C195.825 37.8587 195.744 38.042 195.744 38.262C195.744 38.5113 195.843 38.7093 196.041 38.856C196.239 39.0027 196.514 39.076 196.866 39.076C197.204 39.076 197.504 38.999 197.768 38.845C198.04 38.691 198.234 38.4637 198.351 38.163L198.582 38.988C198.45 39.3327 198.212 39.6003 197.867 39.791C197.53 39.9817 197.101 40.077 196.58 40.077ZM204.468 40V34.126H205.843V37.998L209.088 34.126H210.342V40H208.967V36.128L205.733 40H204.468ZM215.232 40V34.126H219.742V35.292H216.288L216.607 34.984V40H215.232ZM224.306 40V38.812L224.229 38.559V36.48C224.229 36.0767 224.108 35.765 223.866 35.545C223.624 35.3177 223.258 35.204 222.766 35.204C222.436 35.204 222.11 35.2553 221.787 35.358C221.472 35.4607 221.204 35.6037 220.984 35.787L220.445 34.786C220.761 34.544 221.135 34.3643 221.567 34.247C222.007 34.1223 222.462 34.06 222.931 34.06C223.782 34.06 224.438 34.2653 224.9 34.676C225.37 35.0793 225.604 35.7063 225.604 36.557V40H224.306ZM222.458 40.077C222.018 40.077 221.633 40.0037 221.303 39.857C220.973 39.703 220.717 39.494 220.533 39.23C220.357 38.9587 220.269 38.6543 220.269 38.317C220.269 37.987 220.346 37.69 220.5 37.426C220.662 37.162 220.922 36.953 221.281 36.799C221.641 36.645 222.117 36.568 222.711 36.568H224.416V37.481H222.81C222.341 37.481 222.026 37.558 221.864 37.712C221.703 37.8587 221.622 38.042 221.622 38.262C221.622 38.5113 221.721 38.7093 221.919 38.856C222.117 39.0027 222.392 39.076 222.744 39.076C223.082 39.076 223.382 38.999 223.646 38.845C223.918 38.691 224.112 38.4637 224.229 38.163L224.46 38.988C224.328 39.3327 224.09 39.6003 223.745 39.791C223.408 39.9817 222.979 40.077 222.458 40.077ZM229.09 40.099C229.632 40.099 230.113 40.022 230.531 39.868C230.956 39.714 231.29 39.5013 231.532 39.23C231.774 38.9513 231.895 38.6323 231.895 38.273C231.895 37.8257 231.708 37.4737 231.334 37.217C230.96 36.953 230.446 36.821 229.794 36.821L229.75 37.118C230.131 37.118 230.468 37.0557 230.762 36.931C231.062 36.8063 231.297 36.634 231.466 36.414C231.642 36.1867 231.73 35.9337 231.73 35.655C231.73 35.3177 231.609 35.0243 231.367 34.775C231.125 34.5257 230.795 34.335 230.377 34.203C229.959 34.071 229.482 34.016 228.947 34.038C228.595 34.0453 228.239 34.0967 227.88 34.192C227.528 34.28 227.165 34.4083 226.791 34.577L227.143 35.589C227.465 35.4497 227.781 35.3433 228.089 35.27C228.404 35.1967 228.708 35.16 229.002 35.16C229.28 35.16 229.519 35.1893 229.717 35.248C229.915 35.2993 230.065 35.38 230.168 35.49C230.278 35.5927 230.333 35.7137 230.333 35.853C230.333 35.9923 230.289 36.1133 230.201 36.216C230.113 36.3187 229.984 36.3957 229.816 36.447C229.654 36.4983 229.456 36.524 229.222 36.524H228.199V37.448H229.332C229.706 37.448 229.992 37.5103 230.19 37.635C230.395 37.7523 230.498 37.9283 230.498 38.163C230.498 38.3243 230.435 38.4673 230.311 38.592C230.193 38.7167 230.025 38.812 229.805 38.878C229.585 38.9367 229.321 38.966 229.013 38.966C228.653 38.966 228.294 38.922 227.935 38.834C227.575 38.746 227.253 38.6213 226.967 38.46L226.582 39.483C226.934 39.681 227.326 39.835 227.759 39.945C228.199 40.0477 228.642 40.099 229.09 40.099ZM235.929 40.077C235.327 40.077 234.792 39.9487 234.323 39.692C233.853 39.428 233.483 39.0687 233.212 38.614C232.94 38.1593 232.805 37.6423 232.805 37.063C232.805 36.4763 232.94 35.9593 233.212 35.512C233.483 35.0573 233.853 34.7017 234.323 34.445C234.792 34.1883 235.327 34.06 235.929 34.06C236.537 34.06 237.076 34.1883 237.546 34.445C238.022 34.7017 238.393 35.0537 238.657 35.501C238.928 35.9483 239.064 36.469 239.064 37.063C239.064 37.6423 238.928 38.1593 238.657 38.614C238.393 39.0687 238.022 39.428 237.546 39.692C237.076 39.9487 236.537 40.077 235.929 40.077ZM235.929 38.9C236.266 38.9 236.567 38.8267 236.831 38.68C237.095 38.5333 237.3 38.3207 237.447 38.042C237.601 37.7633 237.678 37.437 237.678 37.063C237.678 36.6817 237.601 36.3553 237.447 36.084C237.3 35.8053 237.095 35.5927 236.831 35.446C236.567 35.2993 236.27 35.226 235.94 35.226C235.602 35.226 235.302 35.2993 235.038 35.446C234.781 35.5927 234.576 35.8053 234.422 36.084C234.268 36.3553 234.191 36.6817 234.191 37.063C234.191 37.437 234.268 37.7633 234.422 38.042C234.576 38.3207 234.781 38.5333 235.038 38.68C235.302 38.8267 235.599 38.9 235.929 38.9ZM243.227 40.11C242.743 40.11 242.31 40.0367 241.929 39.89C241.548 39.7433 241.218 39.5197 240.939 39.219C240.668 38.911 240.459 38.5223 240.312 38.053C240.165 37.5837 240.092 37.0263 240.092 36.381C240.092 35.9117 240.132 35.4827 240.213 35.094C240.294 34.7053 240.415 34.357 240.576 34.049C240.737 33.7337 240.939 33.455 241.181 33.213C241.43 32.971 241.72 32.7693 242.05 32.608C242.38 32.4467 242.754 32.322 243.172 32.234L245.9 31.651L246.098 32.883L243.623 33.389C243.484 33.4183 243.315 33.4623 243.117 33.521C242.926 33.5723 242.728 33.653 242.523 33.763C242.325 33.8657 242.138 34.016 241.962 34.214C241.793 34.4047 241.654 34.654 241.544 34.962C241.441 35.2627 241.39 35.6403 241.39 36.095C241.39 36.2343 241.394 36.3407 241.401 36.414C241.416 36.48 241.427 36.5533 241.434 36.634C241.449 36.7073 241.456 36.8173 241.456 36.964L240.939 36.425C241.086 36.051 241.287 35.732 241.544 35.468C241.808 35.1967 242.112 34.9913 242.457 34.852C242.809 34.7053 243.19 34.632 243.601 34.632C244.151 34.632 244.639 34.7457 245.064 34.973C245.489 35.2003 245.823 35.5193 246.065 35.93C246.307 36.3407 246.428 36.8063 246.428 37.327C246.428 37.8697 246.296 38.35 246.032 38.768C245.768 39.186 245.394 39.516 244.91 39.758C244.433 39.9927 243.872 40.11 243.227 40.11ZM243.337 38.999C243.667 38.999 243.957 38.9293 244.206 38.79C244.463 38.6433 244.661 38.4453 244.8 38.196C244.947 37.9467 245.02 37.668 245.02 37.36C245.02 37.052 244.947 36.7843 244.8 36.557C244.661 36.3223 244.463 36.1353 244.206 35.996C243.957 35.8567 243.66 35.787 243.315 35.787C242.985 35.787 242.688 35.853 242.424 35.985C242.167 36.117 241.966 36.3003 241.819 36.535C241.68 36.7623 241.61 37.0263 241.61 37.327C241.61 37.635 241.683 37.9173 241.83 38.174C241.977 38.4307 242.178 38.6323 242.435 38.779C242.699 38.9257 243 38.999 243.337 38.999ZM250.498 40.077C249.845 40.077 249.273 39.9487 248.782 39.692C248.298 39.428 247.92 39.0687 247.649 38.614C247.385 38.1593 247.253 37.6423 247.253 37.063C247.253 36.4763 247.381 35.9593 247.638 35.512C247.902 35.0573 248.261 34.7017 248.716 34.445C249.178 34.1883 249.702 34.06 250.289 34.06C250.861 34.06 251.371 34.1847 251.818 34.434C252.265 34.6833 252.617 35.0353 252.874 35.49C253.131 35.9447 253.259 36.48 253.259 37.096C253.259 37.1547 253.255 37.2207 253.248 37.294C253.248 37.3673 253.244 37.437 253.237 37.503H248.342V36.59H252.511L251.972 36.876C251.979 36.5387 251.91 36.2417 251.763 35.985C251.616 35.7283 251.415 35.5267 251.158 35.38C250.909 35.2333 250.619 35.16 250.289 35.16C249.952 35.16 249.655 35.2333 249.398 35.38C249.149 35.5267 248.951 35.732 248.804 35.996C248.665 36.2527 248.595 36.557 248.595 36.909V37.129C248.595 37.481 248.676 37.7927 248.837 38.064C248.998 38.3353 249.226 38.5443 249.519 38.691C249.812 38.8377 250.15 38.911 250.531 38.911C250.861 38.911 251.158 38.8597 251.422 38.757C251.686 38.6543 251.921 38.493 252.126 38.273L252.863 39.12C252.599 39.428 252.265 39.6663 251.862 39.835C251.466 39.9963 251.011 40.077 250.498 40.077ZM255.758 40V34.962L256.077 35.292H253.69V34.126H259.19V35.292H256.814L257.133 34.962V40H255.758ZM262.548 40.077C261.947 40.077 261.411 39.9487 260.942 39.692C260.473 39.428 260.102 39.0687 259.831 38.614C259.56 38.1593 259.424 37.6423 259.424 37.063C259.424 36.4763 259.56 35.9593 259.831 35.512C260.102 35.0573 260.473 34.7017 260.942 34.445C261.411 34.1883 261.947 34.06 262.548 34.06C263.157 34.06 263.696 34.1883 264.165 34.445C264.642 34.7017 265.012 35.0537 265.276 35.501C265.547 35.9483 265.683 36.469 265.683 37.063C265.683 37.6423 265.547 38.1593 265.276 38.614C265.012 39.0687 264.642 39.428 264.165 39.692C263.696 39.9487 263.157 40.077 262.548 40.077ZM262.548 38.9C262.885 38.9 263.186 38.8267 263.45 38.68C263.714 38.5333 263.919 38.3207 264.066 38.042C264.22 37.7633 264.297 37.437 264.297 37.063C264.297 36.6817 264.22 36.3553 264.066 36.084C263.919 35.8053 263.714 35.5927 263.45 35.446C263.186 35.2993 262.889 35.226 262.559 35.226C262.222 35.226 261.921 35.2993 261.657 35.446C261.4 35.5927 261.195 35.8053 261.041 36.084C260.887 36.3553 260.81 36.6817 260.81 37.063C260.81 37.437 260.887 37.7633 261.041 38.042C261.195 38.3207 261.4 38.5333 261.657 38.68C261.921 38.8267 262.218 38.9 262.548 38.9ZM267.041 40V34.126H268.416V36.513H271.375V34.126H272.75V40H271.375V37.679H268.416V40H267.041ZM278.157 40V38.812L278.08 38.559V36.48C278.08 36.0767 277.959 35.765 277.717 35.545C277.475 35.3177 277.108 35.204 276.617 35.204C276.287 35.204 275.961 35.2553 275.638 35.358C275.323 35.4607 275.055 35.6037 274.835 35.787L274.296 34.786C274.611 34.544 274.985 34.3643 275.418 34.247C275.858 34.1223 276.313 34.06 276.782 34.06C277.633 34.06 278.289 34.2653 278.751 34.676C279.22 35.0793 279.455 35.7063 279.455 36.557V40H278.157ZM276.309 40.077C275.869 40.077 275.484 40.0037 275.154 39.857C274.824 39.703 274.567 39.494 274.384 39.23C274.208 38.9587 274.12 38.6543 274.12 38.317C274.12 37.987 274.197 37.69 274.351 37.426C274.512 37.162 274.773 36.953 275.132 36.799C275.491 36.645 275.968 36.568 276.562 36.568H278.267V37.481H276.661C276.192 37.481 275.876 37.558 275.715 37.712C275.554 37.8587 275.473 38.042 275.473 38.262C275.473 38.5113 275.572 38.7093 275.77 38.856C275.968 39.0027 276.243 39.076 276.595 39.076C276.932 39.076 277.233 38.999 277.497 38.845C277.768 38.691 277.963 38.4637 278.08 38.163L278.311 38.988C278.179 39.3327 277.941 39.6003 277.596 39.791C277.259 39.9817 276.83 40.077 276.309 40.077Z" fill="#1E3859"/>
<path fill-rule="evenodd" clip-rule="evenodd" d="M19.7217 41.2932L6.54644 38.7793L36.6024 4.32713L60.8943 30.9081H80.3689L96.6732 14.7947L117.424 38.6145L103.384 41.2932H124.053L97.4967 11.539L71.805 18.1327L36.8495 0L0 41.2932H19.7217Z" fill="#1E3859"/>
<path fill-rule="evenodd" clip-rule="evenodd" d="M31.9911 41.2107C32.5492 41.7744 32.8854 42.5207 32.9381 43.3125C32.9764 43.5859 32.9764 43.8633 32.9381 44.1367C32.8686 44.5553 32.7294 44.9593 32.5264 45.3318L31.8264 46.1973C31.6579 46.4211 31.4295 46.5925 31.1677 46.6918C30.1594 47.1858 29.0283 47.3721 27.915 47.2275C26.7422 47.2332 25.605 46.8246 24.7036 46.0736V43.4773C25.0844 44.2251 25.6173 44.8849 26.2681 45.4142C26.8458 45.8333 27.532 46.0766 28.2444 46.1148C29.6031 46.1148 30.5089 45.9088 30.9206 45.1258C30.904 45.0442 30.904 44.9601 30.9206 44.8785C30.9674 44.6335 30.9674 44.3818 30.9206 44.1367C30.9387 43.8596 30.9006 43.5816 30.8086 43.3196C30.7166 43.0576 30.5727 42.8168 30.3854 42.6119C29.684 41.9093 28.8953 41.2998 28.0385 40.7986C26.9678 40.1393 25.9614 39.3804 25.0329 38.5321C24.6553 37.8554 24.5381 37.0638 24.7036 36.3067C24.7319 35.8523 24.8657 35.4109 25.0944 35.0174C25.3232 34.6239 25.6404 34.2893 26.0211 34.0401C26.8505 33.4983 27.8322 33.2382 28.8208 33.2983C29.6127 33.3548 30.3907 33.5356 31.1265 33.834C31.7441 34.0813 32.0735 34.3286 32.0323 34.5346C31.9911 34.7407 32.0323 35.4412 32.0323 36.8424C32.0323 36.8424 32.0323 36.8424 31.6206 36.2655C31.2617 35.7417 30.8322 35.2702 30.3442 34.8643C29.8927 34.532 29.3719 34.3066 28.8208 34.2049C28.2325 34.1351 27.6378 34.2658 27.1327 34.5758C26.9105 34.7178 26.7267 34.9124 26.5974 35.1424C26.4682 35.3724 26.3975 35.6307 26.3916 35.8946C26.3806 36.4508 26.5707 36.9923 26.9269 37.4194C27.5362 38.0355 28.2292 38.5627 28.9855 38.9854C30.1364 39.6159 31.2019 40.3915 32.1558 41.2932L31.9911 41.2107ZM44.3429 33.3395C44.0016 33.3534 43.6721 33.4681 43.3959 33.6692C43.1451 33.8868 42.9237 34.1362 42.7372 34.411V44.7549C42.7238 45.1136 42.8408 45.465 43.0665 45.7439C43.1974 45.951 43.3648 46.1326 43.5606 46.2797C43.7856 46.4251 44.0377 46.5232 44.3017 46.5681C44.1425 46.6283 43.9669 46.6283 43.8076 46.5681H39.6904C39.6278 46.6043 39.5568 46.6234 39.4845 46.6234C39.4122 46.6234 39.3412 46.6043 39.2787 46.5681C39.7208 46.5419 40.1413 46.3677 40.4727 46.0736C40.7863 45.917 41.0342 45.6541 41.1726 45.3318V35.1528C41.2193 34.9077 41.2193 34.656 41.1726 34.411C41.061 34.1542 40.908 33.9175 40.7197 33.7104C40.6473 33.6164 40.5535 33.5411 40.446 33.4909C40.3385 33.4407 40.2206 33.417 40.1021 33.4219H44.6723L44.3429 33.3395ZM63.941 40.3865C63.771 40.4036 63.6076 40.4611 63.4643 40.5543C63.3211 40.6475 63.2022 40.7737 63.1176 40.9223C62.8826 41.3207 62.7682 41.7788 62.7882 42.241V44.9197C62.7882 45.3318 62.2941 45.7439 61.2648 46.1973C59.961 46.7358 58.5571 46.9887 57.1476 46.939C55.333 47.0378 53.5454 46.4659 52.1245 45.3318C51.4242 44.7355 50.8679 43.9882 50.4971 43.146C50.1263 42.3039 49.9507 41.3887 49.9835 40.469C49.9807 39.5436 50.1737 38.6282 50.5498 37.783C50.9259 36.9377 51.4766 36.1817 52.1657 35.5649C53.5586 34.2602 55.4049 33.5505 57.3123 33.5868C58.514 33.5682 59.7105 33.7492 60.8531 34.1225C61.277 34.2557 61.6792 34.4501 62.0471 34.6995C62.0902 35.2618 62.0902 35.8267 62.0471 36.3891C62.0471 37.0073 62.0471 37.3369 62.0471 37.3781C62.0926 37.1885 62.0926 36.9908 62.0471 36.8012C61.9423 36.5188 61.7731 36.2649 61.553 36.0594C61.3005 35.7732 61.0095 35.5236 60.6884 35.3176C60.3073 35.0337 59.8924 34.7983 59.4532 34.617C58.7731 34.3459 58.0439 34.2196 57.3123 34.2461C56.6379 34.2232 55.9663 34.3436 55.3418 34.5993C54.7173 34.855 54.154 35.2403 53.6891 35.7297C53.1565 36.3274 52.7477 37.0249 52.4862 37.7818C52.2248 38.5387 52.1158 39.34 52.1657 40.1393C52.1372 41.6711 52.7143 43.1523 53.7714 44.2603C54.2915 44.8249 54.9312 45.266 55.6436 45.5512C56.3559 45.8364 57.123 45.9586 57.8887 45.9088C58.6942 45.9259 59.4942 45.7714 60.2355 45.4555C60.9354 45.167 61.2648 44.8785 61.2648 44.59V42.1586C61.2973 41.7004 61.1973 41.2426 60.9766 40.8399C60.8833 40.6989 60.762 40.5787 60.6204 40.4865C60.4787 40.3944 60.3197 40.3323 60.1532 40.3041H64.2704L63.941 40.3865ZM77.6103 46.6094L72.0932 38.1199V44.8785C72.0616 45.3235 72.1618 45.7679 72.3814 46.156C72.4685 46.3025 72.5881 46.427 72.7308 46.5199C72.8736 46.6128 73.0358 46.6716 73.2049 46.6918H69.9934C70.1625 46.6716 70.3247 46.6128 70.4675 46.5199C70.6102 46.427 70.7298 46.3025 70.8169 46.156C71.0364 45.7679 71.1367 45.3235 71.1051 44.8785V35.5237C71.1051 34.617 71.1051 33.9577 71.1051 33.5456L78.2279 43.8482C79.1337 42.5707 81.5629 39.1502 85.5566 33.628V44.7549C85.5349 45.2043 85.6497 45.6497 85.886 46.0324C85.9678 46.1833 86.086 46.3114 86.2298 46.4049C86.3736 46.4985 86.5385 46.5546 86.7095 46.5681H82.5922C82.7613 46.5479 82.9235 46.4891 83.0663 46.3962C83.209 46.3033 83.3286 46.1789 83.4157 46.0324C83.6352 45.6442 83.7355 45.1998 83.7039 44.7549V37.7903L77.6515 46.6094H77.6103ZM92.0207 46.6094H89.5092C89.6583 46.5924 89.8019 46.5431 89.9299 46.4648C90.0579 46.3865 90.1673 46.2811 90.2503 46.156L90.8267 45.373C91.3806 44.4996 91.8494 43.575 92.2266 42.6119C92.9677 41.0459 93.5441 39.7684 93.9147 38.9029C94.9028 36.4303 95.7674 34.2461 96.5086 32.3092C98.375 36.6776 100.187 40.7986 101.943 44.6725C102.105 45.1515 102.373 45.5881 102.726 45.95C102.995 46.2447 103.359 46.4345 103.755 46.4857H100.585C100.008 44.9609 99.5142 43.7658 99.1848 42.9004H93.3383L92.0207 46.4857V46.6094ZM98.8142 42.1998C98.8142 42.1998 97.9084 40.0156 96.3027 36.0182L93.6676 42.3646H98.8142V42.1998Z" fill="#10274F"/>
<path d="M36.3142 16.6491H31.0853V21.8829H36.3142V16.6491Z" fill="#666666"/>
<path d="M42.3254 16.6491H37.0965V21.8829H42.3254V16.6491Z" fill="#666666"/>
<path d="M36.3142 22.6659H31.0853V27.8997H36.3142V22.6659Z" fill="#666666"/>
<path d="M42.3254 22.6659H37.0965V27.8997H42.3254V22.6659Z" fill="#666666"/>
<path d="M96.3439 26.9518H92.3501V30.9493H96.3439V26.9518Z" fill="#666666"/>
<path d="M100.749 26.9518H96.7556V30.9493H100.749V26.9518Z" fill="#666666"/>
<path d="M96.3439 22.5011H92.3501V26.4985H96.3439V22.5011Z" fill="#666666"/>
<path d="M100.749 22.5011H96.7556V26.4985H100.749V22.5011Z" fill="#666666"/>
<path fill-rule="evenodd" clip-rule="evenodd" d="M40.0609 54.1509C40.0421 54.7305 39.8517 55.2914 39.5138 55.7625C39.176 56.2335 38.7058 56.5935 38.1632 56.7966C37.6206 56.9998 37.0298 57.0369 36.4661 56.9034C35.9023 56.7698 35.3909 56.4716 34.9967 56.0466C34.4147 55.3591 34.1198 54.4735 34.1733 53.574C34.1434 53.1343 34.2008 52.6932 34.3421 52.2758C34.4834 51.8585 34.7059 51.4734 34.9967 51.1425C35.263 50.8629 35.5821 50.6387 35.9354 50.4831C36.2888 50.3275 36.6694 50.2435 37.0553 50.2359C37.7385 50.2205 38.4065 50.4385 38.9493 50.8541C39.432 51.248 39.7541 51.805 39.8551 52.4201H38.8258C38.7517 52.0683 38.5453 51.7584 38.2493 51.5546C37.9075 51.2973 37.4807 51.1795 37.0553 51.225C36.7962 51.2136 36.5381 51.2637 36.302 51.3711C36.0659 51.4786 35.8585 51.6403 35.6966 51.8431C35.3405 52.3472 35.1662 52.9576 35.2026 53.574C35.1726 54.2025 35.3459 54.8239 35.6966 55.346C35.867 55.5497 36.0818 55.7113 36.3246 55.8185C36.5673 55.9257 36.8314 55.9756 37.0965 55.9642C37.5328 55.9866 37.9608 55.8389 38.2905 55.5521C38.5844 55.2533 38.76 54.858 38.7846 54.4394H37.3847V53.574H40.0609V54.2746V54.1509ZM48.8307 53.574H50.1894C50.5022 53.5803 50.8076 53.4784 51.054 53.2855C51.1551 53.1747 51.2327 53.0445 51.2823 52.9029C51.3318 52.7612 51.3522 52.611 51.3422 52.4613C51.3553 52.3077 51.3323 52.1532 51.2751 52.0101C51.2179 51.867 51.1281 51.7393 51.0128 51.6371C50.8959 51.5327 50.7589 51.4533 50.6102 51.4037C50.4616 51.3541 50.3044 51.3353 50.1482 51.3486H48.8307V53.574ZM48.8307 56.912H47.6779V50.3595H50.3129C50.9065 50.3473 51.4868 50.5361 51.9598 50.8953C52.1513 51.0906 52.3011 51.3228 52.4002 51.5778C52.4993 51.8329 52.5456 52.1054 52.5362 52.3789C52.5408 52.7874 52.4264 53.1883 52.2069 53.5328C52.0042 53.8724 51.6806 54.1227 51.3011 54.2333L52.7421 56.8708H51.3834L50.1482 54.3982H48.8307V56.912ZM62.9941 50.2771C63.4132 50.2664 63.8302 50.3413 64.2195 50.4972C64.6089 50.653 64.9624 50.8867 65.2586 51.1838C65.8262 51.8793 66.1192 52.7591 66.082 53.6564C66.129 54.5426 65.8343 55.413 65.2586 56.0878C64.9686 56.3932 64.6161 56.6323 64.2253 56.7888C63.8345 56.9453 63.4145 57.0154 62.9941 56.9945C62.5792 57.0208 62.1637 56.9529 61.7787 56.7959C61.3937 56.6389 61.0491 56.3969 60.7708 56.0878C60.4707 55.7616 60.2394 55.3781 60.0909 54.9603C59.9423 54.5425 59.8795 54.099 59.9061 53.6564C59.8596 52.7506 60.1701 51.8628 60.7708 51.1838C61.0561 50.8837 61.4019 50.6477 61.7851 50.4914C62.1684 50.3351 62.5805 50.2621 62.9941 50.2771ZM62.9941 51.3074C62.735 51.2961 62.4769 51.3461 62.2407 51.4536C62.0046 51.561 61.7972 51.7227 61.6354 51.9255C61.2446 52.4139 61.0533 53.0324 61.1001 53.6564C61.0613 54.2794 61.2517 54.8951 61.6354 55.3872C61.7972 55.5901 62.0046 55.7518 62.2407 55.8592C62.4769 55.9666 62.735 56.0167 62.9941 56.0054C63.2587 56.0137 63.5219 55.9625 63.7642 55.8555C64.0064 55.7485 64.2216 55.5885 64.3939 55.3872C64.7443 54.8804 64.918 54.272 64.888 53.6564C64.9244 53.04 64.7501 52.4296 64.3939 51.9255C64.2216 51.7243 64.0064 51.5643 63.7642 51.4573C63.5219 51.3503 63.2587 51.2991 62.9941 51.3074ZM74.8518 54.5218C74.8331 54.9134 74.9658 55.2971 75.2223 55.5933C75.5309 55.8607 75.9258 56.0071 76.334 56.0054C76.5374 56.0146 76.7406 55.9828 76.9315 55.912C77.1225 55.8412 77.2973 55.7329 77.4456 55.5933C77.586 55.4539 77.6952 55.2864 77.7662 55.1017C77.8371 54.917 77.8682 54.7194 77.8574 54.5218V50.4007H79.0102V54.5218C79.0258 54.8439 78.9712 55.1654 78.8504 55.4643C78.7295 55.7631 78.5452 56.0321 78.3103 56.2527C77.7608 56.7187 77.053 56.9549 76.334 56.912C75.6272 56.9572 74.9313 56.7201 74.3989 56.2527C74.1518 56.0397 73.9566 55.7731 73.8282 55.4731C73.6998 55.1731 73.6415 54.8478 73.6578 54.5218V50.4007H74.8518V54.5218ZM89.4269 50.4007C89.7224 50.3895 90.0171 50.4385 90.2932 50.5448C90.5692 50.651 90.8208 50.8123 91.0326 51.0189C91.2369 51.2221 91.3943 51.4676 91.4939 51.7381C91.5935 52.0086 91.6328 52.2976 91.609 52.5849C91.622 52.8748 91.5737 53.1641 91.4673 53.4339C91.3609 53.7038 91.1987 53.9481 90.9914 54.1509C90.7796 54.3575 90.528 54.5188 90.252 54.6251C89.976 54.7313 89.6812 54.7803 89.3857 54.7691H87.9858V56.912H86.833V50.3595L89.4269 50.4007ZM87.9858 53.8212H89.1387C89.4854 53.8405 89.8257 53.7221 90.0856 53.4916C90.2101 53.3769 90.3078 53.2362 90.3718 53.0795C90.4358 52.9229 90.4647 52.754 90.4562 52.5849C90.4672 52.4192 90.4437 52.253 90.387 52.0969C90.3302 51.9408 90.2416 51.7982 90.1268 51.6783C89.8481 51.4523 89.497 51.3352 89.1387 51.3486H87.9858V53.8212Z" fill="#666666"/>
<path d="M28.9443 53.1207H0V53.9037H28.9443V53.1207Z" fill="#666666"/>
<path d="M125 53.1207H96.0557V53.9037H125V53.1207Z" fill="#666666"/>
</svg>
