<svg width="302" height="57" viewBox="0 0 302 57" fill="none" xmlns="http://www.w3.org/2000/svg">
<path d="M145.62 27.11C145.033 27.11 144.487 27.0147 143.981 26.824C143.482 26.626 143.046 26.351 142.672 25.999C142.305 25.6397 142.019 25.218 141.814 24.734C141.609 24.25 141.506 23.722 141.506 23.15C141.506 22.578 141.609 22.05 141.814 21.566C142.019 21.082 142.309 20.664 142.683 20.312C143.057 19.9527 143.493 19.6777 143.992 19.487C144.491 19.289 145.037 19.19 145.631 19.19C146.262 19.19 146.837 19.3 147.358 19.52C147.879 19.7327 148.319 20.0517 148.678 20.477L147.754 21.346C147.475 21.0453 147.164 20.8217 146.819 20.675C146.474 20.521 146.1 20.444 145.697 20.444C145.294 20.444 144.923 20.51 144.586 20.642C144.256 20.774 143.966 20.961 143.717 21.203C143.475 21.445 143.284 21.731 143.145 22.061C143.013 22.391 142.947 22.754 142.947 23.15C142.947 23.546 143.013 23.909 143.145 24.239C143.284 24.569 143.475 24.855 143.717 25.097C143.966 25.339 144.256 25.526 144.586 25.658C144.923 25.79 145.294 25.856 145.697 25.856C146.1 25.856 146.474 25.7827 146.819 25.636C147.164 25.482 147.475 25.251 147.754 24.943L148.678 25.823C148.319 26.241 147.879 26.56 147.358 26.78C146.837 27 146.258 27.11 145.62 27.11ZM150.912 27V21.962L151.231 22.292H148.844V21.126H154.344V22.292H151.968L152.287 21.962V27H150.912ZM158.597 27.077C158.12 27.077 157.684 26.967 157.288 26.747C156.899 26.527 156.588 26.197 156.353 25.757C156.126 25.3097 156.012 24.745 156.012 24.063C156.012 23.3737 156.122 22.809 156.342 22.369C156.569 21.929 156.877 21.6027 157.266 21.39C157.655 21.17 158.098 21.06 158.597 21.06C159.176 21.06 159.686 21.1847 160.126 21.434C160.573 21.6833 160.925 22.0317 161.182 22.479C161.446 22.9263 161.578 23.4543 161.578 24.063C161.578 24.6717 161.446 25.2033 161.182 25.658C160.925 26.1053 160.573 26.4537 160.126 26.703C159.686 26.9523 159.176 27.077 158.597 27.077ZM155.341 29.134V21.126H156.65V22.512L156.606 24.074L156.716 25.636V29.134H155.341ZM158.443 25.9C158.773 25.9 159.066 25.8267 159.323 25.68C159.587 25.5333 159.796 25.3207 159.95 25.042C160.104 24.7633 160.181 24.437 160.181 24.063C160.181 23.6817 160.104 23.3553 159.95 23.084C159.796 22.8053 159.587 22.5927 159.323 22.446C159.066 22.2993 158.773 22.226 158.443 22.226C158.113 22.226 157.816 22.2993 157.552 22.446C157.288 22.5927 157.079 22.8053 156.925 23.084C156.771 23.3553 156.694 23.6817 156.694 24.063C156.694 24.437 156.771 24.7633 156.925 25.042C157.079 25.3207 157.288 25.5333 157.552 25.68C157.816 25.8267 158.113 25.9 158.443 25.9ZM165.564 27.077C164.963 27.077 164.428 26.9487 163.958 26.692C163.489 26.428 163.119 26.0687 162.847 25.614C162.576 25.1593 162.44 24.6423 162.44 24.063C162.44 23.4763 162.576 22.9593 162.847 22.512C163.119 22.0573 163.489 21.7017 163.958 21.445C164.428 21.1883 164.963 21.06 165.564 21.06C166.173 21.06 166.712 21.1883 167.181 21.445C167.658 21.7017 168.028 22.0537 168.292 22.501C168.564 22.9483 168.699 23.469 168.699 24.063C168.699 24.6423 168.564 25.1593 168.292 25.614C168.028 26.0687 167.658 26.428 167.181 26.692C166.712 26.9487 166.173 27.077 165.564 27.077ZM165.564 25.9C165.902 25.9 166.202 25.8267 166.466 25.68C166.73 25.5333 166.936 25.3207 167.082 25.042C167.236 24.7633 167.313 24.437 167.313 24.063C167.313 23.6817 167.236 23.3553 167.082 23.084C166.936 22.8053 166.73 22.5927 166.466 22.446C166.202 22.2993 165.905 22.226 165.575 22.226C165.238 22.226 164.937 22.2993 164.673 22.446C164.417 22.5927 164.211 22.8053 164.057 23.084C163.903 23.3553 163.826 23.6817 163.826 24.063C163.826 24.437 163.903 24.7633 164.057 25.042C164.211 25.3207 164.417 25.5333 164.673 25.68C164.937 25.8267 165.234 25.9 165.564 25.9ZM170.058 27V21.126H171.433V24.998L174.678 21.126H175.932V27H174.557V23.128L171.323 27H170.058ZM179.002 27V21.962L179.321 22.292H176.934V21.126H182.434V22.292H180.058L180.377 21.962V27H179.002ZM185.913 27.077C185.26 27.077 184.688 26.9487 184.197 26.692C183.713 26.428 183.335 26.0687 183.064 25.614C182.8 25.1593 182.668 24.6423 182.668 24.063C182.668 23.4763 182.796 22.9593 183.053 22.512C183.317 22.0573 183.676 21.7017 184.131 21.445C184.593 21.1883 185.117 21.06 185.704 21.06C186.276 21.06 186.786 21.1847 187.233 21.434C187.68 21.6833 188.032 22.0353 188.289 22.49C188.546 22.9447 188.674 23.48 188.674 24.096C188.674 24.1547 188.67 24.2207 188.663 24.294C188.663 24.3673 188.659 24.437 188.652 24.503H183.757V23.59H187.926L187.387 23.876C187.394 23.5387 187.325 23.2417 187.178 22.985C187.031 22.7283 186.83 22.5267 186.573 22.38C186.324 22.2333 186.034 22.16 185.704 22.16C185.367 22.16 185.07 22.2333 184.813 22.38C184.564 22.5267 184.366 22.732 184.219 22.996C184.08 23.2527 184.01 23.557 184.01 23.909V24.129C184.01 24.481 184.091 24.7927 184.252 25.064C184.413 25.3353 184.641 25.5443 184.934 25.691C185.227 25.8377 185.565 25.911 185.946 25.911C186.276 25.911 186.573 25.8597 186.837 25.757C187.101 25.6543 187.336 25.493 187.541 25.273L188.278 26.12C188.014 26.428 187.68 26.6663 187.277 26.835C186.881 26.9963 186.426 27.077 185.913 27.077ZM189.245 26.989L189.311 25.834C189.362 25.8413 189.41 25.8487 189.454 25.856C189.498 25.8633 189.538 25.867 189.575 25.867C189.802 25.867 189.978 25.7973 190.103 25.658C190.227 25.5187 190.319 25.3317 190.378 25.097C190.444 24.855 190.488 24.5873 190.51 24.294C190.539 23.9933 190.561 23.6927 190.576 23.392L190.675 21.126H195.427V27H194.052V21.918L194.371 22.292H191.577L191.874 21.907L191.797 23.458C191.775 23.9787 191.731 24.4627 191.665 24.91C191.606 25.35 191.511 25.735 191.379 26.065C191.254 26.395 191.078 26.6517 190.851 26.835C190.631 27.0183 190.348 27.11 190.004 27.11C189.894 27.11 189.773 27.099 189.641 27.077C189.516 27.055 189.384 27.0257 189.245 26.989ZM200.226 23.062C200.982 23.062 201.557 23.2307 201.953 23.568C202.349 23.9053 202.547 24.382 202.547 24.998C202.547 25.636 202.327 26.1347 201.887 26.494C201.447 26.846 200.828 27.0183 200.028 27.011L197.278 27V21.126H198.653V23.051L200.226 23.062ZM199.907 25.999C200.311 26.0063 200.619 25.922 200.831 25.746C201.044 25.57 201.15 25.3133 201.15 24.976C201.15 24.6387 201.044 24.3967 200.831 24.25C200.626 24.096 200.318 24.0153 199.907 24.008L198.653 23.997V25.988L199.907 25.999ZM206.429 27.077C205.813 27.077 205.263 26.9487 204.779 26.692C204.302 26.428 203.928 26.0687 203.657 25.614C203.386 25.1593 203.25 24.6423 203.25 24.063C203.25 23.4763 203.386 22.9593 203.657 22.512C203.928 22.0573 204.302 21.7017 204.779 21.445C205.263 21.1883 205.813 21.06 206.429 21.06C207.001 21.06 207.503 21.1773 207.936 21.412C208.376 21.6393 208.71 21.9767 208.937 22.424L207.881 23.04C207.705 22.7613 207.489 22.556 207.232 22.424C206.983 22.292 206.711 22.226 206.418 22.226C206.081 22.226 205.776 22.2993 205.505 22.446C205.234 22.5927 205.021 22.8053 204.867 23.084C204.713 23.3553 204.636 23.6817 204.636 24.063C204.636 24.4443 204.713 24.7743 204.867 25.053C205.021 25.3243 205.234 25.5333 205.505 25.68C205.776 25.8267 206.081 25.9 206.418 25.9C206.711 25.9 206.983 25.834 207.232 25.702C207.489 25.57 207.705 25.3647 207.881 25.086L208.937 25.702C208.71 26.142 208.376 26.483 207.936 26.725C207.503 26.9597 207.001 27.077 206.429 27.077ZM211.326 27V21.962L211.645 22.292H209.258V21.126H214.758V22.292H212.382L212.701 21.962V27H211.326ZM215.755 27V21.126H218.626C219.337 21.126 219.895 21.258 220.298 21.522C220.709 21.786 220.914 22.16 220.914 22.644C220.914 23.1207 220.723 23.4947 220.342 23.766C219.961 24.03 219.455 24.162 218.824 24.162L218.989 23.821C219.7 23.821 220.228 23.953 220.573 24.217C220.925 24.4737 221.101 24.8513 221.101 25.35C221.101 25.8707 220.907 26.2777 220.518 26.571C220.129 26.857 219.539 27 218.747 27H215.755ZM217.064 25.999H218.637C219.011 25.999 219.293 25.9403 219.484 25.823C219.675 25.6983 219.77 25.5113 219.77 25.262C219.77 24.998 219.682 24.8037 219.506 24.679C219.33 24.5543 219.055 24.492 218.681 24.492H217.064V25.999ZM217.064 23.579H218.505C218.857 23.579 219.121 23.5167 219.297 23.392C219.48 23.26 219.572 23.0767 219.572 22.842C219.572 22.6 219.48 22.4203 219.297 22.303C219.121 22.1857 218.857 22.127 218.505 22.127H217.064V23.579ZM225.184 27.077C224.582 27.077 224.047 26.9487 223.578 26.692C223.108 26.428 222.738 26.0687 222.467 25.614C222.195 25.1593 222.06 24.6423 222.06 24.063C222.06 23.4763 222.195 22.9593 222.467 22.512C222.738 22.0573 223.108 21.7017 223.578 21.445C224.047 21.1883 224.582 21.06 225.184 21.06C225.792 21.06 226.331 21.1883 226.801 21.445C227.277 21.7017 227.648 22.0537 227.912 22.501C228.183 22.9483 228.319 23.469 228.319 24.063C228.319 24.6423 228.183 25.1593 227.912 25.614C227.648 26.0687 227.277 26.428 226.801 26.692C226.331 26.9487 225.792 27.077 225.184 27.077ZM225.184 25.9C225.521 25.9 225.822 25.8267 226.086 25.68C226.35 25.5333 226.555 25.3207 226.702 25.042C226.856 24.7633 226.933 24.437 226.933 24.063C226.933 23.6817 226.856 23.3553 226.702 23.084C226.555 22.8053 226.35 22.5927 226.086 22.446C225.822 22.2993 225.525 22.226 225.195 22.226C224.857 22.226 224.557 22.2993 224.293 22.446C224.036 22.5927 223.831 22.8053 223.677 23.084C223.523 23.3553 223.446 23.6817 223.446 24.063C223.446 24.437 223.523 24.7633 223.677 25.042C223.831 25.3207 224.036 25.5333 224.293 25.68C224.557 25.8267 224.854 25.9 225.184 25.9ZM236.93 27L234.807 24.184L235.929 23.491L238.547 27H236.93ZM232.717 27V21.126H234.092V27H232.717ZM233.685 24.646V23.502H235.676V24.646H233.685ZM236.061 24.228L234.774 24.074L236.93 21.126H238.404L236.061 24.228ZM241.941 27.077C241.34 27.077 240.805 26.9487 240.335 26.692C239.866 26.428 239.496 26.0687 239.224 25.614C238.953 25.1593 238.817 24.6423 238.817 24.063C238.817 23.4763 238.953 22.9593 239.224 22.512C239.496 22.0573 239.866 21.7017 240.335 21.445C240.805 21.1883 241.34 21.06 241.941 21.06C242.55 21.06 243.089 21.1883 243.558 21.445C244.035 21.7017 244.405 22.0537 244.669 22.501C244.941 22.9483 245.076 23.469 245.076 24.063C245.076 24.6423 244.941 25.1593 244.669 25.614C244.405 26.0687 244.035 26.428 243.558 26.692C243.089 26.9487 242.55 27.077 241.941 27.077ZM241.941 25.9C242.279 25.9 242.579 25.8267 242.843 25.68C243.107 25.5333 243.313 25.3207 243.459 25.042C243.613 24.7633 243.69 24.437 243.69 24.063C243.69 23.6817 243.613 23.3553 243.459 23.084C243.313 22.8053 243.107 22.5927 242.843 22.446C242.579 22.2993 242.282 22.226 241.952 22.226C241.615 22.226 241.314 22.2993 241.05 22.446C240.794 22.5927 240.588 22.8053 240.434 23.084C240.28 23.3553 240.203 23.6817 240.203 24.063C240.203 24.437 240.28 24.7633 240.434 25.042C240.588 25.3207 240.794 25.5333 241.05 25.68C241.314 25.8267 241.611 25.9 241.941 25.9ZM247.441 27V21.962L247.76 22.292H245.373V21.126H250.873V22.292H248.497L248.816 21.962V27H247.441ZM253.177 27V21.962L253.496 22.292H251.109V21.126H256.609V22.292H254.233L254.552 21.962V27H253.177ZM260.088 27.077C259.435 27.077 258.863 26.9487 258.372 26.692C257.888 26.428 257.51 26.0687 257.239 25.614C256.975 25.1593 256.843 24.6423 256.843 24.063C256.843 23.4763 256.971 22.9593 257.228 22.512C257.492 22.0573 257.851 21.7017 258.306 21.445C258.768 21.1883 259.292 21.06 259.879 21.06C260.451 21.06 260.96 21.1847 261.408 21.434C261.855 21.6833 262.207 22.0353 262.464 22.49C262.72 22.9447 262.849 23.48 262.849 24.096C262.849 24.1547 262.845 24.2207 262.838 24.294C262.838 24.3673 262.834 24.437 262.827 24.503H257.932V23.59H262.101L261.562 23.876C261.569 23.5387 261.499 23.2417 261.353 22.985C261.206 22.7283 261.004 22.5267 260.748 22.38C260.498 22.2333 260.209 22.16 259.879 22.16C259.541 22.16 259.244 22.2333 258.988 22.38C258.738 22.5267 258.54 22.732 258.394 22.996C258.254 23.2527 258.185 23.557 258.185 23.909V24.129C258.185 24.481 258.265 24.7927 258.427 25.064C258.588 25.3353 258.815 25.5443 259.109 25.691C259.402 25.8377 259.739 25.911 260.121 25.911C260.451 25.911 260.748 25.8597 261.012 25.757C261.276 25.6543 261.51 25.493 261.716 25.273L262.453 26.12C262.189 26.428 261.855 26.6663 261.452 26.835C261.056 26.9963 260.601 27.077 260.088 27.077ZM268.304 26.362V22.292H266.049L266.016 23.238C266.001 23.5753 265.979 23.9017 265.95 24.217C265.92 24.525 265.873 24.811 265.807 25.075C265.741 25.3317 265.645 25.5443 265.521 25.713C265.396 25.8817 265.231 25.9917 265.026 26.043L263.662 25.834C263.882 25.834 264.058 25.7643 264.19 25.625C264.329 25.4783 264.435 25.2803 264.509 25.031C264.589 24.7743 264.648 24.4847 264.685 24.162C264.721 23.832 264.747 23.491 264.762 23.139L264.839 21.126H269.679V26.362H268.304ZM263.453 28.309V25.834H270.548V28.309H269.261V27H264.729V28.309H263.453ZM278.783 27L277.067 24.184L278.189 23.491L280.422 27H278.783ZM275.956 24.646V23.502H277.925V24.646H275.956ZM278.321 24.228L277.023 24.074L278.805 21.126H280.268L278.321 24.228ZM272.579 27H270.951L273.173 23.491L274.295 24.184L272.579 27ZM276.363 27H274.999V21.126H276.363V27ZM275.406 24.646H273.448V23.502H275.406V24.646ZM273.041 24.228L271.094 21.126H272.557L274.328 24.074L273.041 24.228ZM283.989 27.077C283.337 27.077 282.765 26.9487 282.273 26.692C281.789 26.428 281.412 26.0687 281.14 25.614C280.876 25.1593 280.744 24.6423 280.744 24.063C280.744 23.4763 280.873 22.9593 281.129 22.512C281.393 22.0573 281.753 21.7017 282.207 21.445C282.669 21.1883 283.194 21.06 283.78 21.06C284.352 21.06 284.862 21.1847 285.309 21.434C285.757 21.6833 286.109 22.0353 286.365 22.49C286.622 22.9447 286.75 23.48 286.75 24.096C286.75 24.1547 286.747 24.2207 286.739 24.294C286.739 24.3673 286.736 24.437 286.728 24.503H281.833V23.59H286.002L285.463 23.876C285.471 23.5387 285.401 23.2417 285.254 22.985C285.108 22.7283 284.906 22.5267 284.649 22.38C284.4 22.2333 284.11 22.16 283.78 22.16C283.443 22.16 283.146 22.2333 282.889 22.38C282.64 22.5267 282.442 22.732 282.295 22.996C282.156 23.2527 282.086 23.557 282.086 23.909V24.129C282.086 24.481 282.167 24.7927 282.328 25.064C282.49 25.3353 282.717 25.5443 283.01 25.691C283.304 25.8377 283.641 25.911 284.022 25.911C284.352 25.911 284.649 25.8597 284.913 25.757C285.177 25.6543 285.412 25.493 285.617 25.273L286.354 26.12C286.09 26.428 285.757 26.6663 285.353 26.835C284.957 26.9963 284.503 27.077 283.989 27.077ZM288.254 27V21.126H289.629V24.998L292.874 21.126H294.128V27H292.753V23.128L289.519 27H288.254ZM291.103 20.433C290.516 20.433 290.065 20.2973 289.75 20.026C289.435 19.7473 289.273 19.344 289.266 18.816H290.179C290.186 19.08 290.267 19.289 290.421 19.443C290.582 19.597 290.806 19.674 291.092 19.674C291.371 19.674 291.591 19.597 291.752 19.443C291.921 19.289 292.009 19.08 292.016 18.816H292.951C292.944 19.344 292.779 19.7473 292.456 20.026C292.141 20.2973 291.69 20.433 291.103 20.433ZM141.924 40V34.126H143.299V37.998L146.544 34.126H147.798V40H146.423V36.128L143.189 40H141.924ZM151.431 40.099C151.974 40.099 152.454 40.022 152.872 39.868C153.298 39.714 153.631 39.5013 153.873 39.23C154.115 38.9513 154.236 38.6323 154.236 38.273C154.236 37.8257 154.049 37.4737 153.675 37.217C153.301 36.953 152.788 36.821 152.135 36.821L152.091 37.118C152.473 37.118 152.81 37.0557 153.103 36.931C153.404 36.8063 153.639 36.634 153.807 36.414C153.983 36.1867 154.071 35.9337 154.071 35.655C154.071 35.3177 153.95 35.0243 153.708 34.775C153.466 34.5257 153.136 34.335 152.718 34.203C152.3 34.071 151.824 34.016 151.288 34.038C150.936 34.0453 150.581 34.0967 150.221 34.192C149.869 34.28 149.506 34.4083 149.132 34.577L149.484 35.589C149.807 35.4497 150.122 35.3433 150.43 35.27C150.746 35.1967 151.05 35.16 151.343 35.16C151.622 35.16 151.86 35.1893 152.058 35.248C152.256 35.2993 152.407 35.38 152.509 35.49C152.619 35.5927 152.674 35.7137 152.674 35.853C152.674 35.9923 152.63 36.1133 152.542 36.216C152.454 36.3187 152.326 36.3957 152.157 36.447C151.996 36.4983 151.798 36.524 151.563 36.524H150.54V37.448H151.673C152.047 37.448 152.333 37.5103 152.531 37.635C152.737 37.7523 152.839 37.9283 152.839 38.163C152.839 38.3243 152.777 38.4673 152.652 38.592C152.535 38.7167 152.366 38.812 152.146 38.878C151.926 38.9367 151.662 38.966 151.354 38.966C150.995 38.966 150.636 38.922 150.276 38.834C149.917 38.746 149.594 38.6213 149.308 38.46L148.923 39.483C149.275 39.681 149.668 39.835 150.1 39.945C150.54 40.0477 150.984 40.099 151.431 40.099ZM162.906 40L160.783 37.184L161.905 36.491L164.523 40H162.906ZM158.693 40V34.126H160.068V40H158.693ZM159.661 37.646V36.502H161.652V37.646H159.661ZM162.037 37.228L160.75 37.074L162.906 34.126H164.38L162.037 37.228ZM165.492 40V34.126H166.867V37.998L170.112 34.126H171.366V40H169.991V36.128L166.757 40H165.492ZM176.472 40.077C175.995 40.077 175.559 39.967 175.163 39.747C174.774 39.527 174.463 39.197 174.228 38.757C174.001 38.3097 173.887 37.745 173.887 37.063C173.887 36.3737 173.997 35.809 174.217 35.369C174.444 34.929 174.752 34.6027 175.141 34.39C175.53 34.17 175.973 34.06 176.472 34.06C177.051 34.06 177.561 34.1847 178.001 34.434C178.448 34.6833 178.8 35.0317 179.057 35.479C179.321 35.9263 179.453 36.4543 179.453 37.063C179.453 37.6717 179.321 38.2033 179.057 38.658C178.8 39.1053 178.448 39.4537 178.001 39.703C177.561 39.9523 177.051 40.077 176.472 40.077ZM173.216 42.134V34.126H174.525V35.512L174.481 37.074L174.591 38.636V42.134H173.216ZM176.318 38.9C176.648 38.9 176.941 38.8267 177.198 38.68C177.462 38.5333 177.671 38.3207 177.825 38.042C177.979 37.7633 178.056 37.437 178.056 37.063C178.056 36.6817 177.979 36.3553 177.825 36.084C177.671 35.8053 177.462 35.5927 177.198 35.446C176.941 35.2993 176.648 35.226 176.318 35.226C175.988 35.226 175.691 35.2993 175.427 35.446C175.163 35.5927 174.954 35.8053 174.8 36.084C174.646 36.3553 174.569 36.6817 174.569 37.063C174.569 37.437 174.646 37.7633 174.8 38.042C174.954 38.3207 175.163 38.5333 175.427 38.68C175.691 38.8267 175.988 38.9 176.318 38.9ZM180.821 40V34.126H186.453V40H185.089V34.973L185.408 35.292H181.877L182.196 34.973V40H180.821ZM188.309 40V34.126H189.684V37.998L192.929 34.126H194.183V40H192.808V36.128L189.574 40H188.309ZM199.739 37.679C199.461 37.811 199.164 37.921 198.848 38.009C198.54 38.0897 198.214 38.13 197.869 38.13C197.129 38.13 196.553 37.9577 196.142 37.613C195.732 37.2683 195.526 36.733 195.526 36.007V34.126H196.901V35.919C196.901 36.3077 197.011 36.59 197.231 36.766C197.459 36.942 197.77 37.03 198.166 37.03C198.43 37.03 198.694 36.997 198.958 36.931C199.222 36.865 199.483 36.7733 199.739 36.656V37.679ZM199.64 40V34.126H201.015V40H199.64ZM206.428 40V38.812L206.351 38.559V36.48C206.351 36.0767 206.23 35.765 205.988 35.545C205.746 35.3177 205.38 35.204 204.888 35.204C204.558 35.204 204.232 35.2553 203.909 35.358C203.594 35.4607 203.326 35.6037 203.106 35.787L202.567 34.786C202.883 34.544 203.257 34.3643 203.689 34.247C204.129 34.1223 204.584 34.06 205.053 34.06C205.904 34.06 206.56 34.2653 207.022 34.676C207.492 35.0793 207.726 35.7063 207.726 36.557V40H206.428ZM204.58 40.077C204.14 40.077 203.755 40.0037 203.425 39.857C203.095 39.703 202.839 39.494 202.655 39.23C202.479 38.9587 202.391 38.6543 202.391 38.317C202.391 37.987 202.468 37.69 202.622 37.426C202.784 37.162 203.044 36.953 203.403 36.799C203.763 36.645 204.239 36.568 204.833 36.568H206.538V37.481H204.932C204.463 37.481 204.148 37.558 203.986 37.712C203.825 37.8587 203.744 38.042 203.744 38.262C203.744 38.5113 203.843 38.7093 204.041 38.856C204.239 39.0027 204.514 39.076 204.866 39.076C205.204 39.076 205.504 38.999 205.768 38.845C206.04 38.691 206.234 38.4637 206.351 38.163L206.582 38.988C206.45 39.3327 206.212 39.6003 205.867 39.791C205.53 39.9817 205.101 40.077 204.58 40.077ZM212.468 40V34.126H213.843V37.998L217.088 34.126H218.342V40H216.967V36.128L213.733 40H212.468ZM223.232 40V34.126H227.742V35.292H224.288L224.607 34.984V40H223.232ZM232.306 40V38.812L232.229 38.559V36.48C232.229 36.0767 232.108 35.765 231.866 35.545C231.624 35.3177 231.258 35.204 230.766 35.204C230.436 35.204 230.11 35.2553 229.787 35.358C229.472 35.4607 229.204 35.6037 228.984 35.787L228.445 34.786C228.761 34.544 229.135 34.3643 229.567 34.247C230.007 34.1223 230.462 34.06 230.931 34.06C231.782 34.06 232.438 34.2653 232.9 34.676C233.37 35.0793 233.604 35.7063 233.604 36.557V40H232.306ZM230.458 40.077C230.018 40.077 229.633 40.0037 229.303 39.857C228.973 39.703 228.717 39.494 228.533 39.23C228.357 38.9587 228.269 38.6543 228.269 38.317C228.269 37.987 228.346 37.69 228.5 37.426C228.662 37.162 228.922 36.953 229.281 36.799C229.641 36.645 230.117 36.568 230.711 36.568H232.416V37.481H230.81C230.341 37.481 230.026 37.558 229.864 37.712C229.703 37.8587 229.622 38.042 229.622 38.262C229.622 38.5113 229.721 38.7093 229.919 38.856C230.117 39.0027 230.392 39.076 230.744 39.076C231.082 39.076 231.382 38.999 231.646 38.845C231.918 38.691 232.112 38.4637 232.229 38.163L232.46 38.988C232.328 39.3327 232.09 39.6003 231.745 39.791C231.408 39.9817 230.979 40.077 230.458 40.077ZM237.09 40.099C237.632 40.099 238.113 40.022 238.531 39.868C238.956 39.714 239.29 39.5013 239.532 39.23C239.774 38.9513 239.895 38.6323 239.895 38.273C239.895 37.8257 239.708 37.4737 239.334 37.217C238.96 36.953 238.446 36.821 237.794 36.821L237.75 37.118C238.131 37.118 238.468 37.0557 238.762 36.931C239.062 36.8063 239.297 36.634 239.466 36.414C239.642 36.1867 239.73 35.9337 239.73 35.655C239.73 35.3177 239.609 35.0243 239.367 34.775C239.125 34.5257 238.795 34.335 238.377 34.203C237.959 34.071 237.482 34.016 236.947 34.038C236.595 34.0453 236.239 34.0967 235.88 34.192C235.528 34.28 235.165 34.4083 234.791 34.577L235.143 35.589C235.465 35.4497 235.781 35.3433 236.089 35.27C236.404 35.1967 236.708 35.16 237.002 35.16C237.28 35.16 237.519 35.1893 237.717 35.248C237.915 35.2993 238.065 35.38 238.168 35.49C238.278 35.5927 238.333 35.7137 238.333 35.853C238.333 35.9923 238.289 36.1133 238.201 36.216C238.113 36.3187 237.984 36.3957 237.816 36.447C237.654 36.4983 237.456 36.524 237.222 36.524H236.199V37.448H237.332C237.706 37.448 237.992 37.5103 238.19 37.635C238.395 37.7523 238.498 37.9283 238.498 38.163C238.498 38.3243 238.435 38.4673 238.311 38.592C238.193 38.7167 238.025 38.812 237.805 38.878C237.585 38.9367 237.321 38.966 237.013 38.966C236.653 38.966 236.294 38.922 235.935 38.834C235.575 38.746 235.253 38.6213 234.967 38.46L234.582 39.483C234.934 39.681 235.326 39.835 235.759 39.945C236.199 40.0477 236.642 40.099 237.09 40.099ZM243.929 40.077C243.327 40.077 242.792 39.9487 242.323 39.692C241.853 39.428 241.483 39.0687 241.212 38.614C240.94 38.1593 240.805 37.6423 240.805 37.063C240.805 36.4763 240.94 35.9593 241.212 35.512C241.483 35.0573 241.853 34.7017 242.323 34.445C242.792 34.1883 243.327 34.06 243.929 34.06C244.537 34.06 245.076 34.1883 245.546 34.445C246.022 34.7017 246.393 35.0537 246.657 35.501C246.928 35.9483 247.064 36.469 247.064 37.063C247.064 37.6423 246.928 38.1593 246.657 38.614C246.393 39.0687 246.022 39.428 245.546 39.692C245.076 39.9487 244.537 40.077 243.929 40.077ZM243.929 38.9C244.266 38.9 244.567 38.8267 244.831 38.68C245.095 38.5333 245.3 38.3207 245.447 38.042C245.601 37.7633 245.678 37.437 245.678 37.063C245.678 36.6817 245.601 36.3553 245.447 36.084C245.3 35.8053 245.095 35.5927 244.831 35.446C244.567 35.2993 244.27 35.226 243.94 35.226C243.602 35.226 243.302 35.2993 243.038 35.446C242.781 35.5927 242.576 35.8053 242.422 36.084C242.268 36.3553 242.191 36.6817 242.191 37.063C242.191 37.437 242.268 37.7633 242.422 38.042C242.576 38.3207 242.781 38.5333 243.038 38.68C243.302 38.8267 243.599 38.9 243.929 38.9ZM251.227 40.11C250.743 40.11 250.31 40.0367 249.929 39.89C249.548 39.7433 249.218 39.5197 248.939 39.219C248.668 38.911 248.459 38.5223 248.312 38.053C248.165 37.5837 248.092 37.0263 248.092 36.381C248.092 35.9117 248.132 35.4827 248.213 35.094C248.294 34.7053 248.415 34.357 248.576 34.049C248.737 33.7337 248.939 33.455 249.181 33.213C249.43 32.971 249.72 32.7693 250.05 32.608C250.38 32.4467 250.754 32.322 251.172 32.234L253.9 31.651L254.098 32.883L251.623 33.389C251.484 33.4183 251.315 33.4623 251.117 33.521C250.926 33.5723 250.728 33.653 250.523 33.763C250.325 33.8657 250.138 34.016 249.962 34.214C249.793 34.4047 249.654 34.654 249.544 34.962C249.441 35.2627 249.39 35.6403 249.39 36.095C249.39 36.2343 249.394 36.3407 249.401 36.414C249.416 36.48 249.427 36.5533 249.434 36.634C249.449 36.7073 249.456 36.8173 249.456 36.964L248.939 36.425C249.086 36.051 249.287 35.732 249.544 35.468C249.808 35.1967 250.112 34.9913 250.457 34.852C250.809 34.7053 251.19 34.632 251.601 34.632C252.151 34.632 252.639 34.7457 253.064 34.973C253.489 35.2003 253.823 35.5193 254.065 35.93C254.307 36.3407 254.428 36.8063 254.428 37.327C254.428 37.8697 254.296 38.35 254.032 38.768C253.768 39.186 253.394 39.516 252.91 39.758C252.433 39.9927 251.872 40.11 251.227 40.11ZM251.337 38.999C251.667 38.999 251.957 38.9293 252.206 38.79C252.463 38.6433 252.661 38.4453 252.8 38.196C252.947 37.9467 253.02 37.668 253.02 37.36C253.02 37.052 252.947 36.7843 252.8 36.557C252.661 36.3223 252.463 36.1353 252.206 35.996C251.957 35.8567 251.66 35.787 251.315 35.787C250.985 35.787 250.688 35.853 250.424 35.985C250.167 36.117 249.966 36.3003 249.819 36.535C249.68 36.7623 249.61 37.0263 249.61 37.327C249.61 37.635 249.683 37.9173 249.83 38.174C249.977 38.4307 250.178 38.6323 250.435 38.779C250.699 38.9257 251 38.999 251.337 38.999ZM258.498 40.077C257.845 40.077 257.273 39.9487 256.782 39.692C256.298 39.428 255.92 39.0687 255.649 38.614C255.385 38.1593 255.253 37.6423 255.253 37.063C255.253 36.4763 255.381 35.9593 255.638 35.512C255.902 35.0573 256.261 34.7017 256.716 34.445C257.178 34.1883 257.702 34.06 258.289 34.06C258.861 34.06 259.371 34.1847 259.818 34.434C260.265 34.6833 260.617 35.0353 260.874 35.49C261.131 35.9447 261.259 36.48 261.259 37.096C261.259 37.1547 261.255 37.2207 261.248 37.294C261.248 37.3673 261.244 37.437 261.237 37.503H256.342V36.59H260.511L259.972 36.876C259.979 36.5387 259.91 36.2417 259.763 35.985C259.616 35.7283 259.415 35.5267 259.158 35.38C258.909 35.2333 258.619 35.16 258.289 35.16C257.952 35.16 257.655 35.2333 257.398 35.38C257.149 35.5267 256.951 35.732 256.804 35.996C256.665 36.2527 256.595 36.557 256.595 36.909V37.129C256.595 37.481 256.676 37.7927 256.837 38.064C256.998 38.3353 257.226 38.5443 257.519 38.691C257.812 38.8377 258.15 38.911 258.531 38.911C258.861 38.911 259.158 38.8597 259.422 38.757C259.686 38.6543 259.921 38.493 260.126 38.273L260.863 39.12C260.599 39.428 260.265 39.6663 259.862 39.835C259.466 39.9963 259.011 40.077 258.498 40.077ZM263.758 40V34.962L264.077 35.292H261.69V34.126H267.19V35.292H264.814L265.133 34.962V40H263.758ZM270.548 40.077C269.947 40.077 269.411 39.9487 268.942 39.692C268.473 39.428 268.102 39.0687 267.831 38.614C267.56 38.1593 267.424 37.6423 267.424 37.063C267.424 36.4763 267.56 35.9593 267.831 35.512C268.102 35.0573 268.473 34.7017 268.942 34.445C269.411 34.1883 269.947 34.06 270.548 34.06C271.157 34.06 271.696 34.1883 272.165 34.445C272.642 34.7017 273.012 35.0537 273.276 35.501C273.547 35.9483 273.683 36.469 273.683 37.063C273.683 37.6423 273.547 38.1593 273.276 38.614C273.012 39.0687 272.642 39.428 272.165 39.692C271.696 39.9487 271.157 40.077 270.548 40.077ZM270.548 38.9C270.885 38.9 271.186 38.8267 271.45 38.68C271.714 38.5333 271.919 38.3207 272.066 38.042C272.22 37.7633 272.297 37.437 272.297 37.063C272.297 36.6817 272.22 36.3553 272.066 36.084C271.919 35.8053 271.714 35.5927 271.45 35.446C271.186 35.2993 270.889 35.226 270.559 35.226C270.222 35.226 269.921 35.2993 269.657 35.446C269.4 35.5927 269.195 35.8053 269.041 36.084C268.887 36.3553 268.81 36.6817 268.81 37.063C268.81 37.437 268.887 37.7633 269.041 38.042C269.195 38.3207 269.4 38.5333 269.657 38.68C269.921 38.8267 270.218 38.9 270.548 38.9ZM275.041 40V34.126H276.416V36.513H279.375V34.126H280.75V40H279.375V37.679H276.416V40H275.041ZM286.157 40V38.812L286.08 38.559V36.48C286.08 36.0767 285.959 35.765 285.717 35.545C285.475 35.3177 285.108 35.204 284.617 35.204C284.287 35.204 283.961 35.2553 283.638 35.358C283.323 35.4607 283.055 35.6037 282.835 35.787L282.296 34.786C282.611 34.544 282.985 34.3643 283.418 34.247C283.858 34.1223 284.313 34.06 284.782 34.06C285.633 34.06 286.289 34.2653 286.751 34.676C287.22 35.0793 287.455 35.7063 287.455 36.557V40H286.157ZM284.309 40.077C283.869 40.077 283.484 40.0037 283.154 39.857C282.824 39.703 282.567 39.494 282.384 39.23C282.208 38.9587 282.12 38.6543 282.12 38.317C282.12 37.987 282.197 37.69 282.351 37.426C282.512 37.162 282.773 36.953 283.132 36.799C283.491 36.645 283.968 36.568 284.562 36.568H286.267V37.481H284.661C284.192 37.481 283.876 37.558 283.715 37.712C283.554 37.8587 283.473 38.042 283.473 38.262C283.473 38.5113 283.572 38.7093 283.77 38.856C283.968 39.0027 284.243 39.076 284.595 39.076C284.932 39.076 285.233 38.999 285.497 38.845C285.768 38.691 285.963 38.4637 286.08 38.163L286.311 38.988C286.179 39.3327 285.941 39.6003 285.596 39.791C285.259 39.9817 284.83 40.077 284.309 40.077Z" fill="white"/>
<path fill-rule="evenodd" clip-rule="evenodd" d="M19.7848 41.2932L6.56739 38.7793L36.7196 4.32713L61.0891 30.9081H80.6261L96.9826 14.7947L117.8 38.6145L103.715 41.2932H124.45L97.8087 11.539L72.0348 18.1327L36.9674 0L0 41.2932H19.7848Z" fill="white"/>
<path fill-rule="evenodd" clip-rule="evenodd" d="M32.0935 41.2107C32.6534 41.7744 32.9907 42.5207 33.0435 43.3125C33.0819 43.5859 33.0819 43.8633 33.0435 44.1367C32.9738 44.5553 32.8342 44.9593 32.6304 45.3318L31.9283 46.1973C31.7592 46.4211 31.5301 46.5925 31.2674 46.6918C30.2559 47.1858 29.1212 47.3721 28.0044 47.2275C26.8278 47.2332 25.6869 46.8246 24.7826 46.0736V43.4773C25.1647 44.2251 25.6993 44.8849 26.3522 45.4142C26.9317 45.8333 27.6201 46.0766 28.3348 46.1148C29.6978 46.1148 30.6065 45.9088 31.0196 45.1258C31.0029 45.0442 31.0029 44.9601 31.0196 44.8785C31.0665 44.6335 31.0665 44.3818 31.0196 44.1367C31.0377 43.8596 30.9995 43.5816 30.9072 43.3196C30.8149 43.0576 30.6705 42.8168 30.4826 42.6119C29.779 41.9093 28.9877 41.2998 28.1283 40.7986C27.0541 40.1393 26.0445 39.3804 25.113 38.5321C24.7342 37.8554 24.6167 37.0638 24.7826 36.3067C24.811 35.8523 24.9453 35.4109 25.1747 35.0174C25.4042 34.6239 25.7225 34.2893 26.1043 34.0401C26.9364 33.4983 27.9213 33.2382 28.913 33.2983C29.7074 33.3548 30.488 33.5356 31.2261 33.834C31.8457 34.0813 32.1761 34.3286 32.1348 34.5346C32.0935 34.7407 32.1348 35.4412 32.1348 36.8424C32.1348 36.8424 32.1348 36.8424 31.7217 36.2655C31.3618 35.7417 30.9309 35.2702 30.4413 34.8643C29.9884 34.532 29.4659 34.3066 28.913 34.2049C28.3228 34.1351 27.7262 34.2658 27.2196 34.5758C26.9967 34.7178 26.8122 34.9124 26.6826 35.1424C26.5529 35.3724 26.482 35.6307 26.4761 35.8946C26.465 36.4508 26.6557 36.9923 27.013 37.4194C27.6243 38.0355 28.3196 38.5627 29.0783 38.9854C30.2329 39.6159 31.3017 40.3915 32.2587 41.2932L32.0935 41.2107ZM44.4848 33.3395C44.1424 33.3534 43.8119 33.4681 43.5348 33.6692C43.2832 33.8868 43.0611 34.1362 42.8739 34.411V44.7549C42.8605 45.1136 42.9779 45.465 43.2043 45.7439C43.3356 45.951 43.5036 46.1326 43.7 46.2797C43.9257 46.4251 44.1786 46.5232 44.4435 46.5681C44.2838 46.6283 44.1076 46.6283 43.9478 46.5681H39.8174C39.7546 46.6043 39.6834 46.6234 39.6109 46.6234C39.5384 46.6234 39.4671 46.6043 39.4044 46.5681C39.8479 46.5419 40.2697 46.3677 40.6022 46.0736C40.9168 45.917 41.1656 45.6541 41.3043 45.3318V35.1528C41.3512 34.9077 41.3512 34.656 41.3043 34.411C41.1924 34.1542 41.0389 33.9175 40.85 33.7104C40.7774 33.6164 40.6832 33.5411 40.5754 33.4909C40.4676 33.4407 40.3493 33.417 40.2304 33.4219H44.8152L44.4848 33.3395ZM64.1457 40.3865C63.9751 40.4036 63.8111 40.4611 63.6674 40.5543C63.5237 40.6475 63.4044 40.7737 63.3196 40.9223C63.0838 41.3207 62.969 41.7788 62.9891 42.241V44.9197C62.9891 45.3318 62.4935 45.7439 61.4609 46.1973C60.1529 46.7358 58.7445 46.9887 57.3304 46.939C55.51 47.0378 53.7167 46.4659 52.2913 45.3318C51.5888 44.7355 51.0306 43.9882 50.6587 43.146C50.2867 42.3039 50.1106 41.3887 50.1435 40.469C50.1406 39.5436 50.3342 38.6282 50.7116 37.783C51.0889 36.9377 51.6414 36.1817 52.3326 35.5649C53.73 34.2602 55.5822 33.5505 57.4957 33.5868C58.7013 33.5682 59.9016 33.7492 61.0478 34.1225C61.4731 34.2557 61.8766 34.4501 62.2457 34.6995C62.2889 35.2618 62.2889 35.8267 62.2457 36.3891C62.2457 37.0073 62.2457 37.3369 62.2457 37.3781C62.2913 37.1885 62.2913 36.9908 62.2457 36.8012C62.1405 36.5188 61.9708 36.2649 61.75 36.0594C61.4967 35.7732 61.2048 35.5236 60.8826 35.3176C60.5003 35.0337 60.0841 34.7983 59.6435 34.617C58.9611 34.3459 58.2296 34.2196 57.4957 34.2461C56.8191 34.2232 56.1454 34.3436 55.5189 34.5993C54.8924 34.855 54.3273 35.2403 53.8609 35.7297C53.3266 36.3274 52.9165 37.0249 52.6542 37.7818C52.3919 38.5387 52.2826 39.34 52.3326 40.1393C52.304 41.6711 52.883 43.1523 53.9435 44.2603C54.4653 44.8249 55.107 45.266 55.8216 45.5512C56.5363 45.8364 57.3058 45.9586 58.0739 45.9088C58.882 45.9259 59.6846 45.7714 60.4283 45.4555C61.1304 45.167 61.4609 44.8785 61.4609 44.59V42.1586C61.4935 41.7004 61.3931 41.2426 61.1717 40.8399C61.0781 40.6989 60.9564 40.5787 60.8144 40.4865C60.6723 40.3944 60.5127 40.3323 60.3456 40.3041H64.4761L64.1457 40.3865ZM77.8587 46.6094L72.3239 38.1199V44.8785C72.2922 45.3235 72.3928 45.7679 72.613 46.156C72.7004 46.3025 72.8203 46.427 72.9636 46.5199C73.1068 46.6128 73.2695 46.6716 73.4391 46.6918H70.2174C70.387 46.6716 70.5497 46.6128 70.6929 46.5199C70.8362 46.427 70.9561 46.3025 71.0435 46.156C71.2638 45.7679 71.3643 45.3235 71.3326 44.8785V35.5237C71.3326 34.617 71.3326 33.9577 71.3326 33.5456L78.4783 43.8482C79.387 42.5707 81.8239 39.1502 85.8304 33.628V44.7549C85.8086 45.2043 85.9238 45.6497 86.1609 46.0324C86.2429 46.1833 86.3615 46.3114 86.5057 46.4049C86.65 46.4985 86.8154 46.5546 86.987 46.5681H82.8565C83.0261 46.5479 83.1889 46.4891 83.3321 46.3962C83.4753 46.3033 83.5952 46.1789 83.6826 46.0324C83.9029 45.6442 84.0035 45.1998 83.9717 44.7549V37.7903L77.9 46.6094H77.8587ZM92.3152 46.6094H89.7957C89.9452 46.5924 90.0892 46.5431 90.2177 46.4648C90.3461 46.3865 90.4558 46.2811 90.5391 46.156L91.1174 45.373C91.673 44.4996 92.1433 43.575 92.5217 42.6119C93.2652 41.0459 93.8435 39.7684 94.2152 38.9029C95.2065 36.4303 96.0739 34.2461 96.8174 32.3092C98.6899 36.6776 100.507 40.7986 102.27 44.6725C102.432 45.1515 102.7 45.5881 103.054 45.95C103.324 46.2447 103.69 46.4345 104.087 46.4857H100.907C100.328 44.9609 99.8326 43.7658 99.5022 42.9004H93.637L92.3152 46.4857V46.6094ZM99.1304 42.1998C99.1304 42.1998 98.2217 40.0156 96.6109 36.0182L93.9674 42.3646H99.1304V42.1998Z" fill="white"/>
<path d="M36.4304 16.6491H31.1848V21.8829H36.4304V16.6491Z" fill="white"/>
<path d="M42.4609 16.6491H37.2152V21.8829H42.4609V16.6491Z" fill="white"/>
<path d="M36.4304 22.6659H31.1848V27.8997H36.4304V22.6659Z" fill="white"/>
<path d="M42.4609 22.6659H37.2152V27.8997H42.4609V22.6659Z" fill="white"/>
<path d="M96.6522 26.9518H92.6457V30.9493H96.6522V26.9518Z" fill="white"/>
<path d="M101.072 26.9518H97.0652V30.9493H101.072V26.9518Z" fill="white"/>
<path d="M96.6522 22.5011H92.6457V26.4985H96.6522V22.5011Z" fill="white"/>
<path d="M101.072 22.5011H97.0652V26.4985H101.072V22.5011Z" fill="white"/>
<path fill-rule="evenodd" clip-rule="evenodd" d="M40.1891 54.1509C40.1703 54.7305 39.9793 55.2914 39.6403 55.7625C39.3013 56.2335 38.8297 56.5935 38.2853 56.7966C37.7409 56.9998 37.1483 57.0369 36.5828 56.9034C36.0172 56.7698 35.5041 56.4716 35.1087 56.0466C34.5248 55.3591 34.229 54.4735 34.2826 53.574C34.2526 53.1343 34.3102 52.6932 34.452 52.2758C34.5938 51.8585 34.817 51.4734 35.1087 51.1425C35.3759 50.8629 35.696 50.6387 36.0504 50.4831C36.4049 50.3275 36.7867 50.2435 37.1739 50.2359C37.8593 50.2205 38.5294 50.4385 39.0739 50.8541C39.5581 51.248 39.8813 51.805 39.9826 52.4201H38.95C38.8757 52.0683 38.6686 51.7584 38.3717 51.5546C38.0288 51.2973 37.6006 51.1795 37.1739 51.225C36.914 51.2136 36.655 51.2637 36.4182 51.3711C36.1813 51.4786 35.9732 51.6403 35.8109 51.8431C35.4535 52.3472 35.2788 52.9576 35.3152 53.574C35.2852 54.2025 35.459 54.8239 35.8109 55.346C35.9817 55.5497 36.1973 55.7113 36.4408 55.8185C36.6843 55.9257 36.9493 55.9756 37.2152 55.9642C37.6529 55.9866 38.0823 55.8389 38.413 55.5521C38.7079 55.2533 38.884 54.858 38.9087 54.4394H37.5044V53.574H40.1891V54.2746V54.1509ZM48.987 53.574H50.35C50.6638 53.5803 50.9702 53.4784 51.2174 53.2855C51.3188 53.1747 51.3967 53.0445 51.4464 52.9029C51.4961 52.7612 51.5165 52.611 51.5065 52.4613C51.5196 52.3077 51.4966 52.1532 51.4392 52.0101C51.3818 51.867 51.2917 51.7393 51.1761 51.6371C51.0588 51.5327 50.9213 51.4533 50.7722 51.4037C50.623 51.3541 50.4653 51.3353 50.3087 51.3486H48.987V53.574ZM48.987 56.912H47.8304V50.3595H50.4739C51.0694 50.3473 51.6516 50.5361 52.1261 50.8953C52.3182 51.0906 52.4685 51.3228 52.5679 51.5778C52.6673 51.8329 52.7137 52.1054 52.7044 52.3789C52.709 52.7874 52.5941 53.1883 52.3739 53.5328C52.1706 53.8724 51.8459 54.1227 51.4652 54.2333L52.9109 56.8708H51.5478L50.3087 54.3982H48.987V56.912ZM63.1957 50.2771C63.6162 50.2664 64.0345 50.3413 64.425 50.4972C64.8156 50.653 65.1703 50.8867 65.4674 51.1838C66.0369 51.8793 66.3308 52.7591 66.2935 53.6564C66.3407 54.5426 66.0449 55.413 65.4674 56.0878C65.1765 56.3932 64.8229 56.6323 64.4308 56.7888C64.0387 56.9453 63.6174 57.0154 63.1957 56.9945C62.7794 57.0208 62.3626 56.9529 61.9764 56.7959C61.5902 56.6389 61.2445 56.3969 60.9652 56.0878C60.6642 55.7616 60.4322 55.3781 60.2832 54.9603C60.1341 54.5425 60.0711 54.099 60.0978 53.6564C60.0512 52.7506 60.3626 51.8628 60.9652 51.1838C61.2515 50.8837 61.5983 50.6477 61.9829 50.4914C62.3674 50.3351 62.7807 50.2621 63.1957 50.2771ZM63.1957 51.3074C62.9357 51.2961 62.6768 51.3461 62.4399 51.4536C62.2031 51.561 61.995 51.7227 61.8326 51.9255C61.4406 52.4139 61.2487 53.0324 61.2957 53.6564C61.2567 54.2794 61.4477 54.8951 61.8326 55.3872C61.995 55.5901 62.2031 55.7518 62.4399 55.8592C62.6768 55.9666 62.9357 56.0167 63.1957 56.0054C63.4612 56.0137 63.7252 55.9625 63.9682 55.8555C64.2113 55.7485 64.4272 55.5885 64.6 55.3872C64.9515 54.8804 65.1257 54.272 65.0957 53.6564C65.1321 53.04 64.9573 52.4296 64.6 51.9255C64.4272 51.7243 64.2113 51.5643 63.9682 51.4573C63.7252 51.3503 63.4612 51.2991 63.1957 51.3074ZM75.0913 54.5218C75.0726 54.9134 75.2057 55.2971 75.4631 55.5933C75.7726 55.8607 76.1688 56.0071 76.5783 56.0054C76.7823 56.0146 76.9862 55.9828 77.1777 55.912C77.3692 55.8412 77.5446 55.7329 77.6935 55.5933C77.8343 55.4539 77.9438 55.2864 78.015 55.1017C78.0862 54.917 78.1174 54.7194 78.1065 54.5218V50.4007H79.263V54.5218C79.2787 54.8439 79.224 55.1654 79.1027 55.4643C78.9815 55.7631 78.7966 56.0321 78.5609 56.2527C78.0096 56.7187 77.2995 56.9549 76.5783 56.912C75.8692 56.9572 75.1711 56.7201 74.637 56.2527C74.3891 56.0397 74.1933 55.7731 74.0645 55.4731C73.9356 55.1731 73.8771 54.8478 73.8935 54.5218V50.4007H75.0913V54.5218ZM89.713 50.4007C90.0095 50.3895 90.3052 50.4385 90.5821 50.5448C90.859 50.651 91.1114 50.8123 91.3239 51.0189C91.5289 51.2221 91.6868 51.4676 91.7867 51.7381C91.8866 52.0086 91.926 52.2976 91.9022 52.5849C91.9152 52.8748 91.8668 53.1641 91.76 53.4339C91.6533 53.7038 91.4906 53.9481 91.2826 54.1509C91.0701 54.3575 90.8177 54.5188 90.5408 54.6251C90.2639 54.7313 89.9682 54.7803 89.6717 54.7691H88.2674V56.912H87.1109V50.3595L89.713 50.4007ZM88.2674 53.8212H89.4239C89.7718 53.8405 90.1132 53.7221 90.3739 53.4916C90.4987 53.3769 90.5968 53.2362 90.661 53.0795C90.7252 52.9229 90.7541 52.754 90.7457 52.5849C90.7568 52.4192 90.7331 52.253 90.6762 52.0969C90.6193 51.9408 90.5304 51.7982 90.4152 51.6783C90.1356 51.4523 89.7834 51.3352 89.4239 51.3486H88.2674V53.8212Z" fill="white"/>
<path d="M29.037 53.1207H0V53.9037H29.037V53.1207Z" fill="white"/>
<path d="M125.4 53.1207H96.363V53.9037H125.4V53.1207Z" fill="white"/>
</svg>
