<svg width="40" height="36" viewBox="0 0 40 36" fill="none" xmlns="http://www.w3.org/2000/svg">
<path d="M37.9958 1.41537H1.36088V0H37.9958V1.41537ZM39.3567 1.36088H37.9232V1.37904L37.9414 1.39721V1.41537H37.9595H37.9777H37.9958V1.43353L37.9777 1.41537H37.9958V0H38.141L38.1954 0.0181628H38.268L38.3587 0.0363256L38.4676 0.0726512L38.5402 0.108977L38.5583 0.12714L38.649 0.163465L38.7035 0.199791L38.7579 0.217954L38.8123 0.272442L38.8668 0.308768L38.9031 0.345093L38.9575 0.399139L39.0119 0.435464L39.1208 0.598929L39.1571 0.635255L39.1934 0.689743L39.2297 0.780557L39.2478 0.81644L39.266 0.889091L39.3022 0.998068L39.3204 1.07072L39.3386 1.16153L39.3567 1.21602V1.36088ZM37.9232 34.6391V1.36088H39.3567V34.6391H37.9232ZM37.9958 36V34.5665H37.9777L37.9595 34.5846H37.9414V34.6028L37.9232 34.621V34.6391H39.3567V34.7663L39.3386 34.8385L39.2841 35.0564L39.266 35.1109L39.2478 35.1836L39.2297 35.2017L39.1934 35.2921L39.0482 35.51L38.9575 35.6009L38.9031 35.6372L38.8668 35.6917L38.8123 35.728L38.7579 35.7639L38.649 35.8365L38.5583 35.8729L38.5402 35.891L38.4676 35.9092L38.3587 35.9455L38.268 35.9637L38.1954 35.9818H38.141L38.0684 36H37.9958ZM1.36088 34.5665H37.9958V36H1.36088V34.5665ZM0 34.6391H1.41531V34.621L1.43346 34.6391H1.41531V34.621V34.6028L1.39718 34.5846L1.37903 34.5665H1.36088V36H1.27016L1.21573 35.9818H1.16128L1.07057 35.9637L0.997985 35.9455L0.889119 35.9092L0.816537 35.891L0.780239 35.8729L0.689522 35.8365L0.635089 35.8002L0.598791 35.7639L0.544358 35.728L0.489925 35.6917L0.308477 35.51L0.272179 35.4556L0.217746 35.4011L0.199597 35.3466L0.163313 35.2921L0.127015 35.2017L0.10888 35.1836L0.072582 35.1109L0.054433 35.0564L0 34.8385V34.6391ZM1.41531 1.36088V34.6391H0V1.36088H1.41531ZM1.36088 0V1.41537H1.39718V1.39721H1.41531V1.36088H0V1.16153L0.018149 1.07072L0.0362979 0.998068L0.072582 0.889091L0.10888 0.81644L0.127015 0.780557L0.163313 0.689743L0.199597 0.635255L0.217746 0.598929L0.272179 0.544441L0.344761 0.435464L0.399194 0.399139L0.435492 0.345093L0.544358 0.272442L0.598791 0.217954L0.635089 0.199791L0.689522 0.163465L0.780239 0.12714L0.889119 0.0726512L0.997985 0.0363256L1.07057 0.0181628H1.16128L1.21573 0H1.36088Z" fill="#1F2221"/>
<path fill-rule="evenodd" clip-rule="evenodd" d="M26.5651 3.43025C26.4925 3.55727 26.4562 3.57516 26.3474 3.6296L26.2929 3.75674C26.2022 3.9019 26.1841 3.93812 26.1841 4.13771C26.2022 4.31916 26.2203 4.44618 26.2929 4.59134C26.4018 4.77279 26.5107 4.84565 26.547 4.88194L26.5288 4.86378C26.6014 4.90007 26.6558 4.8997 26.7284 4.93599C26.8554 4.99043 26.801 4.95421 26.8736 5.00864C27.2365 4.91792 30.9381 4.95421 31.5006 5.00864L31.0651 5.38962C30.9925 5.51663 30.9925 5.51683 30.8836 5.58941L30.43 6.04304C30.3574 6.15191 30.3574 6.15208 30.2304 6.22466C30.1941 6.31539 30.2123 6.2788 30.1397 6.36952L29.7768 6.67829C29.7042 6.80531 29.7042 6.80506 29.5953 6.87764L29.1417 7.33126C29.0691 7.44014 29.0691 7.44031 28.9421 7.51289L28.4885 7.96652C28.4159 8.09354 28.4159 8.09329 28.307 8.16587C28.2707 8.25659 28.2889 8.20228 28.1982 8.29301L27.9623 8.52868C27.8897 8.60126 27.926 8.5832 27.8534 8.61949C27.7808 8.72836 27.7808 8.72854 27.6719 8.80112L27.2183 9.25475C27.1457 9.38177 27.1457 9.38152 27.0187 9.4541C26.9824 9.52668 27.0006 9.49051 26.9099 9.58124C26.8736 9.63567 26.8554 9.65392 26.801 9.69021L26.5651 9.90772C26.4925 10.0166 26.4925 10.0168 26.3837 10.0894L25.93 10.543C25.8574 10.6518 25.8574 10.652 25.7304 10.7246C25.6941 10.8153 25.7123 10.7787 25.6397 10.8695L25.2768 11.1782C25.2042 11.3053 25.2042 11.305 25.0953 11.3776L24.6417 11.8312C24.5691 11.9401 24.5691 11.9403 24.4421 12.0128L24.1337 12.3757C24.0429 12.4482 24.0792 12.4302 23.9885 12.4665C23.9159 12.5935 23.9159 12.5932 23.807 12.6658C23.7707 12.7384 23.7889 12.7022 23.7163 12.7748L23.3534 13.1194C23.2808 13.2283 23.2808 13.2285 23.1538 13.3011C23.0813 13.4825 22.9542 13.5371 22.9361 13.8818C22.9361 14.154 23.0086 14.2807 23.0994 14.4803C23.172 14.4985 23.2808 14.5894 23.3171 14.6438C23.5349 14.6982 23.6619 14.7527 23.9159 14.7164C24.0974 14.662 24.1881 14.5893 24.3151 14.553C24.3696 14.4622 24.3695 14.4625 24.4421 14.3899C24.4966 14.3174 24.5147 14.3172 24.5873 14.2628C24.6599 14.1539 24.8413 13.9726 24.9683 13.9C25.0228 13.7911 24.9865 13.8454 25.0772 13.7365C25.1498 13.6821 25.1498 13.682 25.2405 13.6276C25.2768 13.5368 25.3131 13.5189 25.4038 13.4282C25.4945 13.3375 25.5127 13.301 25.6034 13.2647C25.6578 13.1377 25.6216 13.2101 25.7304 13.1013C25.8212 13.0106 25.7667 13.0472 25.8756 12.9927C25.93 12.8839 25.9663 12.8655 26.0389 12.7748C26.1296 12.6841 26.1478 12.6658 26.2566 12.6113C26.3111 12.5025 26.2748 12.5572 26.3655 12.4665C26.4562 12.3576 26.4199 12.3938 26.5288 12.3393C26.5651 12.2486 26.6014 12.2307 26.6921 12.14C26.7828 12.0493 26.801 12.0128 26.8917 11.9765C26.9461 11.9039 26.9461 11.8856 27.0006 11.813C27.0187 11.7949 27.055 11.7586 27.0731 11.7586C27.1276 11.7041 27.0913 11.7404 27.1639 11.7041C27.2183 11.5771 27.3998 11.3957 27.5268 11.3231C27.5631 11.2687 27.5449 11.3053 27.5812 11.2327C27.5994 11.2327 27.6538 11.1782 27.6538 11.1782C27.7264 11.1057 27.7264 11.1055 27.799 11.0693C27.8534 10.9604 27.8897 10.942 27.9804 10.8513C28.053 10.7606 28.0711 10.7246 28.18 10.6883C28.2344 10.5794 28.1981 10.6337 28.2889 10.5248C28.3977 10.4341 28.3252 10.4703 28.4522 10.4158C28.4885 10.307 28.5248 10.3072 28.6155 10.2165C28.7062 10.1258 28.7244 10.0893 28.8151 10.053C28.8877 9.92601 28.9602 9.83546 29.0873 9.78103C29.1417 9.67216 29.1598 9.6538 29.2506 9.56307C29.3413 9.47235 29.3594 9.45449 29.4683 9.40005C29.5046 9.30933 29.5046 9.32731 29.5772 9.23659L29.6497 9.1821C29.7042 9.14581 29.6679 9.1639 29.7405 9.12761C29.7949 9.0006 29.9764 8.81923 30.1034 8.7648L30.2848 8.54684C30.3393 8.49241 30.303 8.52907 30.3756 8.47464C30.4481 8.34762 30.6296 8.18396 30.7385 8.11138C30.7929 8.05694 30.7566 8.07544 30.811 8.02101L30.8655 7.96652C30.9381 7.87579 30.9381 7.89382 31.0288 7.83938C31.0651 7.74865 31.1014 7.73032 31.1921 7.63959C31.2828 7.54886 31.2828 7.51286 31.3917 7.47657C31.4643 7.34955 31.5368 7.25856 31.6639 7.20413C31.7183 7.07711 31.8998 6.89573 32.0449 6.82315C32.0993 6.69613 32.1901 6.62373 32.3171 6.55115L32.6618 6.17017C32.7163 6.71453 32.7344 10.4158 32.6437 10.7968L32.9522 11.3231L32.9885 11.3413C33.2062 11.4138 33.3514 11.4866 33.6598 11.4866C33.7324 11.4503 33.7687 11.4321 33.8413 11.4139C33.8776 11.3958 33.932 11.3594 33.932 11.3594C34.0046 11.3231 33.9683 11.3412 34.0409 11.3231C34.0953 11.1961 34.0953 11.1781 34.2223 11.0874L34.2949 10.7791C34.2949 9.43636 34.2949 8.07505 34.2949 6.71417C34.2949 6.26055 34.3675 4.11967 34.2042 3.79306C34.0409 3.46645 33.7505 3.43018 33.6598 3.3576H28.2526C27.3272 3.3576 27.4542 3.33952 26.5651 3.43025Z" fill="#1F2221"/>
<path fill-rule="evenodd" clip-rule="evenodd" d="M14.9878 21.4848C14.9152 21.5937 14.9152 21.5939 14.8064 21.6664L14.3527 22.1201C14.2802 22.2289 14.2802 22.2287 14.1531 22.3013L13.8265 22.6822C13.7358 22.7548 13.7721 22.7186 13.6995 22.7549C13.6269 22.8819 13.6269 22.8821 13.5181 22.9547L13.0644 23.4083C12.9918 23.5172 12.9918 23.5169 12.8648 23.5895L12.5382 23.9705C12.4657 24.043 12.5019 24.0068 12.4112 24.0431C12.3386 24.1701 12.3386 24.1703 12.2298 24.2429L11.885 24.6057C11.8124 24.6783 11.8487 24.6602 11.7761 24.6965C11.7036 24.8054 11.7036 24.8051 11.5765 24.8777L11.1229 25.3313C11.0685 25.4584 11.0685 25.4586 10.9415 25.5311L10.4878 25.9848C10.4152 26.0936 10.4153 26.0938 10.3064 26.1664C10.252 26.2571 10.2882 26.2205 10.1975 26.3113L9.85277 26.62C9.78019 26.747 9.78019 26.7468 9.65317 26.8012L9.19954 27.273C9.12696 27.3819 9.12695 27.382 9.01808 27.4546C8.96365 27.5453 8.99994 27.5087 8.90922 27.5813L8.56446 27.9083C8.49187 28.0171 8.49187 28.0169 8.36486 28.0894L7.91123 28.5431C7.83865 28.6701 7.83867 28.6703 7.7298 28.7429C7.67536 28.8336 7.71163 28.7974 7.6209 28.87L7.38504 29.1057C7.31246 29.1782 7.34875 29.1602 7.27617 29.1965C7.20359 29.3054 7.20359 29.3055 7.07657 29.3781C7.00399 29.5414 6.80439 29.7047 6.67738 29.8136C6.64109 29.2511 6.60479 25.5675 6.69551 25.1865L6.55035 24.8418L6.56849 24.8596C6.36889 24.6781 6.29633 24.5149 5.82456 24.4967C5.69754 24.4967 5.62496 24.5149 5.53423 24.5512C5.49794 24.5694 5.42536 24.6239 5.42536 24.6239C5.33464 24.6602 5.38906 24.6421 5.31648 24.6602C5.2439 24.7872 5.2439 24.8052 5.11689 24.8959L5.04431 25.1865V30.7749C5.04431 31.3192 4.93544 32.0453 5.2802 32.3719C5.6431 32.7166 6.33261 32.6075 6.89511 32.6075H12.4656L12.7741 32.5535C12.8649 32.4083 12.883 32.4081 13.01 32.3537C13.0281 32.2811 13.01 32.3173 13.0463 32.2447C13.0463 32.2447 13.0826 32.1902 13.0826 32.1539C13.1189 32.0813 13.137 32.0453 13.1733 31.9727C13.1733 31.7006 13.1007 31.5189 13.0282 31.3193L13.01 31.2648C12.9011 31.2104 12.883 31.1562 12.7378 31.1018C12.6834 31.0655 12.6471 31.0473 12.5927 31.0292C12.4838 30.9747 12.5564 31.0291 12.4656 30.9565C12.1027 31.0472 8.40116 31.0291 7.83866 30.9747L8.23786 30.63C8.31044 30.503 8.38301 30.412 8.51002 30.3576C8.56446 30.2487 8.5826 30.2308 8.67332 30.1401C8.76405 30.0493 8.78221 30.031 8.89108 29.9766C8.92737 29.8859 8.92737 29.9043 8.99995 29.8317C8.99995 29.8317 9.05437 29.7591 9.07252 29.7591C9.12695 29.7228 9.09067 29.7409 9.16325 29.7046C9.19954 29.6139 9.23582 29.5955 9.32655 29.5048C9.41727 29.4141 9.43542 29.3781 9.52614 29.3418C9.58058 29.2511 9.56243 29.2509 9.63501 29.1783L9.70761 29.1238C9.76204 29.0694 9.72576 29.1056 9.79834 29.0693C9.85277 28.9423 10.0342 28.7609 10.1612 28.6884C10.2157 28.6339 10.1794 28.6701 10.2338 28.5976L10.2882 28.5431C10.3608 28.4705 10.3608 28.4708 10.4334 28.4164C10.4878 28.3256 10.5241 28.3073 10.6149 28.2166C10.7056 28.1259 10.7056 28.0894 10.8145 28.0531C10.8689 27.9261 10.9596 27.8355 11.0866 27.7811C11.1411 27.6541 11.3225 27.4727 11.4495 27.4183C11.504 27.3276 11.4858 27.3274 11.5765 27.2548C11.5765 27.2548 11.631 27.2003 11.6491 27.1822C11.7035 27.1459 11.6673 27.1821 11.7217 27.1277C11.7761 27.037 11.8124 27.0191 11.9031 26.9283C11.9939 26.8376 11.9939 26.8012 12.1027 26.7649C12.1572 26.6742 12.139 26.6926 12.2116 26.6019L12.2842 26.5474C12.3386 26.5111 12.3024 26.5292 12.3749 26.4929C12.4294 26.3659 12.6108 26.1845 12.7378 26.1301C12.7741 26.0575 12.756 26.0937 12.7923 26.0393C12.8104 26.0211 12.8648 25.9666 12.8648 25.9666C12.9374 25.894 12.9193 25.8939 13.01 25.8576C13.0644 25.7488 13.0826 25.7308 13.1733 25.6401C13.264 25.5675 13.2822 25.5311 13.3911 25.4767C13.4455 25.3678 13.4092 25.4221 13.4999 25.3132C13.5725 25.2406 13.5725 25.2591 13.6632 25.2047C13.6995 25.1139 13.7358 25.0956 13.8265 25.0049C13.9172 24.9141 13.9354 24.8781 14.0261 24.8418C14.0806 24.733 14.0443 24.7691 14.135 24.6784C14.2439 24.5876 14.1894 24.6238 14.2983 24.5512C14.3527 24.4605 14.389 24.4426 14.4616 24.3519C14.5523 24.2612 14.5705 24.2429 14.6793 24.1884C14.7338 24.0795 14.6975 24.1338 14.7882 24.0431C14.7882 24.0431 14.8427 23.9705 14.8608 23.9705C14.9152 23.9342 14.879 23.9527 14.9515 23.9164C15.006 23.7894 15.1874 23.6076 15.3144 23.5532C15.3507 23.4624 15.3507 23.4627 15.4233 23.3901C15.4414 23.372 15.4777 23.3538 15.4959 23.3357C15.5503 23.2812 15.514 23.3175 15.5866 23.2812C15.641 23.1542 15.8225 22.9728 15.9495 22.9002C16.0221 22.7913 15.9858 22.8456 16.0765 22.7549C16.1672 22.6642 16.1128 22.7003 16.2217 22.6277C16.258 22.5189 16.3487 22.4101 16.4031 22.2286C16.4394 21.9746 16.385 21.866 16.3305 21.6301C16.2761 21.5938 16.1673 21.4848 16.1491 21.4122C15.9495 21.3214 15.8406 21.2487 15.5503 21.2487C15.2056 21.285 15.1874 21.3941 14.9878 21.4848Z" fill="#1F2221"/>
<path fill-rule="evenodd" clip-rule="evenodd" d="M23.317 21.3397C23.2625 21.4123 23.0992 21.5759 23.0085 21.6303C22.9541 21.8481 22.9178 21.9748 22.9359 22.2288C23.0992 22.7369 24.569 24.0433 25.0045 24.4969L31.5004 30.9748C30.9379 31.0293 27.2363 31.0474 26.8734 30.9567C26.8008 31.0293 26.8552 30.9931 26.7282 31.0475C26.6557 31.0656 26.6012 31.0838 26.5286 31.102C26.4923 31.1564 26.3654 31.265 26.3291 31.3013C26.2565 31.5191 26.1839 31.6645 26.1839 31.9729C26.3109 32.3358 26.4742 32.517 26.8734 32.6077C28.071 32.6259 29.2504 32.6077 30.4298 32.6077C31.2101 32.6077 33.3149 32.717 33.9137 32.5174C33.9318 32.4992 34.1677 32.263 34.204 32.2268C34.2403 32.136 34.2222 32.1363 34.2585 32.0637C34.2948 31.973 34.2766 32.0092 34.3129 31.9729C34.2585 31.6463 34.2948 26.6199 34.2948 25.8397C34.2948 25.0776 34.2947 24.7147 33.6597 24.4969C33.3875 24.4969 33.1879 24.5515 33.0064 24.6422C32.8431 24.7693 32.8794 24.7691 32.7524 24.9324C32.7343 24.9868 32.7343 25.0233 32.7161 25.0777C32.6617 25.2047 32.7161 25.1141 32.6436 25.1867C32.7161 25.4589 32.698 29.2876 32.6798 29.8319C32.2807 29.4872 31.954 29.1059 31.573 28.7249L24.5508 21.7025C24.2968 21.4485 24.315 21.4303 23.9339 21.2489C23.6436 21.2307 23.571 21.2671 23.317 21.3397Z" fill="#1F2221"/>
<path fill-rule="evenodd" clip-rule="evenodd" d="M5.35272 3.50232C5.262 3.7745 5.04425 3.62925 5.04425 4.31876V10.0161C5.04425 10.4697 4.8991 11.4315 5.8245 11.486C6.20554 11.4497 6.16924 11.3951 6.40513 11.3043C6.44142 11.2681 6.49585 11.1595 6.55029 11.1232C6.58658 11.0506 6.5866 11.0141 6.62289 10.9415C6.67732 10.7964 6.64102 10.8688 6.69545 10.7962C6.64102 10.5241 6.64103 6.5325 6.67732 6.16959C7.04022 6.4962 7.42125 6.89513 7.76601 7.25803C8.83657 8.34674 10.016 9.43555 11.0503 10.5424C12.139 11.6674 13.2458 12.7018 14.3345 13.8086C14.7519 14.2441 15.0785 14.6614 15.5503 14.734C16.0946 14.7159 16.4031 14.4256 16.4212 13.8813C16.3849 13.5002 16.1853 13.3366 16.0039 13.1552L12.1934 9.34498C10.9051 8.05668 9.01803 6.24191 7.8386 4.9899C8.41924 4.95361 12.1027 4.91733 12.4656 5.00806L12.8103 4.8632C12.8466 4.82691 12.9374 4.75419 12.9918 4.7179C13.0644 4.48201 13.137 4.51818 13.1733 4.13713C13.1188 3.42947 12.6108 3.35702 11.9212 3.35702C11.2499 3.35702 10.5785 3.35702 9.88898 3.35702C8.56439 3.35702 7.2035 3.37516 5.86077 3.35702C5.64303 3.39331 5.55232 3.42974 5.35272 3.50232Z" fill="#1F2221"/>
</svg>
