<svg width="36" height="36" viewBox="0 0 36 36" fill="none" xmlns="http://www.w3.org/2000/svg">
<path fill-rule="evenodd" clip-rule="evenodd" d="M4.62677 29.9944H6.02146H7.43257H8.84369C9.61488 29.9944 9.6477 30.0434 10.2876 29.8137L10.4353 29.5349C10.5994 28.4848 10.4681 26.6635 10.4845 25.5149L11.6495 25.4985H13.0606H14.4717L15.85 25.4821L16.3423 25.2686C16.4243 24.7435 16.4735 24.6289 16.4735 23.8905V22.5121L16.4899 21.1176L16.5884 21.0519C17.0642 20.855 16.2766 21.1175 16.7197 21.0027H20.1654C21.9703 20.9699 22.479 21.2979 22.479 19.6899V18.2626V16.8842V16.5068H22.9056H24.3003H25.7278H27.1225C27.8281 16.4904 28.3039 16.5394 28.4516 15.8502L28.4844 12.0931C28.6157 11.9454 28.3203 12.0273 28.7305 11.9781C28.7633 11.9781 28.9767 11.9781 29.0095 11.9781L34.457 11.9945C34.5883 12.4212 34.5062 16.8185 34.5062 17.6553C34.5062 19.0172 34.5719 33.8831 34.4898 34.5066C33.5874 34.6379 31.7004 34.5231 30.6995 34.5231C26.7287 34.5231 4.75803 34.6051 4.47909 34.4738V29.9944H4.62677ZM25.6786 10.6818L25.4981 11.1084C25.4981 11.4694 25.7114 11.9616 25.7606 11.8631C25.777 11.8467 25.7934 11.8796 25.8098 11.896C26.2693 11.9944 26.4334 11.9945 26.9748 11.9945V12.6671V14.062V14.9974H25.7114H24.3003H22.9056H21.4945C21.0679 14.9974 20.5592 15.063 20.1654 14.9645L20.0669 15.0134C20.0505 15.0298 19.7552 15.0791 19.5419 15.4893C19.4106 16.08 19.6731 16.3427 20.0998 16.474L20.9858 16.5397V19.4932L20.0998 19.5097H18.6887H17.2775H15.8664L14.4717 19.4932C14.0287 19.5096 13.9959 19.5914 13.7005 19.6571C13.5529 20.0509 13.3231 20.3954 13.7169 20.7892C14.0123 21.0845 14.5046 21.0027 14.9804 21.0027V22.4957V23.9891L14.4553 24.0055C12.8309 24.0547 11.108 24.0055 9.46721 24.0055C8.72884 24.0055 7.6951 23.8412 7.53102 24.5631C7.43257 24.9569 7.64588 25.2851 7.892 25.4164C8.18735 25.5477 8.63037 25.4985 8.99136 25.4985V28.5014H7.43257L6.10351 28.4849C5.92302 28.3044 6.02146 28.5503 5.97224 28.1893V19.0009C6.41526 18.6727 8.53194 17.1468 8.87651 17.0156C8.94214 16.8679 8.89292 16.9334 9.057 16.9006L10.2876 16.0309C10.3697 15.8832 10.8455 15.5549 11.0588 15.4729C11.0752 15.4565 11.0916 15.44 11.108 15.4236L11.1409 15.3912C11.1573 15.3748 11.1737 15.3583 11.1901 15.3583L11.3542 15.2433C11.5346 15.1121 11.4854 15.1283 11.6987 15.0463C11.7808 14.8822 12.7161 14.2426 12.9622 14.1277L13.1919 13.9963C13.2575 13.8486 13.6185 13.6517 13.7498 13.5532C13.9467 13.4056 14.1764 13.2415 14.3733 13.143C14.4553 13.0774 14.4553 13.0608 14.5702 12.9788C14.6358 12.9296 14.7179 12.8806 14.7835 12.8314C14.9476 12.7165 15.0132 12.6671 15.1773 12.585C15.3742 12.3717 15.5383 12.2896 15.7844 12.142C16.1618 11.8138 16.7361 11.453 17.2119 11.1249C17.5729 10.8623 18.3605 10.255 18.7215 10.1238C18.8035 9.95969 18.902 9.92704 19.0989 9.87781C19.1481 9.79577 19.1481 9.81205 19.2137 9.74642L20.1326 9.13952C20.231 8.94262 21.1499 8.38459 21.4453 8.17129C21.8226 7.89235 22.3969 7.44921 22.8071 7.2359C22.9876 7.07182 22.9876 7.05556 23.2337 6.97352C23.3158 6.82584 24.0214 6.3501 24.2183 6.25165C24.4316 6.03834 24.9074 5.71029 25.2027 5.5462C25.3504 5.44775 25.4489 5.34903 25.6294 5.26699L27.1553 4.24989C27.2538 4.02017 28.2711 3.3801 28.4844 3.28165V4.21704V5.62792V7.03921V8.4501V9.84496V10.5011H27.1225C26.3349 10.5011 26.3185 10.4685 25.6786 10.6818ZM29.9447 0.377358C29.5181 0.705524 29.0095 1.08307 28.5336 1.36201L28.3203 1.47658C28.2383 1.65708 27.9429 1.77197 27.7624 1.91964C27.4999 2.10013 27.385 2.18219 27.1225 2.34627C26.8928 2.54317 26.6138 2.75661 26.3021 2.88787C26.1872 3.08477 25.9411 3.18325 25.7278 3.33093C25.3012 3.65909 24.8089 3.98742 24.3331 4.31558C23.8573 4.64375 23.4142 4.98808 22.9056 5.29984C22.8564 5.33266 22.7743 5.41487 22.6759 5.48051C22.4626 5.62818 22.5938 5.56226 22.4133 5.59508C22.3477 5.66071 22.3641 5.66084 22.2985 5.72647L21.9703 5.97284C21.7898 6.1041 21.7078 6.15323 21.4945 6.2845C21.0843 6.62907 20.5756 6.92418 20.1162 7.26875C19.6568 7.59692 19.1809 7.94164 18.6887 8.23698L18.262 8.5158L17.2775 9.22164C17.097 9.40213 16.5392 9.81223 16.2766 9.92708C16.1454 10.0912 16.0798 10.0911 15.8829 10.2223C15.5711 10.4684 14.8327 11.0101 14.4389 11.1906L14.3733 11.2234C14.2584 11.4203 13.3232 12.0271 13.0606 12.1748C12.8801 12.3389 12.6176 12.5687 12.3715 12.6343C12.1746 12.8804 11.9449 12.9954 11.6495 13.1595C11.3213 13.4712 10.6978 13.8652 10.2712 14.1605C9.79538 14.4723 9.31954 14.8002 8.86011 15.1284C8.6304 15.2925 8.49912 15.4401 8.23659 15.5386C8.12173 15.7191 7.66231 15.9818 7.449 16.113C7.02238 16.4576 6.51372 16.7855 6.05429 17.1137C5.57845 17.4419 5.11902 17.7866 4.62677 18.0819C4.44628 18.246 4.54472 18.2134 4.33141 18.2462C4.20015 18.4759 3.98684 18.5576 3.77354 18.7053C3.56023 18.8529 3.46178 18.9353 3.19925 19.0666C3.05158 19.2307 2.55933 19.6079 2.32961 19.6735C2.26398 19.7391 2.28039 19.7393 2.21476 19.8049C2.19835 19.8049 2.0999 19.887 2.08349 19.887C2.00145 19.9527 1.91941 19.9852 1.80455 20.0509C1.5092 20.3298 0.803634 20.8058 0.409836 21.0355L0.212945 21.1505C0.130903 21.3638 -0.131632 21.7245 0.0816755 22.1183C0.262166 22.4629 0.524697 22.4301 0.951312 22.5285L1.37793 22.2169C1.60765 22.0692 1.60765 22.0201 1.85377 21.9381C1.93581 21.7576 4.11811 20.297 4.47909 20.0673V21.1012V22.5121V23.9234V25.3179V26.7291V28.124V28.5014H3.21566C2.70701 28.5014 2.19834 28.5011 1.78814 28.6159C1.62405 28.8128 1.44356 29.0754 1.54201 29.5185C1.68969 29.7646 1.72251 29.781 1.91941 29.9451L2.01785 29.9615L2.98593 29.9944L3.00235 35.3599L3.16643 35.8194C3.80635 36.0163 3.80634 35.9997 4.61035 35.9997H6.03789H7.43257H8.84369H10.2384H11.6659H13.0442H14.4717H15.8664H17.294H18.6723H20.0998H21.4781H22.9056H24.3003H25.7278H27.1061H28.5336H29.9283H31.3394H32.7341H34.1617L35.6056 35.934C35.8189 35.5894 35.9174 35.8027 35.983 35.13V33.7519V32.3242V30.9298V29.5185V28.124V26.6963V25.3179V23.8905V22.4957V21.0848V19.6899V18.2626V16.8678V15.4565V14.062V12.6507L35.9666 11.2563C35.9009 10.8625 35.7861 10.7473 35.5564 10.5668L34.1617 10.5011H32.7506H31.3394H29.9775V10.403V9.84496V8.4501V7.02279V5.64435V4.21704V2.82217V2.14958C30.1416 2.08395 31.1097 1.4276 31.241 1.31274C31.4051 1.14866 31.5199 0.869767 31.4379 0.541601C31.3558 0.213436 31.1589 0.180491 30.9292 0H30.5518L29.9447 0.377358Z" fill="#1F2221"/>
</svg>
