<svg width="21" height="20" viewBox="0 0 21 20" fill="none" xmlns="http://www.w3.org/2000/svg">
<path d="M20.2739 0.786316H0.726141V0H20.2739V0.786316ZM21 0.756045H20.2351V0.766136L20.2448 0.776226V0.786316H20.2545H20.2642H20.2739V0.796407L20.2642 0.786316H20.2739V0H20.3513L20.3804 0.0100904H20.4191L20.4675 0.0201809L20.5256 0.0403618L20.5643 0.0605427L20.574 0.0706331L20.6224 0.090814L20.6515 0.110995L20.6805 0.121085L20.7095 0.151357L20.7386 0.171538L20.758 0.191718L20.787 0.221744L20.816 0.241925L20.8741 0.332739L20.8935 0.352919L20.9129 0.383191L20.9322 0.433643L20.9419 0.453578L20.9516 0.49394L20.971 0.554482L20.9806 0.594844L20.9903 0.645296L21 0.675568V0.756045ZM20.2351 19.244V0.756045H21V19.244H20.2351ZM20.2739 20V19.2036H20.2642L20.2545 19.2137H20.2448V19.2238L20.2351 19.2339V19.244H21V19.3146L20.9903 19.3547L20.9613 19.4758L20.9516 19.5061L20.9419 19.5464L20.9322 19.5565L20.9129 19.6067L20.8354 19.7278L20.787 19.7783L20.758 19.7984L20.7386 19.8287L20.7095 19.8489L20.6805 19.8688L20.6224 19.9092L20.574 19.9294L20.5643 19.9395L20.5256 19.9495L20.4675 19.9697L20.4191 19.9798L20.3804 19.9899H20.3513L20.3126 20H20.2739ZM0.726141 19.2036H20.2739V20H0.726141V19.2036ZM0 19.244H0.755185V19.2339L0.764869 19.244H0.755185V19.2339V19.2238L0.745509 19.2137L0.735825 19.2036H0.726141V20H0.677736L0.648692 19.9899H0.61964L0.571235 19.9798L0.532506 19.9697L0.474417 19.9495L0.435689 19.9395L0.416321 19.9294L0.367916 19.9092L0.338872 19.889L0.319504 19.8688L0.290459 19.8489L0.261415 19.8287L0.164598 19.7278L0.14523 19.6975L0.116185 19.6673L0.106501 19.637L0.0871408 19.6067L0.0677729 19.5565L0.0580963 19.5464L0.0387284 19.5061L0.0290445 19.4758L0 19.3547V19.244ZM0.755185 0.756045V19.244H0V0.756045H0.755185ZM0.726141 0V0.786316H0.745509V0.776226H0.755185V0.756045H0V0.645296L0.00968395 0.594844L0.0193679 0.554482L0.0387284 0.49394L0.0580963 0.453578L0.0677729 0.433643L0.0871408 0.383191L0.106501 0.352919L0.116185 0.332739L0.14523 0.302467L0.183958 0.241925L0.213003 0.221744L0.23237 0.191718L0.290459 0.151357L0.319504 0.121085L0.338872 0.110995L0.367916 0.090814L0.416321 0.0706331L0.474417 0.0403618L0.532506 0.0201809L0.571235 0.0100904H0.61964L0.648692 0H0.726141Z" fill="#8D8D8D"/>
<path fill-rule="evenodd" clip-rule="evenodd" d="M14.1746 1.90569C14.1359 1.97626 14.1166 1.9862 14.0585 2.01644L14.0294 2.08708C13.981 2.16772 13.9713 2.18784 13.9713 2.29873C13.981 2.39954 13.9907 2.4701 14.0294 2.55074C14.0875 2.65155 14.1456 2.69203 14.165 2.71219L14.1553 2.7021C14.194 2.72226 14.223 2.72206 14.2618 2.74222C14.3295 2.77246 14.3005 2.75234 14.3392 2.78258C14.5329 2.73218 16.508 2.75234 16.8081 2.78258L16.5757 2.99423C16.537 3.0648 16.537 3.0649 16.4789 3.10523L16.2369 3.35724C16.1982 3.41773 16.1982 3.41782 16.1304 3.45815C16.111 3.50855 16.1207 3.48822 16.082 3.53862L15.8883 3.71016C15.8496 3.78073 15.8496 3.78059 15.7915 3.82091L15.5495 4.07293C15.5107 4.13341 15.5107 4.13351 15.443 4.17383L15.2009 4.42584C15.1622 4.49641 15.1622 4.49627 15.1041 4.53659C15.0847 4.587 15.0944 4.55682 15.046 4.60723L14.9201 4.73816C14.8814 4.77848 14.9008 4.76845 14.8621 4.78861C14.8233 4.84909 14.8233 4.84919 14.7652 4.88951L14.5232 5.14153C14.4845 5.21209 14.4845 5.21195 14.4167 5.25228C14.3973 5.2926 14.407 5.27251 14.3586 5.32291C14.3392 5.35315 14.3296 5.36329 14.3005 5.38345L14.1746 5.50429C14.1359 5.56478 14.1359 5.56487 14.0778 5.6052L13.8358 5.85721C13.7971 5.9177 13.7971 5.91779 13.7293 5.95812C13.7099 6.00852 13.7196 5.98819 13.6809 6.03859L13.4872 6.21013C13.4485 6.28069 13.4485 6.28056 13.3904 6.32088L13.1484 6.57289C13.1096 6.63338 13.1096 6.63348 13.0419 6.6738L12.8773 6.87536C12.8289 6.91568 12.8482 6.90565 12.7998 6.92581C12.7611 6.99638 12.7611 6.99624 12.703 7.03656C12.6836 7.07689 12.6933 7.05678 12.6546 7.09711L12.4609 7.28858C12.4222 7.34906 12.4222 7.34916 12.3545 7.38948C12.3157 7.49029 12.2479 7.5206 12.2383 7.71213C12.2383 7.86334 12.277 7.93374 12.3254 8.04462C12.3641 8.0547 12.4222 8.1052 12.4416 8.13544C12.5578 8.16568 12.6255 8.19596 12.7611 8.1758C12.8579 8.14556 12.9063 8.10515 12.9741 8.08498C13.0031 8.03458 13.0031 8.03474 13.0419 7.99442C13.0709 7.95409 13.0806 7.95403 13.1193 7.92378C13.158 7.8633 13.2549 7.76254 13.3226 7.72222C13.3517 7.66174 13.3323 7.69189 13.3807 7.63141C13.4195 7.60117 13.4195 7.60111 13.4679 7.57086C13.4872 7.52046 13.5066 7.51052 13.555 7.46012C13.6034 7.40971 13.6131 7.38946 13.6615 7.3693C13.6905 7.29874 13.6712 7.33897 13.7293 7.27849C13.7777 7.22808 13.7486 7.24843 13.8067 7.21819C13.8358 7.15771 13.8551 7.14751 13.8939 7.09711C13.9423 7.0467 13.952 7.03653 14.0101 7.00629C14.0391 6.94581 14.0197 6.97622 14.0681 6.92581C14.1165 6.86533 14.0972 6.88542 14.1553 6.85518C14.1746 6.80478 14.194 6.79484 14.2424 6.74443C14.2908 6.69403 14.3005 6.67378 14.3489 6.65362C14.378 6.6133 14.378 6.60313 14.407 6.5628C14.4167 6.55272 14.4361 6.53253 14.4457 6.53253C14.4748 6.50229 14.4554 6.52242 14.4941 6.50226C14.5232 6.4317 14.62 6.33093 14.6878 6.29061C14.7071 6.26037 14.6975 6.28072 14.7168 6.2404C14.7265 6.2404 14.7556 6.21013 14.7556 6.21013C14.7943 6.16981 14.7943 6.16975 14.833 6.14959C14.8621 6.0891 14.8814 6.07891 14.9298 6.0285C14.9686 5.9781 14.9782 5.9581 15.0363 5.93793C15.0654 5.87745 15.046 5.9076 15.0944 5.84712C15.1525 5.79672 15.1138 5.81682 15.1816 5.78658C15.2009 5.72609 15.2203 5.72623 15.2687 5.67583C15.3171 5.62543 15.3268 5.60518 15.3752 5.58502C15.4139 5.51445 15.4526 5.46415 15.5204 5.4339C15.5495 5.37342 15.5591 5.36322 15.6076 5.31282C15.656 5.26242 15.6657 5.25249 15.7237 5.22225C15.7431 5.17185 15.7431 5.18184 15.7818 5.13144L15.8206 5.10117C15.8496 5.08101 15.8302 5.09106 15.869 5.07089C15.898 5.00033 15.9948 4.89957 16.0626 4.86933L16.1594 4.74825C16.1885 4.718 16.1691 4.73837 16.2078 4.70813C16.2466 4.63757 16.3434 4.54664 16.4015 4.50632C16.4305 4.47608 16.4112 4.48636 16.4402 4.45612L16.4693 4.42584C16.508 4.37544 16.508 4.38545 16.5564 4.35521C16.5758 4.30481 16.5951 4.29462 16.6435 4.24422C16.6919 4.19381 16.6919 4.17381 16.75 4.15365C16.7888 4.08308 16.8275 4.03253 16.8952 4.00229C16.9243 3.93173 17.0211 3.83096 17.0986 3.79064C17.1276 3.72007 17.176 3.67985 17.2438 3.63953L17.4278 3.42788C17.4568 3.73029 17.4665 5.78654 17.4181 5.99823L17.5827 6.29061L17.602 6.3007C17.7182 6.34102 17.7957 6.38142 17.9603 6.38142C17.999 6.36126 18.0184 6.35114 18.0571 6.34106C18.0764 6.33098 18.1055 6.31079 18.1055 6.31079C18.1442 6.29063 18.1249 6.30069 18.1636 6.29061C18.1926 6.22004 18.1926 6.21008 18.2604 6.15968L18.2991 5.98839C18.2991 5.24242 18.2991 4.48614 18.2991 3.7301C18.2991 3.47808 18.3379 2.28871 18.2507 2.10726C18.1636 1.92581 18.0087 1.90565 17.9603 1.86533H15.0751C14.5813 1.86533 14.6491 1.85529 14.1746 1.90569Z" fill="#8D8D8D"/>
<path fill-rule="evenodd" clip-rule="evenodd" d="M7.99723 11.936C7.9585 11.9965 7.9585 11.9966 7.9004 12.0369L7.65836 12.2889C7.61963 12.3494 7.61963 12.3493 7.55186 12.3896L7.37757 12.6012C7.32916 12.6416 7.34854 12.6214 7.30981 12.6416C7.27108 12.7122 7.27108 12.7123 7.21298 12.7526L6.97094 13.0046C6.93221 13.0651 6.93221 13.065 6.86444 13.1053L6.69017 13.3169C6.65144 13.3572 6.6708 13.3371 6.62239 13.3573C6.58366 13.4279 6.58367 13.428 6.52558 13.4683L6.34162 13.6698C6.30289 13.7102 6.32226 13.7001 6.28353 13.7203C6.2448 13.7808 6.2448 13.7806 6.17703 13.821L5.93498 14.073C5.90594 14.1435 5.90593 14.1436 5.83816 14.184L5.59611 14.436C5.55738 14.4965 5.55739 14.4966 5.4993 14.5369C5.47026 14.5873 5.48961 14.567 5.4412 14.6174L5.25726 14.7889C5.21853 14.8595 5.21853 14.8593 5.15075 14.8896L4.90871 15.1517C4.86998 15.2121 4.86997 15.2122 4.81188 15.2526C4.78284 15.303 4.8022 15.2826 4.75379 15.323L4.56984 15.5046C4.53111 15.5651 4.53111 15.5649 4.46333 15.6052L4.22129 15.8573C4.18256 15.9278 4.18257 15.9279 4.12448 15.9683C4.09543 16.0187 4.11478 15.9986 4.06637 16.0389L3.94052 16.1698C3.90179 16.2101 3.92116 16.2001 3.88243 16.2203C3.8437 16.2808 3.8437 16.2808 3.77593 16.3212C3.7372 16.4119 3.6307 16.5026 3.56293 16.5631C3.54356 16.2506 3.52419 14.2042 3.5726 13.9925L3.49515 13.801L3.50482 13.8109C3.39832 13.7101 3.35961 13.6194 3.10788 13.6093C3.0401 13.6093 3.00137 13.6194 2.95296 13.6396C2.9336 13.6497 2.89487 13.6799 2.89487 13.6799C2.84646 13.7001 2.87551 13.69 2.83678 13.7001C2.79805 13.7707 2.79805 13.7806 2.73028 13.831L2.69155 13.9925V17.0972C2.69155 17.3996 2.63346 17.8029 2.81742 17.9844C3.01105 18.1759 3.37897 18.1153 3.6791 18.1153H6.65143L6.81604 18.0853C6.86445 18.0046 6.87412 18.0045 6.94189 17.9743C6.95157 17.934 6.9419 17.9541 6.96126 17.9137C6.96126 17.9137 6.98063 17.8834 6.98063 17.8633C6.99999 17.823 7.00968 17.803 7.02904 17.7626C7.02904 17.6114 6.99031 17.5105 6.95158 17.3996L6.94189 17.3693C6.8838 17.3391 6.87413 17.309 6.79667 17.2788C6.76762 17.2586 6.74826 17.2485 6.71921 17.2384C6.66112 17.2082 6.69984 17.2384 6.65143 17.1981C6.4578 17.2485 4.4827 17.2384 4.18257 17.2081L4.39557 17.0167C4.4343 16.9461 4.47302 16.8956 4.54079 16.8653C4.56984 16.8048 4.57951 16.7949 4.62792 16.7445C4.67633 16.6941 4.68603 16.6839 4.74412 16.6537C4.76348 16.6033 4.76348 16.6135 4.80221 16.5732C4.80221 16.5732 4.83124 16.5328 4.84093 16.5328C4.86997 16.5127 4.85061 16.5227 4.88934 16.5026C4.9087 16.4522 4.92806 16.442 4.97647 16.3916C5.02488 16.3412 5.03456 16.3212 5.08297 16.301C5.11202 16.2506 5.10234 16.2505 5.14106 16.2102L5.1798 16.1799C5.20884 16.1497 5.18948 16.1698 5.22821 16.1496C5.25726 16.0791 5.35407 15.9783 5.42185 15.938C5.45089 15.9077 5.43152 15.9279 5.46057 15.8875L5.48961 15.8573C5.52834 15.8169 5.52834 15.8171 5.56707 15.7869C5.59611 15.7365 5.61548 15.7263 5.66389 15.6759C5.7123 15.6255 5.7123 15.6052 5.77039 15.5851C5.79944 15.5145 5.84784 15.4642 5.91562 15.434C5.94466 15.3634 6.04148 15.2626 6.10925 15.2324C6.1383 15.182 6.12862 15.1819 6.17703 15.1416C6.17703 15.1416 6.20607 15.1113 6.21575 15.1012C6.2448 15.0811 6.22544 15.1012 6.25449 15.0709C6.28353 15.0205 6.30289 15.0106 6.3513 14.9602C6.39971 14.9098 6.39971 14.8895 6.4578 14.8694C6.48685 14.819 6.47716 14.8292 6.51589 14.7788L6.55462 14.7485C6.58367 14.7284 6.56431 14.7384 6.60304 14.7183C6.63208 14.6477 6.7289 14.5469 6.79667 14.5167C6.81603 14.4764 6.80635 14.4965 6.82572 14.4663C6.8354 14.4562 6.86444 14.4259 6.86444 14.4259C6.90316 14.3856 6.89348 14.3855 6.94189 14.3653C6.97094 14.3049 6.98063 14.2949 7.02904 14.2445C7.07745 14.2042 7.08713 14.1839 7.14522 14.1537C7.17426 14.0932 7.1549 14.1234 7.20331 14.0629C7.24203 14.0226 7.24203 14.0328 7.29044 14.0026C7.3098 13.9522 7.32916 13.942 7.37757 13.8916C7.42598 13.8412 7.43567 13.8212 7.48408 13.801C7.51312 13.7405 7.49377 13.7606 7.54218 13.7102C7.60027 13.6598 7.57122 13.6799 7.62931 13.6396C7.65836 13.5892 7.67772 13.5792 7.71645 13.5288C7.76486 13.4784 7.77453 13.4683 7.83262 13.438C7.86167 13.3775 7.84232 13.4077 7.89073 13.3573C7.89073 13.3573 7.91977 13.3169 7.92945 13.3169C7.95849 13.2968 7.93913 13.3071 7.97786 13.2869C8.00691 13.2163 8.10372 13.1153 8.1715 13.0851C8.19086 13.0347 8.19086 13.0348 8.22958 12.9945C8.23927 12.9844 8.25864 12.9743 8.26832 12.9643C8.29737 12.934 8.27799 12.9541 8.31672 12.934C8.34576 12.8634 8.44259 12.7627 8.51037 12.7223C8.5491 12.6618 8.52972 12.692 8.57813 12.6416C8.62654 12.5912 8.5975 12.6113 8.65559 12.571C8.67495 12.5105 8.72337 12.45 8.75241 12.3492C8.77178 12.2081 8.74272 12.1478 8.71368 12.0167C8.68463 11.9966 8.62655 11.936 8.61687 11.8957C8.51037 11.8452 8.45228 11.8048 8.29737 11.8048C8.11341 11.825 8.10373 11.8856 7.99723 11.936Z" fill="#8D8D8D"/>
<path fill-rule="evenodd" clip-rule="evenodd" d="M12.4415 11.8554C12.4125 11.8957 12.3253 11.9866 12.2769 12.0168C12.2479 12.1378 12.2285 12.2082 12.2382 12.3493C12.3253 12.6316 13.1096 13.3574 13.3419 13.6094L16.808 17.2083C16.5079 17.2385 14.5328 17.2486 14.3391 17.1982C14.3004 17.2385 14.3295 17.2184 14.2617 17.2486C14.223 17.2587 14.1939 17.2688 14.1552 17.2789C14.1358 17.3091 14.0681 17.3695 14.0487 17.3896C14.01 17.5106 13.9712 17.5914 13.9712 17.7627C14.039 17.9643 14.1261 18.065 14.3391 18.1154C14.9782 18.1255 15.6075 18.1154 16.2368 18.1154C16.6531 18.1154 17.7762 18.1761 18.0957 18.0652C18.1054 18.0551 18.2313 17.9239 18.2506 17.9038C18.27 17.8533 18.2603 17.8535 18.2797 17.8132C18.299 17.7628 18.2894 17.7829 18.3087 17.7627C18.2797 17.5813 18.299 14.7888 18.299 14.3554C18.299 13.932 18.299 13.7304 17.9602 13.6094C17.815 13.6094 17.7084 13.6397 17.6116 13.6901C17.5245 13.7607 17.5439 13.7606 17.4761 13.8513C17.4664 13.8816 17.4664 13.9018 17.4567 13.9321C17.4277 14.0026 17.4567 13.9523 17.418 13.9926C17.4567 14.1438 17.447 16.2709 17.4374 16.5733C17.2244 16.3818 17.0501 16.17 16.8468 15.9583L13.0999 12.057C12.9643 11.9158 12.974 11.9057 12.7707 11.8049C12.6158 11.7949 12.5771 11.8151 12.4415 11.8554Z" fill="#8D8D8D"/>
<path fill-rule="evenodd" clip-rule="evenodd" d="M2.85611 1.94573C2.8077 2.09694 2.69152 2.01625 2.69152 2.39931V5.56451C2.69152 5.81653 2.61407 6.35086 3.10784 6.3811C3.31116 6.36094 3.29179 6.3306 3.41766 6.28019C3.43702 6.26003 3.46607 6.1997 3.49511 6.17954C3.51448 6.13921 3.51449 6.11895 3.53385 6.07863C3.5629 5.99799 3.54352 6.03823 3.57257 5.99791C3.54352 5.8467 3.54353 3.62916 3.56289 3.42755C3.75653 3.609 3.95984 3.83063 4.1438 4.03224C4.71503 4.63708 5.34435 5.24197 5.89622 5.85689C6.47713 6.48189 7.06774 7.05653 7.64865 7.67145C7.87133 7.91338 8.0456 8.14524 8.29733 8.18557C8.58779 8.17549 8.75238 8.01423 8.76206 7.71181C8.74269 7.50011 8.6362 7.40924 8.53938 7.30844L6.50618 5.19166C5.81877 4.47593 4.81186 3.46773 4.18253 2.77217C4.49235 2.752 6.45776 2.73185 6.6514 2.78226L6.83536 2.70178C6.85472 2.68162 6.90314 2.64122 6.93218 2.62105C6.97091 2.49001 7.00964 2.5101 7.02901 2.29841C6.99996 1.90526 6.72887 1.86501 6.36096 1.86501C6.00273 1.86501 5.64449 1.86501 5.27658 1.86501C4.5698 1.86501 3.84366 1.87509 3.1272 1.86501C3.01101 1.88517 2.96261 1.90541 2.85611 1.94573Z" fill="#8D8D8D"/>
</svg>
