<svg width="45" height="36" viewBox="0 0 45 36" fill="none" xmlns="http://www.w3.org/2000/svg">
<path fill-rule="evenodd" clip-rule="evenodd" d="M6.70871 28.9267L6.29433 29.0842C5.84051 29.4394 5.09072 29.6172 4.69609 30.8801C4.40012 31.8864 4.47904 33.0701 4.47904 34.1751L1.77582 34.1553L1.79556 26.0854H43.133L43.1528 34.1751C42.6792 34.1751 40.7652 34.2145 40.4495 34.1356C40.4495 33.6028 40.489 32.1427 40.4101 31.6691C40.3706 31.4126 40.2917 31.1958 40.2917 30.9591L39.9365 30.1695C39.8971 30.1498 39.9168 30.2089 39.8379 30.0708C39.7195 29.9129 39.7984 30.0514 39.7787 29.9132L39.4235 29.5972C39.4038 29.5972 39.384 29.5582 39.384 29.5385C39.3051 29.4595 39.3643 29.5384 39.3051 29.4397C39.1867 29.42 39.2854 29.4594 39.1473 29.3804C39.0881 29.341 39.0486 29.3212 39.0091 29.2817C38.9105 29.2422 38.8118 29.1829 38.7132 29.1434L38.3975 28.9662C38.141 28.9859 37.7266 28.7687 36.6414 28.7687H30.6233C25.3352 28.7687 19.8499 28.7095 14.5618 28.7687C13.5358 28.7884 8.40562 28.7095 7.5769 28.7884C7.30066 28.8081 6.96522 28.9267 6.70871 28.9267ZM1.95341 21.9614C1.97314 21.7443 1.97314 21.4087 2.0718 21.2706C2.03233 20.8168 2.36778 19.6333 2.52563 19.1992C2.64402 18.7848 3.11756 17.6402 3.33461 17.5021C3.3938 17.3245 3.453 17.2062 3.61085 17.1273C3.65031 16.93 4.30146 16.2394 4.43958 16.1407C4.53824 16.1012 4.43957 16.1407 4.53823 16.1012C4.63689 15.9236 4.61715 15.9431 4.775 15.8444C4.91312 15.7458 4.91313 15.6869 5.09071 15.6474C5.16964 15.5093 5.13018 15.5683 5.24857 15.4894C5.28803 15.4697 5.34722 15.4104 5.36695 15.4104C5.48534 15.3512 5.3867 15.3709 5.50509 15.3512C5.58401 15.2525 5.5248 15.2923 5.64319 15.2331C5.76158 15.1542 5.74185 15.1738 5.86024 15.1344C5.93916 14.9765 6.41274 14.7793 6.64952 14.7003L6.78762 14.6411L7.49795 14.3448L7.715 14.2466C10.872 13.0824 15.4892 12.7271 19.179 12.6284H19.475L22.2966 12.5889H22.928L25.5917 12.6284C25.868 12.6284 26.4205 12.5693 26.6178 12.6877H27.0321C27.2492 12.6877 27.5846 12.6483 27.703 12.7469C28.4133 12.6088 31.8269 13.0429 32.6951 13.181C33.4843 13.2994 34.2144 13.4374 34.9839 13.615C35.7337 13.7729 36.3849 13.99 37.0755 14.2071C37.2136 14.2465 37.2925 14.2659 37.4109 14.3251C37.4306 14.3251 37.5293 14.3646 37.549 14.3646C37.7068 14.4435 37.6279 14.4041 37.6871 14.4633C37.9239 14.4633 38.654 14.8777 38.8908 14.9961C39.0881 15.1145 39.2262 15.1933 39.4432 15.3314C39.6011 15.4301 39.8576 15.5488 39.897 15.6869C40.1141 15.7658 40.0746 15.7261 40.1733 15.9037C40.3311 15.9432 40.3114 15.9433 40.4298 16.0814C40.5285 16.1801 40.6074 16.2391 40.6469 16.3377C40.8244 16.4167 40.7258 16.3379 40.8244 16.5155C41.0217 16.6141 40.9823 16.6337 41.1204 16.8113C41.1993 16.8902 41.2388 16.9101 41.298 16.989C41.3769 17.1074 41.3769 17.1076 41.3967 17.226L41.5348 17.2848L41.5742 17.4626C41.7913 17.5809 42.4424 19.1002 42.4424 19.3567C42.5016 19.4356 42.4227 19.3174 42.5016 19.4752C42.5213 19.5344 42.5411 19.5543 42.5608 19.6135C42.7187 20.3041 43.133 22.1389 43.0146 22.8295C43.0935 22.9478 43.0738 22.9086 43.0738 23.0665C43.0935 23.1849 43.0936 23.3031 43.0936 23.4215L43.133 24.2698H1.81529L1.95341 21.9614ZM23.4015 9.09643C24.3289 8.38609 27.0913 8.1888 28.5514 8.1296C29.4986 8.07041 30.5838 8.09012 31.5506 8.10985C32.5175 8.14931 33.4054 8.26793 34.3328 8.34686C34.4906 8.36659 34.4314 8.34644 34.5104 8.40563C34.8655 8.3859 35.4575 8.54398 35.7929 8.64264C36.2467 8.78076 36.4835 8.93855 36.8584 9.07667V12.2339L36.523 12.1352C36.4243 12.1154 36.4046 12.1154 36.3454 12.0956C36.2664 12.0562 36.2664 12.0561 36.227 12.0166C35.9113 12.0561 35.0628 11.7603 34.6682 11.7011C34.5104 11.6617 34.3525 11.6615 34.2341 11.5826C33.8 11.6023 32.4386 11.3263 31.8663 11.2473C30.5838 11.0895 25.1576 10.6554 24.1513 10.8133C23.9146 10.8725 23.5989 10.8725 23.3621 10.7935C23.3226 10.5765 23.2831 9.17535 23.4015 9.09643ZM11.0891 11.5431L10.5366 11.6419L8.91862 11.9771C8.76077 12.0955 8.52399 12.1155 8.26748 12.1944L8.0899 12.2142V9.56996C8.07017 9.23453 7.99125 9.03713 8.30695 8.99767C8.38588 8.91875 8.34641 8.93834 8.48453 8.85942C8.62265 8.80022 8.64238 8.82036 8.76077 8.7809C8.97781 8.62304 10.142 8.36617 10.438 8.40563C10.5761 8.3267 10.8326 8.30734 11.0299 8.28761C11.9967 8.20868 12.9241 8.12958 13.9304 8.10985C14.9564 8.07039 15.9628 8.12962 16.9691 8.14935C17.1467 8.14935 17.3637 8.12968 17.4624 8.2086C17.9359 8.12968 19.2777 8.36623 19.7709 8.46488C20.2248 8.56354 20.8364 8.7016 21.2508 8.89892C21.3297 8.93838 21.3692 8.95823 21.4481 9.01742C21.606 9.13581 21.5073 9.03731 21.5665 9.17543L21.5468 10.7935C18.1727 10.8133 14.2659 10.9117 11.0891 11.5431ZM9.62896 6.64974C9.5303 6.72867 9.58949 6.68928 9.41191 6.72874C9.35272 6.74848 9.27378 6.76825 9.21458 6.76825L8.0899 7.06402C8.05044 7.10349 8.0899 7.06408 7.99124 7.12328C7.95178 7.14301 7.93204 7.1628 7.89258 7.18253C7.81365 7.20226 7.75446 7.2418 7.67553 7.26153C7.57687 7.32073 7.4585 7.37963 7.32038 7.45856C7.04414 7.59668 6.88628 7.81371 6.66924 7.93209C6.59031 8.20833 6.3338 8.34642 6.29433 8.87917C6.25487 9.62896 6.27461 11.9968 6.27461 12.865L5.40642 13.26L5.26829 13.378L3.98575 14.2071C3.8871 14.286 3.68979 14.4436 3.59113 14.5028V3.31524C3.59113 2.86141 3.53192 2.21002 3.88709 2.0719C3.96602 1.89432 4.00549 1.89457 4.22254 1.83537C4.6369 1.73672 9.55004 1.79587 10.438 1.79587C12.5098 1.77614 14.6013 1.79587 16.6928 1.79587C20.8364 1.79587 24.9998 1.79587 29.1434 1.79587H40.0944C41.7715 1.77614 41.3177 2.78239 41.3572 5.18963C41.3966 8.18882 41.3572 11.4642 41.3572 14.4831L40.2325 13.7138C40.1535 13.6546 39.9365 13.5557 39.897 13.4768C39.7787 13.4373 39.7195 13.3977 39.6208 13.3385C39.463 13.2596 39.5419 13.3586 39.4432 13.2007C39.3051 13.2007 39.1473 13.1216 39.0486 13.023C38.9302 12.9835 38.9697 13.0229 38.871 12.9637C38.7132 12.8848 38.7724 12.9044 38.7329 12.865C38.654 12.8255 38.6934 12.8851 38.654 12.7667C38.654 12.0169 38.654 11.2668 38.654 10.517C38.654 9.4318 38.6934 9.45142 38.5553 8.42538C38.4567 8.30699 38.4764 8.30722 38.3975 8.1691C38.358 8.10991 38.2988 8.03079 38.2396 7.9716C37.8252 7.45858 37.1741 7.28111 36.9768 7.10353C36.8189 7.10353 35.8915 6.80767 35.5758 6.72874C34.1552 6.43277 32.3399 6.33417 30.8798 6.29471C29.2421 6.25525 27.5254 6.31417 25.9074 6.51149C25.5523 6.57068 24.6841 6.76823 24.4078 6.74849C24.3289 6.82742 24.2105 6.84727 24.0921 6.867C23.9737 6.90646 23.8553 6.94554 23.737 6.96527C23.5002 7.0442 23.2634 7.12337 23.0464 7.22203C22.8491 7.32069 22.6517 7.43888 22.4544 7.51781C22.0795 7.30076 21.8033 7.18237 21.3692 7.02452C21.2705 6.98506 21.1916 6.96525 21.0929 6.94552C20.9154 6.88633 20.9746 6.92617 20.8956 6.84725L19.0014 6.51149C18.9028 6.51149 18.7844 6.49173 18.7055 6.49173C18.6463 6.472 18.5673 6.47196 18.5081 6.45223C18.4095 6.4325 18.4489 6.45219 18.3897 6.41273C18.2122 6.45219 16.535 6.33419 16.1798 6.31446C14.8578 6.25527 13.0425 6.31407 11.7205 6.41273C11.168 6.45219 10.0236 6.66947 9.62896 6.64974ZM0 23.5795V35.9709H6.27461C6.55085 33.2875 5.3867 30.6627 7.91233 30.564C8.66212 30.5443 9.5303 30.5443 10.2801 30.564C11.8586 30.6035 13.4371 30.564 15.0156 30.564C19.7117 30.6035 24.4868 30.564 29.2026 30.564C30.7614 30.564 32.3794 30.5246 33.9382 30.564C34.7077 30.5838 35.5167 30.5838 36.2862 30.564C37.0557 30.5443 37.7069 30.525 38.2199 30.9986C38.3185 31.0775 38.358 31.097 38.4172 31.2548C38.8907 31.9454 38.575 34.8857 38.6737 35.9709C40.5285 35.9709 42.3635 35.9709 44.2182 35.9709C45.1456 35.9709 44.9483 36.4049 44.9483 33.9188V25.4934C44.9483 24.1319 44.9286 22.8296 44.751 21.5076C44.7115 21.1722 44.5537 20.5602 44.5931 20.2643C44.5734 20.2445 44.5734 20.2248 44.5734 20.2248C44.5734 20.2248 44.5537 20.2055 44.5537 20.1857L44.455 19.8697C44.3958 19.6132 44.0407 18.4293 44.0407 18.3109C43.9025 18.153 43.8236 17.8574 43.725 17.6601L43.4487 17.068C43.3698 17.0286 43.4093 17.1271 43.3698 16.9693C43.1133 16.6733 43.133 16.5155 43.1528 16.0222V12.4902C43.1133 10.9117 43.1528 9.31361 43.1528 7.75482C43.133 6.19603 43.133 4.57776 43.1528 3.01897C43.1725 1.6575 42.6003 0.552597 41.2585 0.118505C41.1204 0.0790415 41.0415 0.0789259 40.9428 0C40.4298 0.0591944 39.4827 0 38.9105 0H4.5777C3.86737 0 3.49247 0.138564 2.99918 0.454267C1.42066 1.4803 1.79555 3.37443 1.77582 5.28838L1.79556 13.3583C1.79556 14.0291 1.79556 14.7198 1.79556 15.3907C1.77583 16.6929 1.95341 16.2787 1.51932 17.0483C1.02603 17.8967 0.690589 18.9425 0.43408 20.0277C0.177571 21.1327 0.039463 23.4611 0 23.5795Z" fill="#1F2221"/>
</svg>
