<svg width="21" height="21" viewBox="0 0 21 21" fill="none" xmlns="http://www.w3.org/2000/svg">
<path d="M20.0981 13.592H0.772978C0.559518 13.592 0.386475 13.7651 0.386475 13.9785V20.2914C0.386475 20.5049 0.559518 20.6779 0.772978 20.6779H20.0981C20.3116 20.6779 20.4846 20.5049 20.4846 20.2914V13.9785C20.4846 13.7651 20.3116 13.592 20.0981 13.592Z" stroke="#8D8D8D" stroke-width="0.7" stroke-miterlimit="22.9256"/>
<path d="M3.60736 16.684V5.21777H2.19019" stroke="#8D8D8D" stroke-width="0.7" stroke-miterlimit="22.9256"/>
<path d="M4.89563 13.592V16.8129" stroke="#8D8D8D" stroke-width="0.7" stroke-miterlimit="22.9256"/>
<path d="M9.79138 13.592V16.8129" stroke="#8D8D8D" stroke-width="0.7" stroke-miterlimit="22.9256"/>
<path d="M11.0797 13.592V16.8129" stroke="#8D8D8D" stroke-width="0.7" stroke-miterlimit="22.9256"/>
<path d="M16.2332 13.592V16.8129" stroke="#8D8D8D" stroke-width="0.7" stroke-miterlimit="22.9256"/>
<path d="M17.5215 16.684V5.08896H18.9387" stroke="#8D8D8D" stroke-width="0.7" stroke-miterlimit="22.9256"/>
<path d="M0.386475 14.8804H3.60733" stroke="#8D8D8D" stroke-width="0.7" stroke-miterlimit="22.9256"/>
<path d="M17.3926 14.8804H20.4846" stroke="#8D8D8D" stroke-width="0.7" stroke-miterlimit="22.9256"/>
<path d="M6.44165 17.9724V16.6841H2.06128V18.1012H3.22079" stroke="#8D8D8D" stroke-width="0.7" stroke-miterlimit="22.9256"/>
<path d="M8.24536 17.8436V16.6841H12.6257V18.1012" stroke="#8D8D8D" stroke-width="0.7" stroke-miterlimit="22.9256"/>
<path d="M14.5582 17.9724V16.6841H18.8098V18.1012" stroke="#8D8D8D" stroke-width="0.7" stroke-miterlimit="22.9256"/>
<path d="M4.12268 18.1012H19.0675" stroke="#8D8D8D" stroke-width="0.7" stroke-miterlimit="22.9256"/>
<path d="M1.80369 19.5184C1.946 19.5184 2.06136 19.403 2.06136 19.2607C2.06136 19.1184 1.946 19.0031 1.80369 19.0031C1.66138 19.0031 1.54602 19.1184 1.54602 19.2607C1.54602 19.403 1.66138 19.5184 1.80369 19.5184Z" fill="#8D8D8D" stroke="#8D8D8D" stroke-width="0.7" stroke-miterlimit="22.9256"/>
<path d="M9.92027 19.5184C10.0626 19.5184 10.1779 19.403 10.1779 19.2607C10.1779 19.1184 10.0626 19.0031 9.92027 19.0031C9.77796 19.0031 9.6626 19.1184 9.6626 19.2607C9.6626 19.403 9.77796 19.5184 9.92027 19.5184Z" fill="#8D8D8D" stroke="#8D8D8D" stroke-width="0.7" stroke-miterlimit="22.9256"/>
<path d="M19.5827 19.5184C19.725 19.5184 19.8404 19.403 19.8404 19.2607C19.8404 19.1184 19.725 19.0031 19.5827 19.0031C19.4404 19.0031 19.3251 19.1184 19.3251 19.2607C19.3251 19.403 19.4404 19.5184 19.5827 19.5184Z" fill="#8D8D8D" stroke="#8D8D8D" stroke-width="0.7" stroke-miterlimit="22.9256"/>
<path d="M9.27604 6.63498H6.05518V10.5H9.27604V6.63498Z" stroke="#8D8D8D" stroke-width="0.7" stroke-miterlimit="22.9256"/>
<path fill-rule="evenodd" clip-rule="evenodd" d="M5.41101 10.6288H9.92021V11.273C9.92021 11.5307 9.79138 11.6595 9.53371 11.6595H5.79751C5.53985 11.6595 5.41101 11.5307 5.41101 11.273V10.6288V10.6288Z" stroke="#8D8D8D" stroke-width="0.7" stroke-miterlimit="22.9256"/>
<path d="M7.72998 6.63498V10.5" stroke="#8D8D8D" stroke-width="0.7" stroke-miterlimit="22.9256"/>
<path d="M11.8528 13.4632V6.76379H15.589V11.7883" stroke="#8D8D8D" stroke-width="0.7" stroke-miterlimit="22.9256"/>
<path d="M15.589 12.6902V13.592" stroke="#8D8D8D" stroke-width="0.7" stroke-miterlimit="22.9256"/>
<path d="M14.3006 10.1135C14.4429 10.1135 14.5583 9.99812 14.5583 9.85581C14.5583 9.71351 14.4429 9.59814 14.3006 9.59814C14.1583 9.59814 14.043 9.71351 14.043 9.85581C14.043 9.99812 14.1583 10.1135 14.3006 10.1135Z" fill="#8D8D8D" stroke="#8D8D8D" stroke-width="0.7" stroke-miterlimit="22.9256"/>
<path d="M12.1104 1.61041H8.88953V4.96011H12.1104V1.61041Z" stroke="#8D8D8D" stroke-width="0.7" stroke-miterlimit="22.9256"/>
<path d="M10.5643 1.61041V4.96011" stroke="#8D8D8D" stroke-width="0.7" stroke-miterlimit="22.9256"/>
<path d="M8.88953 3.28528H12.1104" stroke="#8D8D8D" stroke-width="0.7" stroke-miterlimit="22.9256"/>
<path d="M3.60728 3.92944L1.67477 5.86196L0.515259 4.83128L4.76679 0.322083H15.9754L20.6134 4.83128L19.5827 5.73312L14.1717 0.450917" stroke="#8D8D8D" stroke-width="0.7" stroke-miterlimit="22.9256"/>
<path d="M4.50916 3.02761L7.08584 0.450928" stroke="#8D8D8D" stroke-width="0.7" stroke-miterlimit="22.9256"/>
</svg>
