<svg width="39" height="36" viewBox="0 0 39 36" fill="none" xmlns="http://www.w3.org/2000/svg">
<path fill-rule="evenodd" clip-rule="evenodd" d="M4.07413 23.1468H34.5037L33.3668 28.0265C33.1773 28.8002 33.0509 29.6845 32.7035 30.3635C31.4718 32.7638 28.4715 32.1477 25.3764 32.1477C21.3339 32.1477 17.2914 32.1477 13.2488 32.1477C11.8118 32.1477 8.57461 32.3531 7.48502 31.832C6.00065 31.1056 5.73221 29.9214 5.27426 28.0106C5.08477 27.2053 4.87947 26.3999 4.67419 25.6104C4.50049 24.9629 4.1215 23.7469 4.07413 23.1468ZM1.31067 21.3942C1.13697 20.4783 2.02127 20.5731 2.70029 20.5731H35.4038C36.0513 20.5731 37.0935 20.3833 37.2514 21.0465C37.4409 21.9466 36.525 21.8519 35.8618 21.8519H3.15824C2.52659 21.8519 1.437 22.0417 1.31067 21.3942ZM14.0542 19.2623L3.34773 19.2939C3.71093 18.2201 4.97423 17.604 6.15856 18.3146C6.4586 18.4883 7.07446 19.2937 7.59557 18.741C7.87981 18.441 8.05349 16.4987 9.99581 16.7513C10.6748 16.8303 11.0538 17.1778 11.3223 17.6041C11.8908 18.5042 13.3278 17.3989 14.0542 19.2623ZM23.9394 7.71882C24.3658 6.09233 27.0819 5.98179 27.5398 7.71882H23.9394ZM0 20.8098V21.6151C0.647438 22.7047 0.378996 23.0995 2.68451 23.1468C3.31616 25.326 3.80567 27.6631 4.38995 29.8739C4.70577 31.074 5.29005 31.8322 6.03223 32.4639C6.806 33.1271 7.97454 33.4269 9.28521 33.4269C9.15888 33.8533 8.82727 34.4378 8.62198 34.8484C8.49566 35.0694 8.35354 35.3063 8.4325 35.6063C8.51145 35.8432 8.76411 36.0326 9.09572 35.9853C9.61683 35.9221 9.77474 35.2747 9.98003 34.8484C10.2011 34.422 10.5327 33.8533 10.6748 33.4269H28.5663C28.7084 33.8691 29.0084 34.3904 29.2137 34.8009C29.419 35.1957 29.6716 35.8905 30.0822 35.9853C30.6823 36.1116 30.9033 35.401 30.6033 34.7851C30.4296 34.4535 29.9559 33.7585 30.0033 33.4111C32.3877 33.1427 33.7458 31.7689 34.2511 29.5898C34.7406 27.5211 35.2933 25.1997 35.8934 23.1626C36.5724 23.0995 37.1409 23.1943 37.6936 22.8469C38.3094 22.4521 38.2147 22.1994 38.5621 21.6151V20.8098C38.3884 20.5097 38.3252 19.9886 37.7251 19.6096C37.204 19.2622 36.6829 19.2939 35.9881 19.2939V6.02944C35.9407 -1.29766 25.7081 -2.38729 25.0922 5.20827C22.8025 5.63463 21.555 8.95063 23.2762 8.998H28.0136C28.961 8.998 29.04 8.53987 28.8347 7.62398C28.6136 6.67651 28.0451 5.9662 27.2714 5.55563C27.0187 5.41351 26.6713 5.35038 26.4502 5.19247C26.166 4.54503 27.1135 2.91827 27.4135 2.55508C27.903 1.93922 28.7557 1.37105 29.9085 1.29209C32.2456 1.14997 33.8879 2.63422 34.4564 4.32387C34.8985 5.61875 34.709 10.0085 34.709 11.6666C34.709 14.209 34.709 16.7357 34.709 19.2781L15.349 19.2939C15.0332 17.8569 14.0226 16.9408 12.6961 16.7671C11.8118 16.6408 12.0961 16.5462 11.5434 16.0882C10.9117 15.5671 9.80632 15.2669 8.7641 15.5512C7.75346 15.8354 7.29553 16.3881 6.82179 17.1461C5.66903 16.7987 5.02159 16.42 3.71093 17.0517C2.84241 17.478 2.28972 18.1411 1.98969 19.2623C0.394783 19.6413 0.694812 19.5623 0 20.8098Z" fill="black"/>
<path fill-rule="evenodd" clip-rule="evenodd" d="M25.4404 12.9142C24.7772 13.2142 24.8561 15.2512 25.9931 14.7774C26.3879 14.6037 26.3879 14.0826 26.3563 13.5615C26.3089 13.0562 25.9615 12.6931 25.4404 12.9142Z" fill="black"/>
<path fill-rule="evenodd" clip-rule="evenodd" d="M22.8664 12.9145C22.4558 13.0882 22.4558 13.6252 22.5032 14.1621C22.5348 14.6674 22.8822 15.0146 23.4348 14.7777C24.0033 14.5093 24.0191 12.4723 22.8664 12.9145Z" fill="black"/>
<path fill-rule="evenodd" clip-rule="evenodd" d="M28.0145 12.9303C27.3513 13.2303 27.446 15.2673 28.5672 14.7777C29.1989 14.4935 29.0883 12.425 28.0145 12.9303Z" fill="black"/>
<path fill-rule="evenodd" clip-rule="evenodd" d="M27.9986 10.3563C27.367 10.6247 27.5249 12.2353 28.5513 11.8248C29.2145 11.5721 29.0093 9.89834 27.9986 10.3563Z" fill="black"/>
<path fill-rule="evenodd" clip-rule="evenodd" d="M25.5036 15.82C25.0614 15.9779 24.9825 16.341 25.093 16.8621C25.172 17.2411 25.5667 17.4938 26.0247 17.2885C26.6089 17.0042 26.4668 15.441 25.5036 15.82Z" fill="black"/>
<path fill-rule="evenodd" clip-rule="evenodd" d="M22.8506 10.3878C22.6453 10.4825 22.5979 10.4194 22.519 10.7826C22.4716 10.9721 22.4716 11.304 22.5505 11.4935C22.6611 11.8251 23.1032 12.0145 23.4822 11.8092C24.0191 11.5092 23.8928 9.89827 22.8506 10.3878Z" fill="black"/>
<path fill-rule="evenodd" clip-rule="evenodd" d="M22.9295 15.8047C22.1084 16.1048 22.4558 17.7469 23.4507 17.2732C24.0191 17.0047 23.8928 15.4573 22.9295 15.8047Z" fill="black"/>
<path fill-rule="evenodd" clip-rule="evenodd" d="M25.4088 10.4035C25.2351 10.4824 25.1562 10.435 25.093 10.7824C24.9035 11.6825 25.4878 12.0933 26.0405 11.8091C26.6247 11.4775 26.4195 9.88235 25.4088 10.4035Z" fill="black"/>
<path fill-rule="evenodd" clip-rule="evenodd" d="M28.1565 15.773C27.3511 15.9309 27.4301 17.5416 28.4565 17.3205C29.1671 17.1626 29.1197 15.5835 28.1565 15.773Z" fill="black"/>
</svg>
