<svg width="21" height="21" viewBox="0 0 21 21" fill="none" xmlns="http://www.w3.org/2000/svg">
<g clip-path="url(#clip0_166_247)">
<path d="M20.4652 15.6441H17.205V12.5984H20.4652C20.7601 12.5984 21 12.3585 21 12.0636V8.7131C21 8.41819 20.7601 8.17825 20.4652 8.17825H17.205V4.98017C17.205 4.68526 16.9651 4.44532 16.6701 4.44532H13.4116V1.24728C13.4116 0.952367 13.1717 0.712433 12.8768 0.712433H11.0867C10.8969 0.712433 10.7431 0.86628 10.7431 1.05605C10.7431 1.24581 10.8969 1.39966 11.0867 1.39966H12.7244V4.44537H9.2713H5.82178V1.39966H9.70082C9.89063 1.39966 10.0444 1.24581 10.0444 1.05605C10.0444 0.86628 9.89063 0.712433 9.70082 0.712433H5.47817H5.47794H-1.92067C-2.21558 0.712433 -2.45552 0.952367 -2.45552 1.24728V4.75297C-2.45671 4.76484 -2.4574 4.77684 -2.4574 4.78898V8.52191C-2.4574 8.53406 -2.45671 8.54606 -2.45547 8.55788V12.2188C-2.45671 12.2307 -2.4574 12.2427 -2.4574 12.2548V13.4714C-2.4574 13.6612 -2.30355 13.815 -2.11378 13.815C-1.92402 13.815 -1.77017 13.6612 -1.77017 13.4714V12.5984H1.33762V15.6441H-1.77017V14.8506C-1.77017 14.6609 -1.92402 14.507 -2.11378 14.507C-2.30355 14.507 -2.4574 14.6609 -2.4574 14.8506V15.9877C-2.4574 15.9999 -2.45671 16.0119 -2.45547 16.0237V19.5294C-2.45547 19.8243 -2.21554 20.0642 -1.92063 20.0642H5.47798H5.47821H13.0664H13.0681H20.4652C20.7601 20.0642 21 19.8243 21 19.5294V16.1789C21 15.884 20.7601 15.6441 20.4652 15.6441ZM16.8614 8.86548H20.3128V11.9112H16.8614H13.4116V8.86548H16.8614ZM9.61492 5.1326H13.068H16.5178V8.1783H13.068H13.0663H9.61492V5.1326ZM12.7227 8.86548V11.9112H9.27153H9.2713H5.82178V8.86548H9.2713H12.7227ZM8.92769 5.1326V8.1783H5.47817H5.47794H2.02484V5.1326H8.92769ZM-1.76824 1.39966H5.13437V4.44537H1.68128H-1.76824V1.39966ZM-1.77017 5.13255H1.33762V8.17825H-1.77017V5.13255ZM-1.76824 11.9112V8.86548H1.68128H5.13437V11.9112H1.68146H1.68123H-1.76824ZM5.13437 19.377H-1.76824V16.3314H1.68128H1.68151H5.13437V19.377ZM5.47817 15.6441H5.47794H2.02507V12.5984H5.47794H5.47817H8.92769V15.6441H5.47817ZM12.7227 19.377H5.82178V16.3314H9.2713H9.27153H12.7227V19.377ZM13.068 15.6441H13.0663H9.61519V12.5984H13.0663H13.068H16.5178V15.6441H13.068ZM20.3128 19.377H13.4116V16.3314H16.8614H20.3128V19.377Z" fill="#8D8D8D"/>
</g>
<defs>
<clipPath id="clip0_166_247">
<rect width="23.4574" height="23.4574" fill="white" transform="translate(-2.4574 -1.34042)"/>
</clipPath>
</defs>
</svg>
