<svg width="21" height="21" viewBox="0 0 21 21" fill="none" xmlns="http://www.w3.org/2000/svg">
<g clip-path="url(#clip0_166_251)">
<path d="M0.338779 10.8277C0.151559 10.8277 0 10.6761 0 10.4887V5.06615C0 4.87901 0.151559 4.72736 0.338779 4.72736H5.75809C5.94511 4.72736 6.09667 4.87901 6.09667 5.06615C6.09667 5.25348 5.94511 5.40513 5.75809 5.40513H0.677365V10.4887C0.677365 10.6761 0.525806 10.8277 0.338779 10.8277Z" fill="#8D8D8D"/>
<path d="M0.338779 14.2168C0.151559 14.2168 0 14.0652 0 13.878V10.1354C0 10.0038 0.076361 9.88353 0.195748 9.82806L2.9054 8.56734C2.9961 8.52565 3.10057 8.52565 3.19127 8.56734L5.53831 9.65915C5.70808 9.73828 5.78154 9.93977 5.70285 10.1096C5.62378 10.2793 5.42299 10.3534 5.25263 10.2741L3.04843 9.24842L0.677365 10.3517V13.8782C0.677365 14.0652 0.525806 14.2168 0.338779 14.2168Z" fill="#8D8D8D"/>
<path d="M0.338779 18.3256C0.151559 18.3256 0 18.1739 0 17.9866V13.7095C0 13.5963 0.0562048 13.4908 0.15059 13.4279L2.69085 11.727C2.80462 11.651 2.95347 11.651 3.06743 11.727L5.60769 13.4279C5.70188 13.4908 5.75809 13.5963 5.75809 13.7095V17.6206C5.75809 17.8078 5.60653 17.9594 5.41931 17.9594C5.23209 17.9594 5.08053 17.8078 5.08053 17.6206V13.8905L2.87904 12.4164L0.677365 13.8905V17.9866C0.677365 18.1739 0.525806 18.3256 0.338779 18.3256Z" fill="#8D8D8D"/>
<path d="M5.41935 10.8277C5.23213 10.8277 5.08057 10.6761 5.08057 10.4887V5.06615C5.08057 4.87901 5.23213 4.72736 5.41935 4.72736H10.8387C11.0259 4.72736 11.1774 4.87901 11.1774 5.06615C11.1774 5.25348 11.0259 5.40513 10.8387 5.40513H5.75813V10.4887C5.75813 10.6761 5.60657 10.8277 5.41935 10.8277Z" fill="#8D8D8D"/>
<path d="M5.41935 14.2168C5.23213 14.2168 5.08057 14.0652 5.08057 13.878V10.1354C5.08057 10.0038 5.15693 9.88353 5.27651 9.82806L7.98616 8.56734C8.07667 8.52565 8.18113 8.52565 8.27203 8.56734L10.6191 9.65915C10.7886 9.73828 10.8623 9.93977 10.7834 10.1096C10.7043 10.2793 10.5039 10.3534 10.3334 10.2741L8.129 9.24842L5.75813 10.3517V13.8782C5.75813 14.0652 5.60657 14.2168 5.41935 14.2168Z" fill="#8D8D8D"/>
<path d="M5.41935 17.9866C5.23213 17.9866 5.08057 17.8349 5.08057 17.6478V13.7095C5.08057 13.5963 5.13696 13.4908 5.23116 13.4279L7.77142 11.727C7.88538 11.651 8.03423 11.651 8.14799 11.727L10.6883 13.4279C10.7824 13.4908 10.8387 13.5963 10.8387 13.7095V17.6206C10.8387 17.8078 10.6871 17.9594 10.4999 17.9594C10.3128 17.9594 10.1613 17.8078 10.1613 17.6206V13.8905L7.95961 12.4164L5.75813 13.8905V17.6478C5.75813 17.8349 5.60657 17.9866 5.41935 17.9866Z" fill="#8D8D8D"/>
<path d="M10.4998 10.8277C10.3128 10.8277 10.1613 10.6761 10.1613 10.4887V5.06615C10.1613 4.87901 10.3128 4.72736 10.4998 4.72736H13.2095C13.3967 4.72736 13.5483 4.87901 13.5483 5.06615C13.5483 5.25348 13.3967 5.40513 13.2095 5.40513H10.8386V10.4887C10.8386 10.6761 10.6871 10.8277 10.4998 10.8277Z" fill="#8D8D8D"/>
<path d="M10.4998 14.2168C10.3128 14.2168 10.1613 14.0652 10.1613 13.878V10.1354C10.1613 10.0038 10.2376 9.88352 10.357 9.82805L12.8973 8.64607C13.0676 8.5683 13.2684 8.64102 13.3475 8.81052C13.4262 8.9804 13.3527 9.18189 13.1829 9.26101L10.8386 10.3515V13.878C10.8386 14.0652 10.6871 14.2168 10.4998 14.2168Z" fill="#8D8D8D"/>
<path d="M10.4998 17.9866C10.3128 17.9866 10.1613 17.8349 10.1613 17.6478V13.7095C10.1613 13.5963 10.2175 13.4908 10.3118 13.4279L12.8521 11.727C12.9659 11.651 13.1147 11.651 13.2285 11.727L15.7689 13.4279C15.8631 13.4908 15.9193 13.5963 15.9193 13.7095V17.6206C15.9193 17.8078 15.7678 17.9594 15.5808 17.9594C15.3935 17.9594 15.242 17.8078 15.242 17.6206V13.8905L13.0405 12.4164L10.8386 13.8905V17.6478C10.8386 17.8349 10.6871 17.9866 10.4998 17.9866Z" fill="#8D8D8D"/>
<path d="M20.661 14.2168C20.474 14.2168 20.3224 14.0652 20.3224 13.878V5.40513H18.1086C17.9215 5.40513 17.7698 5.25348 17.7698 5.06615C17.7698 4.87901 17.9215 4.72736 18.1086 4.72736H20.661C20.8482 4.72736 20.9998 4.87901 20.9998 5.06615V13.878C20.9998 14.0652 20.8482 14.2168 20.661 14.2168Z" fill="#8D8D8D"/>
<path d="M20.6368 10.3055C20.5893 10.3055 20.5407 10.2952 20.4944 10.2739L18.2902 9.24836L18.2512 9.26659C18.0822 9.3463 17.8807 9.27183 17.8014 9.10156C17.7227 8.93188 17.7965 8.73077 17.9661 8.65165L18.1477 8.5671C18.2377 8.5254 18.3425 8.5254 18.4332 8.5671L20.7802 9.65891C20.95 9.73803 21.0235 9.93952 20.9448 10.1094C20.887 10.2329 20.7646 10.3055 20.6368 10.3055Z" fill="#8D8D8D"/>
<path d="M15.5806 14.2168C15.3934 14.2168 15.2418 14.0652 15.2418 13.878V10.1354C15.2418 9.9481 15.3934 9.79645 15.5806 9.79645C15.7676 9.79645 15.9192 9.9481 15.9192 10.1354V13.878C15.9192 14.0652 15.7676 14.2168 15.5806 14.2168Z" fill="#8D8D8D"/>
<path d="M20.6611 18.2984C20.4741 18.2984 20.3225 18.1468 20.3225 17.9594V13.8905L18.1209 12.4164L15.9192 13.8905V17.6478C15.9192 17.8349 15.7676 17.9866 15.5806 17.9866C15.3934 17.9866 15.2418 17.8349 15.2418 17.6478V13.7095C15.2418 13.5963 15.298 13.4908 15.3924 13.4279L17.9327 11.727C18.0464 11.651 18.1955 11.651 18.3092 11.727L20.8495 13.4279C20.9439 13.4908 21.0001 13.5963 21.0001 13.7095V17.9594C20.9999 18.1468 20.8483 18.2984 20.6611 18.2984Z" fill="#8D8D8D"/>
<path d="M20.6611 20.061C20.5965 20.061 20.532 20.0426 20.4762 20.0061L18.051 18.4248L15.6672 19.9537C15.553 20.0263 15.4073 20.0247 15.2958 19.9503L13.0273 18.4291L10.745 19.9506C10.6314 20.0263 10.4839 20.0263 10.3698 19.9512L8.06074 18.4198L5.39934 19.9619C5.28228 20.0298 5.13557 20.0212 5.02684 19.94L3.012 18.4326L0.519604 20.009C0.414753 20.0746 0.282768 20.0788 0.175204 20.0193C0.0670581 19.9598 0 19.8461 0 19.7224V17.9869C0 17.8706 0.0596934 17.7626 0.157761 17.7003L2.84978 15.9996C2.96664 15.9253 3.11665 15.9298 3.22945 16.0118L5.32279 17.5293L7.94465 15.9936C8.05609 15.9284 8.19563 15.9321 8.30319 16.004L10.5911 17.5264L12.8823 16.004C12.9961 15.9286 13.1438 15.9288 13.2568 16.0036L15.5559 17.5273L17.8683 16.0033C17.9811 15.9286 18.1266 15.9288 18.2394 16.0023L20.846 17.703C20.9417 17.7657 20.9997 17.8725 20.9997 17.9871V19.7226C20.9997 19.8471 20.9316 19.9613 20.8223 20.0207C20.7719 20.0474 20.7167 20.061 20.6611 20.061ZM13.0281 17.6825C13.094 17.6825 13.1597 17.7015 13.2165 17.7397L15.4885 19.2634L17.8698 17.736C17.9826 17.6641 18.1262 17.664 18.2377 17.7374L20.3225 19.0968V18.1702L18.0557 16.6909L15.742 18.216C15.6284 18.291 15.4817 18.2902 15.3689 18.2158L13.0703 16.6927L10.7789 18.2154C10.6648 18.291 10.5173 18.2904 10.4037 18.2154L8.10415 16.6853L5.47435 18.2257C5.35845 18.2935 5.21367 18.2869 5.10456 18.2076L3.01762 16.695L0.677365 18.1733V19.1071L2.84726 17.7348C2.96529 17.6604 3.1182 17.6652 3.231 17.75L5.2536 19.2632L7.90298 17.7282C8.01384 17.6637 8.1526 17.6677 8.25978 17.7387L10.5564 19.2618L12.8401 17.7393C12.8969 17.7013 12.9626 17.6825 13.0281 17.6825Z" fill="#8D8D8D"/>
<path d="M17.9514 3.37164H13.2094C13.0224 3.37164 12.8708 3.21999 12.8708 3.03285V1.33812C12.8708 1.15098 13.0224 0.999329 13.2094 0.999329H17.9514C18.1386 0.999329 18.2902 1.15098 18.2902 1.33812V3.03285C18.2902 3.21999 18.1386 3.37164 17.9514 3.37164ZM13.5482 2.69387H17.6128V1.6771H13.5482V2.69387Z" fill="#8D8D8D"/>
<path d="M15.5669 10.3055C15.5288 10.3055 15.4906 10.2993 15.4541 10.2863L13.0966 9.45299C12.9614 9.4049 12.8708 9.2769 12.8708 9.1332V3.03283C12.8708 2.8455 13.0224 2.69385 13.2094 2.69385H17.9514C18.1386 2.69385 18.2902 2.8455 18.2902 3.03283V9.1332C18.2902 9.27729 18.1993 9.40548 18.0632 9.45338L15.6788 10.2867C15.6423 10.2993 15.6047 10.3055 15.5669 10.3055ZM13.5482 8.89351L15.5675 9.60755L17.6128 8.89254V3.37162H13.5482V8.89351Z" fill="#8D8D8D"/>
<path d="M17.9514 5.06614H15.9192C15.7321 5.06614 15.5806 4.91449 15.5806 4.72735C15.5806 4.54002 15.7321 4.38837 15.9192 4.38837H17.9514C18.1387 4.38837 18.2902 4.54002 18.2902 4.72735C18.2902 4.91449 18.1387 5.06614 17.9514 5.06614Z" fill="#8D8D8D"/>
<path d="M15.2417 6.76092H13.2094C13.0224 6.76092 12.8708 6.60907 12.8708 6.42193C12.8708 6.2346 13.0224 6.08295 13.2094 6.08295H15.2417C15.4289 6.08295 15.5805 6.2346 15.5805 6.42193C15.5805 6.60907 15.4289 6.76092 15.2417 6.76092Z" fill="#8D8D8D"/>
</g>
<defs>
<clipPath id="clip0_166_251">
<rect width="21" height="21" fill="white"/>
</clipPath>
</defs>
</svg>
