<svg width="23" height="19" viewBox="0 0 23 19" fill="none" xmlns="http://www.w3.org/2000/svg">
<path fill-rule="evenodd" clip-rule="evenodd" d="M3.4315 15.2668L3.21954 15.35C2.98741 15.5374 2.6039 15.6313 2.40204 16.2978C2.25065 16.8289 2.29102 17.4537 2.29102 18.0368L0.908331 18.0264L0.918425 13.7673H22.0625L22.0726 18.0368C21.8304 18.0368 20.8514 18.0576 20.6899 18.016C20.6899 17.7348 20.7101 16.9642 20.6697 16.7143C20.6495 16.5789 20.6091 16.4645 20.6091 16.3395L20.4275 15.9228C20.4073 15.9124 20.4174 15.9436 20.377 15.8707C20.3165 15.7874 20.3568 15.8604 20.3467 15.7875L20.1651 15.6208C20.155 15.6208 20.1449 15.6002 20.1449 15.5897C20.1045 15.5481 20.1348 15.5897 20.1045 15.5376C20.044 15.5272 20.0944 15.548 20.0238 15.5063C19.9935 15.4855 19.9733 15.4751 19.9531 15.4542C19.9027 15.4334 19.8522 15.4021 19.8017 15.3813L19.6403 15.2877C19.5091 15.2981 19.2971 15.1835 18.742 15.1835H15.6638C12.9589 15.1835 10.1532 15.1522 7.44836 15.1835C6.92354 15.1939 4.29947 15.1522 3.87557 15.1939C3.73428 15.2043 3.5627 15.2668 3.4315 15.2668ZM0.999168 11.5907C1.00926 11.4762 1.00926 11.299 1.05972 11.2261C1.03954 10.9866 1.21111 10.362 1.29186 10.1329C1.35241 9.91421 1.59463 9.31009 1.70565 9.2372C1.73593 9.14347 1.7662 9.08105 1.84695 9.03939C1.86713 8.93526 2.20019 8.57077 2.27084 8.5187C2.32131 8.49787 2.27084 8.51868 2.3213 8.49785C2.37176 8.40413 2.36167 8.41441 2.44241 8.36234C2.51306 8.31027 2.51306 8.27918 2.60389 8.25836C2.64426 8.18546 2.62408 8.21662 2.68464 8.17496C2.70482 8.16455 2.7351 8.13327 2.74519 8.13327C2.80575 8.10203 2.75529 8.11241 2.81585 8.102C2.85622 8.04993 2.82593 8.07095 2.88649 8.03971C2.94704 7.99805 2.93695 8.00841 2.99751 7.98759C3.03788 7.90428 3.28011 7.80017 3.40122 7.75851L3.47186 7.72724L3.8352 7.57088L3.94621 7.51901C5.56104 6.9046 7.92271 6.71708 9.81003 6.66501H9.96143L11.4047 6.64416H11.7276L13.0901 6.66501C13.2314 6.66501 13.514 6.6338 13.615 6.69628H13.8269C13.9379 6.69628 14.1095 6.67548 14.1701 6.72755C14.5334 6.65466 16.2794 6.88373 16.7235 6.95663C17.1272 7.01911 17.5006 7.09198 17.8942 7.1857C18.2778 7.26901 18.6108 7.38361 18.9641 7.49817C19.0347 7.51899 19.0751 7.52921 19.1356 7.56046C19.1457 7.56046 19.1962 7.5813 19.2063 7.5813C19.287 7.62296 19.2466 7.60218 19.2769 7.63342C19.398 7.63342 19.7715 7.85214 19.8926 7.91462C19.9935 7.9771 20.0641 8.01867 20.1752 8.09157C20.2559 8.14364 20.3871 8.20631 20.4073 8.2792C20.5183 8.32086 20.4981 8.29989 20.5486 8.39361C20.6293 8.41444 20.6192 8.41453 20.6798 8.48743C20.7303 8.5395 20.7706 8.57062 20.7908 8.62269C20.8817 8.66434 20.8312 8.62278 20.8816 8.7165C20.9826 8.76857 20.9624 8.77888 21.033 8.87261C21.0734 8.91427 21.0936 8.92477 21.1239 8.96643C21.1642 9.02891 21.1643 9.02903 21.1743 9.09151L21.245 9.12253L21.2652 9.21635C21.3762 9.27883 21.7093 10.0807 21.7093 10.216C21.7395 10.2577 21.6992 10.1953 21.7395 10.2786C21.7496 10.3098 21.7597 10.3203 21.7698 10.3515C21.8505 10.716 22.0625 11.6844 22.0019 12.0489C22.0423 12.1114 22.0322 12.0907 22.0322 12.174C22.0423 12.2365 22.0423 12.2989 22.0423 12.3613L22.0625 12.8091H0.92852L0.999168 11.5907ZM11.9699 4.80089C12.4442 4.42599 13.8572 4.32186 14.604 4.29062C15.0885 4.25938 15.6436 4.26979 16.1381 4.2802C16.6327 4.30103 17.0868 4.36363 17.5612 4.40529C17.6419 4.4157 17.6116 4.40506 17.652 4.43631C17.8337 4.42589 18.1364 4.50932 18.308 4.56139C18.5402 4.63429 18.6613 4.71757 18.853 4.79047V6.45678L18.6815 6.40466C18.631 6.39425 18.6209 6.39423 18.5906 6.38381C18.5502 6.36299 18.5502 6.36295 18.5301 6.34212C18.3686 6.36295 17.9346 6.20683 17.7328 6.17559C17.652 6.15476 17.5713 6.1547 17.5107 6.11304C17.2887 6.12346 16.5923 5.97775 16.2996 5.93609C15.6436 5.85278 12.8681 5.62371 12.3534 5.70702C12.2323 5.73826 12.0708 5.73825 11.9497 5.69659C11.9295 5.58204 11.9093 4.84255 11.9699 4.80089ZM5.67206 6.0922L5.38947 6.14432L4.56187 6.32127C4.48112 6.38375 4.36001 6.39428 4.22881 6.43593L4.13798 6.44636V5.05081C4.12788 4.87378 4.08751 4.7696 4.249 4.74877C4.28937 4.70712 4.26918 4.71746 4.33983 4.6758C4.41048 4.64456 4.42057 4.65519 4.48112 4.63436C4.59214 4.55105 5.18761 4.41548 5.339 4.43631C5.40965 4.39465 5.54086 4.38443 5.64179 4.37402C6.13632 4.33236 6.61066 4.29061 7.12539 4.2802C7.6502 4.25937 8.16494 4.29063 8.67966 4.30105C8.7705 4.30105 8.88151 4.29066 8.93198 4.33232C9.1742 4.29066 9.8605 4.41551 10.1128 4.46758C10.3449 4.51965 10.6578 4.59251 10.8698 4.69665C10.9101 4.71748 10.9303 4.72795 10.9707 4.75919C11.0514 4.82168 11.001 4.76969 11.0312 4.84259L11.0211 5.69659C9.2953 5.70701 7.29698 5.75895 5.67206 6.0922ZM4.9252 3.50959C4.87474 3.55124 4.90502 3.53045 4.81418 3.55128C4.7839 3.5617 4.74353 3.57213 4.71325 3.57213L4.13798 3.72824C4.11779 3.74906 4.13797 3.72827 4.08751 3.75951C4.06733 3.76992 4.05723 3.78037 4.03705 3.79078C3.99667 3.80119 3.9664 3.82206 3.92603 3.83248C3.87556 3.86372 3.81501 3.89481 3.74437 3.93646C3.60307 4.00936 3.52233 4.1239 3.41131 4.18638C3.37094 4.33218 3.23973 4.40505 3.21954 4.68623C3.19936 5.08195 3.20946 6.33163 3.20946 6.78984L2.76538 6.99832L2.69472 7.06061L2.03871 7.49817C1.98825 7.53982 1.88732 7.62303 1.83686 7.65427V1.74971C1.83686 1.51019 1.80657 1.1664 1.98824 1.0935C2.02861 0.999779 2.0488 0.999911 2.15982 0.96867C2.37177 0.916601 4.88483 0.947822 5.339 0.947822C6.39873 0.937408 7.46855 0.947822 8.53837 0.947822C10.6578 0.947822 12.7874 0.947822 14.9068 0.947822H20.5082C21.3661 0.937408 21.134 1.46848 21.1542 2.73897C21.1743 4.32187 21.1542 6.05053 21.1542 7.64385L20.5789 7.23782C20.5385 7.20658 20.4275 7.15439 20.4073 7.11273C20.3467 7.0919 20.3165 7.07101 20.266 7.03976C20.1853 6.99811 20.2256 7.05036 20.1752 6.96705C20.1045 6.96705 20.0238 6.9253 19.9733 6.87323C19.9128 6.85241 19.933 6.8732 19.8825 6.84196C19.8017 6.80031 19.832 6.81067 19.8118 6.78984C19.7715 6.76901 19.7917 6.80046 19.7715 6.73798C19.7715 6.34225 19.7715 5.94638 19.7715 5.55066C19.7715 4.9779 19.7917 4.98825 19.721 4.44673C19.6705 4.38425 19.6806 4.38437 19.6403 4.31147C19.6201 4.28023 19.5898 4.23847 19.5595 4.20723C19.3476 3.93647 19.0145 3.84281 18.9136 3.74908C18.8328 3.74908 18.3585 3.59294 18.197 3.55128C17.4703 3.39507 16.5418 3.34303 15.795 3.32221C14.9573 3.30138 14.0792 3.33248 13.2516 3.43662C13.07 3.46786 12.6259 3.57212 12.4846 3.56171C12.4442 3.60336 12.3837 3.61384 12.3231 3.62425C12.2625 3.64508 12.202 3.6657 12.1414 3.67612C12.0203 3.71777 11.8992 3.75956 11.7882 3.81163C11.6873 3.8637 11.5863 3.92608 11.4854 3.96773C11.2937 3.85318 11.1524 3.7907 10.9303 3.70739C10.8799 3.68656 10.8395 3.67611 10.789 3.66569C10.6982 3.63445 10.7285 3.65548 10.6881 3.61383L9.7192 3.43662C9.66874 3.43662 9.60819 3.42619 9.56782 3.42619C9.53754 3.41578 9.49716 3.41576 9.46689 3.40535C9.41642 3.39493 9.43661 3.40532 9.40633 3.3845C9.3155 3.40532 8.45763 3.34305 8.27596 3.33263C7.59976 3.30139 6.67122 3.33243 5.99502 3.3845C5.71242 3.40532 5.12705 3.52 4.9252 3.50959ZM0 12.4447V18.9847H3.20946C3.35075 17.5684 2.75529 16.1831 4.04715 16.131C4.43067 16.1206 4.87474 16.1206 5.25826 16.131C6.06567 16.1519 6.87308 16.131 7.68049 16.131C10.0825 16.1519 12.525 16.131 14.9371 16.131C15.7344 16.131 16.562 16.1102 17.3593 16.131C17.7529 16.1414 18.1667 16.1414 18.5603 16.131C18.954 16.1206 19.287 16.1104 19.5494 16.3604C19.5999 16.402 19.6201 16.4123 19.6503 16.4956C19.8926 16.8601 19.7311 18.4119 19.7816 18.9847C20.7303 18.9847 21.6689 18.9847 22.6176 18.9847C23.0919 18.9847 22.991 19.2137 22.991 17.9016V13.4549C22.991 12.7363 22.9809 12.049 22.8901 11.3512C22.8699 11.1742 22.7892 10.8512 22.8093 10.695C22.7993 10.6846 22.7993 10.6742 22.7993 10.6742C22.7993 10.6742 22.7892 10.664 22.7892 10.6536L22.7387 10.4868C22.7084 10.3514 22.5268 9.72655 22.5268 9.66407C22.4561 9.58076 22.4157 9.42473 22.3653 9.32059L22.224 9.00812C22.1836 8.98729 22.2038 9.03931 22.1836 8.956C22.0524 8.79979 22.0625 8.7165 22.0726 8.45616V6.59204C22.0524 5.75893 22.0726 4.91551 22.0726 4.09282C22.0625 3.27013 22.0625 2.41604 22.0726 1.59335C22.0827 0.874793 21.79 0.291648 21.1037 0.062544C21.033 0.0417164 20.9927 0.0416554 20.9422 0C20.6798 0.0312415 20.1953 0 19.9027 0H2.34149C1.97816 0 1.78639 0.0731308 1.53408 0.239752C0.726666 0.781272 0.918423 1.78095 0.908331 2.79109L0.918425 7.05019C0.918425 7.40426 0.918425 7.76877 0.918425 8.12284C0.908333 8.81016 0.999167 8.59156 0.777129 8.9977C0.524813 9.44549 0.353236 9.99744 0.222031 10.5702C0.0908272 11.1534 0.0201853 12.3823 0 12.4447Z" fill="#8D8D8D"/>
</svg>
