<svg width="22" height="23" viewBox="0 0 22 23" fill="none" xmlns="http://www.w3.org/2000/svg">
<path fill-rule="evenodd" clip-rule="evenodd" d="M2.32433 14.7883H19.6847L19.036 17.9058C18.9279 18.4001 18.8559 18.9651 18.6577 19.3989C17.955 20.9324 16.2432 20.5388 14.4775 20.5388C12.1712 20.5388 9.86487 20.5388 7.55856 20.5388C6.73874 20.5388 4.89189 20.67 4.27027 20.3371C3.42342 19.873 3.27027 19.1164 3.00901 17.8957C2.9009 17.3812 2.78378 16.8666 2.66667 16.3622C2.56757 15.9485 2.35135 15.1716 2.32433 14.7883ZM0.747749 13.6685C0.64865 13.0834 1.15315 13.1439 1.54054 13.1439H20.1982C20.5676 13.1439 21.1622 13.0226 21.2523 13.4464C21.3604 14.0214 20.8378 13.9609 20.4595 13.9609H1.8018C1.44144 13.9609 0.819821 14.0822 0.747749 13.6685ZM8.01802 12.3065L1.90991 12.3266C2.11712 11.6406 2.83784 11.247 3.51351 11.701C3.68468 11.812 4.03604 12.3265 4.33334 11.9734C4.4955 11.7818 4.59459 10.5408 5.7027 10.7022C6.09008 10.7527 6.30631 10.9747 6.45946 11.2471C6.78379 11.8221 7.6036 11.116 8.01802 12.3065ZM13.6576 4.93147C13.9009 3.89232 15.4504 3.8217 15.7117 4.93147H13.6576ZM0 13.2951V13.8097C0.369369 14.5058 0.21622 14.758 1.53154 14.7883C1.8919 16.1805 2.17117 17.6737 2.5045 19.0861C2.68468 19.8529 3.01802 20.3373 3.44144 20.7408C3.88288 21.1645 4.54955 21.3561 5.29729 21.3561C5.22522 21.6285 5.03603 22.0019 4.91892 22.2642C4.84684 22.4055 4.76577 22.5568 4.81081 22.7485C4.85586 22.8998 5 23.0209 5.18919 22.9906C5.48649 22.9502 5.57657 22.5366 5.69369 22.2642C5.81982 21.9918 6.00901 21.6285 6.09009 21.3561H16.2973C16.3784 21.6386 16.5496 21.9716 16.6667 22.2339C16.7838 22.4861 16.9279 22.9301 17.1622 22.9906C17.5045 23.0713 17.6306 22.6173 17.4595 22.2238C17.3604 22.012 17.0901 21.5679 17.1171 21.346C18.4775 21.1745 19.2522 20.2968 19.5405 18.9046C19.8198 17.5829 20.1351 16.0998 20.4775 14.7984C20.8649 14.758 21.1892 14.8186 21.5045 14.5966C21.8559 14.3444 21.8018 14.183 22 13.8097V13.2951C21.9009 13.1034 21.8649 12.7705 21.5225 12.5284C21.2252 12.3064 20.9279 12.3266 20.5315 12.3266V3.85214C20.5045 -0.829063 14.6667 -1.52521 14.3153 3.32751C13.009 3.59991 12.2973 5.71846 13.2793 5.74872H15.982C16.5225 5.74872 16.5676 5.45603 16.4504 4.87088C16.3243 4.26555 16 3.81174 15.5586 3.54943C15.4144 3.45863 15.2162 3.4183 15.0901 3.31741C14.9279 2.90377 15.4685 1.86445 15.6396 1.63241C15.9189 1.23895 16.4054 0.875946 17.0631 0.825502C18.3964 0.734703 19.3333 1.68297 19.6577 2.76247C19.9099 3.58976 19.8018 6.39435 19.8018 7.45367C19.8018 9.07797 19.8018 10.6923 19.8018 12.3165L8.75675 12.3266C8.57657 11.4086 8 10.8233 7.24324 10.7123C6.73874 10.6316 6.9009 10.5712 6.58559 10.2786C6.22523 9.94566 5.59459 9.75388 4.99999 9.93548C4.42342 10.1171 4.16216 10.4702 3.89189 10.9545C3.23423 10.7325 2.86486 10.4906 2.11712 10.8941C1.62162 11.1665 1.30631 11.5901 1.13514 12.3065C0.225227 12.5486 0.396396 12.4981 0 13.2951Z" fill="#8D8D8D"/>
<path fill-rule="evenodd" clip-rule="evenodd" d="M14.514 8.25074C14.1356 8.44242 14.1806 9.74381 14.8293 9.44115C15.0545 9.33017 15.0545 8.99722 15.0365 8.66429C15.0095 8.34145 14.8113 8.10949 14.514 8.25074Z" fill="#8D8D8D"/>
<path fill-rule="evenodd" clip-rule="evenodd" d="M13.0455 8.25093C12.8112 8.3619 12.8112 8.70496 12.8383 9.04798C12.8563 9.37082 13.0545 9.59267 13.3698 9.44134C13.6941 9.26983 13.7031 7.96844 13.0455 8.25093Z" fill="#8D8D8D"/>
<path fill-rule="evenodd" clip-rule="evenodd" d="M15.9825 8.26103C15.6041 8.45271 15.6582 9.75409 16.2978 9.44134C16.6582 9.25974 16.5951 7.93819 15.9825 8.26103Z" fill="#8D8D8D"/>
<path fill-rule="evenodd" clip-rule="evenodd" d="M15.9735 6.61652C15.6131 6.78803 15.7032 7.81702 16.2888 7.55471C16.6671 7.39329 16.55 6.32394 15.9735 6.61652Z" fill="#8D8D8D"/>
<path fill-rule="evenodd" clip-rule="evenodd" d="M14.55 10.1072C14.2978 10.2081 14.2527 10.4401 14.3158 10.773C14.3608 11.0151 14.586 11.1766 14.8473 11.0454C15.1806 10.8638 15.0996 9.86509 14.55 10.1072Z" fill="#8D8D8D"/>
<path fill-rule="evenodd" clip-rule="evenodd" d="M13.0364 6.63665C12.9193 6.69718 12.8923 6.65683 12.8473 6.88887C12.8202 7.00994 12.8202 7.222 12.8653 7.34306C12.9283 7.55493 13.1806 7.67594 13.3968 7.54479C13.7031 7.3531 13.631 6.3239 13.0364 6.63665Z" fill="#8D8D8D"/>
<path fill-rule="evenodd" clip-rule="evenodd" d="M13.0815 10.0975C12.613 10.2891 12.8112 11.3383 13.3788 11.0357C13.7031 10.8641 13.6311 9.87551 13.0815 10.0975Z" fill="#8D8D8D"/>
<path fill-rule="evenodd" clip-rule="evenodd" d="M14.496 6.64665C14.3969 6.6971 14.3518 6.66682 14.3158 6.88877C14.2077 7.46384 14.541 7.72629 14.8563 7.54469C15.1896 7.33283 15.0725 6.31372 14.496 6.64665Z" fill="#8D8D8D"/>
<path fill-rule="evenodd" clip-rule="evenodd" d="M16.0635 10.0772C15.604 10.1781 15.6491 11.2071 16.2347 11.0659C16.6401 10.965 16.6131 9.95614 16.0635 10.0772Z" fill="#8D8D8D"/>
</svg>
